<?xml version="1.0" encoding="utf-8"?>
<!-- Generator: Adobe Illustrator 22.1.0, SVG Export Plug-In . SVG Version: 6.00 Build 0)  -->
<svg version="1.1" id="Capa_1" xmlns="http://www.w3.org/2000/svg" xmlns:xlink="http://www.w3.org/1999/xlink" x="0px" y="0px"
	 viewBox="0 0 2813.9 1445.1" style="enable-background:new 0 0 2813.9 1445.1;" xml:space="preserve">
<style type="text/css">
	.st0{clip-path:url(#SVGID_2_);fill:#FFFFFF;fill-opacity:0;}
	.st1{fill:#3B30F4;}
</style>
<g>
	<g>
		<defs>
			<rect id="SVGID_1_" x="-1560.5" y="-3198.4" width="499" height="373"/>
		</defs>
		<clipPath id="SVGID_2_">
			<use xlink:href="#SVGID_1_"  style="overflow:visible;"/>
		</clipPath>
		<rect x="-1560.5" y="-3198.4" class="st0" width="499" height="373"/>
	</g>
</g>
<g>
	<g>
		<path class="st1" d="M1175.8,235.4c-12.4,0-22.7-10-22.7-22.7c0-12.4,10-22.7,22.7-22.7c12.7,0,22.7,10,22.7,22.7
			C1198.2,225.3,1188.2,235.4,1175.8,235.4 M1224.7,222.7V203h-7.9c-0.9-4.4-2.7-8.5-5-12.4l5.6-5.6l-13.8-13.8l-5.6,5.6
			c-3.8-2.4-8-4.1-12.4-5v-7.9h-19.7v7.9c-4.4,0.9-8.5,2.7-12.4,5l-5.6-5.6L1134,185l5.6,5.6c-2.4,3.8-4.1,8-5,12.4h-7.9v19.7h7.9
			c0.9,4.4,2.7,8.5,5,12.4l-5.6,5.6l13.8,13.8l5.6-5.6c3.8,2.4,7.9,4.1,12.4,5v7.9h19.7v-7.9c4.4-0.9,8.5-2.7,12.4-5l5.6,5.6
			l13.8-13.8l-5.6-5.6c2.4-3.8,4.1-7.9,5-12.4H1224.7z"/>
	</g>
	<g>
		<path class="st1" d="M1254.1,314c-12.4,0-22.7-10-22.7-22.7c0-12.7,10-22.7,22.7-22.7c12.7,0,22.7,10,22.7,22.7
			C1276.8,303.9,1266.8,314,1254.1,314 M1303.3,301.3v-19.7h-7.9c-0.9-4.4-2.7-8.5-5-12.4l5.6-5.6l-13.8-13.8l-5.6,5.6
			c-3.8-2.4-8-4.1-12.4-5v-7.9h-19.7v7.9c-4.4,0.9-8.5,2.7-12.4,5l-5.6-5.6l-13.8,13.8l5.6,5.6c-2.4,3.8-4.1,7.9-5,12.4h-7.9v19.7
			h7.9c0.9,4.4,2.7,8.5,5,12.4l-5.6,5.6l13.8,13.8l5.6-5.6c3.8,2.4,7.9,4.1,12.4,5v7.9h19.7v-7.9c4.4-0.9,8.5-2.7,12.4-5l5.6,5.6
			l13.8-13.8l-5.6-5.6c2.4-3.8,4.1-7.9,5-12.4H1303.3z"/>
	</g>
	<g>
		<path class="st1" d="M1215.3,681.8c-6.7,0-11.7-5.1-11.7-11.7c0-6.6,5-11.7,11.7-11.7c6.8,0,11.7,5.1,11.7,11.7
			C1227,676.7,1222,681.8,1215.3,681.8 M1224.4,765.3h-18.2v-73.9h18.2V765.3z M1215,634.7c-43.3,0-78.5,35.1-78.5,78.5
			c0,43.3,35.1,78.4,78.5,78.4s78.5-35.1,78.5-78.4C1293.4,669.9,1258.3,634.7,1215,634.7"/>
	</g>
	<g>
		<path class="st1" d="M1256.5,1207.1h-56.1v-13.8h56.1V1207.1z M1256.5,1240.1h-56.1v-13.8h56.1V1240.1z M1256.5,1273.1h-56.1
			v-13.8h56.1V1273.1z M1173.2,1209.1c-5,0-8.9-3.8-8.9-8.9c0-5.1,3.9-8.9,8.9-8.9c5,0,8.9,3.8,8.9,8.9
			C1182.1,1205.3,1178.2,1209.1,1173.2,1209.1 M1173.2,1242.1c-5,0-8.9-3.8-8.9-8.9c0-5.1,3.9-8.9,8.9-8.9c5,0,8.9,3.8,8.9,8.9
			C1182.1,1238.3,1178.2,1242.1,1173.2,1242.1 M1173.2,1275.1c-5,0-8.9-3.8-8.9-8.9c0-5.1,3.9-8.9,8.9-8.9c5,0,8.9,3.8,8.9,8.9
			C1182.1,1271.3,1178.2,1275.1,1173.2,1275.1 M1261,1158.9h-95.6c-14.6,0-26.5,11.9-26.5,26.5v95.6c0,14.6,11.9,26.5,26.5,26.5
			h95.6c14.6,0,26.5-11.9,26.5-26.5v-95.6C1287.4,1170.8,1275.5,1158.9,1261,1158.9"/>
	</g>
	<g>
		<path class="st1" d="M1660.5,278.7l26.7-78.3h-141.3l-7.7-23.7h-40.9l4,14.1h26.6l27.3,83.7l-9.9,32h105.4l4-14.1h-90.7l4.8-13.7
			H1660.5z M1557,311.8c-5.3,0-9.6,4.3-9.6,9.6c0,5.3,4.3,9.6,9.6,9.6s9.6-4.3,9.6-9.6C1566.6,316.1,1562.3,311.8,1557,311.8
			 M1631.2,311.8c-5.3,0-9.6,4.3-9.6,9.6c0,5.3,4.3,9.6,9.6,9.6s9.6-4.3,9.6-9.6C1640.8,316.1,1636.5,311.8,1631.2,311.8"/>
	</g>
	<g>
		<path class="st1" d="M1530.7,1231.2c0-27.4,17.9-51.4,43.7-59.2v15.2l26-19l-26.1-18.8v13.3c-30.7,8.2-52.5,36-52.5,68.6
			c0,32,21.6,60,52.3,68.4l2.4-8.6C1549.5,1283.6,1530.7,1259.1,1530.7,1231.2"/>
	</g>
	<g>
		<path class="st1" d="M1610.6,1163.5l-2.4,8.6c26.9,7.3,45.7,32,45.7,59.8c0,27.4-17.9,51.4-43.5,59.2V1276l-26,18.8l26,19v-13.3
			c30.7-8.2,52.5-36,52.5-68.4C1662.9,1199.9,1641.3,1171.9,1610.6,1163.5"/>
	</g>
	<g>
		<path class="st1" d="M1605.1,1232.1c0-7.1-5.7-12.8-12.8-12.8s-12.8,5.7-12.8,12.8s5.7,12.8,12.8,12.8
			S1605.1,1239.1,1605.1,1232.1"/>
	</g>
</g>
<g>
	<polygon class="st1" points="1536.1,656.2 1514.3,695.1 1557.9,695.1 	"/>
</g>
<g>
	<polygon class="st1" points="1572.8,695.1 1594.6,656.2 1551,656.2 	"/>
</g>
<g>
	<polygon class="st1" points="1611.8,656.2 1589.9,695.1 1633.6,695.1 	"/>
</g>
<g>
	<polygon class="st1" points="1648.5,695.1 1670.3,656.2 1626.7,656.2 	"/>
</g>
<g>
	<polygon class="st1" points="1536.1,747.1 1514.3,708.2 1557.9,708.2 	"/>
</g>
<g>
	<polygon class="st1" points="1572.8,708.2 1594.6,747.1 1551,747.1 	"/>
</g>
<g>
	<path class="st1" d="M1611.8,750.8l-24.9-44.4h49.8L1611.8,750.8z M1593.6,710.3l18.2,32.4l18.2-32.4H1593.6z"/>
</g>
<g>
	<polygon class="st1" points="1648.5,708.2 1670.3,747.1 1626.7,747.1 	"/>
</g>
<g>
	<polygon class="st1" points="1536.1,760.1 1514.3,799.1 1557.9,799.1 	"/>
</g>
<g>
	<polygon class="st1" points="1572.8,799.1 1594.6,760.1 1551,760.1 	"/>
</g>
<g>
	<polygon class="st1" points="1611.8,760.1 1589.9,799.1 1633.6,799.1 	"/>
</g>
<g>
	<polygon class="st1" points="1648.5,799.1 1670.3,760.1 1626.7,760.1 	"/>
</g>
</svg>
