<?xml version="1.0" encoding="utf-8"?>
<!-- Generator: Adobe Illustrator 22.1.0, SVG Export Plug-In . SVG Version: 6.00 Build 0)  -->
<svg version="1.1" id="Capa_1" xmlns="http://www.w3.org/2000/svg" xmlns:xlink="http://www.w3.org/1999/xlink" x="0px" y="0px"
	 viewBox="0 0 2813.9 1445.1" style="enable-background:new 0 0 2813.9 1445.1;" xml:space="preserve">
<style type="text/css">
	.st0{clip-path:url(#SVGID_2_);fill:#FFFFFF;fill-opacity:0;}
	.st1{fill:#B7B7EC;}
	.st2{fill:none;stroke:#E74F52;stroke-width:0.752;}
	.st3{fill:#E74F52;}
	.st4{fill:none;stroke:#3B31F4;stroke-width:6;}
	.st5{fill:#FFFFFF;}
	.st6{font-family:'Apercu-Light';}
	.st7{font-size:55.4639px;}
	.st8{letter-spacing:-2;}
	.st9{letter-spacing:-1;}
	.st10{fill:#3B31F4;}
	.st11{fill:#1D1D1B;}
	.st12{font-size:37.8163px;}
	.st13{letter-spacing:-4;}
	.st14{letter-spacing:1;}
</style>
<g>
	<g>
		<g>
			<g>
				<g>
					<g>
						<defs>
							<rect id="SVGID_1_" x="-1560.5" y="-3198.4" width="499" height="373"/>
						</defs>
						<clipPath id="SVGID_2_">
							<use xlink:href="#SVGID_1_"  style="overflow:visible;"/>
						</clipPath>
						<rect x="-1560.5" y="-3198.4" class="st0" width="499" height="373"/>
					</g>
				</g>
			</g>
		</g>
	</g>
</g>
<g>
	<polygon class="st1" points="217.1,641.1 217.1,772.2 957.5,772.2 974.6,706.6 957.5,641.1 	"/>
	<polygon class="st1" points="1013.7,641.1 1013.7,772.2 1754.2,772.2 1771.2,706.6 1754.2,641.1 	"/>
	<polygon class="st1" points="1812.9,641.1 1812.9,772.2 2553.3,772.2 2570.4,706.6 2553.3,641.1 	"/>
	<line class="st2" x1="566" y1="806.2" x2="566" y2="815"/>
	<polygon class="st3" points="566,836.7 576.9,806.8 555.2,806.8 	"/>
	<line class="st2" x1="1374.3" y1="806.2" x2="1374.3" y2="815"/>
	<polygon class="st3" points="1374.3,836.7 1385.2,806.8 1363.5,806.8 	"/>
	<line class="st2" x1="2178.8" y1="806.2" x2="2178.8" y2="815"/>
	<polygon class="st3" points="2178.8,836.7 2189.7,806.8 2167.9,806.8 	"/>
	<polygon class="st4" points="195.8,624.2 195.8,755.3 936.3,755.3 953.3,689.8 936.3,624.2 	"/>
	<polygon class="st4" points="990.2,624.2 990.2,755.3 1730.6,755.3 1752.5,689.8 1730.6,624.2 	"/>
	<polygon class="st4" points="1789.3,624.2 1789.3,755.3 2529.8,755.3 2551.6,689.8 2529.8,624.2 	"/>
	<text transform="matrix(1 0 0 1 290.9114 714.7809)"><tspan x="0" y="0" class="st5 st6 st7">C</tspan><tspan x="37.2" y="0" class="st5 st6 st7 st8">R</tspan><tspan x="70.1" y="0" class="st5 st6 st7">I</tspan><tspan x="84.5" y="0" class="st5 st6 st7">T</tspan><tspan x="113" y="0" class="st5 st6 st7 st9">E</tspan><tspan x="142.9" y="0" class="st5 st6 st7 st8">R</tspan><tspan x="175.8" y="0" class="st5 st6 st7">I </tspan><tspan x="204.7" y="0" class="st5 st6 st7 st9">D</tspan><tspan x="239.9" y="0" class="st5 st6 st7">E </tspan><tspan x="285.4" y="0" class="st5 st6 st7">S</tspan><tspan x="312.8" y="0" class="st5 st6 st7 st9">O</tspan><tspan x="351.9" y="0" class="st5 st6 st7 st8">L</tspan><tspan x="377.4" y="0" class="st5 st6 st7">V</tspan><tspan x="409.1" y="0" class="st5 st6 st7 st9">È</tspan><tspan x="439" y="0" class="st5 st6 st7">N</tspan><tspan x="476.8" y="0" class="st5 st6 st7">C</tspan><tspan x="514.1" y="0" class="st5 st6 st7">I</tspan><tspan x="528" y="0" class="st5 st6 st7">A</tspan></text>
	<text transform="matrix(1 0 0 1 1098.0754 714.7809)"><tspan x="0" y="0" class="st5 st6 st7">C</tspan><tspan x="37.3" y="0" class="st5 st6 st7 st8">R</tspan><tspan x="70.2" y="0" class="st5 st6 st7">I</tspan><tspan x="84.6" y="0" class="st5 st6 st7">T</tspan><tspan x="113.1" y="0" class="st5 st6 st7 st9">E</tspan><tspan x="143" y="0" class="st5 st6 st7 st8">R</tspan><tspan x="175.9" y="0" class="st5 st6 st7">I </tspan><tspan x="204.7" y="0" class="st5 st6 st7">A</tspan><tspan x="236.7" y="0" class="st5 st6 st7">D</tspan><tspan x="273.4" y="0" class="st5 st6 st7 st9">J</tspan><tspan x="299.8" y="0" class="st5 st6 st7 st9">U</tspan><tspan x="334.5" y="0" class="st5 st6 st7 st9">D</tspan><tspan x="369.7" y="0" class="st5 st6 st7">I</tspan><tspan x="384" y="0" class="st5 st6 st7">C</tspan><tspan x="421.2" y="0" class="st5 st6 st7 st9">A</tspan><tspan x="452.4" y="0" class="st5 st6 st7">C</tspan><tspan x="489.6" y="0" class="st5 st6 st7">I</tspan><tspan x="503.9" y="0" class="st5 st6 st7">Ó</tspan></text>
	<text transform="matrix(1 0 0 1 1880.8918 714.7809)"><tspan x="0" y="0" class="st5 st6 st7">C</tspan><tspan x="37.5" y="0" class="st5 st6 st7 st9">O</tspan><tspan x="76.6" y="0" class="st5 st6 st7 st9">N</tspan><tspan x="113.2" y="0" class="st5 st6 st7 st9">D</tspan><tspan x="148.4" y="0" class="st5 st6 st7">I</tspan><tspan x="162.7" y="0" class="st5 st6 st7">C</tspan><tspan x="199.9" y="0" class="st5 st6 st7">I</tspan><tspan x="214.2" y="0" class="st5 st6 st7">Ó D</tspan><tspan x="305.5" y="0" class="st5 st6 st7 st8">’</tspan><tspan x="318.5" y="0" class="st5 st6 st7">E</tspan><tspan x="350" y="0" class="st5 st6 st7">X</tspan><tspan x="380.9" y="0" class="st5 st6 st7 st9">E</tspan><tspan x="411.1" y="0" class="st5 st6 st7">C</tspan><tspan x="448.9" y="0" class="st5 st6 st7">U</tspan><tspan x="484.7" y="0" class="st5 st6 st7">C</tspan><tspan x="522" y="0" class="st5 st6 st7">I</tspan><tspan x="536.2" y="0" class="st5 st6 st7">Ó</tspan></text>
	<text transform="matrix(1 0 0 1 338.7747 918.777)"><tspan x="0" y="0" class="st10 st6 st7">O</tspan><tspan x="40.2" y="0" class="st10 st6 st7 st9">b</tspan><tspan x="72.1" y="0" class="st10 st6 st7 st8">l</tspan><tspan x="82.9" y="0" class="st10 st6 st7 st9">i</tspan><tspan x="96.7" y="0" class="st10 st6 st7">g</tspan><tspan x="124.4" y="0" class="st10 st6 st7">a</tspan><tspan x="152.1" y="0" class="st10 st6 st7">t </tspan><tspan x="186.7" y="0" class="st10 st6 st7">c</tspan><tspan x="215.8" y="0" class="st10 st6 st7">o</tspan><tspan x="247.6" y="0" class="st10 st6 st7 st9">m</tspan><tspan x="293.7" y="0" class="st10 st6 st7 st9">p</tspan><tspan x="325.6" y="0" class="st10 st6 st7 st8">l</tspan><tspan x="336.4" y="0" class="st10 st6 st7 st8">i</tspan><tspan x="349.5" y="0" class="st10 st6 st7">m</tspan><tspan x="396.4" y="0" class="st10 st6 st7">e</tspan><tspan x="426.5" y="0" class="st10 st6 st7 st9">n</tspan><tspan x="457.2" y="0" class="st10 st6 st7">t</tspan></text>
	<text transform="matrix(1 0 0 1 1104.2317 918.777)"><tspan x="0" y="0" class="st10 st6 st7">C</tspan><tspan x="37.4" y="0" class="st10 st6 st7">o</tspan><tspan x="69.1" y="0" class="st10 st6 st7 st9">m</tspan><tspan x="115.2" y="0" class="st10 st6 st7 st9">p</tspan><tspan x="147.1" y="0" class="st10 st6 st7 st8">l</tspan><tspan x="157.9" y="0" class="st10 st6 st7 st8">i</tspan><tspan x="171" y="0" class="st10 st6 st7">m</tspan><tspan x="217.9" y="0" class="st10 st6 st7">e</tspan><tspan x="248" y="0" class="st10 st6 st7 st9">n</tspan><tspan x="278.7" y="0" class="st10 st6 st7">t </tspan><tspan x="313.3" y="0" class="st10 st6 st7">o</tspan><tspan x="345.3" y="0" class="st10 st6 st7">p</tspan><tspan x="379" y="0" class="st10 st6 st7 st9">c</tspan><tspan x="406.5" y="0" class="st10 st6 st7 st9">i</tspan><tspan x="420.9" y="0" class="st10 st6 st7">o</tspan><tspan x="452.9" y="0" class="st10 st6 st7">n</tspan><tspan x="484.1" y="0" class="st10 st6 st7">a</tspan><tspan x="511.3" y="0" class="st10 st6 st7">l</tspan></text>
	<text transform="matrix(1 0 0 1 1925.7043 918.777)"><tspan x="0" y="0" class="st10 st6 st7">O</tspan><tspan x="40.2" y="0" class="st10 st6 st7 st9">b</tspan><tspan x="72.1" y="0" class="st10 st6 st7 st8">l</tspan><tspan x="82.9" y="0" class="st10 st6 st7 st9">i</tspan><tspan x="96.8" y="0" class="st10 st6 st7">g</tspan><tspan x="124.5" y="0" class="st10 st6 st7">a</tspan><tspan x="152.2" y="0" class="st10 st6 st7">t </tspan><tspan x="186.8" y="0" class="st10 st6 st7">c</tspan><tspan x="215.9" y="0" class="st10 st6 st7">o</tspan><tspan x="247.6" y="0" class="st10 st6 st7 st9">m</tspan><tspan x="293.7" y="0" class="st10 st6 st7 st9">p</tspan><tspan x="325.7" y="0" class="st10 st6 st7 st8">l</tspan><tspan x="336.4" y="0" class="st10 st6 st7 st8">i</tspan><tspan x="349.5" y="0" class="st10 st6 st7">m</tspan><tspan x="396.5" y="0" class="st10 st6 st7">e</tspan><tspan x="426.6" y="0" class="st10 st6 st7 st9">n</tspan><tspan x="457.2" y="0" class="st10 st6 st7">t</tspan></text>
	<text transform="matrix(1 0 0 1 413.8568 584.7888)"><tspan x="0" y="0" class="st11 st6 st12">A</tspan><tspan x="22" y="0" class="st11 st6 st12">c</tspan><tspan x="41.9" y="0" class="st11 st6 st12">c</tspan><tspan x="61.7" y="0" class="st11 st6 st12">é</tspan><tspan x="82.4" y="0" class="st11 st6 st12">s a </tspan><tspan x="137.6" y="0" class="st11 st6 st12">l</tspan><tspan x="146" y="0" class="st11 st6 st12">a </tspan><tspan x="174.7" y="0" class="st11 st6 st12 st9">l</tspan><tspan x="182" y="0" class="st11 st6 st12">i</tspan><tspan x="192.1" y="0" class="st11 st6 st12 st9">c</tspan><tspan x="210.8" y="0" class="st11 st6 st12">i</tspan><tspan x="220.8" y="0" class="st11 st6 st12">t</tspan><tspan x="234.5" y="0" class="st11 st6 st12">a</tspan><tspan x="253.8" y="0" class="st11 st6 st12 st9">c</tspan><tspan x="272.6" y="0" class="st11 st6 st12">i</tspan><tspan x="282.6" y="0" class="st11 st6 st12">ó</tspan></text>
	<text transform="matrix(1 0 0 1 1941.1418 545.7653)"><tspan x="0" y="0" class="st11 st6 st12">C</tspan><tspan x="25.5" y="0" class="st11 st6 st12">on</tspan><tspan x="68.7" y="0" class="st11 st6 st12 st9">d</tspan><tspan x="89.5" y="0" class="st11 st6 st12">i</tspan><tspan x="99.6" y="0" class="st11 st6 st12 st9">c</tspan><tspan x="118.4" y="0" class="st11 st6 st12">i</tspan><tspan x="128.2" y="0" class="st11 st6 st12">o</tspan><tspan x="150" y="0" class="st11 st6 st12 st9">n</tspan><tspan x="170.5" y="0" class="st11 st6 st12">s a </tspan><tspan x="225.7" y="0" class="st11 st6 st12">o</tspan><tspan x="247" y="0" class="st11 st6 st12">b</tspan><tspan x="269.2" y="0" class="st11 st6 st12">s</tspan><tspan x="285.8" y="0" class="st11 st6 st12">e</tspan><tspan x="306.4" y="0" class="st11 st6 st12">r</tspan><tspan x="322" y="0" class="st11 st6 st12">v</tspan><tspan x="338.5" y="0" class="st11 st6 st12">a</tspan><tspan x="356.9" y="0" class="st11 st6 st12">r </tspan><tspan x="381.6" y="0" class="st11 st6 st12 st9">d</tspan><tspan x="402.9" y="0" class="st11 st6 st12 st9">u</tspan><tspan x="423.3" y="0" class="st11 st6 st12">r</tspan><tspan x="438.2" y="0" class="st11 st6 st12">a</tspan><tspan x="456.5" y="0" class="st11 st6 st12">n</tspan><tspan x="477.5" y="0" class="st11 st6 st12">t </tspan></text>
	<text transform="matrix(1 0 0 1 1986.7864 595.0388)"><tspan x="0" y="0" class="st11 st6 st12 st9">l</tspan><tspan x="7.8" y="0" class="st11 st6 st12 st13">’</tspan><tspan x="13.9" y="0" class="st11 st6 st12">e</tspan><tspan x="34.3" y="0" class="st11 st6 st12">x</tspan><tspan x="50.7" y="0" class="st11 st6 st12">e</tspan><tspan x="71.8" y="0" class="st11 st6 st12">c</tspan><tspan x="91.7" y="0" class="st11 st6 st12">u</tspan><tspan x="113.2" y="0" class="st11 st6 st12 st9">c</tspan><tspan x="132" y="0" class="st11 st6 st12">i</tspan><tspan x="142" y="0" class="st11 st6 st12">ó </tspan><tspan x="173.6" y="0" class="st11 st6 st12">d</tspan><tspan x="195.3" y="0" class="st11 st6 st12">e</tspan><tspan x="216.3" y="0" class="st11 st6 st12">l </tspan><tspan x="235" y="0" class="st11 st6 st12">c</tspan><tspan x="254.8" y="0" class="st11 st6 st12">o</tspan><tspan x="276.7" y="0" class="st11 st6 st12">n</tspan><tspan x="297.6" y="0" class="st11 st6 st12">t</tspan><tspan x="311.1" y="0" class="st11 st6 st12">r</tspan><tspan x="326" y="0" class="st11 st6 st12">a</tspan><tspan x="345.3" y="0" class="st11 st6 st12">c</tspan><tspan x="365.8" y="0" class="st11 st6 st12">t</tspan><tspan x="379.2" y="0" class="st11 st6 st12">e</tspan></text>
	<text transform="matrix(1 0 0 1 1030.1106 584.7888)"><tspan x="0" y="0" class="st11 st6 st12 st9">V</tspan><tspan x="20.7" y="0" class="st11 st6 st12">a</tspan><tspan x="39.2" y="0" class="st11 st6 st12">l</tspan><tspan x="47.8" y="0" class="st11 st6 st12 st9">o</tspan><tspan x="68.9" y="0" class="st11 st6 st12">r</tspan><tspan x="83.8" y="0" class="st11 st6 st12">a</tspan><tspan x="103" y="0" class="st11 st6 st12 st9">c</tspan><tspan x="121.8" y="0" class="st11 st6 st12">i</tspan><tspan x="131.9" y="0" class="st11 st6 st12">ó </tspan><tspan x="163.5" y="0" class="st11 st6 st12">d</tspan><tspan x="185.2" y="0" class="st11 st6 st12">e </tspan><tspan x="215.6" y="0" class="st11 st6 st12">l</tspan><tspan x="224.2" y="0" class="st11 st6 st12">e</tspan><tspan x="244.9" y="0" class="st11 st6 st12">s </tspan><tspan x="271.5" y="0" class="st11 st6 st12">o</tspan><tspan x="292.6" y="0" class="st11 st6 st12 st9">f</tspan><tspan x="305.1" y="0" class="st11 st6 st12">e</tspan><tspan x="325.7" y="0" class="st11 st6 st12 st14">r</tspan><tspan x="342.1" y="0" class="st11 st6 st12">t</tspan><tspan x="355.5" y="0" class="st11 st6 st12">e</tspan><tspan x="376.2" y="0" class="st11 st6 st12">s </tspan><tspan x="402.8" y="0" class="st11 st6 st12 st9">d</tspan><tspan x="424.1" y="0" class="st11 st6 st12 st9">u</tspan><tspan x="444.5" y="0" class="st11 st6 st12">r</tspan><tspan x="459.4" y="0" class="st11 st6 st12">a</tspan><tspan x="477.8" y="0" class="st11 st6 st12">n</tspan><tspan x="498.7" y="0" class="st11 st6 st12">t </tspan><tspan x="522.2" y="0" class="st11 st6 st12">l</tspan><tspan x="530.7" y="0" class="st11 st6 st12">a </tspan><tspan x="559.3" y="0" class="st11 st6 st12 st9">l</tspan><tspan x="566.7" y="0" class="st11 st6 st12">i</tspan><tspan x="576.7" y="0" class="st11 st6 st12 st9">c</tspan><tspan x="595.4" y="0" class="st11 st6 st12">i</tspan><tspan x="605.4" y="0" class="st11 st6 st12">t</tspan><tspan x="619.2" y="0" class="st11 st6 st12">a</tspan><tspan x="638.4" y="0" class="st11 st6 st12 st9">c</tspan><tspan x="657.2" y="0" class="st11 st6 st12">i</tspan><tspan x="667.2" y="0" class="st11 st6 st12">ó</tspan></text>
</g>
</svg>
