<?xml version="1.0" encoding="utf-8"?>
<!-- Generator: Adobe Illustrator 22.1.0, SVG Export Plug-In . SVG Version: 6.00 Build 0)  -->
<svg version="1.1" id="Capa_1" xmlns="http://www.w3.org/2000/svg" xmlns:xlink="http://www.w3.org/1999/xlink" x="0px" y="0px"
	 viewBox="0 0 2813.9 1445.1" style="enable-background:new 0 0 2813.9 1445.1;" xml:space="preserve">
<style type="text/css">
	.st0{clip-path:url(#SVGID_2_);fill:#FFFFFF;fill-opacity:0;}
	.st1{fill:#3B31F4;}
	.st2{fill:#625AF6;}
	.st3{fill:#8882F8;}
	.st4{fill:#B0ACFA;}
	.st5{fill:#FFFFFF;}
	.st6{font-family:'Apercu-Light';}
	.st7{font-size:37.5682px;}
	.st8{letter-spacing:-1;}
	.st9{letter-spacing:1;}
	.st10{letter-spacing:-2;}
	.st11{fill:none;stroke:#E74F52;stroke-width:0.752;}
	.st12{fill:#E74F52;}
</style>
<g>
	<g>
		<g>
			<g>
				<g>
					<g>
						<defs>
							<rect id="SVGID_1_" x="-1560.5" y="-3198.4" width="499" height="373"/>
						</defs>
						<clipPath id="SVGID_2_">
							<use xlink:href="#SVGID_1_"  style="overflow:visible;"/>
						</clipPath>
						<rect x="-1560.5" y="-3198.4" class="st0" width="499" height="373"/>
					</g>
				</g>
			</g>
		</g>
	</g>
</g>
<g>
	<rect x="342.4" y="546.1" class="st1" width="514.3" height="90.7"/>
	<rect x="881.8" y="546.1" class="st2" width="514.3" height="90.7"/>
	<rect x="1418.2" y="546.5" class="st3" width="514.3" height="90.7"/>
	<rect x="1954.7" y="546.1" class="st4" width="514.3" height="90.7"/>
	<text transform="matrix(1 0 0 1 395.749 601.5475)"><tspan x="0" y="0" class="st5 st6 st7">A- </tspan><tspan x="49.1" y="0" class="st5 st6 st7">N</tspan><tspan x="75" y="0" class="st5 st6 st7">o</tspan><tspan x="96.3" y="0" class="st5 st6 st7">u </tspan><tspan x="127.4" y="0" class="st5 st6 st7">m</tspan><tspan x="159.2" y="0" class="st5 st6 st7">o</tspan><tspan x="181.5" y="0" class="st5 st6 st7">d</tspan><tspan x="203.1" y="0" class="st5 st6 st7">e</tspan><tspan x="223.9" y="0" class="st5 st6 st7">l </tspan><tspan x="242.5" y="0" class="st5 st6 st7">d</tspan><tspan x="264.1" y="0" class="st5 st6 st7">e </tspan><tspan x="294.3" y="0" class="st5 st6 st7">r</tspan><tspan x="308.9" y="0" class="st5 st6 st7">e</tspan><tspan x="329.7" y="0" class="st5 st6 st7">l</tspan><tspan x="338.1" y="0" class="st5 st6 st7">a</tspan><tspan x="357.2" y="0" class="st5 st6 st7 st8">c</tspan><tspan x="375.9" y="0" class="st5 st6 st7">i</tspan><tspan x="385.9" y="0" class="st5 st6 st7">ó</tspan></text>
	<text transform="matrix(1 0 0 1 964.4961 605.6051)"><tspan x="0" y="0" class="st5 st6 st7">B- </tspan><tspan x="50.3" y="0" class="st5 st6 st7">È</tspan><tspan x="71.4" y="0" class="st5 st6 st7 st8">t</tspan><tspan x="83.9" y="0" class="st5 st6 st7">i</tspan><tspan x="93.8" y="0" class="st5 st6 st7">c</tspan><tspan x="113.4" y="0" class="st5 st6 st7">a </tspan><tspan x="141.9" y="0" class="st5 st6 st7">d</tspan><tspan x="163.5" y="0" class="st5 st6 st7">e </tspan><tspan x="193.7" y="0" class="st5 st6 st7">l</tspan><tspan x="202.3" y="0" class="st5 st6 st7">e</tspan><tspan x="222.8" y="0" class="st5 st6 st7">s </tspan><tspan x="249.2" y="0" class="st5 st6 st7">d</tspan><tspan x="271.2" y="0" class="st5 st6 st7">a</tspan><tspan x="290.3" y="0" class="st5 st6 st7">d</tspan><tspan x="311.8" y="0" class="st5 st6 st7">e</tspan><tspan x="332.4" y="0" class="st5 st6 st7">s</tspan></text>
	<text transform="matrix(1 0 0 1 1499.3135 603.5807)"><tspan x="0" y="0" class="st5 st6 st7">C- </tspan><tspan x="52.7" y="0" class="st5 st6 st7">N</tspan><tspan x="78.6" y="0" class="st5 st6 st7">o</tspan><tspan x="100.2" y="0" class="st5 st6 st7">v</tspan><tspan x="116.6" y="0" class="st5 st6 st7">a </tspan><tspan x="145.1" y="0" class="st5 st6 st7">m</tspan><tspan x="176.9" y="0" class="st5 st6 st7">e</tspan><tspan x="197.5" y="0" class="st5 st6 st7">t</tspan><tspan x="210.8" y="0" class="st5 st6 st7">o</tspan><tspan x="233.1" y="0" class="st5 st6 st7">d</tspan><tspan x="254.7" y="0" class="st5 st6 st7">o</tspan><tspan x="275.7" y="0" class="st5 st6 st7">lo</tspan><tspan x="305.7" y="0" class="st5 st6 st7">g</tspan><tspan x="323.8" y="0" class="st5 st6 st7 st8">i</tspan><tspan x="333.3" y="0" class="st5 st6 st7">a</tspan></text>
	<text transform="matrix(1 0 0 1 2009.1895 603.2018)"><tspan x="0" y="0" class="st5 st6 st7">D- </tspan><tspan x="52" y="0" class="st5 st6 st7">S</tspan><tspan x="70.9" y="0" class="st5 st6 st7">o</tspan><tspan x="92" y="0" class="st5 st6 st7 st8">b</tspan><tspan x="113.4" y="0" class="st5 st6 st7 st8">i</tspan><tspan x="122.1" y="0" class="st5 st6 st7">r</tspan><tspan x="136.9" y="0" class="st5 st6 st7">a</tspan><tspan x="155.1" y="0" class="st5 st6 st7 st8">n</tspan><tspan x="175" y="0" class="st5 st6 st7 st8">i</tspan><tspan x="184.3" y="0" class="st5 st6 st7">a </tspan><tspan x="212.8" y="0" class="st5 st6 st7">t</tspan><tspan x="226.2" y="0" class="st5 st6 st7">e</tspan><tspan x="247.1" y="0" class="st5 st6 st7">c</tspan><tspan x="266.6" y="0" class="st5 st6 st7">n</tspan><tspan x="288" y="0" class="st5 st6 st7">o</tspan><tspan x="309.1" y="0" class="st5 st6 st7">lò</tspan><tspan x="339.1" y="0" class="st5 st6 st7">g</tspan><tspan x="357.2" y="0" class="st5 st6 st7">i</tspan><tspan x="367.2" y="0" class="st5 st6 st7">c</tspan><tspan x="386.7" y="0" class="st5 st6 st7">a</tspan></text>
	<text transform="matrix(1 0 0 1 456.7607 725.3019)"><tspan x="0" y="0" class="st1 st6 st7">C</tspan><tspan x="25.3" y="0" class="st1 st6 st7">o</tspan><tspan x="47" y="0" class="st1 st6 st7 st8">n</tspan><tspan x="67.4" y="0" class="st1 st6 st7 st8">s</tspan><tspan x="83.2" y="0" class="st1 st6 st7 st8">u</tspan><tspan x="103.4" y="0" class="st1 st6 st7">l</tspan><tspan x="112.4" y="0" class="st1 st6 st7">t</tspan><tspan x="125.7" y="0" class="st1 st6 st7">e</tspan><tspan x="146.3" y="0" class="st1 st6 st7">s </tspan><tspan x="172.7" y="0" class="st1 st6 st7">p</tspan><tspan x="194.4" y="0" class="st1 st6 st7">r</tspan><tspan x="209.1" y="0" class="st1 st6 st7">è</tspan><tspan x="229.7" y="0" class="st1 st6 st7">v</tspan><tspan x="245.8" y="0" class="st1 st6 st7">i</tspan><tspan x="255.8" y="0" class="st1 st6 st7">e</tspan><tspan x="276.3" y="0" class="st1 st6 st7">s</tspan></text>
	<text transform="matrix(1 0 0 1 431.4385 821.214)"><tspan x="0" y="0" class="st1 st6 st7">O</tspan><tspan x="27.2" y="0" class="st1 st6 st7">b</tspan><tspan x="50.1" y="0" class="st1 st6 st7">e</tspan><tspan x="70.6" y="0" class="st1 st6 st7 st9">r</tspan><tspan x="86.8" y="0" class="st1 st6 st7">t</tspan><tspan x="100.1" y="0" class="st1 st6 st7 st8">u</tspan><tspan x="120.3" y="0" class="st1 st6 st7">r</tspan><tspan x="135.1" y="0" class="st1 st6 st7">a </tspan><tspan x="163.6" y="0" class="st1 st6 st7">d</tspan><tspan x="185.2" y="0" class="st1 st6 st7">e</tspan><tspan x="206" y="0" class="st1 st6 st7">l </tspan><tspan x="224.7" y="0" class="st1 st6 st7">m</tspan><tspan x="256.4" y="0" class="st1 st6 st7">e</tspan><tspan x="276.9" y="0" class="st1 st6 st7">r</tspan><tspan x="291.5" y="0" class="st1 st6 st7">c</tspan><tspan x="311.1" y="0" class="st1 st6 st7">a</tspan><tspan x="329.9" y="0" class="st1 st6 st7">t</tspan></text>
	<text transform="matrix(1 0 0 1 487.8281 917.1261)"><tspan x="0" y="0" class="st1 st6 st7 st8">T</tspan><tspan x="17.4" y="0" class="st1 st6 st7">r</tspan><tspan x="32.2" y="0" class="st1 st6 st7">a</tspan><tspan x="50.5" y="0" class="st1 st6 st7 st8">n</tspan><tspan x="70.9" y="0" class="st1 st6 st7">s</tspan><tspan x="86.9" y="0" class="st1 st6 st7">p</tspan><tspan x="109.3" y="0" class="st1 st6 st7">a</tspan><tspan x="127.7" y="0" class="st1 st6 st7">r</tspan><tspan x="142.3" y="0" class="st1 st6 st7">è</tspan><tspan x="162.7" y="0" class="st1 st6 st7">n</tspan><tspan x="184" y="0" class="st1 st6 st7 st8">c</tspan><tspan x="202.7" y="0" class="st1 st6 st7 st8">i</tspan><tspan x="212.1" y="0" class="st1 st6 st7">a</tspan></text>
	<text transform="matrix(1 0 0 1 1017.0889 730.1798)"><tspan x="0" y="0" class="st1 st6 st7">D</tspan><tspan x="24.9" y="0" class="st1 st6 st7">a</tspan><tspan x="44" y="0" class="st1 st6 st7">d</tspan><tspan x="65.6" y="0" class="st1 st6 st7">e</tspan><tspan x="86.1" y="0" class="st1 st6 st7">s </tspan><tspan x="112.5" y="0" class="st1 st6 st7">o</tspan><tspan x="133.6" y="0" class="st1 st6 st7">b</tspan><tspan x="156.5" y="0" class="st1 st6 st7">e</tspan><tspan x="176.9" y="0" class="st1 st6 st7 st9">r</tspan><tspan x="193.2" y="0" class="st1 st6 st7">t</tspan><tspan x="206.5" y="0" class="st1 st6 st7">e</tspan><tspan x="227.1" y="0" class="st1 st6 st7">s</tspan></text>
	<text transform="matrix(1 0 0 1 989.627 826.0929)"><tspan x="0" y="0" class="st1 st6 st7">È</tspan><tspan x="21.1" y="0" class="st1 st6 st7 st8">t</tspan><tspan x="33.6" y="0" class="st1 st6 st7">i</tspan><tspan x="43.5" y="0" class="st1 st6 st7">c</tspan><tspan x="63.1" y="0" class="st1 st6 st7">a </tspan><tspan x="91.6" y="0" class="st1 st6 st7">d</tspan><tspan x="113.2" y="0" class="st1 st6 st7">e </tspan><tspan x="143.4" y="0" class="st1 st6 st7">l</tspan><tspan x="152" y="0" class="st1 st6 st7">e</tspan><tspan x="172.5" y="0" class="st1 st6 st7">s </tspan><tspan x="198.9" y="0" class="st1 st6 st7">d</tspan><tspan x="220.9" y="0" class="st1 st6 st7">a</tspan><tspan x="240" y="0" class="st1 st6 st7">d</tspan><tspan x="261.5" y="0" class="st1 st6 st7">e</tspan><tspan x="282.1" y="0" class="st1 st6 st7">s</tspan></text>
	<text transform="matrix(1 0 0 1 1507.166 728.8322)"><tspan x="0" y="0" class="st1 st6 st7">M</tspan><tspan x="28.8" y="0" class="st1 st6 st7">e</tspan><tspan x="49.4" y="0" class="st1 st6 st7">t</tspan><tspan x="62.8" y="0" class="st1 st6 st7">o</tspan><tspan x="85.1" y="0" class="st1 st6 st7">d</tspan><tspan x="106.7" y="0" class="st1 st6 st7">o</tspan><tspan x="127.7" y="0" class="st1 st6 st7">l</tspan><tspan x="136.3" y="0" class="st1 st6 st7">o</tspan><tspan x="157.7" y="0" class="st1 st6 st7">g</tspan><tspan x="175.8" y="0" class="st1 st6 st7">i</tspan><tspan x="185.7" y="0" class="st1 st6 st7">e</tspan><tspan x="206.3" y="0" class="st1 st6 st7">s </tspan><tspan x="232.7" y="0" class="st1 st6 st7 st10">“</tspan><tspan x="246.3" y="0" class="st1 st6 st7">À</tspan><tspan x="268.6" y="0" class="st1 st6 st7">g</tspan><tspan x="286.6" y="0" class="st1 st6 st7 st8">i</tspan><tspan x="295.5" y="0" class="st1 st6 st7">l</tspan><tspan x="304" y="0" class="st1 st6 st7">s”</tspan></text>
	<text transform="matrix(1 0 0 1 2077.5635 727.7775)"><tspan x="0" y="0" class="st1 st6 st7">P</tspan><tspan x="21.3" y="0" class="st1 st6 st7">r</tspan><tspan x="35.9" y="0" class="st1 st6 st7">o</tspan><tspan x="57.3" y="0" class="st1 st6 st7">g</tspan><tspan x="75.5" y="0" class="st1 st6 st7">r</tspan><tspan x="90.3" y="0" class="st1 st6 st7">a</tspan><tspan x="108.8" y="0" class="st1 st6 st7">m</tspan><tspan x="140.6" y="0" class="st1 st6 st7">a</tspan><tspan x="158.9" y="0" class="st1 st6 st7 st8">r</tspan><tspan x="172.8" y="0" class="st1 st6 st7">i </tspan><tspan x="192.8" y="0" class="st1 st6 st7 st8">l</tspan><tspan x="200.6" y="0" class="st1 st6 st7 st8">l</tspan><tspan x="207.9" y="0" class="st1 st6 st7">i</tspan><tspan x="218.4" y="0" class="st1 st6 st7 st8">u</tspan><tspan x="238.6" y="0" class="st1 st6 st7">r</tspan><tspan x="253.2" y="0" class="st1 st6 st7">e</tspan></text>
	<line class="st11" x1="599.4" y1="750.1" x2="599.4" y2="758.1"/>
	<polygon class="st12" points="599.4,777.6 609.2,750.7 589.6,750.7 	"/>
	<line class="st11" x1="599.4" y1="659.9" x2="599.4" y2="667.8"/>
	<polygon class="st12" points="599.4,687.4 609.2,660.5 589.6,660.5 	"/>
	<line class="st11" x1="1138.9" y1="659.9" x2="1138.9" y2="667.8"/>
	<polygon class="st12" points="1138.9,687.4 1148.7,660.5 1129.1,660.5 	"/>
	<line class="st11" x1="1675.4" y1="659.9" x2="1675.4" y2="667.8"/>
	<polygon class="st12" points="1675.4,687.4 1685.2,660.5 1665.6,660.5 	"/>
	<line class="st11" x1="2212" y1="659.9" x2="2212" y2="667.8"/>
	<polygon class="st12" points="2212,687.4 2221.8,660.5 2202.2,660.5 	"/>
	<line class="st11" x1="599.4" y1="848.8" x2="599.4" y2="856.7"/>
	<polygon class="st12" points="599.4,876.3 609.2,849.4 589.6,849.4 	"/>
	<line class="st11" x1="1138.9" y1="752.4" x2="1138.9" y2="760.4"/>
	<polygon class="st12" points="1138.9,780 1148.7,753 1129.1,753 	"/>
</g>
</svg>
