<?xml version="1.0" encoding="utf-8"?>
<!-- Generator: Adobe Illustrator 22.1.0, SVG Export Plug-In . SVG Version: 6.00 Build 0)  -->
<svg version="1.1" id="Capa_1" xmlns="http://www.w3.org/2000/svg" xmlns:xlink="http://www.w3.org/1999/xlink" x="0px" y="0px"
	 viewBox="0 0 2813.9 1445.1" style="enable-background:new 0 0 2813.9 1445.1;" xml:space="preserve">
<style type="text/css">
	.st0{clip-path:url(#SVGID_2_);fill:#FFFFFF;fill-opacity:0;}
	.st1{fill:#3B31F4;}
	.st2{fill:#625AF6;}
	.st3{fill:#8882F8;}
	.st4{fill:#B0ACFA;}
	.st5{fill:#FFFFFF;}
	.st6{font-family:'Apercu-Light';}
	.st7{font-size:40.227px;}
	.st8{letter-spacing:-1;}
	.st9{letter-spacing:-2;}
	.st10{letter-spacing:-4;}
	.st11{letter-spacing:1;}
	.st12{fill:none;stroke:#E74F52;stroke-width:0.752;}
	.st13{fill:#E74F52;}
</style>
<g>
	<g>
		<g>
			<g>
				<g>
					<g>
						<defs>
							<rect id="SVGID_1_" x="-1560.5" y="-3198.4" width="499" height="373"/>
						</defs>
						<clipPath id="SVGID_2_">
							<use xlink:href="#SVGID_1_"  style="overflow:visible;"/>
						</clipPath>
						<rect x="-1560.5" y="-3198.4" class="st0" width="499" height="373"/>
					</g>
				</g>
			</g>
		</g>
	</g>
</g>
<g>
	<rect x="264.4" y="418.5" class="st1" width="550.7" height="97.1"/>
	<rect x="842" y="418.5" class="st2" width="550.7" height="97.1"/>
	<rect x="1416.3" y="418.9" class="st3" width="550.7" height="97.1"/>
	<rect x="1990.8" y="418.5" class="st4" width="550.7" height="97.1"/>
	<text transform="matrix(1 0 0 1 342.7583 477.9038)"><tspan x="0" y="0" class="st5 st6 st7">O</tspan><tspan x="29.2" y="0" class="st5 st6 st7 st8">b</tspan><tspan x="52.2" y="0" class="st5 st6 st7">j</tspan><tspan x="62.5" y="0" class="st5 st6 st7">e</tspan><tspan x="85" y="0" class="st5 st6 st7">c</tspan><tspan x="106.7" y="0" class="st5 st6 st7">t</tspan><tspan x="121" y="0" class="st5 st6 st7">e </tspan><tspan x="153.3" y="0" class="st5 st6 st7">d</tspan><tspan x="176.4" y="0" class="st5 st6 st7">e</tspan><tspan x="198.8" y="0" class="st5 st6 st7">l </tspan><tspan x="218.7" y="0" class="st5 st6 st7">c</tspan><tspan x="239.8" y="0" class="st5 st6 st7">o</tspan><tspan x="263" y="0" class="st5 st6 st7">n</tspan><tspan x="285.2" y="0" class="st5 st6 st7">t</tspan><tspan x="299.7" y="0" class="st5 st6 st7">r</tspan><tspan x="315.5" y="0" class="st5 st6 st7">a</tspan><tspan x="336.1" y="0" class="st5 st6 st7">c</tspan><tspan x="357.8" y="0" class="st5 st6 st7">t</tspan><tspan x="372.1" y="0" class="st5 st6 st7">e</tspan></text>
	<text transform="matrix(1 0 0 1 937.8755 482.2436)"><tspan x="0" y="0" class="st5 st6 st7">C</tspan><tspan x="27" y="0" class="st5 st6 st7 st8">r</tspan><tspan x="41.9" y="0" class="st5 st6 st7">it</tspan><tspan x="66.8" y="0" class="st5 st6 st7">e</tspan><tspan x="88.7" y="0" class="st5 st6 st7 st8">r</tspan><tspan x="103.6" y="0" class="st5 st6 st7 st8">i</tspan><tspan x="113.4" y="0" class="st5 st6 st7">s </tspan><tspan x="141.6" y="0" class="st5 st6 st7">d</tspan><tspan x="164.7" y="0" class="st5 st6 st7">e </tspan><tspan x="197" y="0" class="st5 st6 st7">s</tspan><tspan x="214.5" y="0" class="st5 st6 st7">o</tspan><tspan x="237.1" y="0" class="st5 st6 st7">l</tspan><tspan x="246.5" y="0" class="st5 st6 st7">v</tspan><tspan x="264.3" y="0" class="st5 st6 st7">è</tspan><tspan x="286.1" y="0" class="st5 st6 st7">n</tspan><tspan x="309" y="0" class="st5 st6 st7 st8">c</tspan><tspan x="328.9" y="0" class="st5 st6 st7 st8">i</tspan><tspan x="339" y="0" class="st5 st6 st7">a</tspan></text>
	<text transform="matrix(1 0 0 1 1501.938 480.0757)"><tspan x="0" y="0" class="st5 st6 st7">C</tspan><tspan x="27" y="0" class="st5 st6 st7 st8">r</tspan><tspan x="41.9" y="0" class="st5 st6 st7">it</tspan><tspan x="66.7" y="0" class="st5 st6 st7">e</tspan><tspan x="88.7" y="0" class="st5 st6 st7 st8">r</tspan><tspan x="103.5" y="0" class="st5 st6 st7 st8">i</tspan><tspan x="113.2" y="0" class="st5 st6 st7">s d’</tspan><tspan x="176.6" y="0" class="st5 st6 st7">a</tspan><tspan x="197.1" y="0" class="st5 st6 st7 st8">d</tspan><tspan x="219.3" y="0" class="st5 st6 st7 st9">j</tspan><tspan x="228.4" y="0" class="st5 st6 st7">u</tspan><tspan x="251.3" y="0" class="st5 st6 st7 st8">d</tspan><tspan x="273.4" y="0" class="st5 st6 st7">i</tspan><tspan x="284.1" y="0" class="st5 st6 st7">c</tspan><tspan x="305" y="0" class="st5 st6 st7">a</tspan><tspan x="325.5" y="0" class="st5 st6 st7 st8">c</tspan><tspan x="345.5" y="0" class="st5 st6 st7">i</tspan><tspan x="356.1" y="0" class="st5 st6 st7">ó</tspan></text>
	<text transform="matrix(1 0 0 1 2066.4458 479.6694)"><tspan x="0" y="0" class="st5 st6 st7">Co</tspan><tspan x="50.3" y="0" class="st5 st6 st7">n</tspan><tspan x="73.1" y="0" class="st5 st6 st7 st8">d</tspan><tspan x="95.3" y="0" class="st5 st6 st7">i</tspan><tspan x="105.9" y="0" class="st5 st6 st7 st8">c</tspan><tspan x="125.9" y="0" class="st5 st6 st7">i</tspan><tspan x="136.3" y="0" class="st5 st6 st7">o</tspan><tspan x="159.5" y="0" class="st5 st6 st7 st8">n</tspan><tspan x="181.3" y="0" class="st5 st6 st7">s d</tspan><tspan x="233.6" y="0" class="st5 st6 st7 st10">’</tspan><tspan x="240.2" y="0" class="st5 st6 st7">e</tspan><tspan x="261.8" y="0" class="st5 st6 st7">x</tspan><tspan x="279.3" y="0" class="st5 st6 st7">e</tspan><tspan x="301.7" y="0" class="st5 st6 st7">c</tspan><tspan x="322.9" y="0" class="st5 st6 st7">u</tspan><tspan x="345.7" y="0" class="st5 st6 st7 st8">c</tspan><tspan x="365.7" y="0" class="st5 st6 st7">i</tspan><tspan x="376.4" y="0" class="st5 st6 st7">ó</tspan></text>
	<text transform="matrix(1 0 0 1 392.3989 610.4116)"><tspan x="0" y="0" class="st1 st6 st7">V</tspan><tspan x="22.7" y="0" class="st1 st6 st7 st8">i</tspan><tspan x="32.5" y="0" class="st1 st6 st7 st8">s</tspan><tspan x="49.2" y="0" class="st1 st6 st7">i</tspan><tspan x="59.8" y="0" class="st1 st6 st7">ó </tspan><tspan x="93.4" y="0" class="st1 st6 st7">o</tspan><tspan x="116.1" y="0" class="st1 st6 st7 st8">b</tspan><tspan x="139.1" y="0" class="st1 st6 st7">j</tspan><tspan x="149.4" y="0" class="st1 st6 st7">e</tspan><tspan x="171.9" y="0" class="st1 st6 st7">c</tspan><tspan x="193.7" y="0" class="st1 st6 st7">t</tspan><tspan x="207.9" y="0" class="st1 st6 st7">e </tspan><tspan x="240.3" y="0" class="st1 st6 st7">p</tspan><tspan x="264.7" y="0" class="st1 st6 st7">e</tspan><tspan x="286.6" y="0" class="st1 st6 st7">r </tspan></text>
	<text transform="matrix(1 0 0 1 330.8911 657.9585)"><tspan x="0" y="0" class="st1 st6 st7">a </tspan><tspan x="30.5" y="0" class="st1 st6 st7">n</tspan><tspan x="53.4" y="0" class="st1 st6 st7">e</tspan><tspan x="75.8" y="0" class="st1 st6 st7">c</tspan><tspan x="96.9" y="0" class="st1 st6 st7">e</tspan><tspan x="118.9" y="0" class="st1 st6 st7 st8">s</tspan><tspan x="135.8" y="0" class="st1 st6 st7 st8">s</tspan><tspan x="152.5" y="0" class="st1 st6 st7">i</tspan><tspan x="163.1" y="0" class="st1 st6 st7">t</tspan><tspan x="177.7" y="0" class="st1 st6 st7">a</tspan><tspan x="197.8" y="0" class="st1 st6 st7">t</tspan><tspan x="212.4" y="0" class="st1 st6 st7">s o </tspan><tspan x="274.3" y="0" class="st1 st6 st7 st8">f</tspan><tspan x="287.4" y="0" class="st1 st6 st7 st8">u</tspan><tspan x="309.5" y="0" class="st1 st6 st7">n</tspan><tspan x="332.4" y="0" class="st1 st6 st7 st8">c</tspan><tspan x="352.4" y="0" class="st1 st6 st7">i</tspan><tspan x="362.8" y="0" class="st1 st6 st7">o</tspan><tspan x="386.1" y="0" class="st1 st6 st7 st8">n</tspan><tspan x="407.9" y="0" class="st1 st6 st7">s</tspan></text>
	<text transform="matrix(1 0 0 1 962.6567 615.6421)"><tspan x="0" y="0" class="st1 st6 st7">S</tspan><tspan x="20.3" y="0" class="st1 st6 st7">e</tspan><tspan x="42" y="0" class="st1 st6 st7">g</tspan><tspan x="61.9" y="0" class="st1 st6 st7 st8">u</tspan><tspan x="83.6" y="0" class="st1 st6 st7">r</tspan><tspan x="99.2" y="0" class="st1 st6 st7">e</tspan><tspan x="121.3" y="0" class="st1 st6 st7">t</tspan><tspan x="136" y="0" class="st1 st6 st7">a</tspan><tspan x="156.1" y="0" class="st1 st6 st7">t i </tspan><tspan x="202.6" y="0" class="st1 st6 st7">d</tspan><tspan x="226.1" y="0" class="st1 st6 st7">a</tspan><tspan x="246.6" y="0" class="st1 st6 st7">d</tspan><tspan x="269.7" y="0" class="st1 st6 st7">e</tspan><tspan x="291.7" y="0" class="st1 st6 st7">s</tspan></text>
	<text transform="matrix(1 0 0 1 954.813 718.3413)"><tspan x="0" y="0" class="st1 st6 st7">M</tspan><tspan x="30.9" y="0" class="st1 st6 st7">e</tspan><tspan x="52.9" y="0" class="st1 st6 st7">t</tspan><tspan x="67.2" y="0" class="st1 st6 st7">o</tspan><tspan x="91.1" y="0" class="st1 st6 st7">d</tspan><tspan x="114.2" y="0" class="st1 st6 st7">o</tspan><tspan x="136.8" y="0" class="st1 st6 st7">l</tspan><tspan x="146" y="0" class="st1 st6 st7">o</tspan><tspan x="168.9" y="0" class="st1 st6 st7">g</tspan><tspan x="188.3" y="0" class="st1 st6 st7">i</tspan><tspan x="198.9" y="0" class="st1 st6 st7">e</tspan><tspan x="220.9" y="0" class="st1 st6 st7">s à</tspan><tspan x="269.5" y="0" class="st1 st6 st7">g</tspan><tspan x="288.9" y="0" class="st1 st6 st7 st8">i</tspan><tspan x="298.3" y="0" class="st1 st6 st7">l</tspan><tspan x="307.4" y="0" class="st1 st6 st7">s</tspan></text>
	<text transform="matrix(1 0 0 1 1471.731 614.1929)"><tspan x="0" y="0" class="st1 st6 st7">P</tspan><tspan x="22.8" y="0" class="st1 st6 st7">r</tspan><tspan x="38.4" y="0" class="st1 st6 st7">e</tspan><tspan x="60.5" y="0" class="st1 st6 st7 st8">f</tspan><tspan x="73.9" y="0" class="st1 st6 st7">e</tspan><tspan x="95.8" y="0" class="st1 st6 st7">r</tspan><tspan x="111.4" y="0" class="st1 st6 st7">è</tspan><tspan x="133.3" y="0" class="st1 st6 st7">n</tspan><tspan x="156.1" y="0" class="st1 st6 st7 st8">c</tspan><tspan x="176.1" y="0" class="st1 st6 st7 st8">i</tspan><tspan x="186.2" y="0" class="st1 st6 st7">a </tspan><tspan x="216.7" y="0" class="st1 st6 st7">o</tspan><tspan x="239.9" y="0" class="st1 st6 st7">p</tspan><tspan x="264.3" y="0" class="st1 st6 st7">e</tspan><tspan x="286.2" y="0" class="st1 st6 st7">n </tspan><tspan x="319.5" y="0" class="st1 st6 st7">s</tspan><tspan x="337" y="0" class="st1 st6 st7">o</tspan><tspan x="359.8" y="0" class="st1 st6 st7 st8">u</tspan><tspan x="381.5" y="0" class="st1 st6 st7">r</tspan><tspan x="397.1" y="0" class="st1 st6 st7">c</tspan><tspan x="418.2" y="0" class="st1 st6 st7">e </tspan></text>
	<text transform="matrix(1 0 0 1 1585.4888 661.7397)"><tspan x="0" y="0" class="st1 st6 st7">(</tspan><tspan x="11.3" y="0" class="st1 st6 st7">c</tspan><tspan x="32.4" y="0" class="st1 st6 st7">o</tspan><tspan x="56.3" y="0" class="st1 st6 st7 st8">d</tspan><tspan x="78.4" y="0" class="st1 st6 st7">i </tspan><tspan x="99.8" y="0" class="st1 st6 st7">o</tspan><tspan x="122.4" y="0" class="st1 st6 st7">b</tspan><tspan x="146.9" y="0" class="st1 st6 st7">e</tspan><tspan x="168.8" y="0" class="st1 st6 st7 st11">r</tspan><tspan x="186.2" y="0" class="st1 st6 st7">t)</tspan></text>
	<text transform="matrix(1 0 0 1 1598.3208 764.439)"><tspan x="0" y="0" class="st1 st6 st7">O</tspan><tspan x="28.5" y="0" class="st1 st6 st7">p</tspan><tspan x="53" y="0" class="st1 st6 st7">e</tspan><tspan x="74.8" y="0" class="st1 st6 st7">n </tspan><tspan x="108.1" y="0" class="st1 st6 st7">d</tspan><tspan x="131.7" y="0" class="st1 st6 st7">a</tspan><tspan x="151.8" y="0" class="st1 st6 st7">t</tspan><tspan x="166.4" y="0" class="st1 st6 st7">a</tspan></text>
	<text transform="matrix(1 0 0 1 1440.4731 811.9858)"><tspan x="0" y="0" class="st1 st6 st7">(</tspan><tspan x="11.3" y="0" class="st1 st6 st7">d</tspan><tspan x="34.8" y="0" class="st1 st6 st7">a</tspan><tspan x="55.4" y="0" class="st1 st6 st7">d</tspan><tspan x="78.4" y="0" class="st1 st6 st7">e</tspan><tspan x="100.4" y="0" class="st1 st6 st7">s </tspan><tspan x="128.7" y="0" class="st1 st6 st7">o</tspan><tspan x="151.3" y="0" class="st1 st6 st7">b</tspan><tspan x="175.8" y="0" class="st1 st6 st7">e</tspan><tspan x="197.7" y="0" class="st1 st6 st7 st11">r</tspan><tspan x="215.1" y="0" class="st1 st6 st7">t</tspan><tspan x="229.4" y="0" class="st1 st6 st7">e</tspan><tspan x="251.4" y="0" class="st1 st6 st7">s) </tspan><tspan x="290.9" y="0" class="st1 st6 st7">p</tspan><tspan x="315.4" y="0" class="st1 st6 st7">e</tspan><tspan x="337.3" y="0" class="st1 st6 st7">r </tspan><tspan x="363.5" y="0" class="st1 st6 st7 st8">d</tspan><tspan x="386.5" y="0" class="st1 st6 st7">e</tspan><tspan x="408.7" y="0" class="st1 st6 st7 st8">f</tspan><tspan x="422" y="0" class="st1 st6 st7">e</tspan><tspan x="444.4" y="0" class="st1 st6 st7">c</tspan><tspan x="466.2" y="0" class="st1 st6 st7">t</tspan><tspan x="480.5" y="0" class="st1 st6 st7">e</tspan></text>
	<text transform="matrix(1 0 0 1 1536.9341 914.6851)"><tspan x="0" y="0" class="st1 st6 st7">S</tspan><tspan x="20.3" y="0" class="st1 st6 st7">e</tspan><tspan x="42" y="0" class="st1 st6 st7">g</tspan><tspan x="61.9" y="0" class="st1 st6 st7 st8">u</tspan><tspan x="83.6" y="0" class="st1 st6 st7">r</tspan><tspan x="99.2" y="0" class="st1 st6 st7">e</tspan><tspan x="121.3" y="0" class="st1 st6 st7">t</tspan><tspan x="136" y="0" class="st1 st6 st7">a</tspan><tspan x="156.1" y="0" class="st1 st6 st7">t i </tspan><tspan x="202.5" y="0" class="st1 st6 st7">d</tspan><tspan x="226.1" y="0" class="st1 st6 st7">a</tspan><tspan x="246.6" y="0" class="st1 st6 st7">d</tspan><tspan x="269.7" y="0" class="st1 st6 st7">e</tspan><tspan x="291.7" y="0" class="st1 st6 st7">s</tspan></text>
	<text transform="matrix(1 0 0 1 1529.0942 1017.3843)"><tspan x="0" y="0" class="st1 st6 st7">M</tspan><tspan x="30.9" y="0" class="st1 st6 st7">e</tspan><tspan x="52.9" y="0" class="st1 st6 st7">t</tspan><tspan x="67.2" y="0" class="st1 st6 st7">o</tspan><tspan x="91.1" y="0" class="st1 st6 st7">d</tspan><tspan x="114.2" y="0" class="st1 st6 st7">o</tspan><tspan x="136.8" y="0" class="st1 st6 st7">l</tspan><tspan x="146" y="0" class="st1 st6 st7">o</tspan><tspan x="168.9" y="0" class="st1 st6 st7">g</tspan><tspan x="188.3" y="0" class="st1 st6 st7">i</tspan><tspan x="198.9" y="0" class="st1 st6 st7">e</tspan><tspan x="220.9" y="0" class="st1 st6 st7">s à</tspan><tspan x="269.5" y="0" class="st1 st6 st7">g</tspan><tspan x="288.8" y="0" class="st1 st6 st7 st8">i</tspan><tspan x="298.3" y="0" class="st1 st6 st7">l</tspan><tspan x="307.4" y="0" class="st1 st6 st7">s</tspan></text>
	<text transform="matrix(1 0 0 1 1999.0239 613.103)"><tspan x="0" y="0" class="st1 st6 st7">P</tspan><tspan x="22.8" y="0" class="st1 st6 st7">r</tspan><tspan x="38.4" y="0" class="st1 st6 st7">e</tspan><tspan x="60.5" y="0" class="st1 st6 st7 st8">f</tspan><tspan x="73.9" y="0" class="st1 st6 st7">e</tspan><tspan x="95.8" y="0" class="st1 st6 st7">r</tspan><tspan x="111.4" y="0" class="st1 st6 st7">è</tspan><tspan x="133.3" y="0" class="st1 st6 st7">n</tspan><tspan x="156.1" y="0" class="st1 st6 st7 st8">c</tspan><tspan x="176.1" y="0" class="st1 st6 st7 st8">i</tspan><tspan x="186.2" y="0" class="st1 st6 st7">a </tspan><tspan x="216.7" y="0" class="st1 st6 st7">o</tspan><tspan x="239.9" y="0" class="st1 st6 st7">p</tspan><tspan x="264.4" y="0" class="st1 st6 st7">e</tspan><tspan x="286.2" y="0" class="st1 st6 st7">n </tspan><tspan x="319.5" y="0" class="st1 st6 st7">s</tspan><tspan x="337" y="0" class="st1 st6 st7">o</tspan><tspan x="359.9" y="0" class="st1 st6 st7 st8">u</tspan><tspan x="381.5" y="0" class="st1 st6 st7">r</tspan><tspan x="397.2" y="0" class="st1 st6 st7">c</tspan><tspan x="418.3" y="0" class="st1 st6 st7">e (</tspan><tspan x="461.9" y="0" class="st1 st6 st7">c</tspan><tspan x="483" y="0" class="st1 st6 st7">o</tspan><tspan x="506.9" y="0" class="st1 st6 st7 st8">d</tspan><tspan x="529.1" y="0" class="st1 st6 st7">i </tspan></text>
	<text transform="matrix(1 0 0 1 2212.5474 660.6538)"><tspan x="0" y="0" class="st1 st6 st7">o</tspan><tspan x="22.6" y="0" class="st1 st6 st7">b</tspan><tspan x="47.1" y="0" class="st1 st6 st7">e</tspan><tspan x="69" y="0" class="st1 st6 st7 st11">r</tspan><tspan x="86.4" y="0" class="st1 st6 st7">t)</tspan></text>
	<text transform="matrix(1 0 0 1 2175.5005 763.353)"><tspan x="0" y="0" class="st1 st6 st7">O</tspan><tspan x="28.5" y="0" class="st1 st6 st7">p</tspan><tspan x="53" y="0" class="st1 st6 st7">e</tspan><tspan x="74.8" y="0" class="st1 st6 st7">n </tspan><tspan x="108.1" y="0" class="st1 st6 st7">d</tspan><tspan x="131.7" y="0" class="st1 st6 st7">a</tspan><tspan x="151.8" y="0" class="st1 st6 st7">t</tspan><tspan x="166.4" y="0" class="st1 st6 st7">a</tspan></text>
	<text transform="matrix(1 0 0 1 2017.645 810.9038)"><tspan x="0" y="0" class="st1 st6 st7">(</tspan><tspan x="11.3" y="0" class="st1 st6 st7">d</tspan><tspan x="34.8" y="0" class="st1 st6 st7">a</tspan><tspan x="55.4" y="0" class="st1 st6 st7">d</tspan><tspan x="78.4" y="0" class="st1 st6 st7">e</tspan><tspan x="100.4" y="0" class="st1 st6 st7">s </tspan><tspan x="128.7" y="0" class="st1 st6 st7">o</tspan><tspan x="151.3" y="0" class="st1 st6 st7">b</tspan><tspan x="175.7" y="0" class="st1 st6 st7">e</tspan><tspan x="197.7" y="0" class="st1 st6 st7 st11">r</tspan><tspan x="215.1" y="0" class="st1 st6 st7">t</tspan><tspan x="229.4" y="0" class="st1 st6 st7">e</tspan><tspan x="251.4" y="0" class="st1 st6 st7">s) </tspan><tspan x="290.9" y="0" class="st1 st6 st7">p</tspan><tspan x="315.4" y="0" class="st1 st6 st7">e</tspan><tspan x="337.3" y="0" class="st1 st6 st7">r </tspan><tspan x="363.5" y="0" class="st1 st6 st7">d</tspan><tspan x="386.6" y="0" class="st1 st6 st7">e</tspan><tspan x="408.7" y="0" class="st1 st6 st7 st8">f</tspan><tspan x="422.1" y="0" class="st1 st6 st7">e</tspan><tspan x="444.5" y="0" class="st1 st6 st7">c</tspan><tspan x="466.3" y="0" class="st1 st6 st7">t</tspan><tspan x="480.5" y="0" class="st1 st6 st7">e</tspan></text>
	<text transform="matrix(1 0 0 1 2114.1138 913.603)"><tspan x="0" y="0" class="st1 st6 st7">S</tspan><tspan x="20.3" y="0" class="st1 st6 st7">e</tspan><tspan x="42" y="0" class="st1 st6 st7">g</tspan><tspan x="61.9" y="0" class="st1 st6 st7 st8">u</tspan><tspan x="83.6" y="0" class="st1 st6 st7">r</tspan><tspan x="99.2" y="0" class="st1 st6 st7">e</tspan><tspan x="121.3" y="0" class="st1 st6 st7">t</tspan><tspan x="136" y="0" class="st1 st6 st7">a</tspan><tspan x="156.1" y="0" class="st1 st6 st7">t i </tspan><tspan x="202.5" y="0" class="st1 st6 st7">d</tspan><tspan x="226.1" y="0" class="st1 st6 st7">a</tspan><tspan x="246.6" y="0" class="st1 st6 st7">d</tspan><tspan x="269.7" y="0" class="st1 st6 st7">e</tspan><tspan x="291.7" y="0" class="st1 st6 st7">s</tspan></text>
	<text transform="matrix(1 0 0 1 2106.27 1016.3022)"><tspan x="0" y="0" class="st1 st6 st7">M</tspan><tspan x="30.9" y="0" class="st1 st6 st7">e</tspan><tspan x="52.9" y="0" class="st1 st6 st7">t</tspan><tspan x="67.2" y="0" class="st1 st6 st7">o</tspan><tspan x="91.1" y="0" class="st1 st6 st7">d</tspan><tspan x="114.2" y="0" class="st1 st6 st7">o</tspan><tspan x="136.8" y="0" class="st1 st6 st7">l</tspan><tspan x="146" y="0" class="st1 st6 st7">o</tspan><tspan x="168.9" y="0" class="st1 st6 st7">g</tspan><tspan x="188.3" y="0" class="st1 st6 st7">i</tspan><tspan x="198.9" y="0" class="st1 st6 st7">e</tspan><tspan x="220.9" y="0" class="st1 st6 st7">s à</tspan><tspan x="269.5" y="0" class="st1 st6 st7">g</tspan><tspan x="288.8" y="0" class="st1 st6 st7 st8">i</tspan><tspan x="298.3" y="0" class="st1 st6 st7">l</tspan><tspan x="307.4" y="0" class="st1 st6 st7">s</tspan></text>
	<line class="st12" x1="554.1" y1="532.5" x2="554.1" y2="541"/>
	<polygon class="st13" points="554.1,562 564.6,533.1 543.6,533.1 	"/>
	<line class="st12" x1="1117.3" y1="540.4" x2="1117.3" y2="548.9"/>
	<polygon class="st13" points="1117.3,569.8 1127.8,541 1106.8,541 	"/>
	<line class="st12" x1="1691.7" y1="540.4" x2="1691.7" y2="548.9"/>
	<polygon class="st13" points="1691.7,569.8 1702.2,541 1681.2,541 	"/>
	<line class="st12" x1="2268.8" y1="540.4" x2="2268.8" y2="548.9"/>
	<polygon class="st13" points="2268.8,569.8 2279.3,541 2258.3,541 	"/>
	<line class="st12" x1="1691.7" y1="838.9" x2="1691.7" y2="847.4"/>
	<polygon class="st13" points="1691.7,868.3 1702.2,839.5 1681.2,839.5 	"/>
	<line class="st12" x1="2268.8" y1="838.9" x2="2268.8" y2="847.4"/>
	<polygon class="st13" points="2268.8,868.3 2279.3,839.5 2258.3,839.5 	"/>
	<line class="st12" x1="1691.7" y1="681.9" x2="1691.7" y2="690.4"/>
	<polygon class="st13" points="1691.7,711.4 1702.2,682.5 1681.2,682.5 	"/>
	<line class="st12" x1="2268.8" y1="681.9" x2="2268.8" y2="690.4"/>
	<polygon class="st13" points="2268.8,711.4 2279.3,682.5 2258.3,682.5 	"/>
	<line class="st12" x1="1691.7" y1="946" x2="1691.7" y2="954.5"/>
	<polygon class="st13" points="1691.7,975.4 1702.2,946.6 1681.2,946.6 	"/>
	<line class="st12" x1="2268.8" y1="946" x2="2268.8" y2="954.5"/>
	<polygon class="st13" points="2268.8,975.4 2279.3,946.6 2258.3,946.6 	"/>
	<line class="st12" x1="1117.3" y1="639.5" x2="1117.3" y2="648"/>
	<polygon class="st13" points="1117.3,668.9 1127.8,640.1 1106.8,640.1 	"/>
</g>
</svg>
