<?xml version="1.0" encoding="utf-8"?>
<!-- Generator: Adobe Illustrator 22.1.0, SVG Export Plug-In . SVG Version: 6.00 Build 0)  -->
<svg version="1.1" id="Capa_1" xmlns="http://www.w3.org/2000/svg" xmlns:xlink="http://www.w3.org/1999/xlink" x="0px" y="0px"
	 viewBox="0 0 2813.9 1445.1" style="enable-background:new 0 0 2813.9 1445.1;" xml:space="preserve">
<style type="text/css">
	.st0{clip-path:url(#SVGID_2_);fill:#FFFFFF;fill-opacity:0;}
	.st1{fill:#B7B7EC;}
	.st2{fill:none;stroke:#E74F52;stroke-width:0.752;}
	.st3{fill:#E74F52;}
	.st4{fill:none;stroke:#3B31F4;stroke-width:6;}
	.st5{fill:#FFFFFF;}
	.st6{font-family:'Apercu-Light';}
	.st7{font-size:42.1986px;}
	.st8{letter-spacing:-1;}
	.st9{letter-spacing:-2;}
	.st10{fill:#3B31F4;}
	.st11{fill:#1D1D1B;}
	.st12{font-size:28.7718px;}
</style>
<g>
	<g>
		<g>
			<g>
				<g>
					<g>
						<g>
							<defs>
								<rect id="SVGID_1_" x="-1560.5" y="-3198.4" width="499" height="373"/>
							</defs>
							<clipPath id="SVGID_2_">
								<use xlink:href="#SVGID_1_"  style="overflow:visible;"/>
							</clipPath>
							<rect x="-1560.5" y="-3198.4" class="st0" width="499" height="373"/>
						</g>
					</g>
				</g>
			</g>
		</g>
	</g>
</g>
<g>
	<polygon class="st1" points="519.8,660.6 519.8,760.3 1083.2,760.3 1096.2,710.4 1083.2,660.6 	"/>
	<polygon class="st1" points="1125.9,660.6 1125.9,760.3 1689.3,760.3 1702.3,710.4 1689.3,660.6 	"/>
	<polygon class="st1" points="1733.9,660.6 1733.9,760.3 2297.3,760.3 2310.3,710.4 2297.3,660.6 	"/>
	<line class="st2" x1="785.3" y1="786.2" x2="785.3" y2="792.9"/>
	<polygon class="st3" points="785.3,809.4 793.6,786.7 777,786.7 	"/>
	<line class="st2" x1="1400.3" y1="786.2" x2="1400.3" y2="792.9"/>
	<polygon class="st3" points="1400.3,809.4 1408.6,786.7 1392,786.7 	"/>
	<line class="st2" x1="2012.4" y1="786.2" x2="2012.4" y2="792.9"/>
	<polygon class="st3" points="2012.4,809.4 2020.6,786.7 2004.1,786.7 	"/>
	<polygon class="st4" points="503.6,647.7 503.6,747.5 1067,747.5 1080,697.6 1067,647.7 	"/>
	<polygon class="st4" points="1108,647.7 1108,747.5 1671.4,747.5 1688,697.6 1671.4,647.7 	"/>
	<polygon class="st4" points="1716,647.7 1716,747.5 2279.4,747.5 2296,697.6 2279.4,647.7 	"/>
	<text transform="matrix(1 0 0 1 560.7839 716.6384)"><tspan x="0" y="0" class="st5 st6 st7">C</tspan><tspan x="28.3" y="0" class="st5 st6 st7 st8">R</tspan><tspan x="53.3" y="0" class="st5 st6 st7">I</tspan><tspan x="64.3" y="0" class="st5 st6 st7">T</tspan><tspan x="86" y="0" class="st5 st6 st7 st8">E</tspan><tspan x="108.7" y="0" class="st5 st6 st7 st8">R</tspan><tspan x="133.8" y="0" class="st5 st6 st7">I</tspan><tspan x="144.6" y="0" class="st5 st6 st7">O </tspan><tspan x="186.1" y="0" class="st5 st6 st7 st8">D</tspan><tspan x="212.9" y="0" class="st5 st6 st7">E </tspan><tspan x="247.5" y="0" class="st5 st6 st7">S</tspan><tspan x="268.4" y="0" class="st5 st6 st7 st8">O</tspan><tspan x="298.1" y="0" class="st5 st6 st7 st9">L</tspan><tspan x="317.6" y="0" class="st5 st6 st7">V</tspan><tspan x="341.7" y="0" class="st5 st6 st7 st8">E</tspan><tspan x="364.4" y="0" class="st5 st6 st7">N</tspan><tspan x="393.2" y="0" class="st5 st6 st7">C</tspan><tspan x="421.5" y="0" class="st5 st6 st7">I</tspan><tspan x="432.1" y="0" class="st5 st6 st7">A</tspan></text>
	<text transform="matrix(1 0 0 1 1139.8757 716.6384)"><tspan x="0" y="0" class="st5 st6 st7 st8">C</tspan><tspan x="27.5" y="0" class="st5 st6 st7 st9">R</tspan><tspan x="51.7" y="0" class="st5 st6 st7 st8">I</tspan><tspan x="61.8" y="0" class="st5 st6 st7">T</tspan><tspan x="82.6" y="0" class="st5 st6 st7 st9">E</tspan><tspan x="104.5" y="0" class="st5 st6 st7 st9">R</tspan><tspan x="128.7" y="0" class="st5 st6 st7 st8">I</tspan><tspan x="138.7" y="0" class="st5 st6 st7">O</tspan><tspan x="168.7" y="0" class="st5 st6 st7"> </tspan><tspan x="178.6" y="0" class="st5 st6 st7 st8">D</tspan><tspan x="204.5" y="0" class="st5 st6 st7">E </tspan><tspan x="237.4" y="0" class="st5 st6 st7 st8">A</tspan><tspan x="260.9" y="0" class="st5 st6 st7">D</tspan><tspan x="288" y="0" class="st5 st6 st7 st8">J</tspan><tspan x="307.2" y="0" class="st5 st6 st7 st9">U</tspan><tspan x="332.8" y="0" class="st5 st6 st7 st8">D</tspan><tspan x="358.7" y="0" class="st5 st6 st7 st8">I</tspan><tspan x="368.7" y="0" class="st5 st6 st7 st8">C</tspan><tspan x="396.3" y="0" class="st5 st6 st7 st8">A</tspan><tspan x="419.1" y="0" class="st5 st6 st7 st8">C</tspan><tspan x="446.6" y="0" class="st5 st6 st7 st8">I</tspan><tspan x="456.6" y="0" class="st5 st6 st7 st9">Ó</tspan><tspan x="485.5" y="0" class="st5 st6 st7">N</tspan></text>
	<text transform="matrix(1 0 0 1 1785.6824 716.6384)"><tspan x="0" y="0" class="st5 st6 st7">C</tspan><tspan x="28.5" y="0" class="st5 st6 st7 st8">O</tspan><tspan x="58.3" y="0" class="st5 st6 st7 st8">N</tspan><tspan x="86.1" y="0" class="st5 st6 st7 st8">D</tspan><tspan x="112.9" y="0" class="st5 st6 st7">I</tspan><tspan x="123.8" y="0" class="st5 st6 st7">C</tspan><tspan x="152.1" y="0" class="st5 st6 st7">I</tspan><tspan x="163" y="0" class="st5 st6 st7">Ó D</tspan><tspan x="232.4" y="0" class="st5 st6 st7 st8">’</tspan><tspan x="242.3" y="0" class="st5 st6 st7">E</tspan><tspan x="266.3" y="0" class="st5 st6 st7">X</tspan><tspan x="289.8" y="0" class="st5 st6 st7">E</tspan><tspan x="312.8" y="0" class="st5 st6 st7">C</tspan><tspan x="341.5" y="0" class="st5 st6 st7">UC</tspan><tspan x="397.1" y="0" class="st5 st6 st7">I</tspan><tspan x="408" y="0" class="st5 st6 st7">Ó</tspan></text>
	<text transform="matrix(1 0 0 1 579.2664 871.8454)"><tspan x="0" y="0" class="st10 st6 st7">C</tspan><tspan x="28.7" y="0" class="st10 st6 st7 st8">u</tspan><tspan x="51.9" y="0" class="st10 st6 st7">m</tspan><tspan x="87" y="0" class="st10 st6 st7">p</tspan><tspan x="111.3" y="0" class="st10 st6 st7 st9">l</tspan><tspan x="119.5" y="0" class="st10 st6 st7 st8">i</tspan><tspan x="129.4" y="0" class="st10 st6 st7 st8">m</tspan><tspan x="163.9" y="0" class="st10 st6 st7">i</tspan><tspan x="175.1" y="0" class="st10 st6 st7">e</tspan><tspan x="198" y="0" class="st10 st6 st7">n</tspan><tspan x="221.3" y="0" class="st10 st6 st7">t</tspan><tspan x="236.3" y="0" class="st10 st6 st7">o </tspan><tspan x="271.6" y="0" class="st10 st6 st7">ob</tspan><tspan x="319.6" y="0" class="st10 st6 st7 st9">l</tspan><tspan x="327.8" y="0" class="st10 st6 st7 st8">i</tspan><tspan x="338.3" y="0" class="st10 st6 st7">g</tspan><tspan x="359.4" y="0" class="st10 st6 st7">a</tspan><tspan x="380.9" y="0" class="st10 st6 st7 st8">d</tspan><tspan x="405.1" y="0" class="st10 st6 st7">o </tspan></text>
	<text transform="matrix(1 0 0 1 1178.1492 871.8454)"><tspan x="0" y="0" class="st10 st6 st7">C</tspan><tspan x="28.7" y="0" class="st10 st6 st7 st8">u</tspan><tspan x="51.9" y="0" class="st10 st6 st7">m</tspan><tspan x="87" y="0" class="st10 st6 st7">p</tspan><tspan x="111.3" y="0" class="st10 st6 st7 st9">l</tspan><tspan x="119.5" y="0" class="st10 st6 st7 st8">i</tspan><tspan x="129.4" y="0" class="st10 st6 st7 st8">m</tspan><tspan x="163.9" y="0" class="st10 st6 st7">i</tspan><tspan x="175.1" y="0" class="st10 st6 st7">e</tspan><tspan x="198" y="0" class="st10 st6 st7">n</tspan><tspan x="221.3" y="0" class="st10 st6 st7">t</tspan><tspan x="236.3" y="0" class="st10 st6 st7">o </tspan><tspan x="271.5" y="0" class="st10 st6 st7">o</tspan><tspan x="295.9" y="0" class="st10 st6 st7">p</tspan><tspan x="321.5" y="0" class="st10 st6 st7 st8">c</tspan><tspan x="342.5" y="0" class="st10 st6 st7">i</tspan><tspan x="353.5" y="0" class="st10 st6 st7">o</tspan><tspan x="377.8" y="0" class="st10 st6 st7">n</tspan><tspan x="401.6" y="0" class="st10 st6 st7">a</tspan><tspan x="422.1" y="0" class="st10 st6 st7">l</tspan></text>
	<text transform="matrix(1 0 0 1 1786.6511 871.8454)"><tspan x="0" y="0" class="st10 st6 st7">C</tspan><tspan x="28.7" y="0" class="st10 st6 st7 st8">u</tspan><tspan x="51.9" y="0" class="st10 st6 st7">m</tspan><tspan x="87" y="0" class="st10 st6 st7">p</tspan><tspan x="111.3" y="0" class="st10 st6 st7 st9">l</tspan><tspan x="119.5" y="0" class="st10 st6 st7 st8">i</tspan><tspan x="129.4" y="0" class="st10 st6 st7 st8">m</tspan><tspan x="163.9" y="0" class="st10 st6 st7">i</tspan><tspan x="175.1" y="0" class="st10 st6 st7">e</tspan><tspan x="198" y="0" class="st10 st6 st7">n</tspan><tspan x="221.3" y="0" class="st10 st6 st7">t</tspan><tspan x="236.3" y="0" class="st10 st6 st7">o </tspan><tspan x="271.6" y="0" class="st10 st6 st7">ob</tspan><tspan x="319.6" y="0" class="st10 st6 st7 st9">l</tspan><tspan x="327.8" y="0" class="st10 st6 st7 st8">i</tspan><tspan x="338.4" y="0" class="st10 st6 st7">g</tspan><tspan x="359.4" y="0" class="st10 st6 st7">a</tspan><tspan x="380.9" y="0" class="st10 st6 st7 st8">d</tspan><tspan x="405.1" y="0" class="st10 st6 st7">o </tspan></text>
	<text transform="matrix(1 0 0 1 653.1765 617.736)"><tspan x="0" y="0" class="st11 st6 st12">A</tspan><tspan x="16.8" y="0" class="st11 st6 st12">cc</tspan><tspan x="47" y="0" class="st11 st6 st12">e</tspan><tspan x="62.7" y="0" class="st11 st6 st12">s</tspan><tspan x="75.2" y="0" class="st11 st6 st12">o a </tspan><tspan x="121.1" y="0" class="st11 st6 st12">l</tspan><tspan x="127.5" y="0" class="st11 st6 st12">a </tspan><tspan x="149.3" y="0" class="st11 st6 st12 st8">l</tspan><tspan x="154.9" y="0" class="st11 st6 st12">i</tspan><tspan x="162.5" y="0" class="st11 st6 st12">c</tspan><tspan x="176.8" y="0" class="st11 st6 st12">i</tspan><tspan x="184.4" y="0" class="st11 st6 st12">t</tspan><tspan x="194.9" y="0" class="st11 st6 st12">a</tspan><tspan x="209.5" y="0" class="st11 st6 st12">c</tspan><tspan x="223.8" y="0" class="st11 st6 st12">i</tspan><tspan x="231.4" y="0" class="st11 st6 st12">ó</tspan><tspan x="248" y="0" class="st11 st6 st12">n</tspan></text>
	<text transform="matrix(1 0 0 1 1851.6062 588.0466)"><tspan x="0" y="0" class="st11 st6 st12">C</tspan><tspan x="19.4" y="0" class="st11 st6 st12">on</tspan><tspan x="52.3" y="0" class="st11 st6 st12 st8">d</tspan><tspan x="68.1" y="0" class="st11 st6 st12">i</tspan><tspan x="75.8" y="0" class="st11 st6 st12">c</tspan><tspan x="90" y="0" class="st11 st6 st12">i</tspan><tspan x="97.5" y="0" class="st11 st6 st12">on</tspan><tspan x="130.5" y="0" class="st11 st6 st12">e</tspan><tspan x="146.2" y="0" class="st11 st6 st12">s </tspan><tspan x="166.4" y="0" class="st11 st6 st12">q</tspan><tspan x="182.9" y="0" class="st11 st6 st12">u</tspan><tspan x="199.3" y="0" class="st11 st6 st12">e </tspan><tspan x="222.4" y="0" class="st11 st6 st12">o</tspan><tspan x="238.6" y="0" class="st11 st6 st12">b</tspan><tspan x="255.5" y="0" class="st11 st6 st12">s</tspan><tspan x="268.1" y="0" class="st11 st6 st12">e</tspan><tspan x="283.8" y="0" class="st11 st6 st12">r</tspan><tspan x="295.6" y="0" class="st11 st6 st12">v</tspan><tspan x="308.2" y="0" class="st11 st6 st12">a</tspan><tspan x="322.2" y="0" class="st11 st6 st12">r </tspan></text>
	<text transform="matrix(1 0 0 1 1806.2898 625.5349)"><tspan x="0" y="0" class="st11 st6 st12">d</tspan><tspan x="16.3" y="0" class="st11 st6 st12 st8">u</tspan><tspan x="31.7" y="0" class="st11 st6 st12">r</tspan><tspan x="43.1" y="0" class="st11 st6 st12">a</tspan><tspan x="57.1" y="0" class="st11 st6 st12">n</tspan><tspan x="73" y="0" class="st11 st6 st12">t</tspan><tspan x="83.2" y="0" class="st11 st6 st12">e </tspan><tspan x="106.3" y="0" class="st11 st6 st12">l</tspan><tspan x="112.7" y="0" class="st11 st6 st12">a </tspan><tspan x="134.5" y="0" class="st11 st6 st12">ej</tspan><tspan x="157.2" y="0" class="st11 st6 st12">e</tspan><tspan x="173.2" y="0" class="st11 st6 st12">c</tspan><tspan x="188.4" y="0" class="st11 st6 st12">u</tspan><tspan x="204.7" y="0" class="st11 st6 st12">c</tspan><tspan x="219" y="0" class="st11 st6 st12">i</tspan><tspan x="226.7" y="0" class="st11 st6 st12">ó</tspan><tspan x="243.2" y="0" class="st11 st6 st12">n </tspan><tspan x="267.1" y="0" class="st11 st6 st12">d</tspan><tspan x="283.6" y="0" class="st11 st6 st12">e</tspan><tspan x="299.5" y="0" class="st11 st6 st12">l </tspan><tspan x="313.8" y="0" class="st11 st6 st12">c</tspan><tspan x="328.9" y="0" class="st11 st6 st12">o</tspan><tspan x="345.5" y="0" class="st11 st6 st12">n</tspan><tspan x="361.4" y="0" class="st11 st6 st12">t</tspan><tspan x="371.7" y="0" class="st11 st6 st12">r</tspan><tspan x="383" y="0" class="st11 st6 st12">a</tspan><tspan x="397.4" y="0" class="st11 st6 st12">t</tspan><tspan x="407.6" y="0" class="st11 st6 st12">o</tspan></text>
	<text transform="matrix(1 0 0 1 1115.741 617.736)"><tspan x="0" y="0" class="st11 st6 st12">V</tspan><tspan x="15.7" y="0" class="st11 st6 st12">a</tspan><tspan x="29.8" y="0" class="st11 st6 st12">l</tspan><tspan x="36.4" y="0" class="st11 st6 st12">o</tspan><tspan x="52.4" y="0" class="st11 st6 st12">r</tspan><tspan x="63.8" y="0" class="st11 st6 st12">a</tspan><tspan x="78.4" y="0" class="st11 st6 st12">c</tspan><tspan x="92.7" y="0" class="st11 st6 st12">i</tspan><tspan x="100.3" y="0" class="st11 st6 st12">ó</tspan><tspan x="116.9" y="0" class="st11 st6 st12">n </tspan><tspan x="140.7" y="0" class="st11 st6 st12">d</tspan><tspan x="157.2" y="0" class="st11 st6 st12">e </tspan><tspan x="180.4" y="0" class="st11 st6 st12">l</tspan><tspan x="186.8" y="0" class="st11 st6 st12">a</tspan><tspan x="201.1" y="0" class="st11 st6 st12">s </tspan><tspan x="221.3" y="0" class="st11 st6 st12">o</tspan><tspan x="237.3" y="0" class="st11 st6 st12">f</tspan><tspan x="246.9" y="0" class="st11 st6 st12">e</tspan><tspan x="262.6" y="0" class="st11 st6 st12">r</tspan><tspan x="275" y="0" class="st11 st6 st12">t</tspan><tspan x="285.5" y="0" class="st11 st6 st12">a</tspan><tspan x="299.7" y="0" class="st11 st6 st12">s </tspan><tspan x="319.9" y="0" class="st11 st6 st12">d</tspan><tspan x="336.2" y="0" class="st11 st6 st12 st8">u</tspan><tspan x="351.6" y="0" class="st11 st6 st12">r</tspan><tspan x="363" y="0" class="st11 st6 st12">a</tspan><tspan x="377" y="0" class="st11 st6 st12">n</tspan><tspan x="392.9" y="0" class="st11 st6 st12">t</tspan><tspan x="403.1" y="0" class="st11 st6 st12">e </tspan><tspan x="426.2" y="0" class="st11 st6 st12">l</tspan><tspan x="432.6" y="0" class="st11 st6 st12">a </tspan><tspan x="454.4" y="0" class="st11 st6 st12 st8">l</tspan><tspan x="460" y="0" class="st11 st6 st12">i</tspan><tspan x="467.6" y="0" class="st11 st6 st12">c</tspan><tspan x="481.9" y="0" class="st11 st6 st12">i</tspan><tspan x="489.5" y="0" class="st11 st6 st12">t</tspan><tspan x="500" y="0" class="st11 st6 st12">a</tspan><tspan x="514.7" y="0" class="st11 st6 st12">c</tspan><tspan x="529" y="0" class="st11 st6 st12">i</tspan><tspan x="536.6" y="0" class="st11 st6 st12">ó</tspan><tspan x="553.2" y="0" class="st11 st6 st12">n</tspan></text>
</g>
</svg>
