<?xml version="1.0" encoding="utf-8"?>
<!-- Generator: Adobe Illustrator 22.1.0, SVG Export Plug-In . SVG Version: 6.00 Build 0)  -->
<svg version="1.1" id="Capa_1" xmlns="http://www.w3.org/2000/svg" xmlns:xlink="http://www.w3.org/1999/xlink" x="0px" y="0px"
	 viewBox="0 0 2813.9 1445.1" style="enable-background:new 0 0 2813.9 1445.1;" xml:space="preserve">
<style type="text/css">
	.st0{opacity:0;clip-path:url(#SVGID_2_);fill-rule:evenodd;clip-rule:evenodd;fill:#FFFFFF;}
	.st1{fill:none;}
	.st2{fill:#231F20;}
	.st3{font-family:'Apercu-Bold';}
	.st4{font-size:31.5px;}
	.st5{fill:#E84F52;}
	.st6{font-size:31.4973px;}
	.st7{font-size:73.8809px;}
	.st8{fill:none;stroke:#3B31F5;stroke-width:8.9992;stroke-miterlimit:10;}
	.st9{fill:#3B31F5;}
	.st10{fill:none;stroke:#3B31F5;stroke-width:2.8371;stroke-miterlimit:10;}
	.st11{font-size:39.782px;}
	.st12{fill:#FFFFFF;}
</style>
<g>
	<defs>
		<rect id="SVGID_1_" x="-1560.5" y="-3198.4" width="499" height="373"/>
	</defs>
	<clipPath id="SVGID_2_">
		<use xlink:href="#SVGID_1_"  style="overflow:visible;"/>
	</clipPath>
	<rect x="-1560.5" y="-3198.4" class="st0" width="499" height="373"/>
</g>
<rect x="2118.5" y="780.1" class="st1" width="180.2" height="87.4"/>
<text transform="matrix(1 0 0 1 2146.5786 802.376)"><tspan x="0" y="0" class="st2 st3 st4">Garantia</tspan><tspan x="-15.8" y="37.8" class="st2 st3 st4">de qualitat</tspan></text>
<rect x="1455.4" y="1242.4" class="st1" width="444" height="99.5"/>
<text transform="matrix(1 0 0 1 1517.7283 1264.6539)"><tspan x="0" y="0" class="st5 st3 st6">Ciutadans / Empreses</tspan><tspan x="-57.4" y="37.8" class="st5 st3 st6">Àmbit acadèmic / Comunitats</tspan></text>
<rect x="820.6" y="1259.1" class="st1" width="256.7" height="99.5"/>
<text transform="matrix(1 0 0 1 832.6145 1281.4429)"><tspan x="0" y="0" class="st5 st3 st6">Oficina d’Anàlisi </tspan><tspan x="14.2" y="37.8" class="st5 st3 st6">de Dades BCN</tspan></text>
<rect x="802.8" y="871" class="st1" width="292.4" height="99.5"/>
<text transform="matrix(1 0 0 1 810.2668 893.291)"><tspan x="0" y="0" class="st5 st3 st6">Equips encarregats </tspan><tspan x="13.7" y="37.8" class="st5 st3 st6">de les dades BCN</tspan></text>
<rect x="1061.3" y="1030.5" class="st1" width="391.2" height="76.5"/>
<text transform="matrix(1 0 0 1 1214.0406 1052.7534)"><tspan x="0" y="0" class="st2 st3 st6">Casos</tspan><tspan x="11.8" y="37.8" class="st2 st3 st6">d’ús</tspan></text>
<rect x="1061.3" y="1179.1" class="st1" width="391.2" height="99.5"/>
<text transform="matrix(1 0 0 1 1172.4962 1201.3501)" class="st2 st3 st6">Perspectiva</text>
<rect x="1573.1" y="172" class="st1" width="395.8" height="82"/>
<text transform="matrix(1 0 0 1 1573.123 224.2754)" class="st5 st3 st7">DADES </text>
<g>
	<g>
		<line class="st8" x1="1179.2" y1="1125.3" x2="1334.7" y2="1125.3"/>
		<g>
			<polygon class="st9" points="1184.2,1142.3 1154.7,1125.3 1184.2,1108.2 			"/>
		</g>
		<g>
			<polygon class="st9" points="1329.7,1142.3 1359.2,1125.3 1329.7,1108.2 			"/>
		</g>
	</g>
</g>
<g>
	<g>
		<line class="st10" x1="949" y1="1078" x2="949" y2="1109.5"/>
		<g>
			<polygon class="st9" points="943.3,1079.6 949,1069.8 954.7,1079.6 			"/>
		</g>
		<g>
			<polygon class="st9" points="943.3,1107.8 949,1117.6 954.7,1107.8 			"/>
		</g>
	</g>
</g>
<g>
	<g>
		<g>
			<path class="st5" d="M906.6,997.1c-12.3,0-22.3-10-22.3-22.3c0-12.3,10-22.3,22.3-22.3c12.3,0,22.3,10,22.3,22.3
				C928.8,987.1,918.8,997.1,906.6,997.1z M906.6,963c-6.5,0-11.8,5.3-11.8,11.8c0,6.5,5.3,11.8,11.8,11.8c6.5,0,11.8-5.3,11.8-11.8
				C918.4,968.3,913.1,963,906.6,963z"/>
		</g>
		<g>
			<path class="st5" d="M937.9,1042.6c-2.9,0-5.2-2.3-5.2-5.2c0-14.4-11.7-26.1-26.1-26.1s-26.1,11.7-26.1,26.1
				c0,2.9-2.3,5.2-5.2,5.2s-5.2-2.3-5.2-5.2c0-20.2,16.4-36.6,36.6-36.6c20.2,0,36.6,16.4,36.6,36.6
				C943.1,1040.2,940.8,1042.6,937.9,1042.6z"/>
		</g>
	</g>
	<g>
		<g>
			<path class="st5" d="M991.4,997.1c-12.3,0-22.3-10-22.3-22.3c0-12.3,10-22.3,22.3-22.3c12.3,0,22.3,10,22.3,22.3
				C1013.7,987.1,1003.7,997.1,991.4,997.1z M991.4,963c-6.5,0-11.8,5.3-11.8,11.8c0,6.5,5.3,11.8,11.8,11.8
				c6.5,0,11.8-5.3,11.8-11.8C1003.3,968.3,998,963,991.4,963z"/>
		</g>
		<g>
			<path class="st5" d="M1022.8,1042.6c-2.9,0-5.2-2.3-5.2-5.2c0-14.4-11.7-26.1-26.1-26.1s-26.1,11.7-26.1,26.1
				c0,2.9-2.3,5.2-5.2,5.2s-5.2-2.3-5.2-5.2c0-20.2,16.4-36.6,36.6-36.6c20.2,0,36.6,16.4,36.6,36.6
				C1028,1040.2,1025.7,1042.6,1022.8,1042.6z"/>
		</g>
	</g>
</g>
<g>
	<g>
		<g>
			<path class="st5" d="M906.6,1189.4c-12.3,0-22.3-10-22.3-22.3c0-12.3,10-22.3,22.3-22.3c12.3,0,22.3,10,22.3,22.3
				C928.8,1179.4,918.8,1189.4,906.6,1189.4z M906.6,1155.3c-6.5,0-11.8,5.3-11.8,11.8c0,6.5,5.3,11.8,11.8,11.8
				c6.5,0,11.8-5.3,11.8-11.8C918.4,1160.6,913.1,1155.3,906.6,1155.3z"/>
		</g>
		<g>
			<path class="st5" d="M937.9,1235c-2.9,0-5.2-2.3-5.2-5.2c0-14.4-11.7-26.1-26.1-26.1s-26.1,11.7-26.1,26.1c0,2.9-2.3,5.2-5.2,5.2
				s-5.2-2.3-5.2-5.2c0-20.2,16.4-36.6,36.6-36.6c20.2,0,36.6,16.4,36.6,36.6C943.1,1232.6,940.8,1235,937.9,1235z"/>
		</g>
	</g>
	<g>
		<g>
			<path class="st5" d="M991.4,1189.4c-12.3,0-22.3-10-22.3-22.3c0-12.3,10-22.3,22.3-22.3c12.3,0,22.3,10,22.3,22.3
				C1013.7,1179.4,1003.7,1189.4,991.4,1189.4z M991.4,1155.3c-6.5,0-11.8,5.3-11.8,11.8c0,6.5,5.3,11.8,11.8,11.8
				c6.5,0,11.8-5.3,11.8-11.8C1003.3,1160.6,998,1155.3,991.4,1155.3z"/>
		</g>
		<g>
			<path class="st5" d="M1022.8,1235c-2.9,0-5.2-2.3-5.2-5.2c0-14.4-11.7-26.1-26.1-26.1s-26.1,11.7-26.1,26.1
				c0,2.9-2.3,5.2-5.2,5.2s-5.2-2.3-5.2-5.2c0-20.2,16.4-36.6,36.6-36.6c20.2,0,36.6,16.4,36.6,36.6
				C1028,1232.6,1025.7,1235,1022.8,1235z"/>
		</g>
	</g>
</g>
<g>
	<g>
		<g>
			<path class="st5" d="M1678,1005.3c-12.3,0-22.3-10-22.3-22.3c0-12.3,10-22.3,22.3-22.3c12.3,0,22.3,10,22.3,22.3
				C1700.3,995.3,1690.3,1005.3,1678,1005.3z M1678,971.2c-6.5,0-11.8,5.3-11.8,11.8c0,6.5,5.3,11.8,11.8,11.8
				c6.5,0,11.8-5.3,11.8-11.8C1689.8,976.5,1684.5,971.2,1678,971.2z"/>
		</g>
		<g>
			<path class="st5" d="M1709.3,1050.8c-2.9,0-5.2-2.3-5.2-5.2c0-14.4-11.7-26.1-26.1-26.1s-26.1,11.7-26.1,26.1
				c0,2.9-2.3,5.2-5.2,5.2c-2.9,0-5.2-2.3-5.2-5.2c0-20.2,16.4-36.6,36.6-36.6c20.2,0,36.6,16.4,36.6,36.6
				C1714.6,1048.5,1712.2,1050.8,1709.3,1050.8z"/>
		</g>
	</g>
	<g>
		<g>
			<path class="st5" d="M1762.9,1005.3c-12.3,0-22.3-10-22.3-22.3c0-12.3,10-22.3,22.3-22.3s22.3,10,22.3,22.3
				C1785.2,995.3,1775.2,1005.3,1762.9,1005.3z M1762.9,971.2c-6.5,0-11.8,5.3-11.8,11.8c0,6.5,5.3,11.8,11.8,11.8
				s11.8-5.3,11.8-11.8C1774.7,976.5,1769.4,971.2,1762.9,971.2z"/>
		</g>
		<g>
			<path class="st5" d="M1794.2,1050.8c-2.9,0-5.2-2.3-5.2-5.2c0-14.4-11.7-26.1-26.1-26.1s-26.1,11.7-26.1,26.1
				c0,2.9-2.3,5.2-5.2,5.2c-2.9,0-5.2-2.3-5.2-5.2c0-20.2,16.4-36.6,36.6-36.6c20.2,0,36.6,16.4,36.6,36.6
				C1799.4,1048.5,1797.1,1050.8,1794.2,1050.8z"/>
		</g>
	</g>
	<g>
		<g>
			<path class="st5" d="M1593.1,1086.1c-12.3,0-22.3-10-22.3-22.3c0-12.3,10-22.3,22.3-22.3c12.3,0,22.3,10,22.3,22.3
				C1615.4,1076.1,1605.4,1086.1,1593.1,1086.1z M1593.1,1052c-6.5,0-11.8,5.3-11.8,11.8c0,6.5,5.3,11.8,11.8,11.8
				c6.5,0,11.8-5.3,11.8-11.8C1604.9,1057.3,1599.6,1052,1593.1,1052z"/>
		</g>
		<g>
			<path class="st5" d="M1624.4,1131.6c-2.9,0-5.2-2.3-5.2-5.2c0-14.4-11.7-26.1-26.1-26.1s-26.1,11.7-26.1,26.1
				c0,2.9-2.3,5.2-5.2,5.2c-2.9,0-5.2-2.3-5.2-5.2c0-20.2,16.4-36.6,36.6-36.6c20.2,0,36.6,16.4,36.6,36.6
				C1629.7,1129.3,1627.3,1131.6,1624.4,1131.6z"/>
		</g>
	</g>
	<g>
		<g>
			<path class="st5" d="M1593.1,1005.2c-12.3,0-22.3-10-22.3-22.3c0-12.3,10-22.3,22.3-22.3c12.3,0,22.3,10,22.3,22.3
				C1615.4,995.2,1605.4,1005.2,1593.1,1005.2z M1593.1,971.1c-6.5,0-11.8,5.3-11.8,11.8c0,6.5,5.3,11.8,11.8,11.8
				c6.5,0,11.8-5.3,11.8-11.8C1604.9,976.4,1599.6,971.1,1593.1,971.1z"/>
		</g>
		<g>
			<path class="st5" d="M1624.4,1050.7c-2.9,0-5.2-2.3-5.2-5.2c0-14.4-11.7-26.1-26.1-26.1s-26.1,11.7-26.1,26.1
				c0,2.9-2.3,5.2-5.2,5.2c-2.9,0-5.2-2.3-5.2-5.2c0-20.2,16.4-36.6,36.6-36.6c20.2,0,36.6,16.4,36.6,36.6
				C1629.7,1048.3,1627.3,1050.7,1624.4,1050.7z"/>
		</g>
	</g>
	<g>
		<g>
			<path class="st5" d="M1678,1086.1c-12.3,0-22.3-10-22.3-22.3c0-12.3,10-22.3,22.3-22.3c12.3,0,22.3,10,22.3,22.3
				C1700.3,1076.1,1690.3,1086.1,1678,1086.1z M1678,1052c-6.5,0-11.8,5.3-11.8,11.8c0,6.5,5.3,11.8,11.8,11.8
				c6.5,0,11.8-5.3,11.8-11.8C1689.8,1057.3,1684.5,1052,1678,1052z"/>
		</g>
		<g>
			<path class="st5" d="M1709.3,1131.6c-2.9,0-5.2-2.3-5.2-5.2c0-14.4-11.7-26.1-26.1-26.1s-26.1,11.7-26.1,26.1
				c0,2.9-2.3,5.2-5.2,5.2c-2.9,0-5.2-2.3-5.2-5.2c0-20.2,16.4-36.6,36.6-36.6c20.2,0,36.6,16.4,36.6,36.6
				C1714.6,1129.3,1712.2,1131.6,1709.3,1131.6z"/>
		</g>
	</g>
	<g>
		<g>
			<path class="st5" d="M1762.9,1086.1c-12.3,0-22.3-10-22.3-22.3c0-12.3,10-22.3,22.3-22.3s22.3,10,22.3,22.3
				C1785.2,1076.1,1775.2,1086.1,1762.9,1086.1z M1762.9,1052c-6.5,0-11.8,5.3-11.8,11.8c0,6.5,5.3,11.8,11.8,11.8
				s11.8-5.3,11.8-11.8C1774.7,1057.3,1769.4,1052,1762.9,1052z"/>
		</g>
		<g>
			<path class="st5" d="M1794.2,1131.6c-2.9,0-5.2-2.3-5.2-5.2c0-14.4-11.7-26.1-26.1-26.1s-26.1,11.7-26.1,26.1
				c0,2.9-2.3,5.2-5.2,5.2c-2.9,0-5.2-2.3-5.2-5.2c0-20.2,16.4-36.6,36.6-36.6c20.2,0,36.6,16.4,36.6,36.6
				C1799.4,1129.3,1797.1,1131.6,1794.2,1131.6z"/>
		</g>
	</g>
	<g>
		<g>
			<path class="st5" d="M1593.1,1166.9c-12.3,0-22.3-10-22.3-22.3c0-12.3,10-22.3,22.3-22.3c12.3,0,22.3,10,22.3,22.3
				C1615.4,1156.9,1605.4,1166.9,1593.1,1166.9z M1593.1,1132.8c-6.5,0-11.8,5.3-11.8,11.8c0,6.5,5.3,11.8,11.8,11.8
				c6.5,0,11.8-5.3,11.8-11.8C1604.9,1138.1,1599.6,1132.8,1593.1,1132.8z"/>
		</g>
		<g>
			<path class="st5" d="M1624.4,1212.4c-2.9,0-5.2-2.3-5.2-5.2c0-14.4-11.7-26.1-26.1-26.1s-26.1,11.7-26.1,26.1
				c0,2.9-2.3,5.2-5.2,5.2c-2.9,0-5.2-2.3-5.2-5.2c0-20.2,16.4-36.6,36.6-36.6c20.2,0,36.6,16.4,36.6,36.6
				C1629.7,1210.1,1627.3,1212.4,1624.4,1212.4z"/>
		</g>
	</g>
	<g>
		<g>
			<path class="st5" d="M1678,1166.9c-12.3,0-22.3-10-22.3-22.3c0-12.3,10-22.3,22.3-22.3c12.3,0,22.3,10,22.3,22.3
				C1700.3,1156.9,1690.3,1166.9,1678,1166.9z M1678,1132.8c-6.5,0-11.8,5.3-11.8,11.8c0,6.5,5.3,11.8,11.8,11.8
				c6.5,0,11.8-5.3,11.8-11.8C1689.8,1138.1,1684.5,1132.8,1678,1132.8z"/>
		</g>
		<g>
			<path class="st5" d="M1709.3,1212.4c-2.9,0-5.2-2.3-5.2-5.2c0-14.4-11.7-26.1-26.1-26.1s-26.1,11.7-26.1,26.1
				c0,2.9-2.3,5.2-5.2,5.2c-2.9,0-5.2-2.3-5.2-5.2c0-20.2,16.4-36.6,36.6-36.6c20.2,0,36.6,16.4,36.6,36.6
				C1714.6,1210.1,1712.2,1212.4,1709.3,1212.4z"/>
		</g>
	</g>
	<g>
		<g>
			<path class="st5" d="M1762.9,1166.9c-12.3,0-22.3-10-22.3-22.3c0-12.3,10-22.3,22.3-22.3s22.3,10,22.3,22.3
				C1785.2,1156.9,1775.2,1166.9,1762.9,1166.9z M1762.9,1132.8c-6.5,0-11.8,5.3-11.8,11.8c0,6.5,5.3,11.8,11.8,11.8
				s11.8-5.3,11.8-11.8C1774.7,1138.1,1769.4,1132.8,1762.9,1132.8z"/>
		</g>
		<g>
			<path class="st5" d="M1794.2,1212.4c-2.9,0-5.2-2.3-5.2-5.2c0-14.4-11.7-26.1-26.1-26.1s-26.1,11.7-26.1,26.1
				c0,2.9-2.3,5.2-5.2,5.2c-2.9,0-5.2-2.3-5.2-5.2c0-20.2,16.4-36.6,36.6-36.6c20.2,0,36.6,16.4,36.6,36.6
				C1799.4,1210.1,1797.1,1212.4,1794.2,1212.4z"/>
		</g>
	</g>
</g>
<g>
	<g>
		<path class="st8" d="M659.9,920.3c-25.9-20.7-47.3-48-60.5-81.1c-30.6-72.8-15.4-153.5,32.1-210.4"/>
		<g>
			<polygon class="st9" points="665.9,903.4 679.9,934.5 646,931.1 			"/>
		</g>
	</g>
</g>
<g>
	<g>
		<path class="st8" d="M1985.1,962c27.2-19,50.3-44.9,65.6-77.1c35.3-70.7,25.2-152.2-18.5-212.1"/>
		<g>
			<polygon class="st9" points="1998.2,973.6 1964.1,974.8 1980.1,944.7 			"/>
		</g>
	</g>
</g>
<g>
	<g>
		<path class="st8" d="M1404.4,246.6c-24.7-22-55.3-38.5-90.2-46c-76.9-17.9-153.9,10.7-202,67.2"/>
		<g>
			<polygon class="st9" points="1412.6,231.1 1421.7,264 1388.7,255.4 			"/>
		</g>
	</g>
</g>
<rect x="646.5" y="261.7" class="st1" width="485.3" height="341.1"/>
<text transform="matrix(1 0 0 1 646.5049 314.0356)"><tspan x="0" y="0" class="st5 st3 st7">ENTITATS</tspan><tspan x="0" y="72" class="st5 st3 st7">DE BCN</tspan><tspan x="0" y="131.7" class="st5 st3 st11">TMB, BIM/SA, B:SM</tspan><tspan x="0" y="179.4" class="st5 st3 st11">Guàrdia Urbana,</tspan><tspan x="0" y="227.2" class="st5 st3 st11">Habitage</tspan></text>
<g>
	<path class="st12" d="M1791.6,273.6c0,0,42.1,2.5,49.5,13.2c7.4,10.7,7.4,159.2,7.4,159.2s5.8,6.6-5.8,11.5
		c-11.5,4.9-78.4,15.5-84.1,12.7c-2.8-1.4-47.8-0.4-63.5-12.7c-14-11-9.1-102.3-9.1-102.3v-56.1l11.5-13.2l35.5-12.4H1791.6z"/>
	<path class="st5" d="M1681,298.1v148.5c0,20.3,43.6,30.9,86.6,30.9s86.6-10.6,86.6-30.9V298.1c0-20.3-43.6-30.9-86.6-30.9
		S1681,277.8,1681,298.1z M1841.9,397.1c0,6.5-28.2,18.6-74.2,18.6c-46.1,0-74.2-12-74.2-18.6v-32.8c16,9.4,45.2,14.2,74.2,14.2
		c29,0,58.3-4.8,74.2-14.2V397.1z M1841.9,347.6c0,6.5-28.2,18.6-74.2,18.6c-46.1,0-74.2-12-74.2-18.6v-32.8
		c16,9.4,45.2,14.2,74.2,14.2c29,0,58.3-4.8,74.2-14.2V347.6z M1767.7,465.1c-46.1,0-74.2-12-74.2-18.6v-32.8
		c16,9.4,45.2,14.2,74.2,14.2c29,0,58.3-4.8,74.2-14.2v32.8C1841.9,453.1,1813.7,465.1,1767.7,465.1z M1767.7,279.5
		c46.1,0,74.2,12,74.2,18.6s-28.2,18.6-74.2,18.6c-46.1,0-74.2-12-74.2-18.6S1721.6,279.5,1767.7,279.5z"/>
	<polygon class="st12" points="1634,356.1 1606,365.1 1586.2,375.9 1586.2,486.4 1627.4,503.7 1687.6,503.7 1727.2,496.3 
		1747,484.7 1747,380 1727.2,363.5 1674.4,356.1 	"/>
	<path class="st5" d="M1578.8,380.8v59.6v40.2c0,20.3,43.6,30.9,86.6,30.9c43,0,86.6-10.6,86.6-30.9v-38v-61.8
		c0-20.3-43.6-30.9-86.6-30.9C1622.3,349.9,1578.8,360.5,1578.8,380.8z M1739.6,431.1c0,6.5-28.2,18.6-74.2,18.6
		c-46.1,0-74.2-12-74.2-18.6V447c16,9.4,45.2,14.2,74.2,14.2c29,0,58.3-4.8,74.2-14.2V431.1z M1739.6,430.3
		c0,6.5-28.2,18.6-74.2,18.6c-46.1,0-74.2-12-74.2-18.6v-32.8c16,9.4,45.2,14.2,74.2,14.2c29,0,58.3-4.8,74.2-14.2V430.3z
		 M1665.4,499.2c-46.1,0-74.2-12-74.2-18.6v-32.8c16,9.4,45.2,14.2,74.2,14.2c29,0,58.3-4.8,74.2-14.2v32.8
		C1739.6,487.2,1711.4,499.2,1665.4,499.2z M1665.4,362.3c46.1,0,74.2,12,74.2,18.6s-28.2,18.6-74.2,18.6c-46.1,0-74.2-12-74.2-18.6
		S1619.3,362.3,1665.4,362.3z"/>
	<polygon class="st12" points="1784.2,402.9 1756.1,411.9 1736.3,422.7 1736.3,533.2 1777.6,550.5 1837.8,550.5 1877.4,543.1 
		1897.2,531.5 1897.2,426.8 1877.4,410.3 1824.6,402.9 	"/>
	<path class="st5" d="M1728.9,427.6v59.6v40.2c0,20.3,43.6,30.9,86.6,30.9s86.6-10.6,86.6-30.9v-38v-61.8
		c0-20.3-43.6-30.9-86.6-30.9S1728.9,407.3,1728.9,427.6z M1889.7,477.9c0,6.5-28.2,18.6-74.2,18.6c-46.1,0-74.2-12-74.2-18.6v15.9
		c16,9.4,45.2,14.2,74.2,14.2c29,0,58.3-4.8,74.2-14.2V477.9z M1889.7,477.1c0,6.5-28.2,18.6-74.2,18.6c-46.1,0-74.2-12-74.2-18.6
		v-32.8c16,9.4,45.2,14.2,74.2,14.2c29,0,58.3-4.8,74.2-14.2V477.1z M1815.5,546c-46.1,0-74.2-12-74.2-18.6v-32.8
		c16,9.4,45.2,14.2,74.2,14.2c29,0,58.3-4.8,74.2-14.2v32.8C1889.7,534,1861.6,546,1815.5,546z M1815.5,409
		c46.1,0,74.2,12,74.2,18.6c0,6.5-28.2,18.6-74.2,18.6c-46.1,0-74.2-12-74.2-18.6C1741.3,421.1,1769.4,409,1815.5,409z"/>
</g>
</svg>
