<?xml version="1.0" encoding="UTF-8" standalone="no"?>
<!-- Generator: Adobe Illustrator 22.1.0, SVG Export Plug-In . SVG Version: 6.00 Build 0)  -->

<svg
   xmlns:dc="http://purl.org/dc/elements/1.1/"
   xmlns:cc="http://creativecommons.org/ns#"
   xmlns:rdf="http://www.w3.org/1999/02/22-rdf-syntax-ns#"
   xmlns:svg="http://www.w3.org/2000/svg"
   xmlns="http://www.w3.org/2000/svg"
   xmlns:xlink="http://www.w3.org/1999/xlink"
   xmlns:sodipodi="http://sodipodi.sourceforge.net/DTD/sodipodi-0.dtd"
   xmlns:inkscape="http://www.inkscape.org/namespaces/inkscape"
   version="1.1"
   id="Capa_1"
   x="0px"
   y="0px"
   viewBox="0 0 1720.2195 1189.0138"
   xml:space="preserve"
   sodipodi:docname="infografia_cat.svg"
   width="1720.2195"
   height="1189.0138"
   inkscape:version="0.92.4 (5da689c313, 2019-01-14)"><metadata
   id="metadata289"><rdf:RDF><cc:Work
       rdf:about=""><dc:format>image/svg+xml</dc:format><dc:type
         rdf:resource="http://purl.org/dc/dcmitype/StillImage" /><dc:title></dc:title></cc:Work></rdf:RDF></metadata><defs
   id="defs287" /><sodipodi:namedview
   pagecolor="#ffffff"
   bordercolor="#666666"
   borderopacity="1"
   objecttolerance="10"
   gridtolerance="10"
   guidetolerance="10"
   inkscape:pageopacity="0"
   inkscape:pageshadow="2"
   inkscape:window-width="1366"
   inkscape:window-height="715"
   id="namedview285"
   showgrid="false"
   fit-margin-top="0"
   fit-margin-left="0"
   fit-margin-right="0"
   fit-margin-bottom="0"
   inkscape:zoom="0.35080177"
   inkscape:cx="721.38706"
   inkscape:cy="617.29413"
   inkscape:window-x="-8"
   inkscape:window-y="-8"
   inkscape:window-maximized="1"
   inkscape:current-layer="Capa_1" />
<style
   type="text/css"
   id="style2">
	.st0{opacity:0;clip-path:url(#SVGID_2_);fill-rule:evenodd;clip-rule:evenodd;fill:#FFFFFF;}
	.st1{fill:none;}
	.st2{fill:#231F20;}
	.st3{font-family:'Apercu-Bold';}
	.st4{font-size:31.5px;}
	.st5{fill:#E84F52;}
	.st6{font-size:31.4973px;}
	.st7{font-size:73.8809px;}
	.st8{fill:none;stroke:#3B31F5;stroke-width:8.9992;stroke-miterlimit:10;}
	.st9{fill:#3B31F5;}
	.st10{fill:none;stroke:#3B31F5;stroke-width:2.8371;stroke-miterlimit:10;}
	.st11{font-size:39.782px;}
	.st12{fill:#FFFFFF;}
</style>
<g
   id="g12"
   transform="translate(-579.02562,-169.58622)">
	<defs
   id="defs5">
		<rect
   id="SVGID_1_"
   x="-1560.5"
   y="-3198.3999"
   width="499"
   height="373" />
	</defs>
	<clipPath
   id="SVGID_2_">
		<use
   xlink:href="#SVGID_1_"
   style="overflow:visible"
   id="use7"
   x="0"
   y="0"
   width="100%"
   height="100%" />
	</clipPath>
	<rect
   x="-1560.5"
   y="-3198.3999"
   class="st0"
   width="499"
   height="373"
   clip-path="url(#SVGID_2_)"
   id="rect10"
   style="clip-rule:evenodd;opacity:0;fill:#ffffff;fill-rule:evenodd" />
</g>
<rect
   x="1539.4744"
   y="610.51373"
   class="st1"
   width="180.2"
   height="87.400002"
   id="rect14"
   style="fill:none" />
<text
   id="text20"
   x="1567.553"
   y="632.78979"><tspan
     x="1567.553"
     y="632.78979"
     class="st2 st3 st4"
     id="tspan16"
     style="font-size:31.5px;font-family:Apercu-Bold;fill:#231f20">Garantia</tspan><tspan
     x="1551.7529"
     y="670.58978"
     class="st2 st3 st4"
     id="tspan18"
     style="font-size:31.5px;font-family:Apercu-Bold;fill:#231f20">de qualitat</tspan></text>

<rect
   x="876.37439"
   y="1072.8138"
   class="st1"
   width="444"
   height="99.5"
   id="rect22"
   style="fill:none" />
<text
   id="text28"
   x="938.7027"
   y="1095.0676"><tspan
     x="938.7027"
     y="1095.0676"
     class="st5 st3 st6"
     id="tspan24"
     style="font-size:31.49729919px;font-family:Apercu-Bold;fill:#e84f52">Ciutadans / Empreses</tspan><tspan
     x="881.30267"
     y="1132.8677"
     class="st5 st3 st6"
     id="tspan26"
     style="font-size:31.49729919px;font-family:Apercu-Bold;fill:#e84f52">Àmbit acadèmic / Comunitats</tspan></text>

<rect
   x="241.57436"
   y="1089.5138"
   class="st1"
   width="256.70001"
   height="99.5"
   id="rect30"
   style="fill:none" />
<text
   id="text36"
   x="253.58888"
   y="1111.8567"><tspan
     x="253.58888"
     y="1111.8567"
     class="st5 st3 st6"
     id="tspan32"
     style="font-size:31.49729919px;font-family:Apercu-Bold;fill:#e84f52">Oficina d’Anàlisi </tspan><tspan
     x="267.78888"
     y="1149.6567"
     class="st5 st3 st6"
     id="tspan34"
     style="font-size:31.49729919px;font-family:Apercu-Bold;fill:#e84f52">de Dades BCN</tspan></text>

<rect
   x="223.77437"
   y="701.41376"
   class="st1"
   width="292.39999"
   height="99.5"
   id="rect38"
   style="fill:none" />
<text
   id="text44"
   x="231.24118"
   y="723.70477"><tspan
     x="231.24118"
     y="723.70477"
     class="st5 st3 st6"
     id="tspan40"
     style="font-size:31.49729919px;font-family:Apercu-Bold;fill:#e84f52">Equips encarregats </tspan><tspan
     x="244.94118"
     y="761.50476"
     class="st5 st3 st6"
     id="tspan42"
     style="font-size:31.49729919px;font-family:Apercu-Bold;fill:#e84f52">de les dades BCN</tspan></text>

<rect
   x="482.27444"
   y="860.91376"
   class="st1"
   width="391.20001"
   height="76.5"
   id="rect46"
   style="fill:none" />
<text
   id="text52"
   x="635.01495"
   y="883.16718"><tspan
     x="635.01495"
     y="883.16718"
     class="st2 st3 st6"
     id="tspan48"
     style="font-size:31.49729919px;font-family:Apercu-Bold;fill:#231f20">Casos</tspan><tspan
     x="646.815"
     y="920.96716"
     class="st2 st3 st6"
     id="tspan50"
     style="font-size:31.49729919px;font-family:Apercu-Bold;fill:#231f20">d’ús</tspan></text>

<rect
   x="482.27444"
   y="1009.5137"
   class="st1"
   width="391.20001"
   height="99.5"
   id="rect54"
   style="fill:none" />
<text
   class="st2 st3 st6"
   id="text56"
   style="font-size:31.49729919px;font-family:Apercu-Bold;fill:#231f20"
   x="593.47058"
   y="1031.7639">Perspectiva</text>

<rect
   x="994.07434"
   y="2.41378"
   class="st1"
   width="395.79999"
   height="82"
   id="rect58"
   style="fill:none" />
<text
   class="st5 st3 st7"
   id="text60"
   style="font-size:73.88089752px;font-family:Apercu-Bold;fill:#e84f52"
   x="994.09741"
   y="54.689178">DADES </text>

<g
   id="g74"
   transform="translate(-579.02562,-169.58622)">
	<g
   id="g72">
		<line
   class="st8"
   x1="1179.2"
   y1="1125.3"
   x2="1334.7"
   y2="1125.3"
   id="line62"
   style="fill:none;stroke:#3b31f5;stroke-width:8.99919987;stroke-miterlimit:10" />
		<g
   id="g66">
			<polygon
   class="st9"
   points="1184.2,1108.2 1184.2,1142.3 1154.7,1125.3 "
   id="polygon64"
   style="fill:#3b31f5" />
		</g>
		<g
   id="g70">
			<polygon
   class="st9"
   points="1329.7,1108.2 1329.7,1142.3 1359.2,1125.3 "
   id="polygon68"
   style="fill:#3b31f5" />
		</g>
	</g>
</g>
<g
   id="g88"
   transform="translate(-579.02562,-169.58622)">
	<g
   id="g86">
		<line
   class="st10"
   x1="949"
   y1="1078"
   x2="949"
   y2="1109.5"
   id="line76"
   style="fill:none;stroke:#3b31f5;stroke-width:2.83710003;stroke-miterlimit:10" />
		<g
   id="g80">
			<polygon
   class="st9"
   points="954.7,1079.6 943.3,1079.6 949,1069.8 "
   id="polygon78"
   style="fill:#3b31f5" />
		</g>
		<g
   id="g84">
			<polygon
   class="st9"
   points="954.7,1107.8 943.3,1107.8 949,1117.6 "
   id="polygon82"
   style="fill:#3b31f5" />
		</g>
	</g>
</g>
<g
   id="g110"
   transform="translate(-579.02562,-169.58622)">
	<g
   id="g98">
		<g
   id="g92">
			<path
   class="st5"
   d="m 906.6,997.1 c -12.3,0 -22.3,-10 -22.3,-22.3 0,-12.3 10,-22.3 22.3,-22.3 12.3,0 22.3,10 22.3,22.3 -0.1,12.3 -10.1,22.3 -22.3,22.3 z m 0,-34.1 c -6.5,0 -11.8,5.3 -11.8,11.8 0,6.5 5.3,11.8 11.8,11.8 6.5,0 11.8,-5.3 11.8,-11.8 0,-6.5 -5.3,-11.8 -11.8,-11.8 z"
   id="path90"
   inkscape:connector-curvature="0"
   style="fill:#e84f52" />
		</g>
		<g
   id="g96">
			<path
   class="st5"
   d="m 937.9,1042.6 c -2.9,0 -5.2,-2.3 -5.2,-5.2 0,-14.4 -11.7,-26.1 -26.1,-26.1 -14.4,0 -26.1,11.7 -26.1,26.1 0,2.9 -2.3,5.2 -5.2,5.2 -2.9,0 -5.2,-2.3 -5.2,-5.2 0,-20.2 16.4,-36.6 36.6,-36.6 20.2,0 36.6,16.4 36.6,36.6 -0.2,2.8 -2.5,5.2 -5.4,5.2 z"
   id="path94"
   inkscape:connector-curvature="0"
   style="fill:#e84f52" />
		</g>
	</g>
	<g
   id="g108">
		<g
   id="g102">
			<path
   class="st5"
   d="m 991.4,997.1 c -12.3,0 -22.3,-10 -22.3,-22.3 0,-12.3 10,-22.3 22.3,-22.3 12.3,0 22.3,10 22.3,22.3 0,12.3 -10,22.3 -22.3,22.3 z m 0,-34.1 c -6.5,0 -11.8,5.3 -11.8,11.8 0,6.5 5.3,11.8 11.8,11.8 6.5,0 11.8,-5.3 11.8,-11.8 0.1,-6.5 -5.2,-11.8 -11.8,-11.8 z"
   id="path100"
   inkscape:connector-curvature="0"
   style="fill:#e84f52" />
		</g>
		<g
   id="g106">
			<path
   class="st5"
   d="m 1022.8,1042.6 c -2.9,0 -5.2,-2.3 -5.2,-5.2 0,-14.4 -11.7,-26.1 -26.1,-26.1 -14.4,0 -26.1,11.7 -26.1,26.1 0,2.9 -2.3,5.2 -5.2,5.2 -2.9,0 -5.2,-2.3 -5.2,-5.2 0,-20.2 16.4,-36.6 36.6,-36.6 20.2,0 36.6,16.4 36.6,36.6 -0.2,2.8 -2.5,5.2 -5.4,5.2 z"
   id="path104"
   inkscape:connector-curvature="0"
   style="fill:#e84f52" />
		</g>
	</g>
</g>
<g
   id="g132"
   transform="translate(-579.02562,-169.58622)">
	<g
   id="g120">
		<g
   id="g114">
			<path
   class="st5"
   d="m 906.6,1189.4 c -12.3,0 -22.3,-10 -22.3,-22.3 0,-12.3 10,-22.3 22.3,-22.3 12.3,0 22.3,10 22.3,22.3 -0.1,12.3 -10.1,22.3 -22.3,22.3 z m 0,-34.1 c -6.5,0 -11.8,5.3 -11.8,11.8 0,6.5 5.3,11.8 11.8,11.8 6.5,0 11.8,-5.3 11.8,-11.8 0,-6.5 -5.3,-11.8 -11.8,-11.8 z"
   id="path112"
   inkscape:connector-curvature="0"
   style="fill:#e84f52" />
		</g>
		<g
   id="g118">
			<path
   class="st5"
   d="m 937.9,1235 c -2.9,0 -5.2,-2.3 -5.2,-5.2 0,-14.4 -11.7,-26.1 -26.1,-26.1 -14.4,0 -26.1,11.7 -26.1,26.1 0,2.9 -2.3,5.2 -5.2,5.2 -2.9,0 -5.2,-2.3 -5.2,-5.2 0,-20.2 16.4,-36.6 36.6,-36.6 20.2,0 36.6,16.4 36.6,36.6 -0.2,2.8 -2.5,5.2 -5.4,5.2 z"
   id="path116"
   inkscape:connector-curvature="0"
   style="fill:#e84f52" />
		</g>
	</g>
	<g
   id="g130">
		<g
   id="g124">
			<path
   class="st5"
   d="m 991.4,1189.4 c -12.3,0 -22.3,-10 -22.3,-22.3 0,-12.3 10,-22.3 22.3,-22.3 12.3,0 22.3,10 22.3,22.3 0,12.3 -10,22.3 -22.3,22.3 z m 0,-34.1 c -6.5,0 -11.8,5.3 -11.8,11.8 0,6.5 5.3,11.8 11.8,11.8 6.5,0 11.8,-5.3 11.8,-11.8 0.1,-6.5 -5.2,-11.8 -11.8,-11.8 z"
   id="path122"
   inkscape:connector-curvature="0"
   style="fill:#e84f52" />
		</g>
		<g
   id="g128">
			<path
   class="st5"
   d="m 1022.8,1235 c -2.9,0 -5.2,-2.3 -5.2,-5.2 0,-14.4 -11.7,-26.1 -26.1,-26.1 -14.4,0 -26.1,11.7 -26.1,26.1 0,2.9 -2.3,5.2 -5.2,5.2 -2.9,0 -5.2,-2.3 -5.2,-5.2 0,-20.2 16.4,-36.6 36.6,-36.6 20.2,0 36.6,16.4 36.6,36.6 -0.2,2.8 -2.5,5.2 -5.4,5.2 z"
   id="path126"
   inkscape:connector-curvature="0"
   style="fill:#e84f52" />
		</g>
	</g>
</g>
<g
   id="g224"
   transform="translate(-579.02562,-169.58622)">
	<g
   id="g142">
		<g
   id="g136">
			<path
   class="st5"
   d="m 1678,1005.3 c -12.3,0 -22.3,-10 -22.3,-22.3 0,-12.3 10,-22.3 22.3,-22.3 12.3,0 22.3,10 22.3,22.3 0,12.3 -10,22.3 -22.3,22.3 z m 0,-34.1 c -6.5,0 -11.8,5.3 -11.8,11.8 0,6.5 5.3,11.8 11.8,11.8 6.5,0 11.8,-5.3 11.8,-11.8 0,-6.5 -5.3,-11.8 -11.8,-11.8 z"
   id="path134"
   inkscape:connector-curvature="0"
   style="fill:#e84f52" />
		</g>
		<g
   id="g140">
			<path
   class="st5"
   d="m 1709.3,1050.8 c -2.9,0 -5.2,-2.3 -5.2,-5.2 0,-14.4 -11.7,-26.1 -26.1,-26.1 -14.4,0 -26.1,11.7 -26.1,26.1 0,2.9 -2.3,5.2 -5.2,5.2 -2.9,0 -5.2,-2.3 -5.2,-5.2 0,-20.2 16.4,-36.6 36.6,-36.6 20.2,0 36.6,16.4 36.6,36.6 -0.1,2.9 -2.5,5.2 -5.4,5.2 z"
   id="path138"
   inkscape:connector-curvature="0"
   style="fill:#e84f52" />
		</g>
	</g>
	<g
   id="g152">
		<g
   id="g146">
			<path
   class="st5"
   d="m 1762.9,1005.3 c -12.3,0 -22.3,-10 -22.3,-22.3 0,-12.3 10,-22.3 22.3,-22.3 12.3,0 22.3,10 22.3,22.3 0,12.3 -10,22.3 -22.3,22.3 z m 0,-34.1 c -6.5,0 -11.8,5.3 -11.8,11.8 0,6.5 5.3,11.8 11.8,11.8 6.5,0 11.8,-5.3 11.8,-11.8 0,-6.5 -5.3,-11.8 -11.8,-11.8 z"
   id="path144"
   inkscape:connector-curvature="0"
   style="fill:#e84f52" />
		</g>
		<g
   id="g150">
			<path
   class="st5"
   d="m 1794.2,1050.8 c -2.9,0 -5.2,-2.3 -5.2,-5.2 0,-14.4 -11.7,-26.1 -26.1,-26.1 -14.4,0 -26.1,11.7 -26.1,26.1 0,2.9 -2.3,5.2 -5.2,5.2 -2.9,0 -5.2,-2.3 -5.2,-5.2 0,-20.2 16.4,-36.6 36.6,-36.6 20.2,0 36.6,16.4 36.6,36.6 -0.2,2.9 -2.5,5.2 -5.4,5.2 z"
   id="path148"
   inkscape:connector-curvature="0"
   style="fill:#e84f52" />
		</g>
	</g>
	<g
   id="g162">
		<g
   id="g156">
			<path
   class="st5"
   d="m 1593.1,1086.1 c -12.3,0 -22.3,-10 -22.3,-22.3 0,-12.3 10,-22.3 22.3,-22.3 12.3,0 22.3,10 22.3,22.3 0,12.3 -10,22.3 -22.3,22.3 z m 0,-34.1 c -6.5,0 -11.8,5.3 -11.8,11.8 0,6.5 5.3,11.8 11.8,11.8 6.5,0 11.8,-5.3 11.8,-11.8 0,-6.5 -5.3,-11.8 -11.8,-11.8 z"
   id="path154"
   inkscape:connector-curvature="0"
   style="fill:#e84f52" />
		</g>
		<g
   id="g160">
			<path
   class="st5"
   d="m 1624.4,1131.6 c -2.9,0 -5.2,-2.3 -5.2,-5.2 0,-14.4 -11.7,-26.1 -26.1,-26.1 -14.4,0 -26.1,11.7 -26.1,26.1 0,2.9 -2.3,5.2 -5.2,5.2 -2.9,0 -5.2,-2.3 -5.2,-5.2 0,-20.2 16.4,-36.6 36.6,-36.6 20.2,0 36.6,16.4 36.6,36.6 -0.1,2.9 -2.5,5.2 -5.4,5.2 z"
   id="path158"
   inkscape:connector-curvature="0"
   style="fill:#e84f52" />
		</g>
	</g>
	<g
   id="g172">
		<g
   id="g166">
			<path
   class="st5"
   d="m 1593.1,1005.2 c -12.3,0 -22.3,-10 -22.3,-22.3 0,-12.3 10,-22.3 22.3,-22.3 12.3,0 22.3,10 22.3,22.3 0,12.3 -10,22.3 -22.3,22.3 z m 0,-34.1 c -6.5,0 -11.8,5.3 -11.8,11.8 0,6.5 5.3,11.8 11.8,11.8 6.5,0 11.8,-5.3 11.8,-11.8 0,-6.5 -5.3,-11.8 -11.8,-11.8 z"
   id="path164"
   inkscape:connector-curvature="0"
   style="fill:#e84f52" />
		</g>
		<g
   id="g170">
			<path
   class="st5"
   d="m 1624.4,1050.7 c -2.9,0 -5.2,-2.3 -5.2,-5.2 0,-14.4 -11.7,-26.1 -26.1,-26.1 -14.4,0 -26.1,11.7 -26.1,26.1 0,2.9 -2.3,5.2 -5.2,5.2 -2.9,0 -5.2,-2.3 -5.2,-5.2 0,-20.2 16.4,-36.6 36.6,-36.6 20.2,0 36.6,16.4 36.6,36.6 -0.1,2.8 -2.5,5.2 -5.4,5.2 z"
   id="path168"
   inkscape:connector-curvature="0"
   style="fill:#e84f52" />
		</g>
	</g>
	<g
   id="g182">
		<g
   id="g176">
			<path
   class="st5"
   d="m 1678,1086.1 c -12.3,0 -22.3,-10 -22.3,-22.3 0,-12.3 10,-22.3 22.3,-22.3 12.3,0 22.3,10 22.3,22.3 0,12.3 -10,22.3 -22.3,22.3 z m 0,-34.1 c -6.5,0 -11.8,5.3 -11.8,11.8 0,6.5 5.3,11.8 11.8,11.8 6.5,0 11.8,-5.3 11.8,-11.8 0,-6.5 -5.3,-11.8 -11.8,-11.8 z"
   id="path174"
   inkscape:connector-curvature="0"
   style="fill:#e84f52" />
		</g>
		<g
   id="g180">
			<path
   class="st5"
   d="m 1709.3,1131.6 c -2.9,0 -5.2,-2.3 -5.2,-5.2 0,-14.4 -11.7,-26.1 -26.1,-26.1 -14.4,0 -26.1,11.7 -26.1,26.1 0,2.9 -2.3,5.2 -5.2,5.2 -2.9,0 -5.2,-2.3 -5.2,-5.2 0,-20.2 16.4,-36.6 36.6,-36.6 20.2,0 36.6,16.4 36.6,36.6 -0.1,2.9 -2.5,5.2 -5.4,5.2 z"
   id="path178"
   inkscape:connector-curvature="0"
   style="fill:#e84f52" />
		</g>
	</g>
	<g
   id="g192">
		<g
   id="g186">
			<path
   class="st5"
   d="m 1762.9,1086.1 c -12.3,0 -22.3,-10 -22.3,-22.3 0,-12.3 10,-22.3 22.3,-22.3 12.3,0 22.3,10 22.3,22.3 0,12.3 -10,22.3 -22.3,22.3 z m 0,-34.1 c -6.5,0 -11.8,5.3 -11.8,11.8 0,6.5 5.3,11.8 11.8,11.8 6.5,0 11.8,-5.3 11.8,-11.8 0,-6.5 -5.3,-11.8 -11.8,-11.8 z"
   id="path184"
   inkscape:connector-curvature="0"
   style="fill:#e84f52" />
		</g>
		<g
   id="g190">
			<path
   class="st5"
   d="m 1794.2,1131.6 c -2.9,0 -5.2,-2.3 -5.2,-5.2 0,-14.4 -11.7,-26.1 -26.1,-26.1 -14.4,0 -26.1,11.7 -26.1,26.1 0,2.9 -2.3,5.2 -5.2,5.2 -2.9,0 -5.2,-2.3 -5.2,-5.2 0,-20.2 16.4,-36.6 36.6,-36.6 20.2,0 36.6,16.4 36.6,36.6 -0.2,2.9 -2.5,5.2 -5.4,5.2 z"
   id="path188"
   inkscape:connector-curvature="0"
   style="fill:#e84f52" />
		</g>
	</g>
	<g
   id="g202">
		<g
   id="g196">
			<path
   class="st5"
   d="m 1593.1,1166.9 c -12.3,0 -22.3,-10 -22.3,-22.3 0,-12.3 10,-22.3 22.3,-22.3 12.3,0 22.3,10 22.3,22.3 0,12.3 -10,22.3 -22.3,22.3 z m 0,-34.1 c -6.5,0 -11.8,5.3 -11.8,11.8 0,6.5 5.3,11.8 11.8,11.8 6.5,0 11.8,-5.3 11.8,-11.8 0,-6.5 -5.3,-11.8 -11.8,-11.8 z"
   id="path194"
   inkscape:connector-curvature="0"
   style="fill:#e84f52" />
		</g>
		<g
   id="g200">
			<path
   class="st5"
   d="m 1624.4,1212.4 c -2.9,0 -5.2,-2.3 -5.2,-5.2 0,-14.4 -11.7,-26.1 -26.1,-26.1 -14.4,0 -26.1,11.7 -26.1,26.1 0,2.9 -2.3,5.2 -5.2,5.2 -2.9,0 -5.2,-2.3 -5.2,-5.2 0,-20.2 16.4,-36.6 36.6,-36.6 20.2,0 36.6,16.4 36.6,36.6 -0.1,2.9 -2.5,5.2 -5.4,5.2 z"
   id="path198"
   inkscape:connector-curvature="0"
   style="fill:#e84f52" />
		</g>
	</g>
	<g
   id="g212">
		<g
   id="g206">
			<path
   class="st5"
   d="m 1678,1166.9 c -12.3,0 -22.3,-10 -22.3,-22.3 0,-12.3 10,-22.3 22.3,-22.3 12.3,0 22.3,10 22.3,22.3 0,12.3 -10,22.3 -22.3,22.3 z m 0,-34.1 c -6.5,0 -11.8,5.3 -11.8,11.8 0,6.5 5.3,11.8 11.8,11.8 6.5,0 11.8,-5.3 11.8,-11.8 0,-6.5 -5.3,-11.8 -11.8,-11.8 z"
   id="path204"
   inkscape:connector-curvature="0"
   style="fill:#e84f52" />
		</g>
		<g
   id="g210">
			<path
   class="st5"
   d="m 1709.3,1212.4 c -2.9,0 -5.2,-2.3 -5.2,-5.2 0,-14.4 -11.7,-26.1 -26.1,-26.1 -14.4,0 -26.1,11.7 -26.1,26.1 0,2.9 -2.3,5.2 -5.2,5.2 -2.9,0 -5.2,-2.3 -5.2,-5.2 0,-20.2 16.4,-36.6 36.6,-36.6 20.2,0 36.6,16.4 36.6,36.6 -0.1,2.9 -2.5,5.2 -5.4,5.2 z"
   id="path208"
   inkscape:connector-curvature="0"
   style="fill:#e84f52" />
		</g>
	</g>
	<g
   id="g222">
		<g
   id="g216">
			<path
   class="st5"
   d="m 1762.9,1166.9 c -12.3,0 -22.3,-10 -22.3,-22.3 0,-12.3 10,-22.3 22.3,-22.3 12.3,0 22.3,10 22.3,22.3 0,12.3 -10,22.3 -22.3,22.3 z m 0,-34.1 c -6.5,0 -11.8,5.3 -11.8,11.8 0,6.5 5.3,11.8 11.8,11.8 6.5,0 11.8,-5.3 11.8,-11.8 0,-6.5 -5.3,-11.8 -11.8,-11.8 z"
   id="path214"
   inkscape:connector-curvature="0"
   style="fill:#e84f52" />
		</g>
		<g
   id="g220">
			<path
   class="st5"
   d="m 1794.2,1212.4 c -2.9,0 -5.2,-2.3 -5.2,-5.2 0,-14.4 -11.7,-26.1 -26.1,-26.1 -14.4,0 -26.1,11.7 -26.1,26.1 0,2.9 -2.3,5.2 -5.2,5.2 -2.9,0 -5.2,-2.3 -5.2,-5.2 0,-20.2 16.4,-36.6 36.6,-36.6 20.2,0 36.6,16.4 36.6,36.6 -0.2,2.9 -2.5,5.2 -5.4,5.2 z"
   id="path218"
   inkscape:connector-curvature="0"
   style="fill:#e84f52" />
		</g>
	</g>
</g>
<g
   id="g234"
   transform="translate(-579.02562,-169.58622)">
	<g
   id="g232">
		<path
   class="st8"
   d="M 659.9,920.3 C 634,899.6 612.6,872.3 599.4,839.2 568.8,766.4 584,685.7 631.5,628.8"
   id="path226"
   inkscape:connector-curvature="0"
   style="fill:none;stroke:#3b31f5;stroke-width:8.99919987;stroke-miterlimit:10" />
		<g
   id="g230">
			<polygon
   class="st9"
   points="646,931.1 665.9,903.4 679.9,934.5 "
   id="polygon228"
   style="fill:#3b31f5" />
		</g>
	</g>
</g>
<g
   id="g244"
   transform="translate(-579.02562,-169.58622)">
	<g
   id="g242">
		<path
   class="st8"
   d="m 1985.1,962 c 27.2,-19 50.3,-44.9 65.6,-77.1 35.3,-70.7 25.2,-152.2 -18.5,-212.1"
   id="path236"
   inkscape:connector-curvature="0"
   style="fill:none;stroke:#3b31f5;stroke-width:8.99919987;stroke-miterlimit:10" />
		<g
   id="g240">
			<polygon
   class="st9"
   points="1980.1,944.7 1998.2,973.6 1964.1,974.8 "
   id="polygon238"
   style="fill:#3b31f5" />
		</g>
	</g>
</g>
<g
   id="g254"
   transform="translate(-579.02562,-169.58622)">
	<g
   id="g252">
		<path
   class="st8"
   d="m 1404.4,246.6 c -24.7,-22 -55.3,-38.5 -90.2,-46 -76.9,-17.9 -153.9,10.7 -202,67.2"
   id="path246"
   inkscape:connector-curvature="0"
   style="fill:none;stroke:#3b31f5;stroke-width:8.99919987;stroke-miterlimit:10" />
		<g
   id="g250">
			<polygon
   class="st9"
   points="1388.7,255.4 1412.6,231.1 1421.7,264 "
   id="polygon248"
   style="fill:#3b31f5" />
		</g>
	</g>
</g>
<rect
   x="67.47438"
   y="92.113792"
   class="st1"
   width="485.29999"
   height="341.10001"
   id="rect256"
   style="fill:none" />
<text
   id="text268"
   x="67.479279"
   y="144.44939"><tspan
     x="67.479279"
     y="144.44939"
     class="st5 st3 st7"
     id="tspan258"
     style="font-size:73.88089752px;font-family:Apercu-Bold;fill:#e84f52">ENTITATS</tspan><tspan
     x="67.479279"
     y="216.44939"
     class="st5 st3 st7"
     id="tspan260"
     style="font-size:73.88089752px;font-family:Apercu-Bold;fill:#e84f52">DE BCN</tspan><tspan
     x="67.479279"
     y="276.14938"
     class="st5 st3 st11"
     id="tspan262"
     style="font-size:39.7820015px;font-family:Apercu-Bold;fill:#e84f52">TMB, BIM/SA, B:SM</tspan><tspan
     x="67.479279"
     y="323.84937"
     class="st5 st3 st11"
     id="tspan264"
     style="font-size:39.7820015px;font-family:Apercu-Bold;fill:#e84f52">Guàrdia Urbana,</tspan><tspan
     x="67.479279"
     y="371.64938"
     class="st5 st3 st11"
     id="tspan266"
     style="font-size:39.7820015px;font-family:Apercu-Bold;fill:#e84f52">Habitage</tspan></text>

<g
   id="g282"
   transform="translate(-579.02562,-169.58622)">
	<path
   class="st12"
   d="m 1791.6,273.6 c 0,0 42.1,2.5 49.5,13.2 7.4,10.7 7.4,159.2 7.4,159.2 0,0 5.8,6.6 -5.8,11.5 -11.5,4.9 -78.4,15.5 -84.1,12.7 -2.8,-1.4 -47.8,-0.4 -63.5,-12.7 -14,-11 -9.1,-102.3 -9.1,-102.3 v -56.1 l 11.5,-13.2 35.5,-12.4 h 58.6 z"
   id="path270"
   inkscape:connector-curvature="0"
   style="fill:#ffffff" />
	<path
   class="st5"
   d="m 1681,298.1 v 148.5 c 0,20.3 43.6,30.9 86.6,30.9 43,0 86.6,-10.6 86.6,-30.9 V 298.1 c 0,-20.3 -43.6,-30.9 -86.6,-30.9 -43,0 -86.6,10.6 -86.6,30.9 z m 160.9,99 c 0,6.5 -28.2,18.6 -74.2,18.6 -46.1,0 -74.2,-12 -74.2,-18.6 v -32.8 c 16,9.4 45.2,14.2 74.2,14.2 29,0 58.3,-4.8 74.2,-14.2 z m 0,-49.5 c 0,6.5 -28.2,18.6 -74.2,18.6 -46.1,0 -74.2,-12 -74.2,-18.6 v -32.8 c 16,9.4 45.2,14.2 74.2,14.2 29,0 58.3,-4.8 74.2,-14.2 z m -74.2,117.5 c -46.1,0 -74.2,-12 -74.2,-18.6 v -32.8 c 16,9.4 45.2,14.2 74.2,14.2 29,0 58.3,-4.8 74.2,-14.2 v 32.8 c 0,6.6 -28.2,18.6 -74.2,18.6 z m 0,-185.6 c 46.1,0 74.2,12 74.2,18.6 0,6.6 -28.2,18.6 -74.2,18.6 -46.1,0 -74.2,-12 -74.2,-18.6 0,-6.6 28.1,-18.6 74.2,-18.6 z"
   id="path272"
   inkscape:connector-curvature="0"
   style="fill:#e84f52" />
	<polygon
   class="st12"
   points="1586.2,375.9 1586.2,486.4 1627.4,503.7 1687.6,503.7 1727.2,496.3 1747,484.7 1747,380 1727.2,363.5 1674.4,356.1 1634,356.1 1606,365.1 "
   id="polygon274"
   style="fill:#ffffff" />
	<path
   class="st5"
   d="m 1578.8,380.8 v 59.6 40.2 c 0,20.3 43.6,30.9 86.6,30.9 43,0 86.6,-10.6 86.6,-30.9 v -38 -61.8 c 0,-20.3 -43.6,-30.9 -86.6,-30.9 -43.1,0 -86.6,10.6 -86.6,30.9 z m 160.8,50.3 c 0,6.5 -28.2,18.6 -74.2,18.6 -46.1,0 -74.2,-12 -74.2,-18.6 V 447 c 16,9.4 45.2,14.2 74.2,14.2 29,0 58.3,-4.8 74.2,-14.2 z m 0,-0.8 c 0,6.5 -28.2,18.6 -74.2,18.6 -46.1,0 -74.2,-12 -74.2,-18.6 v -32.8 c 16,9.4 45.2,14.2 74.2,14.2 29,0 58.3,-4.8 74.2,-14.2 z m -74.2,68.9 c -46.1,0 -74.2,-12 -74.2,-18.6 v -32.8 c 16,9.4 45.2,14.2 74.2,14.2 29,0 58.3,-4.8 74.2,-14.2 v 32.8 c 0,6.6 -28.2,18.6 -74.2,18.6 z m 0,-136.9 c 46.1,0 74.2,12 74.2,18.6 0,6.6 -28.2,18.6 -74.2,18.6 -46.1,0 -74.2,-12 -74.2,-18.6 0,-6.6 28.1,-18.6 74.2,-18.6 z"
   id="path276"
   inkscape:connector-curvature="0"
   style="fill:#e84f52" />
	<polygon
   class="st12"
   points="1736.3,422.7 1736.3,533.2 1777.6,550.5 1837.8,550.5 1877.4,543.1 1897.2,531.5 1897.2,426.8 1877.4,410.3 1824.6,402.9 1784.2,402.9 1756.1,411.9 "
   id="polygon278"
   style="fill:#ffffff" />
	<path
   class="st5"
   d="m 1728.9,427.6 v 59.6 40.2 c 0,20.3 43.6,30.9 86.6,30.9 43,0 86.6,-10.6 86.6,-30.9 v -38 -61.8 c 0,-20.3 -43.6,-30.9 -86.6,-30.9 -43,0 -86.6,10.6 -86.6,30.9 z m 160.8,50.3 c 0,6.5 -28.2,18.6 -74.2,18.6 -46.1,0 -74.2,-12 -74.2,-18.6 v 15.9 c 16,9.4 45.2,14.2 74.2,14.2 29,0 58.3,-4.8 74.2,-14.2 z m 0,-0.8 c 0,6.5 -28.2,18.6 -74.2,18.6 -46.1,0 -74.2,-12 -74.2,-18.6 v -32.8 c 16,9.4 45.2,14.2 74.2,14.2 29,0 58.3,-4.8 74.2,-14.2 z m -74.2,68.9 c -46.1,0 -74.2,-12 -74.2,-18.6 v -32.8 c 16,9.4 45.2,14.2 74.2,14.2 29,0 58.3,-4.8 74.2,-14.2 v 32.8 c 0,6.6 -28.1,18.6 -74.2,18.6 z m 0,-137 c 46.1,0 74.2,12 74.2,18.6 0,6.5 -28.2,18.6 -74.2,18.6 -46.1,0 -74.2,-12 -74.2,-18.6 0,-6.5 28.1,-18.6 74.2,-18.6 z"
   id="path280"
   inkscape:connector-curvature="0"
   style="fill:#e84f52" />
</g>
</svg>