<?xml version="1.0" encoding="utf-8"?>
<!-- Generator: Adobe Illustrator 22.1.0, SVG Export Plug-In . SVG Version: 6.00 Build 0)  -->
<svg version="1.1" id="Capa_1" xmlns="http://www.w3.org/2000/svg" xmlns:xlink="http://www.w3.org/1999/xlink" x="0px" y="0px"
	 viewBox="0 0 2834.6 2834.6" style="enable-background:new 0 0 2834.6 2834.6;" xml:space="preserve">
<style type="text/css">
	.st0{clip-path:url(#SVGID_2_);}
	.st1{fill:#3B31F5;}
	.st2{fill:#FFFFFF;}
	.st3{fill:#E84F52;}
	.st4{font-family:'Apercu-Bold';}
	.st5{font-size:45.5853px;}
	.st6{clip-path:url(#SVGID_4_);}
	.st7{clip-path:url(#SVGID_6_);}
	.st8{clip-path:url(#SVGID_8_);}
	.st9{clip-path:url(#SVGID_10_);}
	.st10{clip-path:url(#SVGID_12_);}
	.st11{clip-path:url(#SVGID_14_);}
	.st12{clip-path:url(#SVGID_16_);}
	.st13{clip-path:url(#SVGID_18_);}
	.st14{clip-path:url(#SVGID_20_);}
	.st15{clip-path:url(#SVGID_22_);}
	.st16{clip-path:url(#SVGID_24_);}
	.st17{font-size:58.0173px;}
	.st18{clip-path:url(#SVGID_26_);}
</style>
<g>
	<g>
		<defs>
			<rect id="SVGID_1_" x="170.1" y="740.7" width="2503.9" height="1307.1"/>
		</defs>
		<clipPath id="SVGID_2_">
			<use xlink:href="#SVGID_1_"  style="overflow:visible;"/>
		</clipPath>
		<g class="st0">
			<path class="st1" d="M945.4,1979.8c0-1.4,0.3-2.7,0.3-3.7c0-18.3-14.9-33.2-33.2-33.2c-5.4,0-10.5,1.4-15.2,3.7
				c-8.8-12.9-23-20.7-38.6-20.7c-25.8,0-46.8,21-46.8,46.8c0,1.7,0,3.7,0.3,5.4c-11.5,2.7-20,13.2-20,25.8
				c0,14.6,11.9,26.4,26.4,26.4h116.2c14.6,0,26.4-11.9,26.4-26.4C960.7,1993.3,954.6,1983.8,945.4,1979.8 M934.2,2020.4H818.3
				c-9.5,0-16.9-7.5-16.9-16.9c0-9.1,7.1-16.6,16.3-16.9c1.4,0,2.7-0.7,3.7-1.7c1-1,1-2.7,1-4.1c-0.7-2.7-1-5.8-1-8.5
				c0-20.7,16.9-37.3,37.3-37.3c13.9,0,26.4,7.5,32.9,19.7c0.7,1.4,1.7,2,3.1,2.4c1.4,0.3,2.7,0,3.7-0.7c4.1-3,8.8-4.4,13.9-4.4
				c13.2,0,24.1,10.8,24.1,24.1c0,2-0.3,3.7-0.7,5.8c-0.7,2.4,1,5.1,3.4,5.8c7.1,2,12.2,8.8,12.2,16.3
				C951.2,2013,943.7,2020.4,934.2,2020.4"/>
		</g>
		<g class="st0">
			<path class="st2" d="M934.9,2031.6H818.7c-15.3,0-27.8-12.5-27.8-27.8c0-12.6,8.1-23.4,19.8-26.8c-0.2-1.5-0.2-3.1-0.2-4.4
				c0-26.5,21.6-48.1,48.1-48.1c15.4,0,29.9,7.6,39.1,20.3c4.8-2.2,9.8-3.4,14.8-3.4c19.1,0,34.6,15.5,34.6,34.6
				c0,0.5-0.1,1.1-0.2,1.8c0,0.3-0.1,0.7-0.1,1.1c9,4.4,15.2,14,15.9,24.8C962.7,2019.2,950.3,2031.6,934.9,2031.6z M858.7,1927.3
				c-25,0-45.4,20.4-45.4,45.4c0,1.6,0,3.6,0.3,5.2l0.3,1.3l-1.3,0.3c-11.1,2.6-18.9,12.7-18.9,24.4c0,13.8,11.2,25,25.1,25h116.2
				c13.8,0,25-11.2,25-25c-0.6-10-6.6-19-15.1-22.8l-0.8-0.4v-0.9c0-0.8,0.1-1.6,0.2-2.3c0.1-0.5,0.1-1,0.1-1.4
				c0-17.5-14.3-31.8-31.8-31.8c-5,0-9.9,1.2-14.6,3.6l-1.1,0.5l-0.7-1C887.6,1934.8,873.5,1927.3,858.7,1927.3z M934.2,2021.8
				H818.3c-10.3,0-18.3-8-18.3-18.3c0-9.9,7.7-18,17.6-18.3c1,0,2-0.5,2.8-1.3c0.6-0.6,0.6-2,0.6-3.1c-0.6-2.4-1-5.5-1-8.5
				c0-21.3,17.3-38.7,38.7-38.7c14.4,0,27.4,7.8,34.1,20.4c0.5,0.9,1.1,1.4,2.2,1.7c0.9,0.2,1.8,0,2.6-0.5c4.1-3.1,9-4.6,14.7-4.6
				c14,0,25.4,11.4,25.4,25.4c0,1.9-0.3,3.5-0.6,5.2l-0.1,0.8c-0.5,1.7,0.7,3.7,2.4,4.2c7.6,2.2,13.2,9.6,13.2,17.6
				C952.6,2013.7,944.3,2021.8,934.2,2021.8z M858.7,1936.4c-19.8,0-35.9,16.1-35.9,35.9c0,2.7,0.3,5.6,1,8.1c0,1.9,0,4-1.4,5.4
				c-1.3,1.3-3,2.1-4.7,2.1c-8.3,0.3-14.9,7.1-14.9,15.6c0,8.7,6.8,15.6,15.6,15.6h115.9c8.6,0,15.6-6.8,15.6-15.2
				c0-6.8-4.7-13.1-11.2-14.9c-3.2-0.9-5.2-4.4-4.3-7.5l0.1-0.7c0.3-1.6,0.5-3.1,0.5-4.7c0-12.5-10.2-22.7-22.7-22.7
				c-5,0-9.4,1.4-13.1,4.1c-1.5,1-3.3,1.3-4.9,0.9c-1.8-0.5-3.1-1.5-3.9-3.1C884.2,1943.7,872,1936.4,858.7,1936.4z"/>
		</g>
		<g class="st0">
			<rect x="432.5" y="1668.5" class="st3" width="4.8" height="70.3"/>
		</g>
		<g class="st0">
			<polygon class="st3" points="425.8,1671.2 434.9,1655.3 444.1,1671.2 			"/>
		</g>
		<g class="st0">
			<rect x="870.2" y="1668.5" class="st3" width="4.8" height="70.3"/>
		</g>
		<g class="st0">
			<polygon class="st3" points="863.5,1671.2 872.6,1655.3 881.8,1671.2 			"/>
		</g>
		<g class="st0">
			<rect x="1745.7" y="1668.5" class="st3" width="4.8" height="70.3"/>
		</g>
		<g class="st0">
			<polygon class="st3" points="1738.9,1671.2 1748.1,1655.3 1757.3,1671.2 			"/>
		</g>
		<g class="st0">
			<rect x="174.3" y="938" class="st1" width="8.2" height="2.8"/>
		</g>
		<g class="st0">
			<path class="st1" d="M2571.6,940.7h-16.4V938h16.4V940.7z M2538.8,940.7h-16.4V938h16.4V940.7z M2506.1,940.7h-16.4V938h16.4
				V940.7z M2473.4,940.7H2457V938h16.4V940.7z M2440.7,940.7h-16.4V938h16.4V940.7z M2407.9,940.7h-16.4V938h16.4V940.7z
				 M2375.2,940.7h-16.4V938h16.4V940.7z M2342.5,940.7h-16.4V938h16.4V940.7z M2309.7,940.7h-16.4V938h16.4V940.7z M2277,940.7
				h-16.4V938h16.4V940.7z M2244.3,940.7h-16.4V938h16.4V940.7z M2211.6,940.7h-16.4V938h16.4V940.7z M2178.8,940.7h-16.4V938h16.4
				V940.7z M2146.1,940.7h-16.4V938h16.4V940.7z M2113.4,940.7H2097V938h16.4V940.7z M2080.7,940.7h-16.4V938h16.4V940.7z
				 M2047.9,940.7h-16.4V938h16.4V940.7z M2015.2,940.7h-16.4V938h16.4V940.7z M1982.5,940.7h-16.4V938h16.4V940.7z M1949.7,940.7
				h-16.4V938h16.4V940.7z M1917,940.7h-16.4V938h16.4V940.7z M1884.3,940.7h-16.4V938h16.4V940.7z M1851.6,940.7h-16.4V938h16.4
				V940.7z M1818.8,940.7h-16.4V938h16.4V940.7z M1786.1,940.7h-16.4V938h16.4V940.7z M1753.4,940.7H1737V938h16.4V940.7z
				 M1720.7,940.7h-16.4V938h16.4V940.7z M1687.9,940.7h-16.4V938h16.4V940.7z M1655.2,940.7h-16.4V938h16.4V940.7z M1622.5,940.7
				h-16.4V938h16.4V940.7z M1589.7,940.7h-16.4V938h16.4V940.7z M1557,940.7h-16.4V938h16.4V940.7z M1524.3,940.7h-16.4V938h16.4
				V940.7z M1491.6,940.7h-16.4V938h16.4V940.7z M1458.8,940.7h-16.4V938h16.4V940.7z M1426.1,940.7h-16.4V938h16.4V940.7z
				 M1393.4,940.7H1377V938h16.4V940.7z M1360.6,940.7h-16.4V938h16.4V940.7z M1327.9,940.7h-16.4V938h16.4V940.7z M1295.2,940.7
				h-16.4V938h16.4V940.7z M1262.5,940.7h-16.4V938h16.4V940.7z M1229.7,940.7h-16.4V938h16.4V940.7z M1197,940.7h-16.4V938h16.4
				V940.7z M1164.3,940.7h-16.4V938h16.4V940.7z M1131.6,940.7h-16.4V938h16.4V940.7z M1098.8,940.7h-16.4V938h16.4V940.7z
				 M1066.1,940.7h-16.4V938h16.4V940.7z M1033.4,940.7H1017V938h16.4V940.7z M1000.6,940.7h-16.4V938h16.4V940.7z M967.9,940.7
				h-16.4V938h16.4V940.7z M935.2,940.7h-16.4V938h16.4V940.7z M902.5,940.7h-16.4V938h16.4V940.7z M869.7,940.7h-16.4V938h16.4
				V940.7z M837,940.7h-16.4V938H837V940.7z M804.3,940.7h-16.4V938h16.4V940.7z M771.5,940.7h-16.4V938h16.4V940.7z M738.8,940.7
				h-16.4V938h16.4V940.7z M706.1,940.7h-16.4V938h16.4V940.7z M673.4,940.7H657V938h16.4V940.7z M640.6,940.7h-16.4V938h16.4V940.7
				z M607.9,940.7h-16.4V938h16.4V940.7z M575.2,940.7h-16.4V938h16.4V940.7z M542.5,940.7h-16.4V938h16.4V940.7z M509.7,940.7
				h-16.4V938h16.4V940.7z M477,940.7h-16.4V938H477V940.7z M444.3,940.7h-16.4V938h16.4V940.7z M411.5,940.7h-16.4V938h16.4V940.7z
				 M378.8,940.7h-16.4V938h16.4V940.7z M346.1,940.7h-16.4V938h16.4V940.7z M313.4,940.7H297V938h16.4V940.7z M280.6,940.7h-16.4
				V938h16.4V940.7z M247.9,940.7h-16.4V938h16.4V940.7z M215.2,940.7h-16.4V938h16.4V940.7z"/>
		</g>
		<g class="st0">
			<rect x="2588" y="938" class="st1" width="8.2" height="2.8"/>
		</g>
		<g class="st0">
			<rect x="174.3" y="1701.2" class="st1" width="8.2" height="2.8"/>
		</g>
		<g class="st0">
			<path class="st1" d="M2583,1703.9h-16.4v-2.8h16.4V1703.9z M2550.1,1703.9h-16.4v-2.8h16.4V1703.9z M2517.2,1703.9h-16.4v-2.8
				h16.4V1703.9z M2484.3,1703.9h-16.4v-2.8h16.4V1703.9z M2451.5,1703.9H2435v-2.8h16.4V1703.9z M2418.6,1703.9h-16.4v-2.8h16.4
				V1703.9z M2385.7,1703.9h-16.4v-2.8h16.4V1703.9z M2352.8,1703.9h-16.4v-2.8h16.4V1703.9z M2319.9,1703.9h-16.4v-2.8h16.4V1703.9
				z M2287,1703.9h-16.4v-2.8h16.4V1703.9z M2254.1,1703.9h-16.4v-2.8h16.4V1703.9z M2221.3,1703.9h-16.4v-2.8h16.4V1703.9z
				 M2188.4,1703.9h-16.4v-2.8h16.4V1703.9z M2155.5,1703.9h-16.4v-2.8h16.4V1703.9z M2122.6,1703.9h-16.4v-2.8h16.4V1703.9z
				 M2089.7,1703.9h-16.4v-2.8h16.4V1703.9z M2056.8,1703.9h-16.4v-2.8h16.4V1703.9z M2024,1703.9h-16.4v-2.8h16.4V1703.9z
				 M1991.1,1703.9h-16.4v-2.8h16.4V1703.9z M1958.2,1703.9h-16.4v-2.8h16.4V1703.9z M1925.3,1703.9h-16.4v-2.8h16.4V1703.9z
				 M1892.4,1703.9H1876v-2.8h16.4V1703.9z M1859.5,1703.9h-16.4v-2.8h16.4V1703.9z M1826.7,1703.9h-16.4v-2.8h16.4V1703.9z
				 M1793.8,1703.9h-16.4v-2.8h16.4V1703.9z M1760.9,1703.9h-16.4v-2.8h16.4V1703.9z M1728,1703.9h-16.4v-2.8h16.4V1703.9z
				 M1695.1,1703.9h-16.4v-2.8h16.4V1703.9z M1662.2,1703.9h-16.4v-2.8h16.4V1703.9z M1629.4,1703.9h-16.4v-2.8h16.4V1703.9z
				 M1596.5,1703.9H1580v-2.8h16.4V1703.9z M1563.6,1703.9h-16.4v-2.8h16.4V1703.9z M1530.7,1703.9h-16.4v-2.8h16.4V1703.9z
				 M1497.8,1703.9h-16.4v-2.8h16.4V1703.9z M1464.9,1703.9h-16.4v-2.8h16.4V1703.9z M1432,1703.9h-16.4v-2.8h16.4V1703.9z
				 M1399.2,1703.9h-16.4v-2.8h16.4V1703.9z M1366.3,1703.9h-16.4v-2.8h16.4V1703.9z M1333.4,1703.9H1317v-2.8h16.4V1703.9z
				 M1300.5,1703.9h-16.4v-2.8h16.4V1703.9z M1267.6,1703.9h-16.4v-2.8h16.4V1703.9z M1234.7,1703.9h-16.4v-2.8h16.4V1703.9z
				 M1201.9,1703.9h-16.4v-2.8h16.4V1703.9z M1169,1703.9h-16.4v-2.8h16.4V1703.9z M1136.1,1703.9h-16.4v-2.8h16.4V1703.9z
				 M1103.2,1703.9h-16.4v-2.8h16.4V1703.9z M1070.3,1703.9h-16.4v-2.8h16.4V1703.9z M1037.4,1703.9H1021v-2.8h16.4V1703.9z
				 M1004.6,1703.9h-16.4v-2.8h16.4V1703.9z M971.7,1703.9h-16.4v-2.8h16.4V1703.9z M938.8,1703.9h-16.4v-2.8h16.4V1703.9z
				 M905.9,1703.9h-16.4v-2.8h16.4V1703.9z M873,1703.9h-16.4v-2.8H873V1703.9z M840.1,1703.9h-16.4v-2.8h16.4V1703.9z
				 M807.2,1703.9h-16.4v-2.8h16.4V1703.9z M774.4,1703.9h-16.4v-2.8h16.4V1703.9z M741.5,1703.9H725v-2.8h16.4V1703.9z
				 M708.6,1703.9h-16.4v-2.8h16.4V1703.9z M675.7,1703.9h-16.4v-2.8h16.4V1703.9z M642.8,1703.9h-16.4v-2.8h16.4V1703.9z
				 M609.9,1703.9h-16.4v-2.8h16.4V1703.9z M577.1,1703.9h-16.4v-2.8h16.4V1703.9z M544.2,1703.9h-16.4v-2.8h16.4V1703.9z
				 M511.3,1703.9h-16.4v-2.8h16.4V1703.9z M478.4,1703.9H462v-2.8h16.4V1703.9z M445.5,1703.9h-16.4v-2.8h16.4V1703.9z
				 M412.6,1703.9h-16.4v-2.8h16.4V1703.9z M379.8,1703.9h-16.4v-2.8h16.4V1703.9z M346.9,1703.9h-16.4v-2.8h16.4V1703.9z
				 M314,1703.9h-16.4v-2.8H314V1703.9z M281.1,1703.9h-16.4v-2.8h16.4V1703.9z M248.2,1703.9h-16.4v-2.8h16.4V1703.9z
				 M215.3,1703.9h-16.4v-2.8h16.4V1703.9z"/>
		</g>
		<g class="st0">
			<rect x="2599" y="1701.2" class="st1" width="8.2" height="2.8"/>
		</g>
	</g>
	<text transform="matrix(1 0 0 1 671.5454 1106.7876)"><tspan x="0" y="0" class="st4 st5">G</tspan><tspan x="33.4" y="0" class="st4 st5">e</tspan><tspan x="58.9" y="0" class="st4 st5">s</tspan><tspan x="79.7" y="0" class="st4 st5">tión d</tspan><tspan x="202.6" y="0" class="st4 st5">e</tspan><tspan x="228" y="0" class="st4 st5"> </tspan><tspan x="239.4" y="0" class="st4 st5">l</tspan><tspan x="252.1" y="0" class="st4 st5">a </tspan><tspan x="287" y="0" class="st4 st5">p</tspan><tspan x="314.4" y="0" class="st4 st5">u</tspan><tspan x="341.2" y="0" class="st4 st5">bli</tspan><tspan x="393.2" y="0" class="st4 st5">ca</tspan><tspan x="441.9" y="0" class="st4 st5">ci</tspan><tspan x="479" y="0" class="st4 st5">ón </tspan><tspan x="544.6" y="0" class="st4 st5">d</tspan><tspan x="571.9" y="0" class="st4 st5">e r</tspan><tspan x="628.1" y="0" class="st4 st5">e</tspan><tspan x="653.5" y="0" class="st4 st5">su</tspan><tspan x="701.2" y="0" class="st4 st5">l</tspan><tspan x="713.9" y="0" class="st4 st5">tado</tspan><tspan x="810.1" y="0" class="st4 st5">s</tspan></text>
	<g>
		<rect x="685" y="747.2" class="st2" width="375.2" height="123.2"/>
	</g>
	<g>
		<defs>
			<rect id="SVGID_3_" x="170.1" y="740.7" width="2503.9" height="1307.1"/>
		</defs>
		<clipPath id="SVGID_4_">
			<use xlink:href="#SVGID_3_"  style="overflow:visible;"/>
		</clipPath>
		<g class="st6">
			<path class="st1" d="M1063,873.2H682.3V744.4H1063V873.2z M687.8,867.7h369.7V749.9H687.8V867.7z"/>
		</g>
	</g>
	<g>
		<rect x="869.9" y="908.5" class="st3" width="5.5" height="68.4"/>
	</g>
	<g>
		<polygon class="st3" points="862.2,911.6 872.6,893.5 883.1,911.6 		"/>
	</g>
	<g>
		<rect x="1122.8" y="747.2" class="st2" width="375.2" height="123.2"/>
	</g>
	<g>
		<defs>
			<rect id="SVGID_5_" x="170.1" y="740.7" width="2503.9" height="1307.1"/>
		</defs>
		<clipPath id="SVGID_6_">
			<use xlink:href="#SVGID_5_"  style="overflow:visible;"/>
		</clipPath>
		<g class="st7">
			<path class="st1" d="M1500.8,873.2H1120V744.4h380.8V873.2z M1125.5,867.7h369.7V749.9h-369.7V867.7z"/>
		</g>
	</g>
	<g>
		<rect x="1307.6" y="908.5" class="st3" width="5.5" height="68.4"/>
	</g>
	<g>
		<polygon class="st3" points="1299.9,911.6 1310.4,893.5 1320.8,911.6 		"/>
	</g>
	<g>
		<rect x="1560.5" y="747.2" class="st2" width="375.2" height="123.2"/>
	</g>
	<g>
		<defs>
			<rect id="SVGID_7_" x="170.1" y="740.7" width="2503.9" height="1307.1"/>
		</defs>
		<clipPath id="SVGID_8_">
			<use xlink:href="#SVGID_7_"  style="overflow:visible;"/>
		</clipPath>
		<g class="st8">
			<path class="st1" d="M1938.5,873.2h-380.8V744.4h380.8V873.2z M1563.3,867.7H1933V749.9h-369.7V867.7z"/>
		</g>
	</g>
	<g>
		<rect x="1745.3" y="908.5" class="st3" width="5.5" height="68.4"/>
	</g>
	<g>
		<polygon class="st3" points="1737.6,911.6 1748.1,893.5 1758.6,911.6 		"/>
	</g>
	<g>
		<path class="st3" d="M1940.7,1643.3H244.5v-652h1696.2V1643.3z M250,1637.8h1685.2v-641H250V1637.8z"/>
	</g>
	<text transform="matrix(1 0 0 1 369.8052 795.4819)"><tspan x="0" y="0" class="st4 st5">Sa</tspan><tspan x="49.6" y="0" class="st4 st5">l</tspan><tspan x="63.1" y="0" class="st4 st5">ón</tspan><tspan x="118.9" y="0" class="st4 st5"> </tspan></text>
	<text transform="matrix(1 0 0 1 293.4487 845.2173)"><tspan x="0" y="0" class="st4 st5">de</tspan><tspan x="54.3" y="0" class="st4 st5"> </tspan><tspan x="66.5" y="0" class="st4 st5">e</tspan><tspan x="92.6" y="0" class="st4 st5">stra</tspan><tspan x="177.4" y="0" class="st4 st5">te</tspan><tspan x="222.3" y="0" class="st4 st5">gi</tspan><tspan x="259.3" y="0" class="st4 st5">a</tspan></text>
	<text transform="matrix(1 0 0 1 810.7046 795.4819)"><tspan x="0" y="0" class="st4 st5">Da</tspan><tspan x="56.3" y="0" class="st4 st5">t</tspan><tspan x="75" y="0" class="st4 st5">o</tspan><tspan x="103.1" y="0" class="st4 st5">s</tspan></text>
	<text transform="matrix(1 0 0 1 783.1279 845.2173)"><tspan x="0" y="0" class="st4 st5">a</tspan><tspan x="24.3" y="0" class="st4 st5">b</tspan><tspan x="52.4" y="0" class="st4 st5">i</tspan><tspan x="65.1" y="0" class="st4 st5">e</tspan><tspan x="91.3" y="0" class="st4 st5">r</tspan><tspan x="111.4" y="0" class="st4 st5">t</tspan><tspan x="130.1" y="0" class="st4 st5">o</tspan><tspan x="158.2" y="0" class="st4 st5">s</tspan></text>
	<text transform="matrix(1 0 0 1 1183.3672 795.4819)"><tspan x="0" y="0" class="st4 st5">In</tspan><tspan x="42.6" y="0" class="st4 st5">tel</tspan><tspan x="101" y="0" class="st4 st5">i</tspan><tspan x="113.7" y="0" class="st4 st5">ge</tspan><tspan x="164.2" y="0" class="st4 st5">n</tspan><tspan x="191.8" y="0" class="st4 st5">c</tspan><tspan x="217.7" y="0" class="st4 st5">i</tspan><tspan x="230.4" y="0" class="st4 st5">a</tspan></text>
	<text transform="matrix(1 0 0 1 1182.0425 845.2173)"><tspan x="0" y="0" class="st4 st5">e</tspan><tspan x="26.2" y="0" class="st4 st5">m</tspan><tspan x="66.5" y="0" class="st4 st5">p</tspan><tspan x="94.6" y="0" class="st4 st5">r</tspan><tspan x="114.7" y="0" class="st4 st5">e</tspan><tspan x="140.9" y="0" class="st4 st5">sa</tspan><tspan x="186.9" y="0" class="st4 st5">r</tspan><tspan x="206.9" y="0" class="st4 st5">ia</tspan><tspan x="243.9" y="0" class="st4 st5">l</tspan></text>
	<text transform="matrix(1 0 0 1 1689.5908 795.4819)"><tspan x="0" y="0" class="st4 st5">Ot</tspan><tspan x="54" y="0" class="st4 st5">ra</tspan><tspan x="98.4" y="0" class="st4 st5">s</tspan></text>
	<text transform="matrix(1 0 0 1 1614.0127 845.2173)"><tspan x="0" y="0" class="st4 st5">a</tspan><tspan x="24.3" y="0" class="st4 st5">p</tspan><tspan x="52.4" y="0" class="st4 st5">l</tspan><tspan x="66" y="0" class="st4 st5">ic</tspan><tspan x="104.6" y="0" class="st4 st5">a</tspan><tspan x="128.9" y="0" class="st4 st5">ci</tspan><tspan x="167.5" y="0" class="st4 st5">on</tspan><tspan x="223.2" y="0" class="st4 st5">e</tspan><tspan x="249.4" y="0" class="st4 st5">s</tspan></text>
	<g>
		<rect x="432.2" y="908.5" class="st3" width="5.5" height="68.4"/>
	</g>
	<g>
		<polygon class="st3" points="424.5,911.6 434.9,893.5 445.4,911.6 		"/>
	</g>
	<g>
		<path class="st1" d="M625.3,873.2H244.5V745.6h380.8V873.2z M250.1,867.7h369.7V751.2H250.1V867.7z"/>
	</g>
	<g>
		<rect x="685" y="1769.3" class="st2" width="375.2" height="123.2"/>
	</g>
	<g>
		<path class="st1" d="M1063,1895.3H682.3v-128.8H1063V1895.3z M687.8,1889.8h369.7v-117.7H687.8V1889.8z"/>
	</g>
	<g>
		<rect x="1122.8" y="1769.3" class="st2" width="375.2" height="123.2"/>
	</g>
	<g>
		<path class="st1" d="M1500.8,1895.3H1120v-128.8h380.8V1895.3z M1125.5,1889.8h369.7v-117.7h-369.7V1889.8z"/>
	</g>
	<g>
		<rect x="1560.5" y="1769.3" class="st2" width="375.2" height="123.2"/>
	</g>
	<g>
		<path class="st1" d="M1938.5,1895.3h-380.8v-128.8h380.8V1895.3z M1563.3,1889.8H1933v-117.7h-369.7V1889.8z"/>
	</g>
	<g>
		<path class="st1" d="M625.3,1895.3H244.5v-127.5h380.8V1895.3z M250.1,1889.8h369.7v-116.5H250.1V1889.8z"/>
	</g>
	<g>
		<path class="st1" d="M625.3,1894.7H244.5v-127.5h380.8V1894.7z M250.1,1889.2h369.7v-116.5H250.1V1889.2z"/>
	</g>
	<g>
		<path class="st3" d="M1889.8,1137.9H293.5v-94.7h1596.3V1137.9z M299,1132.4h1585.3v-83.6H299V1132.4z"/>
	</g>
	<text transform="matrix(1 0 0 1 681.9058 1564.6992)" class="st4 st5">G</text>
	<text transform="matrix(1 0 0 1 715.3667 1564.6992)" class="st4 st5">e</text>
	<text transform="matrix(1 0 0 1 740.708 1564.6992)" class="st4 st5">s</text>
	<text transform="matrix(1 0 0 1 761.1797 1564.6992)" class="st4 st5">t</text>
	<text transform="matrix(1 0 0 1 779.0479 1564.6992)" class="st4 st5">i</text>
	<text transform="matrix(1 0 0 1 791.3086 1564.6992)" class="st4 st5">ó </text>
	<text transform="matrix(1 0 0 1 829.876 1564.6992)" class="st4 st5">d</text>
	<text transform="matrix(1 0 0 1 856.6343 1564.6992)" class="st4 st5">e </text>
	<text transform="matrix(1 0 0 1 893.2827 1564.6992)" class="st4 st5">l</text>
	<text transform="matrix(1 0 0 1 904.9082 1564.6992)" class="st4 st5">’</text>
	<text transform="matrix(1 0 0 1 914.7095 1564.6992)" class="st4 st5">e</text>
	<text transform="matrix(1 0 0 1 939.918 1564.6992)" class="st4 st5">xt</text>
	<text transform="matrix(1 0 0 1 979.7598 1564.6992)" class="st4 st5">r</text>
	<text transform="matrix(1 0 0 1 999.2271 1564.6992)" class="st4 st5">a</text>
	<text transform="matrix(1 0 0 1 1023.2026 1564.6992)" class="st4 st5">c</text>
	<text transform="matrix(1 0 0 1 1048.687 1564.6992)" class="st4 st5">c</text>
	<text transform="matrix(1 0 0 1 1073.8037 1564.6992)" class="st4 st5">i</text>
	<text transform="matrix(1 0 0 1 1086.0176 1564.6992)" class="st4 st5">ó i </text>
	<text transform="matrix(1 0 0 1 1147.7412 1564.6992)" class="st4 st5">c</text>
	<text transform="matrix(1 0 0 1 1173.0894 1564.6992)" class="st4 st5">à</text>
	<text transform="matrix(1 0 0 1 1195.9272 1564.6992)" class="st4 st5">r</text>
	<text transform="matrix(1 0 0 1 1215.1631 1564.6992)" class="st4 st5">r</text>
	<text transform="matrix(1 0 0 1 1234.4917 1564.6992)" class="st4 st5">ega </text>
	<text transform="matrix(1 0 0 1 1318.0479 1564.6992)" class="st4 st5">d</text>
	<text transform="matrix(1 0 0 1 1344.8081 1564.6992)" class="st4 st5">e </text>
	<text transform="matrix(1 0 0 1 1381.459 1564.6992)" class="st4 st5">d</text>
	<text transform="matrix(1 0 0 1 1408.3535 1564.6992)" class="st4 st5">a</text>
	<text transform="matrix(1 0 0 1 1432.3301 1564.6992)" class="st4 st5">d</text>
	<text transform="matrix(1 0 0 1 1459.1377 1564.6992)" class="st4 st5">es</text>
	<g>
		<path class="st3" d="M1889.8,1595.8H293.5v-94.7h1596.3V1595.8z M299,1590.3h1585.3v-83.6H299V1590.3z"/>
	</g>
	<g>
		<path class="st3" d="M1889.9,1462.8h-520.2v-286.4h520.2V1462.8z M1375.2,1457.2h509.2v-275.4h-509.2V1457.2z"/>
	</g>
	<g>
		<path class="st3" d="M1348.7,1462.8H828.4v-286.4h520.2V1462.8z M834,1457.2h509.2v-275.4H834V1457.2z"/>
	</g>
	<g>
		<path class="st3" d="M807.5,1462.8H293.5v-286.4h513.9V1462.8z M299,1457.2h502.9v-275.4H299V1457.2z"/>
	</g>
	<g>
		<defs>
			<rect id="SVGID_9_" x="170.1" y="740.7" width="2503.9" height="1307.1"/>
		</defs>
		<clipPath id="SVGID_10_">
			<use xlink:href="#SVGID_9_"  style="overflow:visible;"/>
		</clipPath>
		<g class="st9">
			<path class="st1" d="M314.1,1977.5c-8.5,0-16.5-3.3-22.5-9.3c-12.4-12.4-12.4-32.5,0-44.9c12.4-12.4,32.5-12.4,44.9,0
				c12.4,12.4,12.4,32.5,0,44.9C330.6,1974.2,322.6,1977.5,314.1,1977.5z M314.2,1919.5c-6.7,0-13.4,2.6-18.6,7.7
				c-10.2,10.2-10.2,26.9,0,37.1c5,5,11.6,7.7,18.6,7.7c7,0,13.6-2.7,18.6-7.7l0,0c10.2-10.2,10.2-26.9,0-37.1
				C327.6,1922.1,320.9,1919.5,314.2,1919.5z"/>
		</g>
	</g>
	<g>
		
			<rect x="311.4" y="1916.8" transform="matrix(0.7071 -0.7071 0.7071 0.7071 -1283.8844 792.0888)" class="st1" width="5.5" height="58"/>
	</g>
	<g>
		
			<rect x="285.1" y="1943" transform="matrix(0.7076 -0.7066 0.7066 0.7076 -1283.0957 790.997)" class="st1" width="58" height="5.5"/>
	</g>
	<g>
		<defs>
			<rect id="SVGID_11_" x="170.1" y="740.7" width="2503.9" height="1307.1"/>
		</defs>
		<clipPath id="SVGID_12_">
			<use xlink:href="#SVGID_11_"  style="overflow:visible;"/>
		</clipPath>
		<g class="st10">
			<path class="st1" d="M389,1977.5c-8.5,0-16.5-3.3-22.5-9.3c-6-6-9.3-14-9.3-22.5c0-8.5,3.3-16.5,9.3-22.5
				c12.4-12.4,32.5-12.4,44.9,0c12.4,12.4,12.4,32.5,0,44.9l0,0l0,0C405.4,1974.2,397.4,1977.5,389,1977.5z M389,1919.5
				c-6.7,0-13.4,2.6-18.6,7.7c-5,5-7.7,11.5-7.7,18.6c0,7,2.7,13.6,7.7,18.6c5,5,11.5,7.7,18.6,7.7s13.6-2.7,18.6-7.7l0,0
				c10.2-10.2,10.2-26.9,0-37.1C402.4,1922.1,395.7,1919.5,389,1919.5z"/>
		</g>
	</g>
	<g>
		
			<rect x="386.2" y="1916.8" transform="matrix(0.7071 -0.7071 0.7071 0.7071 -1261.9052 844.8816)" class="st1" width="5.5" height="58"/>
	</g>
	<g>
		
			<rect x="359.9" y="1943" transform="matrix(0.7076 -0.7066 0.7066 0.7076 -1261.2209 843.8562)" class="st1" width="58" height="5.5"/>
	</g>
	<g>
		<defs>
			<rect id="SVGID_13_" x="170.1" y="740.7" width="2503.9" height="1307.1"/>
		</defs>
		<clipPath id="SVGID_14_">
			<use xlink:href="#SVGID_13_"  style="overflow:visible;"/>
		</clipPath>
		<g class="st11">
			<path class="st1" d="M463.8,1977.5c-8.5,0-16.5-3.3-22.5-9.3c-12.4-12.4-12.4-32.5,0-44.9c12.4-12.4,32.5-12.4,44.9,0
				c6,6,9.3,14,9.3,22.5c0,8.5-3.3,16.5-9.3,22.5l0,0l0,0C480.2,1974.2,472.2,1977.5,463.8,1977.5z M463.8,1919.5
				c-6.7,0-13.4,2.6-18.6,7.7c-10.2,10.2-10.2,26.9,0,37.1c5,5,11.5,7.7,18.6,7.7s13.6-2.7,18.6-7.7l0,0c5-5,7.7-11.5,7.7-18.6
				c0-7-2.7-13.6-7.7-18.6C477.2,1922.1,470.5,1919.5,463.8,1919.5z"/>
		</g>
	</g>
	<g>
		
			<rect x="461" y="1916.8" transform="matrix(0.7071 -0.7071 0.7071 0.7071 -1239.9983 897.7719)" class="st1" width="5.5" height="58"/>
	</g>
	<g>
		
			<rect x="434.7" y="1943" transform="matrix(0.7076 -0.7066 0.7066 0.7076 -1239.3468 896.7136)" class="st1" width="58" height="5.5"/>
	</g>
	<g>
		<defs>
			<rect id="SVGID_15_" x="170.1" y="740.7" width="2503.9" height="1307.1"/>
		</defs>
		<clipPath id="SVGID_16_">
			<use xlink:href="#SVGID_15_"  style="overflow:visible;"/>
		</clipPath>
		<g class="st12">
			<path class="st1" d="M538.6,1977.5c-8.5,0-16.5-3.3-22.5-9.3c-12.4-12.4-12.4-32.5,0-44.9c12.4-12.4,32.6-12.4,44.9,0
				c12.4,12.4,12.4,32.5,0,44.9C555,1974.2,547,1977.5,538.6,1977.5z M538.6,1919.5c-6.7,0-13.4,2.6-18.6,7.7
				c-10.2,10.2-10.2,26.9,0,37.1c5,5,11.6,7.7,18.6,7.7c7,0,13.6-2.7,18.6-7.7l0,0c10.2-10.2,10.2-26.9,0-37.1
				C552,1922.1,545.3,1919.5,538.6,1919.5z"/>
		</g>
	</g>
	<g>
		
			<rect x="535.8" y="1916.8" transform="matrix(0.7071 -0.7071 0.7071 0.7071 -1218.1525 950.773)" class="st1" width="5.5" height="58"/>
	</g>
	<g>
		
			<rect x="509.5" y="1943" transform="matrix(0.7076 -0.7066 0.7066 0.7076 -1217.472 949.5728)" class="st1" width="58" height="5.5"/>
	</g>
	<g>
		<defs>
			<rect id="SVGID_17_" x="170.1" y="740.7" width="2503.9" height="1307.1"/>
		</defs>
		<clipPath id="SVGID_18_">
			<use xlink:href="#SVGID_17_"  style="overflow:visible;"/>
		</clipPath>
		<g class="st13">
			<path class="st1" d="M345.9,2042.2c-8.1,0-16.3-3.1-22.5-9.3c-12.4-12.4-12.4-32.5,0-44.9c12.4-12.4,32.5-12.4,44.9,0
				c12.4,12.4,12.4,32.5,0,44.9C362.2,2039.1,354.1,2042.2,345.9,2042.2z M345.9,1984.2c-6.7,0-13.4,2.6-18.6,7.7
				c-10.2,10.2-10.2,26.9,0,37.1c10.2,10.2,26.9,10.2,37.1,0c10.2-10.2,10.2-26.9,0-37.1C359.4,1986.8,352.6,1984.2,345.9,1984.2z"
				/>
		</g>
	</g>
	<g>
		
			<rect x="343.2" y="1981.4" transform="matrix(0.7071 -0.7071 0.7071 0.7071 -1320.3098 833.4993)" class="st1" width="5.5" height="58"/>
	</g>
	<g>
		
			<rect x="316.9" y="2007.7" transform="matrix(0.7076 -0.7066 0.7066 0.7076 -1319.5051 832.3609)" class="st1" width="58" height="5.5"/>
	</g>
	<g>
		<defs>
			<rect id="SVGID_19_" x="170.1" y="740.7" width="2503.9" height="1307.1"/>
		</defs>
		<clipPath id="SVGID_20_">
			<use xlink:href="#SVGID_19_"  style="overflow:visible;"/>
		</clipPath>
		<g class="st14">
			<path class="st1" d="M420.7,2042.2c-8.1,0-16.3-3.1-22.5-9.3c-12.4-12.4-12.4-32.5,0-44.9c12.4-12.4,32.5-12.4,44.9,0
				c12.4,12.4,12.4,32.5,0,44.9C437,2039.1,428.9,2042.2,420.7,2042.2z M420.7,1984.2c-6.7,0-13.4,2.6-18.6,7.7
				c-10.2,10.2-10.2,26.9,0,37.1c10.2,10.2,26.9,10.2,37.1,0c10.2-10.2,10.2-26.9,0-37.1C434.2,1986.8,427.4,1984.2,420.7,1984.2z"
				/>
		</g>
	</g>
	<g>
		
			<rect x="418" y="1981.4" transform="matrix(0.7071 -0.7071 0.7071 0.7071 -1298.3997 886.3928)" class="st1" width="5.5" height="58"/>
	</g>
	<g>
		
			<rect x="391.7" y="2007.7" transform="matrix(0.7076 -0.7066 0.7066 0.7076 -1297.6311 885.2183)" class="st1" width="58" height="5.5"/>
	</g>
	<g>
		<defs>
			<rect id="SVGID_21_" x="170.1" y="740.7" width="2503.9" height="1307.1"/>
		</defs>
		<clipPath id="SVGID_22_">
			<use xlink:href="#SVGID_21_"  style="overflow:visible;"/>
		</clipPath>
		<g class="st15">
			<path class="st1" d="M495.5,2042.2c-8.1,0-16.3-3.1-22.5-9.3c-6-6-9.3-14-9.3-22.5c0-8.5,3.3-16.5,9.3-22.5
				c12.4-12.4,32.5-12.4,44.9,0c12.4,12.4,12.4,32.5,0,44.9C511.8,2039.1,503.7,2042.2,495.5,2042.2z M495.5,1984.2
				c-6.7,0-13.4,2.6-18.6,7.7c-5,5-7.7,11.5-7.7,18.6c0,7,2.7,13.6,7.7,18.6c10.2,10.2,26.9,10.2,37.1,0c10.2-10.2,10.2-26.9,0-37.1
				C509,1986.8,502.2,1984.2,495.5,1984.2z"/>
		</g>
	</g>
	<g>
		
			<rect x="492.8" y="1981.4" transform="matrix(0.7071 -0.7071 0.7071 0.7071 -1276.4222 939.1781)" class="st1" width="5.5" height="58"/>
	</g>
	<g>
		
			<rect x="466.5" y="2007.7" transform="matrix(0.7076 -0.7066 0.7066 0.7076 -1275.7563 938.0775)" class="st1" width="58" height="5.5"/>
	</g>
	<g>
		<rect x="1308.7" y="1668.5" class="st3" width="4.8" height="70.3"/>
	</g>
	<g>
		<polygon class="st3" points="1302,1671.2 1311.2,1655.3 1320.3,1671.2 		"/>
	</g>
	<g>
		<path class="st2" d="M873.4,1932.9v-40.9V1932.9z"/>
	</g>
	<g>
		<rect x="870.7" y="1891.9" class="st1" width="5.5" height="40.9"/>
	</g>
	<g>
		<path class="st2" d="M1310.4,1932.9v-40.9V1932.9z"/>
	</g>
	<g>
		<rect x="1307.6" y="1891.9" class="st1" width="5.5" height="40.9"/>
	</g>
	<g>
		<defs>
			<rect id="SVGID_23_" x="170.1" y="740.7" width="2503.9" height="1307.1"/>
		</defs>
		<clipPath id="SVGID_24_">
			<use xlink:href="#SVGID_23_"  style="overflow:visible;"/>
		</clipPath>
		<g class="st16">
			<path class="st2" d="M1208.6,1942.5c0,5.3-15.5,9.7-34.5,9.7s-34.5-4.3-34.5-9.7s15.5-9.7,34.5-9.7S1208.6,1937.2,1208.6,1942.5"
				/>
		</g>
		<g class="st16">
			<path class="st1" d="M1174.1,1955c-18,0-37.3-3.9-37.3-12.4c0-8.5,19.3-12.4,37.3-12.4c18,0,37.3,3.9,37.3,12.4
				C1211.3,1951.1,1192,1955,1174.1,1955z M1174.1,1935.6c-20.5,0-31.7,4.9-31.8,6.9c0.1,2,11.3,6.9,31.8,6.9s31.7-4.9,31.8-6.9h2.8
				h-2.8C1205.8,1940.5,1194.5,1935.6,1174.1,1935.6z"/>
		</g>
		<g class="st16">
			<path class="st2" d="M1208.6,2030.3c0,5.3-15.5,9.7-34.5,9.7s-34.5-4.3-34.5-9.7"/>
		</g>
		<g class="st16">
			<path class="st1" d="M1174.1,2042.7c-18,0-37.3-3.9-37.3-12.4h5.5c0.1,2,11.3,6.9,31.8,6.9s31.7-4.9,31.8-6.9h5.5
				C1211.3,2038.8,1192,2042.7,1174.1,2042.7z"/>
		</g>
		<g class="st16">
			<rect x="1136.8" y="1942.5" class="st1" width="5.5" height="87.7"/>
		</g>
		<g class="st16">
			<rect x="1205.8" y="1942.5" class="st1" width="5.5" height="87.7"/>
		</g>
		<g class="st16">
			<path class="st2" d="M1344.9,1942.5c0,5.3-15.5,9.7-34.5,9.7s-34.5-4.3-34.5-9.7s15.5-9.7,34.5-9.7S1344.9,1937.2,1344.9,1942.5"
				/>
		</g>
		<g class="st16">
			<path class="st1" d="M1310.4,1955c-18,0-37.3-3.9-37.3-12.4c0-8.5,19.3-12.4,37.3-12.4s37.3,3.9,37.3,12.4
				C1347.7,1951.1,1328.3,1955,1310.4,1955z M1310.4,1935.6c-20.5,0-31.7,4.9-31.8,6.9c0.1,2,11.3,6.9,31.8,6.9s31.7-4.9,31.8-6.9
				h2.8h-2.8C1342.1,1940.5,1330.9,1935.6,1310.4,1935.6z"/>
		</g>
		<g class="st16">
			<path class="st2" d="M1344.9,2030.3c0,5.3-15.5,9.7-34.5,9.7s-34.5-4.3-34.5-9.7"/>
		</g>
		<g class="st16">
			<path class="st1" d="M1310.4,2042.7c-18,0-37.3-3.9-37.3-12.4h5.5c0.1,2,11.3,6.9,31.8,6.9s31.7-4.9,31.8-6.9h5.5
				C1347.7,2038.8,1328.3,2042.7,1310.4,2042.7z"/>
		</g>
		<g class="st16">
			<rect x="1273.1" y="1942.5" class="st1" width="5.5" height="87.7"/>
		</g>
		<g class="st16">
			<rect x="1342.1" y="1942.5" class="st1" width="5.5" height="87.7"/>
		</g>
		<g class="st16">
			<path class="st2" d="M1480.7,1942.5c0,5.3-15.5,9.7-34.5,9.7s-34.5-4.3-34.5-9.7s15.5-9.7,34.5-9.7S1480.7,1937.2,1480.7,1942.5"
				/>
		</g>
		<g class="st16">
			<path class="st1" d="M1446.2,1955c-18,0-37.3-3.9-37.3-12.4c0-8.5,19.3-12.4,37.3-12.4c18,0,37.3,3.9,37.3,12.4
				C1483.5,1951.1,1464.1,1955,1446.2,1955z M1446.2,1935.6c-20.5,0-31.7,4.9-31.8,6.9c0.1,2,11.3,6.9,31.8,6.9
				c20.5,0,31.7-4.9,31.8-6.9C1477.9,1940.5,1466.6,1935.6,1446.2,1935.6z"/>
		</g>
		<g class="st16">
			<path class="st2" d="M1480.7,2030.3c0,5.3-15.5,9.7-34.5,9.7s-34.5-4.3-34.5-9.7"/>
		</g>
		<g class="st16">
			<path class="st1" d="M1446.2,2042.7c-18,0-37.3-3.9-37.3-12.4h5.5c0.1,2,11.3,6.9,31.8,6.9c20.5,0,31.7-4.9,31.8-6.9h5.5
				C1483.5,2038.8,1464.1,2042.7,1446.2,2042.7z"/>
		</g>
		<g class="st16">
			<rect x="1408.9" y="1942.5" class="st1" width="5.5" height="87.7"/>
		</g>
		<g class="st16">
			<rect x="1478" y="1942.5" class="st1" width="5.5" height="87.7"/>
		</g>
		<g class="st16">
			
				<rect x="1171" y="1909.6" transform="matrix(0.9578 -0.2876 0.2876 0.9578 -497.527 438.0615)" class="st1" width="142.3" height="5.5"/>
		</g>
		<g class="st16">
			
				<rect x="1375.5" y="1841.5" transform="matrix(0.2886 -0.9575 0.9575 0.2886 -850.4877 2680.2178)" class="st1" width="5.5" height="141.8"/>
		</g>
		<g class="st16">
			<line class="st2" x1="1749.1" y1="1891.9" x2="1749.1" y2="1942.5"/>
		</g>
		<g class="st16">
			<rect x="1746.4" y="1891.9" class="st1" width="5.5" height="50.6"/>
		</g>
		<g class="st16">
			
				<rect x="1608.9" y="1914.5" transform="matrix(0.9372 -0.3487 0.3487 0.9372 -563.0088 706.5952)" class="st1" width="144.8" height="5.5"/>
		</g>
		<g class="st16">
			
				<rect x="1815.4" y="1843.8" transform="matrix(0.3444 -0.9388 0.9388 0.3444 -607.952 2963.9238)" class="st1" width="5.5" height="146.9"/>
		</g>
		<g class="st16">
			<path class="st1" d="M1658.5,2032.9h-73.6v-93.1h55.9l17.8,18.2V2032.9z M1590.2,2027.6h62.9v-67.4l-14.7-15h-48.2V2027.6z"/>
		</g>
		<g class="st16">
			<polygon class="st1" points="1636.9,1963.4 1636.9,1942.5 1642.3,1942.5 1642.3,1957.6 1655.6,1956.4 1656,1961.8 			"/>
		</g>
		<g class="st16">
			<path class="st1" d="M1785.7,2032.9h-73.6v-93.1h55.9l17.8,18.2V2032.9z M1717.4,2027.6h62.9v-67.4l-14.7-15h-48.2V2027.6z"/>
		</g>
		<g class="st16">
			<polygon class="st1" points="1764.1,1963.4 1764.1,1942.5 1769.5,1942.5 1769.5,1957.6 1782.8,1956.4 1783.2,1961.8 			"/>
		</g>
		<g class="st16">
			<path class="st1" d="M1923.9,2032.9h-73.6v-93.1h55.9l17.8,18.2V2032.9z M1855.6,2027.6h62.9v-67.4l-14.7-15h-48.2V2027.6z"/>
		</g>
		<g class="st16">
			<polygon class="st1" points="1902.3,1963.4 1902.3,1942.5 1907.7,1942.5 1907.7,1957.6 1921,1956.4 1921.5,1961.8 			"/>
		</g>
	</g>
	<text transform="matrix(1 0 0 1 359.2026 1846.0215)"><tspan x="0" y="0" class="st4 st5">Senti</tspan><tspan x="110.6" y="0" class="st4 st5">l</tspan><tspan x="124.1" y="0" class="st4 st5">o</tspan></text>
	<text transform="matrix(1 0 0 1 806.6245 1819.7637)"><tspan x="0" y="0" class="st4 st5">Re</tspan><tspan x="56.8" y="0" class="st4 st5">de</tspan><tspan x="111.1" y="0" class="st4 st5">s</tspan></text>
	<text transform="matrix(1 0 0 1 785.9751 1869.499)"><tspan x="0" y="0" class="st4 st5">s</tspan><tspan x="21.6" y="0" class="st4 st5">o</tspan><tspan x="49.7" y="0" class="st4 st5">c</tspan><tspan x="75.7" y="0" class="st4 st5">ia</tspan><tspan x="112.7" y="0" class="st4 st5">le</tspan><tspan x="152.3" y="0" class="st4 st5">s</tspan></text>
	<text transform="matrix(1 0 0 1 1220.6772 1819.7637)"><tspan x="0" y="0" class="st4 st5">S</tspan><tspan x="25.3" y="0" class="st4 st5">i</tspan><tspan x="38" y="0" class="st4 st5">s</tspan><tspan x="59.7" y="0" class="st4 st5">t</tspan><tspan x="78.4" y="0" class="st4 st5">. in</tspan><tspan x="146.7" y="0" class="st4 st5">f</tspan><tspan x="164.3" y="0" class="st4 st5">.</tspan></text>
	<text transform="matrix(1 0 0 1 1180.333 1869.499)"><tspan x="0" y="0" class="st4 st5">munic</tspan><tspan x="134.3" y="0" class="st4 st5">ip</tspan><tspan x="175.1" y="0" class="st4 st5">al</tspan><tspan x="212.9" y="0" class="st4 st5">e</tspan><tspan x="239.1" y="0" class="st4 st5">s</tspan></text>
	<text transform="matrix(1 0 0 1 1659.4355 1819.7637)"><tspan x="0" y="0" class="st4 st5">S</tspan><tspan x="25.3" y="0" class="st4 st5">i</tspan><tspan x="38" y="0" class="st4 st5">s</tspan><tspan x="59.7" y="0" class="st4 st5">t</tspan><tspan x="78.4" y="0" class="st4 st5">. </tspan><tspan x="106.3" y="0" class="st4 st5">i</tspan><tspan x="119" y="0" class="st4 st5">n</tspan><tspan x="146.6" y="0" class="st4 st5">f</tspan><tspan x="164.2" y="0" class="st4 st5">.</tspan></text>
	<text transform="matrix(1 0 0 1 1653.7861 1869.499)"><tspan x="0" y="0" class="st4 st5">e</tspan><tspan x="26.2" y="0" class="st4 st5">x</tspan><tspan x="49" y="0" class="st4 st5">te</tspan><tspan x="93.9" y="0" class="st4 st5">rno</tspan><tspan x="169.7" y="0" class="st4 st5">s</tspan></text>
	<text transform="matrix(1 0 0 1 2168.0107 1227.0713)" class="st3 st4 st17">Repositorio</text>
	<text transform="matrix(1 0 0 1 2057.4277 1296.6929)" class="st3 st4 st17">y tratamiento de los </text>
	<text transform="matrix(1 0 0 1 2115.0986 1366.3169)" class="st3 st4 st17">datos analíticos</text>
	<text transform="matrix(1 0 0 1 2193.5361 1435.9355)" class="st3 st4 st17">de ciudad</text>
	<text transform="matrix(1 0 0 1 2095.1436 1820.9941)" class="st3 st4 st17">Fuentes de datos </text>
	<text transform="matrix(1 0 0 1 2136.2188 1890.6162)" class="st3 st4 st17">operacionales</text>
	<g>
		<defs>
			<rect id="SVGID_25_" x="170.1" y="740.7" width="2503.9" height="1307.1"/>
		</defs>
		<clipPath id="SVGID_26_">
			<use xlink:href="#SVGID_25_"  style="overflow:visible;"/>
		</clipPath>
		<g class="st18">
			<text transform="matrix(1 0 0 1 2166.7939 783.123)" class="st3 st4 st17">Explotación</text>
		</g>
	</g>
	<text transform="matrix(1 0 0 1 2142.833 852.7446)" class="st3 st4 st17">de resultados</text>
	<text transform="matrix(1 0 0 1 409.6909 1274.5908)"><tspan x="0" y="0" class="st4 st5">De</tspan><tspan x="57.9" y="0" class="st4 st5">ﬁni</tspan><tspan x="124.9" y="0" class="st4 st5">c</tspan><tspan x="150.8" y="0" class="st4 st5">ión d</tspan><tspan x="259.1" y="0" class="st4 st5">e</tspan><tspan x="285.2" y="0" class="st4 st5"> </tspan></text>
	<text transform="matrix(1 0 0 1 370.9912 1329.2964)"><tspan x="0" y="0" class="st4 st5">mo</tspan><tspan x="68.3" y="0" class="st4 st5">del</tspan><tspan x="135.8" y="0" class="st4 st5">o d</tspan><tspan x="204" y="0" class="st4 st5">e</tspan><tspan x="230.1" y="0" class="st4 st5"> dato</tspan><tspan x="341.1" y="0" class="st4 st5">s</tspan></text>
	<text transform="matrix(1 0 0 1 446.0679 1383.998)"><tspan x="0" y="0" class="st4 st5">d</tspan><tspan x="28" y="0" class="st4 st5">e c</tspan><tspan x="92.1" y="0" class="st4 st5">i</tspan><tspan x="104.7" y="0" class="st4 st5">u</tspan><tspan x="132.2" y="0" class="st4 st5">d</tspan><tspan x="160.3" y="0" class="st4 st5">a</tspan><tspan x="184.5" y="0" class="st4 st5">d</tspan></text>
	<text transform="matrix(1 0 0 1 891.5732 1296.7017)"><tspan x="0" y="0" class="st4 st5">Re</tspan><tspan x="56.6" y="0" class="st4 st5">pos</tspan><tspan x="134.2" y="0" class="st4 st5">i</tspan><tspan x="146.8" y="0" class="st4 st5">torio </tspan><tspan x="266.3" y="0" class="st4 st5">g</tspan><tspan x="290.5" y="0" class="st4 st5">lo</tspan><tspan x="331.9" y="0" class="st4 st5">b</tspan><tspan x="360" y="0" class="st4 st5">a</tspan><tspan x="384.2" y="0" class="st4 st5">l</tspan><tspan x="397.6" y="0" class="st4 st5"> </tspan></text>
	<text transform="matrix(1 0 0 1 884.7373 1351.4062)"><tspan x="0" y="0" class="st4 st5">de</tspan><tspan x="54.1" y="0" class="st4 st5"> da</tspan><tspan x="118.5" y="0" class="st4 st5">t</tspan><tspan x="137.1" y="0" class="st4 st5">o</tspan><tspan x="165.1" y="0" class="st4 st5">s</tspan><tspan x="186.6" y="0" class="st4 st5"> d</tspan><tspan x="226.8" y="0" class="st4 st5">e</tspan><tspan x="252.9" y="0" class="st4 st5"> </tspan><tspan x="264.9" y="0" class="st4 st5">c</tspan><tspan x="290.8" y="0" class="st4 st5">iu</tspan><tspan x="330.9" y="0" class="st4 st5">d</tspan><tspan x="359" y="0" class="st4 st5">a</tspan><tspan x="383.2" y="0" class="st4 st5">d</tspan></text>
	<text transform="matrix(1 0 0 1 1499.0889 1274.5908)"><tspan x="0" y="0" class="st4 st5">P</tspan><tspan x="27.8" y="0" class="st4 st5">r</tspan><tspan x="47.7" y="0" class="st4 st5">oc</tspan><tspan x="101.7" y="0" class="st4 st5">es</tspan><tspan x="149.2" y="0" class="st4 st5">o</tspan><tspan x="177.3" y="0" class="st4 st5">s</tspan><tspan x="198.8" y="0" class="st4 st5"> d</tspan><tspan x="239" y="0" class="st4 st5">e</tspan></text>
	<text transform="matrix(1 0 0 1 1413.209 1329.2964)"><tspan x="0" y="0" class="st4 st5">mod</tspan><tspan x="96.4" y="0" class="st4 st5">el</tspan><tspan x="135.8" y="0" class="st4 st5">aj</tspan><tspan x="172.7" y="0" class="st4 st5">e</tspan><tspan x="198.8" y="0" class="st4 st5">, ana</tspan><tspan x="304.1" y="0" class="st4 st5">l</tspan><tspan x="317.5" y="0" class="st4 st5">ít</tspan><tspan x="348.8" y="0" class="st4 st5">i</tspan><tspan x="361.4" y="0" class="st4 st5">co</tspan><tspan x="415.3" y="0" class="st4 st5">s</tspan><tspan x="436.8" y="0" class="st4 st5"> </tspan></text>
	<text transform="matrix(1 0 0 1 1492.5244 1383.998)"><tspan x="0" y="0" class="st4 st5">y p</tspan><tspan x="62.9" y="0" class="st4 st5">re</tspan><tspan x="108.9" y="0" class="st4 st5">di</tspan><tspan x="149.6" y="0" class="st4 st5">c</tspan><tspan x="175.5" y="0" class="st4 st5">tivo</tspan><tspan x="256.7" y="0" class="st4 st5">s</tspan></text>
</g>
</svg>
