<?xml version="1.0" encoding="utf-8"?>
<!-- Generator: Adobe Illustrator 22.1.0, SVG Export Plug-In . SVG Version: 6.00 Build 0)  -->
<svg version="1.1" id="Capa_1" xmlns="http://www.w3.org/2000/svg" xmlns:xlink="http://www.w3.org/1999/xlink" x="0px" y="0px"
	 viewBox="0 0 900.1 1445.1" style="enable-background:new 0 0 900.1 1445.1;" xml:space="preserve">
<style type="text/css">
	.st0{clip-path:url(#SVGID_2_);fill:#FFFFFF;fill-opacity:0;}
	.st1{fill:#B8B8ED;}
	.st2{fill:#3B31F5;}
	.st3{clip-path:url(#SVGID_4_);}
	.st4{clip-path:url(#SVGID_6_);}
	.st5{clip-path:url(#SVGID_8_);}
	.st6{clip-path:url(#SVGID_10_);}
	.st7{clip-path:url(#SVGID_12_);}
	.st8{clip-path:url(#SVGID_14_);}
</style>
<g>
	<g>
		<g>
			<defs>
				<rect id="SVGID_1_" x="-2533.8" y="-3198.4" width="499" height="373"/>
			</defs>
			<clipPath id="SVGID_2_">
				<use xlink:href="#SVGID_1_"  style="overflow:visible;"/>
			</clipPath>
			<rect x="-2533.8" y="-3198.4" class="st0" width="499" height="373"/>
		</g>
	</g>
</g>
<g>
	<g>
		<rect x="-664.2" y="987" class="st1" width="451.9" height="89.7"/>
	</g>
	<g>
		<rect x="-664.2" y="390.4" class="st1" width="451.9" height="89.7"/>
	</g>
	<g>
		<rect x="-665.2" y="582.3" class="st1" width="176.9" height="360.2"/>
	</g>
	<g>
		<rect x="-391.5" y="582.3" class="st1" width="176.9" height="360.2"/>
	</g>
	<g>
		<path class="st2" d="M-556.2,440v-36.2h11.3c8.5,0,16.9,5.4,16.9,18.1s-8.3,18.1-16.9,18.1H-556.2z M-547,433.8
			c5.8,0,12.2-2.3,12.2-11.9S-541.2,410-547,410h-2.5v23.8H-547z"/>
		<path class="st2" d="M-499.5,403.8v6.2h-15.7v7.6h12.6v6.2h-12.6v10h16.2v6.2h-22.9v-36.2L-499.5,403.8L-499.5,403.8z"/>
		<path class="st2" d="M-468.9,415.9c-1.4-3.7-3.9-6.3-9-6.3c-5.6,0-10.3,3.9-10.3,12.3s4.7,12.3,10.3,12.3c5,0,7.6-2.6,9-6.3
			l6.1,1.6c-1.7,6.9-7.1,11-15,11c-9.1,0-17.1-6.4-17.1-18.5s8.1-18.5,17.1-18.5c7.9,0,13.3,4,15,11L-468.9,415.9z"/>
		<path class="st2" d="M-439.4,423.8l10,16.2h-7.5l-9.7-15.6h-3.5V440h-6.7v-36.2h13.2c7.2,0,11,4.3,11,10.3
			C-432.7,418.8-435,422.5-439.4,423.8z M-439.4,414.1c0-2.9-1.8-4.1-4.2-4.1h-6.5v8.2h6.5C-441.2,418.2-439.4,417-439.4,414.1z"/>
		<path class="st2" d="M-402.2,403.8v6.2h-15.7v7.6h12.6v6.2h-12.6v10h16.2v6.2h-22.9v-36.2L-402.2,403.8L-402.2,403.8z"/>
		<path class="st2" d="M-396.7,403.8h26.8v6.2h-10v30h-6.7v-30h-10L-396.7,403.8L-396.7,403.8z"/>
	</g>
	<g>
		<path class="st2" d="M-646.6,857.4v-7.6l22.6-8.5l-22.6-8.5v-7.6h36.2v6.7h-22.3l19,6.9v4.9l-19,6.9h22.3v6.7L-646.6,857.4
			L-646.6,857.4z"/>
		<path class="st2" d="M-646.6,795.3h6.2V811h7.6v-12.6h6.2V811h10v-16.2h6.2v22.9h-36.2L-646.6,795.3L-646.6,795.3z"/>
		<path class="st2" d="M-637,773.8c-2.7,1.4-3.8,2.9-3.8,5c0,2,1.4,3.5,3.3,3.5c6.3,0,5.5-15.5,16.2-15.5c7.1,0,11.3,4.7,11.3,11.6
			c0,6.6-4.6,11.3-10.1,12.5l-3.4-5.4c3.9-1.1,7.3-3.3,7.3-7.2c0-2.8-1.4-4.7-4.7-4.7c-6,0-4.8,15.2-16.3,15.2
			c-5.5,0-9.8-4.2-9.8-9.9c0-4.8,2.4-8.5,6.6-10.4L-637,773.8z"/>
		<path class="st2" d="M-624.1,734.4c9.7,0,14.2,5.6,14.2,13.5s-4.5,13.5-14.2,13.5h-22.5v-6.7h22.6c5.3,0,7.9-2.2,7.9-6.8
			s-2.6-6.8-7.9-6.8h-22.6v-6.7H-624.1z"/>
		<path class="st2" d="M-626.6,710.5l16.2-10v7.5l-15.6,9.7v3.5h15.6v6.7h-36.2v-13.2c0-7.2,4.3-11,10.3-11
			C-631.5,703.8-627.9,706.1-626.6,710.5z M-636.3,710.5c-2.9,0-4.1,1.8-4.1,4.2v6.5h8.2v-6.5C-632.2,712.3-633.4,710.5-636.3,710.5
			z"/>
		<path class="st2" d="M-646.6,673.3h6.2V689h7.6v-12.6h6.2V689h10v-16.2h6.2v22.9h-36.2L-646.6,673.3L-646.6,673.3z"/>
		<path class="st2" d="M-637,651.7c-2.7,1.4-3.8,2.9-3.8,5c0,2,1.4,3.5,3.3,3.5c6.3,0,5.5-15.5,16.2-15.5c7.1,0,11.3,4.7,11.3,11.6
			c0,6.6-4.6,11.3-10.1,12.5l-3.4-5.4c3.9-1.1,7.3-3.3,7.3-7.2c0-2.8-1.4-4.7-4.7-4.7c-6,0-4.8,15.2-16.3,15.2
			c-5.5,0-9.8-4.2-9.8-9.9c0-4.8,2.4-8.5,6.6-10.4L-637,651.7z"/>
	</g>
	<g>
		<path class="st2" d="M-578.8,836.5c-2.7,1.4-3.8,2.9-3.8,5c0,2,1.4,3.5,3.3,3.5c6.3,0,5.5-15.5,16.2-15.5
			c7.1,0,11.3,4.7,11.3,11.6c0,6.6-4.6,11.3-10.1,12.5l-3.4-5.4c3.9-1.1,7.3-3.3,7.3-7.2c0-2.8-1.4-4.7-4.7-4.7
			c-6,0-4.8,15.2-16.3,15.2c-5.5,0-9.8-4.2-9.8-9.9c0-4.8,2.4-8.5,6.6-10.4L-578.8,836.5z"/>
		<path class="st2" d="M-570.3,790.6c12.6,0,18.5,7.9,18.5,17.1c0,9.2-6,17.1-18.5,17.1c-12.6,0-18.5-7.9-18.5-17.1
			S-582.8,790.6-570.3,790.6z M-570.3,817.9c8.6,0,12.3-4.8,12.3-10.2s-3.7-10.2-12.3-10.2s-12.3,4.8-12.3,10.2
			C-582.6,813.1-578.9,817.9-570.3,817.9z"/>
		<path class="st2" d="M-576.3,758.9c-3.7,1.4-6.3,3.9-6.3,9c0,5.6,3.9,10.3,12.3,10.3c8.4,0,12.3-4.7,12.3-10.3c0-5-2.6-7.6-6.3-9
			l1.6-6c6.9,1.7,11,7.1,11,15c0,9.1-6.4,17.1-18.5,17.1c-12.1,0-18.5-8.1-18.5-17.1c0-7.9,4-13.3,11-15L-576.3,758.9z"/>
		<path class="st2" d="M-552.2,740.2v6.7h-36.2v-6.7H-552.2z"/>
		<path class="st2" d="M-560.7,714.6V726l8.5,2.6v7.2l-36.2-12.3v-6.7l36.2-12.3v7.2L-560.7,714.6z M-566.9,724.1v-7.7l-12.6,3.8
			L-566.9,724.1z"/>
		<path class="st2" d="M-588.4,693.4h30V678h6.2v22.1h-36.2V693.4z"/>
		<path class="st2" d="M-578.8,658.4c-2.7,1.4-3.8,2.9-3.8,5c0,2,1.4,3.5,3.3,3.5c6.3,0,5.5-15.5,16.2-15.5
			c7.1,0,11.3,4.7,11.3,11.6c0,6.6-4.6,11.3-10.1,12.5l-3.4-5.4c3.9-1.1,7.3-3.3,7.3-7.2c0-2.8-1.4-4.7-4.7-4.7
			c-6,0-4.8,15.2-16.3,15.2c-5.5,0-9.8-4.2-9.8-9.9c0-4.8,2.4-8.5,6.6-10.4L-578.8,658.4z"/>
	</g>
	<g>
		<path class="st2" d="M-363.1,855v-7.5l22.6-8.5l-22.6-8.5v-7.6h36.2v6.7h-22.3l19,6.9v4.9l-19,6.9h22.3v6.7L-363.1,855L-363.1,855
			z"/>
		<path class="st2" d="M-363.1,793h6.2v15.7h7.6v-12.6h6.2v12.6h10v-16.2h6.2v22.9h-36.2V793L-363.1,793z"/>
		<path class="st2" d="M-353.5,771.4c-2.7,1.4-3.8,2.9-3.8,5c0,2,1.4,3.5,3.3,3.5c6.3,0,5.5-15.5,16.2-15.5
			c7.1,0,11.3,4.7,11.3,11.6c0,6.6-4.6,11.3-10.1,12.5l-3.4-5.4c3.9-1.1,7.3-3.3,7.3-7.2c0-2.8-1.4-4.7-4.7-4.7
			c-6,0-4.8,15.2-16.3,15.2c-5.5,0-9.8-4.2-9.8-9.9c0-4.8,2.4-8.5,6.6-10.4L-353.5,771.4z"/>
		<path class="st2" d="M-340.6,732.1c9.7,0,14.2,5.6,14.2,13.5s-4.5,13.5-14.2,13.5h-22.5v-6.7h22.6c5.3,0,7.9-2.2,7.9-6.8
			s-2.6-6.8-7.9-6.8h-22.6v-6.7H-340.6z"/>
		<path class="st2" d="M-343.1,708.2l16.2-10v7.5l-15.6,9.7v3.5h15.6v6.7h-36.2v-13.2c0-7.2,4.3-11,10.3-11
			C-348,701.4-344.4,703.8-343.1,708.2z M-352.8,708.1c-2.9,0-4.1,1.8-4.1,4.2v6.5h8.2v-6.5C-348.7,710-349.8,708.1-352.8,708.1z"/>
		<path class="st2" d="M-363.1,670.9h6.2v15.7h7.6V674h6.2v12.6h10v-16.2h6.2v22.9h-36.2V670.9L-363.1,670.9z"/>
		<path class="st2" d="M-353.5,649.4c-2.7,1.4-3.8,2.9-3.8,5c0,2,1.4,3.5,3.3,3.5c6.3,0,5.5-15.5,16.2-15.5
			c7.1,0,11.3,4.7,11.3,11.6c0,6.6-4.6,11.3-10.1,12.5l-3.4-5.4c3.9-1.1,7.3-3.3,7.3-7.2c0-2.8-1.4-4.7-4.7-4.7
			c-6,0-4.8,15.2-16.3,15.2c-5.5,0-9.8-4.2-9.8-9.9c0-4.8,2.4-8.5,6.6-10.4L-353.5,649.4z"/>
	</g>
	<g>
		<g>
			<g>
				<defs>
					<rect id="SVGID_3_" x="-732.5" y="368.3" width="556.1" height="708.4"/>
				</defs>
				<clipPath id="SVGID_4_">
					<use xlink:href="#SVGID_3_"  style="overflow:visible;"/>
				</clipPath>
				<g class="st3">
					<path class="st2" d="M-277.2,876.2v11.5l8.5,2.6v7.2l-36.2-12.3v-6.7l36.2-12.3v7.2L-277.2,876.2z M-283.4,885.8v-7.7
						l-12.6,3.8L-283.4,885.8z"/>
					<path class="st2" d="M-304.9,861.4v-7.6l22.6-8.5l-22.6-8.5v-7.5h36.2v6.7H-291l19,6.9v4.9l-19,6.9h22.3v6.7L-304.9,861.4
						L-304.9,861.4z"/>
					<path class="st2" d="M-304.9,808.5c0-6.2,3.2-10.3,9.8-10.3c2.9,0,5.5,1.3,6.7,3.6c1.4-3.4,4.2-5.4,8.8-5.4
						c7,0,10.9,4.6,10.9,11.9v13.5h-36.2V808.5L-304.9,808.5z M-298.7,815h7.9v-6.2c0-2.7-1-4.2-3.9-4.2s-3.9,1.6-3.9,4.4
						L-298.7,815L-298.7,815z M-284.6,815h9.7v-6.2c0-4.2-1.8-5.8-4.9-5.8s-4.9,1.7-4.9,5.8v6.2H-284.6z"/>
					<path class="st2" d="M-268.7,783.7v6.7h-36.2v-6.7H-268.7z"/>
					<path class="st2" d="M-304.9,753.9h6.2v15.7h7.6V757h6.2v12.6h10v-16.2h6.2v22.9h-36.2V753.9L-304.9,753.9z"/>
					<path class="st2" d="M-304.9,720h36.2v7.1l-23.9,13.3h23.9v6.7h-36.2V740l23.9-13.3h-23.9V720z"/>
					<path class="st2" d="M-304.9,714.3v-26.8h6.2v10h30v6.7h-30v10L-304.9,714.3L-304.9,714.3z"/>
					<path class="st2" d="M-277.2,667.5V679l8.5,2.6v7.2l-36.2-12.3v-6.7l36.2-12.3v7.2L-277.2,667.5z M-283.4,677v-7.7l-12.6,3.8
						L-283.4,677z"/>
					<path class="st2" d="M-304.9,646.3h30V631h6.2v22.1h-36.2V646.3z"/>
					<path class="st2" d="M-295.3,611.4c-2.7,1.4-3.8,2.9-3.8,5c0,2,1.4,3.5,3.3,3.5c6.3,0,5.5-15.5,16.2-15.5
						c7.1,0,11.3,4.7,11.3,11.6c0,6.6-4.6,11.3-10.1,12.5l-3.4-5.4c3.9-1.1,7.3-3.3,7.3-7.2c0-2.8-1.4-4.7-4.7-4.7
						c-6,0-4.8,15.2-16.3,15.2c-5.5,0-9.8-4.2-9.8-9.9c0-4.8,2.4-8.5,6.6-10.4L-295.3,611.4z"/>
				</g>
			</g>
		</g>
	</g>
	<g>
		<path class="st2" d="M-650.8,1004.9h26.8v6.2h-10v30h-6.7v-30h-10L-650.8,1004.9L-650.8,1004.9L-650.8,1004.9z"/>
		<path class="st2" d="M-611.5,1041.1h-6.7v-36.2h6.7V1041.1z"/>
		<path class="st2" d="M-578.6,1017c-1.4-3.7-3.9-6.3-8.9-6.3c-5.6,0-10.3,3.9-10.3,12.3c0,8.4,4.7,12.3,10.3,12.3
			c5,0,7.6-2.6,8.9-6.3l6.1,1.6c-1.7,6.9-7.1,11-15,11c-9.1,0-17.1-6.4-17.1-18.5s8.1-18.5,17.1-18.5c7.9,0,13.3,4,15,11
			L-578.6,1017z"/>
		<path class="st2" d="M-546.8,1041.1h-6.7v-36.2h6.7V1041.1z"/>
		<path class="st2" d="M-517.9,1041.1h-6.7v-36.2h6.7V1041.1z"/>
		<path class="st2" d="M-483.3,1004.9v36.2h-7.1l-13.3-23.9v23.9h-6.7v-36.2h7.1l13.3,23.9v-23.9L-483.3,1004.9L-483.3,1004.9z"/>
		<path class="st2" d="M-448.8,1004.9v36.2h-7.1l-13.3-23.9v23.9h-6.7v-36.2h7.1l13.3,23.9v-23.9L-448.8,1004.9L-448.8,1004.9z"/>
		<path class="st2" d="M-407.8,1023c0,12.6-7.9,18.5-17.1,18.5s-17.1-6-17.1-18.5c0-12.6,7.9-18.5,17.1-18.5
			S-407.8,1010.4-407.8,1023z M-435.1,1023c0,8.6,4.8,12.3,10.2,12.3s10.2-3.7,10.2-12.3c0-8.6-4.8-12.3-10.2-12.3
			S-435.1,1014.4-435.1,1023z"/>
		<path class="st2" d="M-393.7,1041.1l-12.2-36.2h7.4l8.1,26.8l8.1-26.8h7.4l-12.2,36.2H-393.7z"/>
		<path class="st2" d="M-357.2,1032.6h-11.5l-2.6,8.5h-7.2l12.3-36.2h6.7l12.3,36.2h-7.2L-357.2,1032.6z M-366.7,1026.4h7.7
			l-3.8-12.6L-366.7,1026.4z"/>
		<path class="st2" d="M-319.7,1017c-1.4-3.7-3.9-6.3-9-6.3c-5.6,0-10.3,3.9-10.3,12.3c0,8.4,4.7,12.3,10.3,12.3c5,0,7.6-2.6,9-6.3
			l6.1,1.6c-1.7,6.9-7.1,11-15,11c-9.1,0-17.1-6.4-17.1-18.5s8.1-18.5,17.1-18.5c7.9,0,13.3,4,15,11L-319.7,1017z"/>
		<path class="st2" d="M-301,1041.1h-6.7v-36.2h6.7V1041.1z"/>
		<path class="st2" d="M-260,1023c0,12.6-7.9,18.5-17.1,18.5s-17.1-6-17.1-18.5c0-12.6,7.9-18.5,17.1-18.5S-260,1010.4-260,1023z
			 M-287.4,1023c0,8.6,4.8,12.3,10.2,12.3s10.2-3.7,10.2-12.3c0-8.6-4.8-12.3-10.2-12.3S-287.4,1014.4-287.4,1023z M-278.3,994.3
			h8.7l-7.1,7.7h-4.9L-278.3,994.3z"/>
	</g>
	<g>
		<path class="st2" d="M-227.6,1063.1H-686v-96.2h458.4L-227.6,1063.1L-227.6,1063.1z M-679.5,1056.7h445.4v-83.3h-445.4V1056.7z"/>
	</g>
	<g>
		<g>
			<g>
				<defs>
					<rect id="SVGID_5_" x="-732.5" y="368.3" width="556.1" height="708.4"/>
				</defs>
				<clipPath id="SVGID_6_">
					<use xlink:href="#SVGID_5_"  style="overflow:visible;"/>
				</clipPath>
				<g class="st4">
					<path class="st2" d="M-227.6,468.9H-686v-96.2h458.4L-227.6,468.9L-227.6,468.9z M-679.5,462.4h445.4v-83.3h-445.4V462.4z"/>
				</g>
			</g>
		</g>
	</g>
	<g>
		<path class="st2" d="M-503.6,929H-687V562.3h183.4L-503.6,929L-503.6,929z M-680.5,922.5h170.4V568.7h-170.4V922.5z"/>
	</g>
	<g>
		<path class="st2" d="M-229.9,929h-183.4V562.3h183.4V929z M-406.7,922.5h170.4V568.7h-170.4V922.5z"/>
	</g>
	<g>
		<polygon class="st2" points="-206.8,546.3 -213.2,546.3 -213.2,523.5 -700.3,523.5 -700.3,546.3 -706.7,546.3 -706.7,517 
			-206.8,517 		"/>
	</g>
	<g>
		<rect x="-460" y="490.9" class="st2" width="6.5" height="29.3"/>
	</g>
</g>
<g>
	<g>
		<rect x="244.4" y="992.5" class="st1" width="423.8" height="84.2"/>
	</g>
	<g>
		<rect x="244.4" y="393" class="st1" width="423.8" height="101.1"/>
	</g>
	<g>
		<rect x="243.5" y="590.9" class="st1" width="165.9" height="357.7"/>
	</g>
	<g>
		<rect x="500.2" y="590.9" class="st1" width="165.9" height="357.7"/>
	</g>
	<g>
		<path class="st2" d="M255.2,416.6h7.1l8,21.2l8-21.2h7.1v34h-6.3v-21l-6.5,17.8H268l-6.5-17.8v21h-6.3L255.2,416.6L255.2,416.6z"
			/>
		<path class="st2" d="M309.2,442.6h-10.8l-2.5,8h-6.8l11.5-34h6.3l11.5,34h-6.8L309.2,442.6z M300.2,436.7h7.2l-3.6-11.8
			L300.2,436.7z"/>
		<path class="st2" d="M321.5,416.6l6.2,13.2l6.2-13.2h6.8l-9.8,19.5v14.5h-6.3v-14.5l-9.8-19.5H321.5z"/>
		<path class="st2" d="M372.5,433.6c0,11.8-7.4,17.4-16,17.4s-16-5.6-16-17.4s7.4-17.4,16-17.4S372.5,421.8,372.5,433.6z
			 M346.9,433.6c0,8.1,4.5,11.5,9.6,11.5s9.6-3.5,9.6-11.5s-4.5-11.5-9.6-11.5S346.9,425.5,346.9,433.6z"/>
		<path class="st2" d="M393.5,435.4l9.4,15.2h-7l-9.1-14.6h-3.3v14.6h-6.3v-34h12.4c6.8,0,10.3,4,10.3,9.7
			C399.9,430.7,397.7,434.1,393.5,435.4z M393.6,426.3c0-2.8-1.7-3.8-4-3.8h-6.1v7.7h6.1C391.9,430.1,393.6,429,393.6,426.3z"/>
		<path class="st2" d="M424.5,442.6h-10.8l-2.5,8h-6.8l11.5-34h6.3l11.5,34h-6.8L424.5,442.6z M415.6,436.7h7.2l-3.6-11.8
			L415.6,436.7z"/>
		<path class="st2" d="M443.4,416.6v28.1h14.4v5.8h-20.7v-34h6.3V416.6z"/>
		<path class="st2" d="M473,450.6v-34h10.6c8,0,15.8,5.1,15.8,17s-7.8,17-15.8,17H473z M481.7,444.8c5.4,0,11.4-2.1,11.4-11.2
			c0-9-6-11.2-11.4-11.2h-2.3v22.3h2.3V444.8z"/>
		<path class="st2" d="M525.2,416.6v5.8h-14.7v7.1h11.8v5.8h-11.8v9.4h15.2v5.8h-21.5v-34h21V416.6z"/>
		<path class="st2" d="M552.9,428c-1.3-3.4-3.7-5.9-8.4-5.9c-5.2,0-9.7,3.7-9.7,11.5c0,7.9,4.4,11.5,9.7,11.5c4.7,0,7.1-2.5,8.4-5.9
			l5.7,1.5c-1.6,6.5-6.7,10.3-14.1,10.3c-8.5,0-16.1-6-16.1-17.4s7.6-17.4,16.1-17.4c7.4,0,12.5,3.8,14.1,10.3L552.9,428z"/>
		<path class="st2" d="M579.6,435.4l9.4,15.2h-7l-9.1-14.6h-3.3v14.6h-6.3v-34h12.4c6.8,0,10.3,4,10.3,9.7
			C585.9,430.7,583.7,434.1,579.6,435.4z M579.6,426.3c0-2.8-1.7-3.8-4-3.8h-6.1v7.7h6.1C577.9,430.1,579.6,429,579.6,426.3z"/>
		<path class="st2" d="M613.5,416.6v5.8h-14.7v7.1h11.8v5.8h-11.8v9.4H614v5.8h-21.5v-34h21V416.6z"/>
		<path class="st2" d="M639.8,416.6v5.8h-14.7v7.1h11.8v5.8h-11.8v9.4h15.2v5.8h-21.5v-34h21V416.6z"/>
	</g>
	<g>
		<path class="st2" d="M270,828.4c-2.5,1.3-3.6,2.7-3.6,4.7c0,1.8,1.3,3.2,3.1,3.2c5.9,0,5.1-14.5,15.2-14.5
			c6.6,0,10.6,4.4,10.6,10.9c0,6.2-4.3,10.6-9.5,11.7l-3.2-5.1c3.6-1,6.9-3.1,6.9-6.7c0-2.6-1.3-4.4-4.4-4.4
			c-5.6,0-4.5,14.2-15.3,14.2c-5.1,0-9.2-3.9-9.2-9.3c0-4.5,2.2-8,6.2-9.8L270,828.4z"/>
		<path class="st2" d="M277.9,785.4c11.8,0,17.4,7.4,17.4,16s-5.6,16-17.4,16s-17.4-7.4-17.4-16S266.1,785.4,277.9,785.4z
			 M277.9,811c8.1,0,11.5-4.5,11.5-9.6s-3.5-9.6-11.5-9.6s-11.5,4.5-11.5,9.6S269.9,811,277.9,811z"/>
		<path class="st2" d="M272.3,755.8c-3.4,1.3-5.9,3.7-5.9,8.4c0,5.2,3.7,9.7,11.5,9.7c7.9,0,11.5-4.4,11.5-9.7
			c0-4.7-2.5-7.1-5.9-8.4l1.5-5.7c6.5,1.6,10.3,6.7,10.3,14.1c0,8.5-6,16.1-17.4,16.1s-17.4-7.6-17.4-16.1c0-7.4,3.8-12.5,10.3-14.1
			L272.3,755.8z"/>
		<path class="st2" d="M294.9,738.2v6.3h-34v-6.3H294.9z"/>
		<path class="st2" d="M286.9,714.1v10.8l8,2.5v6.8l-34-11.5v-6.3l34-11.5v6.8L286.9,714.1z M281.1,723.1v-7.2l-11.8,3.6
			L281.1,723.1z"/>
		<path class="st2" d="M260.9,694.3H289v-14.4h5.8v20.7h-34L260.9,694.3L260.9,694.3z"/>
	</g>
	<g>
		<path class="st2" d="M315.5,876.7v-7.1l21.2-8l-21.2-8v-7.1h34v6.3h-21l17.8,6.5v4.6l-17.8,6.5h21v6.3H315.5z"/>
		<path class="st2" d="M315.5,818.5h5.8v14.7h7.1v-11.8h5.8v11.8h9.4V818h5.8v21.5h-34L315.5,818.5L315.5,818.5z"/>
		<path class="st2" d="M341.5,795v10.8l8,2.5v6.8l-34-11.5v-6.3l34-11.5v6.8L341.5,795z M335.7,804v-7.2l-11.8,3.6L335.7,804z"/>
		<path class="st2" d="M324.6,767c-2.5,1.3-3.6,2.7-3.6,4.7c0,1.8,1.3,3.2,3.1,3.2c5.9,0,5.1-14.5,15.2-14.5
			c6.6,0,10.6,4.4,10.6,10.9c0,6.2-4.3,10.6-9.5,11.7l-3.2-5.1c3.6-1,6.9-3.1,6.9-6.7c0-2.6-1.3-4.4-4.4-4.4
			c-5.6,0-4.5,14.2-15.3,14.2c-5.1,0-9.2-3.9-9.2-9.3c0-4.5,2.2-8,6.2-9.8L324.6,767z"/>
		<path class="st2" d="M336.6,730.1c9.1,0,13.3,5.2,13.3,12.7c0,7.4-4.2,12.7-13.3,12.7h-21.1v-6.3h21.2c4.9,0,7.4-2.1,7.4-6.4
			c0-4.3-2.4-6.4-7.4-6.4h-21.2v-6.3H336.6z"/>
		<path class="st2" d="M334.3,707.7l15.2-9.4v7l-14.6,9.1v3.3h14.6v6.3h-34v-12.4c0-6.8,4-10.3,9.7-10.3
			C329.6,701.4,333,703.6,334.3,707.7z M325.2,707.7c-2.8,0-3.8,1.7-3.8,4v6.1h7.7v-6.1C329,709.4,327.9,707.7,325.2,707.7z"/>
		<path class="st2" d="M315.5,672.8h5.8v14.7h7.1v-11.8h5.8v11.8h9.4v-15.2h5.8v21.5h-34L315.5,672.8L315.5,672.8z"/>
		<path class="st2" d="M324.6,652.5c-2.5,1.3-3.6,2.7-3.6,4.7c0,1.8,1.3,3.2,3.1,3.2c5.9,0,5.1-14.5,15.2-14.5
			c6.6,0,10.6,4.4,10.6,10.9c0,6.2-4.3,10.6-9.5,11.7l-3.2-5.1c3.6-1,6.9-3.1,6.9-6.7c0-2.6-1.3-4.4-4.4-4.4
			c-5.6,0-4.5,14.2-15.3,14.2c-5.1,0-9.2-3.9-9.2-9.3c0-4.5,2.2-8,6.2-9.8L324.6,652.5z"/>
	</g>
	<g>
		<g>
			<defs>
				<rect id="SVGID_7_" x="161.1" y="373.3" width="545" height="703.4"/>
			</defs>
			<clipPath id="SVGID_8_">
				<use xlink:href="#SVGID_7_"  style="overflow:visible;"/>
			</clipPath>
			<g class="st5">
				<path class="st2" d="M526.8,888h5.8v14.7h7.1v-11.8h5.8v11.8h9.4v-15.2h5.8V909h-34L526.8,888L526.8,888z"/>
				<path class="st2" d="M526.8,857.7h34v6.6l-22.4,12.5h22.4v6.3h-34v-6.6l22.4-12.5h-22.4V857.7z"/>
				<path class="st2" d="M560.8,843.4l-34,11.4v-7l25.1-7.6l-25.1-7.6v-7l34,11.4V843.4z"/>
				<path class="st2" d="M560.8,817v6.3h-34V817H560.8z"/>
				<path class="st2" d="M545.6,795.1l15.2-9.4v7l-14.7,9.1v3.3h14.7v6.3h-34V799c0-6.8,4-10.3,9.7-10.3
					C540.9,788.8,544.3,791,545.6,795.1z M536.5,795.1c-2.8,0-3.8,1.7-3.8,4v6.1h7.7v-6.1C540.3,796.8,539.2,795.1,536.5,795.1z"/>
				<path class="st2" d="M543.8,753.1c11.8,0,17.4,7.4,17.4,16s-5.6,16-17.4,16s-17.4-7.4-17.4-16S532,753.1,543.8,753.1z
					 M543.8,778.7c8,0,11.5-4.5,11.5-9.6s-3.5-9.6-11.5-9.6s-11.5,4.5-11.5,9.6C532.2,774.2,535.7,778.7,543.8,778.7z"/>
				<path class="st2" d="M526.8,723.4h34v6.6l-22.4,12.5h22.4v6.3h-34v-6.6l22.4-12.5h-22.4V723.4z"/>
				<path class="st2" d="M526.8,717.3v-7.1l21.2-8l-21.2-8v-7.1h34v6.3h-21l17.8,6.5v4.6l-17.8,6.5h21v6.3H526.8z"/>
				<path class="st2" d="M526.8,660.6h5.8v14.7h7.1v-11.8h5.8v11.8h9.4v-15.2h5.8v21.5h-34L526.8,660.6L526.8,660.6z"/>
				<path class="st2" d="M526.8,630.3h34v6.6l-22.4,12.5h22.4v6.3h-34v-6.6l22.4-12.5h-22.4V630.3z"/>
				<path class="st2" d="M526.8,626.3v-25.1h5.8v9.4h28.1v6.3h-28.1v9.4L526.8,626.3L526.8,626.3z"/>
			</g>
		</g>
		<g>
			<defs>
				<rect id="SVGID_9_" x="161.1" y="373.3" width="545" height="703.4"/>
			</defs>
			<clipPath id="SVGID_10_">
				<use xlink:href="#SVGID_9_"  style="overflow:visible;"/>
			</clipPath>
			<g class="st6">
				<path class="st2" d="M607.3,881.6v10.8l8,2.5v6.8l-34-11.5v-6.3l34-11.5v6.8L607.3,881.6z M601.5,890.6v-7.2l-11.8,3.6
					L601.5,890.6z"/>
				<path class="st2" d="M581.4,863.3h28.1v-14.4h5.8v20.7h-34L581.4,863.3L581.4,863.3z"/>
				<path class="st2" d="M581.4,834.6v-7.1l21.2-8l-21.2-8v-7.1h34v6.3h-21l17.8,6.5v4.6l-17.8,6.5h21v6.3H581.4z"/>
				<path class="st2" d="M581.4,777.9h5.8v14.7h7.1v-11.8h5.8v11.8h9.4v-15.2h5.8v21.5h-34L581.4,777.9L581.4,777.9z"/>
				<path class="st2" d="M607.3,755.8v10.8l8,2.5v6.8l-34-11.5V758l34-11.5v6.8L607.3,755.8z M601.5,764.8v-7.2l-11.8,3.6
					L601.5,764.8z"/>
				<path class="st2" d="M590.4,729.2c-2.5,1.3-3.6,2.7-3.6,4.7c0,1.8,1.3,3.2,3.1,3.2c5.9,0,5.1-14.5,15.2-14.5
					c6.6,0,10.6,4.4,10.6,10.9c0,6.2-4.3,10.6-9.5,11.7l-3.2-5.1c3.6-1,6.9-3.1,6.9-6.7c0-2.6-1.3-4.4-4.4-4.4
					c-5.6,0-4.5,14.2-15.3,14.2c-5.1,0-9.2-3.9-9.2-9.3c0-4.5,2.2-8,6.2-9.8L590.4,729.2z"/>
				<path class="st2" d="M602.4,693.7c9.1,0,13.3,5.2,13.3,12.7c0,7.4-4.2,12.7-13.3,12.7h-21.1v-6.3h21.2c4.9,0,7.4-2.1,7.4-6.4
					c0-4.3-2.4-6.4-7.4-6.4h-21.2v-6.3H602.4z"/>
				<path class="st2" d="M600.2,672.8l15.2-9.4v7l-14.6,9.1v3.3h14.6v6.3h-34v-12.4c0-6.8,4-10.3,9.7-10.3
					C595.5,666.4,598.9,668.7,600.2,672.8z M591,672.7c-2.8,0-3.8,1.7-3.8,4v6.1h7.7v-6.1C594.9,674.4,593.8,672.7,591,672.7z"/>
				<path class="st2" d="M581.4,639.3h5.8V654h7.1v-11.8h5.8V654h9.4v-15.2h5.8v21.5h-34L581.4,639.3L581.4,639.3z"/>
				<path class="st2" d="M590.4,620.5c-2.5,1.3-3.6,2.7-3.6,4.7c0,1.8,1.3,3.2,3.1,3.2c5.9,0,5.1-14.5,15.2-14.5
					c6.6,0,10.6,4.4,10.6,10.9c0,6.2-4.3,10.6-9.5,11.7l-3.2-5.1c3.6-1,6.9-3.1,6.9-6.7c0-2.6-1.3-4.4-4.4-4.4
					c-5.6,0-4.5,14.2-15.3,14.2c-5.1,0-9.2-3.9-9.2-9.3c0-4.5,2.2-8,6.2-9.8L590.4,620.5z"/>
			</g>
		</g>
	</g>
	<g>
		<path class="st2" d="M241.7,1002.4h25.1v5.8h-9.4v28.1h-6.3v-28.1h-9.4L241.7,1002.4L241.7,1002.4z"/>
		<path class="st2" d="M277.1,1036.4h-6.3v-34h6.3V1036.4z"/>
		<path class="st2" d="M306.5,1013.8c-1.3-3.4-3.7-5.9-8.4-5.9c-5.2,0-9.7,3.7-9.7,11.5s4.4,11.5,9.7,11.5c4.7,0,7.1-2.5,8.4-5.9
			l5.7,1.5c-1.6,6.5-6.7,10.3-14.1,10.3c-8.5,0-16.1-6-16.1-17.4s7.6-17.4,16.1-17.4c7.4,0,12.5,3.8,14.1,10.3L306.5,1013.8z"/>
		<path class="st2" d="M348.3,1002.4v5.8h-14.7v7.1h11.8v5.8h-11.8v9.4h15.2v5.8h-21.5v-34h21V1002.4z"/>
		<path class="st2" d="M370.7,1036.4h-6.3v-34h6.3V1036.4z"/>
		<path class="st2" d="M401.6,1002.4v34H395l-12.5-22.4v22.4h-6.3v-34h6.6l12.5,22.4v-22.4H401.6z"/>
		<path class="st2" d="M432.6,1002.4v34H426l-12.5-22.4v22.4h-6.3v-34h6.6l12.5,22.4v-22.4H432.6z"/>
		<path class="st2" d="M469.6,1019.4c0,11.8-7.4,17.4-16,17.4s-16-5.6-16-17.4s7.4-17.4,16-17.4S469.6,1007.6,469.6,1019.4z
			 M444,1019.4c0,8.1,4.5,11.5,9.6,11.5s9.6-3.5,9.6-11.5s-4.5-11.5-9.6-11.5C448.5,1007.8,444,1011.3,444,1019.4z"/>
		<path class="st2" d="M481.3,1036.4l-11.4-34h7l7.6,25.1l7.6-25.1h7l-11.4,34H481.3z"/>
		<path class="st2" d="M514.1,1028.4h-10.8l-2.5,8H494l11.5-34h6.3l11.5,34h-6.8L514.1,1028.4z M505.1,1022.5h7.2l-3.6-11.8
			L505.1,1022.5z"/>
		<path class="st2" d="M547.8,1013.8c-1.3-3.4-3.7-5.9-8.4-5.9c-5.2,0-9.7,3.7-9.7,11.5s4.4,11.5,9.7,11.5c4.7,0,7.1-2.5,8.4-5.9
			l5.7,1.5c-1.6,6.5-6.7,10.3-14.1,10.3c-8.5,0-16.1-6-16.1-17.4s7.6-17.4,16.1-17.4c7.4,0,12.5,3.8,14.1,10.3L547.8,1013.8z"/>
		<path class="st2" d="M563.9,1036.4h-6.3v-34h6.3V1036.4z"/>
		<path class="st2" d="M600.8,1019.4c0,11.8-7.4,17.4-16,17.4s-16-5.6-16-17.4s7.4-17.4,16-17.4
			C593.3,1002,600.8,1007.6,600.8,1019.4z M575.2,1019.4c0,8.1,4.5,11.5,9.6,11.5s9.6-3.5,9.6-11.5s-4.5-11.5-9.6-11.5
			C579.7,1007.8,575.2,1011.3,575.2,1019.4z M583.7,992.5h8.2l-6.6,7.2h-4.6L583.7,992.5z"/>
		<path class="st2" d="M630.4,1002.4v34h-6.6l-12.5-22.4v22.4H605v-34h6.6l12.5,22.4v-22.4H630.4z"/>
	</g>
	<g>
		<path class="st2" d="M653.9,1064H224.1v-90.2h429.8V1064z M230.1,1057.9h417.7v-78.1H230.1L230.1,1057.9L230.1,1057.9z"/>
	</g>
	<g>
		<g>
			<defs>
				<rect id="SVGID_11_" x="161.1" y="373.3" width="545" height="703.4"/>
			</defs>
			<clipPath id="SVGID_12_">
				<use xlink:href="#SVGID_11_"  style="overflow:visible;"/>
			</clipPath>
			<g class="st7">
				<path class="st2" d="M653.9,494.1H224.1V373.3h429.8V494.1z M230.1,488h417.7V379.4H230.1L230.1,488L230.1,488z"/>
			</g>
		</g>
	</g>
	<g>
		<path class="st2" d="M395,935.2H223.1V571H395V935.2z M229.2,929.1H389v-352H229.2V929.1z"/>
	</g>
	<g>
		<path class="st2" d="M651.7,935.2H479.8V571h171.9V935.2z M485.9,929.1h159.8v-352H485.9V929.1z"/>
	</g>
	<g>
		<polygon class="st2" points="673.4,556 667.3,556 667.3,534.6 210.6,534.6 210.6,556 204.5,556 204.5,528.6 673.4,528.6 		"/>
	</g>
	<g>
		<rect x="435.9" y="504.1" class="st2" width="6.1" height="27.5"/>
	</g>
</g>
<g>
	<g>
		<rect x="1122.1" y="988.9" class="st1" width="429.9" height="85.4"/>
	</g>
	<g>
		<rect x="1122.1" y="404.2" class="st1" width="429.9" height="102.6"/>
	</g>
	<g>
		<rect x="1121.2" y="603.9" class="st1" width="168.3" height="342.7"/>
	</g>
	<g>
		<rect x="1381.6" y="603.9" class="st1" width="168.3" height="342.7"/>
	</g>
	<g>
		<path class="st2" d="M1199.4,439v-34.5h10.8c8.1,0,16,5.2,16,17.2c0,12.1-7.9,17.2-16,17.2L1199.4,439L1199.4,439z M1208.2,433.1
			c5.5,0,11.6-2.2,11.6-11.3c0-9.2-6.1-11.3-11.6-11.3h-2.4v22.6L1208.2,433.1L1208.2,433.1z"/>
		<path class="st2" d="M1253.3,404.6v5.9h-14.9v7.2h12v5.9h-12v9.5h15.4v5.9H1232v-34.5h21.3V404.6z"/>
		<path class="st2" d="M1282.5,416.1c-1.3-3.5-3.7-6-8.5-6c-5.3,0-9.8,3.7-9.8,11.7s4.5,11.7,9.8,11.7c4.8,0,7.2-2.5,8.5-6l5.8,1.5
			c-1.6,6.6-6.8,10.4-14.3,10.4c-8.6,0-16.3-6.1-16.3-17.6s7.7-17.6,16.3-17.6c7.5,0,12.6,3.8,14.3,10.4L1282.5,416.1z"/>
		<path class="st2" d="M1310.5,423.6l9.5,15.4h-7.1l-9.3-14.9h-3.3V439h-6.4v-34.5h12.6c6.9,0,10.5,4.1,10.5,9.8
			C1316.9,418.9,1314.7,422.3,1310.5,423.6z M1310.5,414.4c0-2.8-1.7-3.9-4-3.9h-6.2v7.8h6.2
			C1308.8,418.2,1310.5,417.2,1310.5,414.4z"/>
		<path class="st2" d="M1345.9,404.6v5.9H1331v7.2h12v5.9h-12v9.5h15.4v5.9h-21.8v-34.5h21.3V404.6z"/>
		<path class="st2" d="M1351.1,404.6h25.5v5.9h-9.5V439h-6.4v-28.5h-9.5v-5.9H1351.1z"/>
		<path class="st2" d="M1411.7,421.8c0,12-7.5,17.6-16.2,17.6s-16.2-5.7-16.2-17.6s7.5-17.6,16.2-17.6S1411.7,409.8,1411.7,421.8z
			 M1385.7,421.8c0,8.2,4.6,11.7,9.7,11.7s9.7-3.5,9.7-11.7s-4.6-11.7-9.7-11.7S1385.7,413.6,1385.7,421.8z"/>
		<path class="st2" d="M1430.7,439v-34.5h10.8c8.1,0,16,5.2,16,17.2c0,12.1-7.9,17.2-16,17.2L1430.7,439L1430.7,439z M1439.5,433.1
			c5.5,0,11.6-2.2,11.6-11.3c0-9.2-6.1-11.3-11.6-11.3h-2.4v22.6L1439.5,433.1L1439.5,433.1z"/>
		<path class="st2" d="M1484.6,404.6v5.9h-14.9v7.2h12v5.9h-12v9.5h15.4v5.9h-21.8v-34.5h21.3V404.6z"/>
	</g>
	<g>
		<path class="st2" d="M1225.3,486.3h-10.9l-2.5,8.1h-6.9l11.7-34.5h6.4l11.7,34.5h-6.9L1225.3,486.3z M1216.2,480.4h7.3l-3.6-12
			L1216.2,480.4z"/>
		<path class="st2" d="M1245.4,459.9v28.5h14.6v5.9h-21v-34.5h6.4V459.9z"/>
		<path class="st2" d="M1286.9,471.5c-1.3-3.5-3.7-6-8.5-6c-5.3,0-9.8,3.7-9.8,11.7s4.5,11.7,9.8,11.7c4.8,0,7.2-2.5,8.5-6l5.8,1.5
			c-1.6,6.6-6.8,10.4-14.3,10.4c-8.6,0-16.3-6.1-16.3-17.6s7.7-17.6,16.3-17.6c7.5,0,12.6,3.8,14.3,10.4L1286.9,471.5z"/>
		<path class="st2" d="M1314.7,486.3h-11l-2.5,8.1h-6.9l11.7-34.5h6.4l11.7,34.5h-6.9L1314.7,486.3z M1305.6,480.4h7.3l-3.6-12
			L1305.6,480.4z"/>
		<path class="st2" d="M1334.8,459.9v28.5h14.6v5.9h-21v-34.5h6.4V459.9z"/>
		<path class="st2" d="M1355.2,494.4v-34.5h10.8c8.1,0,16,5.2,16,17.2c0,12.1-7.9,17.2-16,17.2L1355.2,494.4L1355.2,494.4z
			 M1363.9,488.5c5.5,0,11.6-2.2,11.6-11.3c0-9.2-6.1-11.3-11.6-11.3h-2.4v22.6L1363.9,488.5L1363.9,488.5z"/>
		<path class="st2" d="M1390.4,449.9h8.3l-6.7,7.3h-4.7L1390.4,449.9z M1394.2,494.4h-6.4v-34.5h6.4V494.4z"/>
		<path class="st2" d="M1418.6,486.3h-10.9l-2.5,8.1h-6.9l11.7-34.5h6.4l11.7,34.5h-6.9L1418.6,486.3z M1409.5,480.4h7.3l-3.6-12
			L1409.5,480.4z"/>
	</g>
	<g>
		<path class="st2" d="M1138.9,862.2V855l21.5-8.1l-21.5-8.1v-7.2h34.5v6.4h-21.3l18.1,6.6v4.6l-18.1,6.6h21.3v6.4H1138.9z"/>
		<path class="st2" d="M1138.9,803.2h5.9v14.9h7.2v-12h5.9v12h9.5v-15.4h5.9v21.8h-34.5v-21.3H1138.9z"/>
		<path class="st2" d="M1173.3,796.8h-34.5V786c0-8.1,5.2-16,17.2-16c12.1,0,17.2,7.9,17.2,16v10.8H1173.3z M1167.4,788
			c0-5.5-2.2-11.6-11.3-11.6c-9.2,0-11.3,6.1-11.3,11.6v2.4h22.6V788z"/>
		<path class="st2" d="M1173.3,757.8v6.4h-34.5v-6.4H1173.3z"/>
		<path class="st2" d="M1173.3,750.7h-34.5v-10.8c0-8.1,5.2-16,17.2-16c12.1,0,17.2,7.9,17.2,16v10.8H1173.3z M1167.4,742
			c0-5.5-2.2-11.6-11.3-11.6c-9.2,0-11.3,6.1-11.3,11.6v2.4h22.6V742z"/>
		<path class="st2" d="M1165.2,701.7v10.9l8.1,2.5v6.9l-34.5-11.7V704l34.5-11.7v6.9L1165.2,701.7z M1159.3,710.8v-7.3l-12,3.6
			L1159.3,710.8z"/>
		<path class="st2" d="M1148,673.3c-2.6,1.3-3.6,2.8-3.6,4.8c0,1.9,1.3,3.3,3.1,3.3c6,0,5.2-14.7,15.5-14.7c6.7,0,10.7,4.4,10.7,11
			c0,6.3-4.4,10.8-9.6,11.9l-3.2-5.2c3.7-1,7-3.1,7-6.8c0-2.7-1.3-4.5-4.5-4.5c-5.7,0-4.6,14.4-15.5,14.4c-5.2,0-9.3-4-9.3-9.4
			c0-4.6,2.3-8.1,6.2-9.9L1148,673.3z"/>
	</g>
	<g>
		<path class="st2" d="M1203.4,860.2c-2.6,1.3-3.6,2.8-3.6,4.8c0,1.9,1.3,3.3,3.1,3.3c6,0,5.2-14.7,15.5-14.7
			c6.7,0,10.7,4.4,10.7,11c0,6.3-4.4,10.8-9.6,11.9l-3.2-5.2c3.7-1,7-3.1,7-6.8c0-2.7-1.3-4.5-4.5-4.5c-5.7,0-4.6,14.4-15.5,14.4
			c-5.2,0-9.3-4-9.3-9.4c0-4.6,2.3-8.1,6.2-9.9L1203.4,860.2z"/>
		<path class="st2" d="M1211.5,816.5c12,0,17.6,7.5,17.6,16.2s-5.7,16.2-17.6,16.2c-12,0-17.6-7.5-17.6-16.2
			S1199.5,816.5,1211.5,816.5z M1211.5,842.5c8.2,0,11.7-4.6,11.7-9.7c0-5.2-3.5-9.7-11.7-9.7s-11.7,4.6-11.7,9.7
			S1203.3,842.5,1211.5,842.5z"/>
		<path class="st2" d="M1205.8,786.4c-3.5,1.3-6,3.7-6,8.5c0,5.3,3.7,9.8,11.7,9.8s11.7-4.5,11.7-9.8c0-4.8-2.5-7.2-6-8.5l1.5-5.8
			c6.6,1.6,10.4,6.8,10.4,14.3c0,8.6-6.1,16.3-17.6,16.3s-17.6-7.7-17.6-16.3c0-7.5,3.8-12.6,10.4-14.3L1205.8,786.4z"/>
		<path class="st2" d="M1228.7,768.6v6.4h-34.5v-6.4H1228.7z"/>
		<path class="st2" d="M1220.6,744.1V755l8.1,2.5v6.9l-34.5-11.7v-6.4l34.5-11.7v6.9L1220.6,744.1z M1214.7,753.2v-7.3l-12,3.6
			L1214.7,753.2z"/>
		<path class="st2" d="M1194.3,724h28.5v-14.6h5.9v21h-34.5V724H1194.3z"/>
		<path class="st2" d="M1194.3,682.3h5.9v14.9h7.2v-12h5.9v12h9.5v-15.4h5.9v21.8h-34.5v-21.3H1194.3z"/>
		<path class="st2" d="M1203.4,661.8c-2.6,1.3-3.6,2.8-3.6,4.8c0,1.9,1.3,3.3,3.1,3.3c6,0,5.2-14.7,15.5-14.7
			c6.7,0,10.7,4.4,10.7,11c0,6.3-4.4,10.8-9.6,11.9l-3.2-5.2c3.7-1,7-3.1,7-6.8c0-2.7-1.3-4.5-4.5-4.5c-5.7,0-4.6,14.4-15.5,14.4
			c-5.2,0-9.3-4-9.3-9.4c0-4.6,2.3-8.1,6.2-9.9L1203.4,661.8z"/>
	</g>
	<g>
		<path class="st2" d="M1408.6,860v-7.2l21.5-8.1l-21.5-8.1v-7.2h34.5v6.4h-21.3l18.1,6.6v4.6l-18.1,6.6h21.3v6.4H1408.6z"/>
		<path class="st2" d="M1408.6,800.9h5.9v14.9h7.2v-12h5.9v12h9.5v-15.4h5.9v21.8h-34.5v-21.3H1408.6z"/>
		<path class="st2" d="M1443.1,794.5h-34.5v-10.8c0-8.1,5.2-16,17.2-16c12.1,0,17.2,7.9,17.2,16v10.8H1443.1z M1437.2,785.8
			c0-5.5-2.2-11.6-11.3-11.6c-9.2,0-11.3,6.1-11.3,11.6v2.4h22.6V785.8z"/>
		<path class="st2" d="M1443.1,755.5v6.4h-34.5v-6.4H1443.1z"/>
		<path class="st2" d="M1443.1,748.5h-34.5v-10.8c0-8.1,5.2-16,17.2-16c12.1,0,17.2,7.9,17.2,16v10.8H1443.1z M1437.2,739.7
			c0-5.5-2.2-11.6-11.3-11.6c-9.2,0-11.3,6.1-11.3,11.6v2.4h22.6V739.7z"/>
		<path class="st2" d="M1434.9,699.5v10.9l8.1,2.5v6.9l-34.5-11.7v-6.4L1443,690v6.9L1434.9,699.5z M1429,708.6v-7.3l-12,3.6
			L1429,708.6z"/>
		<path class="st2" d="M1417.8,671.1c-2.6,1.3-3.6,2.8-3.6,4.8c0,1.9,1.3,3.3,3.1,3.3c6,0,5.2-14.7,15.5-14.7
			c6.7,0,10.7,4.4,10.7,11c0,6.3-4.4,10.8-9.6,11.9l-3.2-5.2c3.7-1,7-3.1,7-6.8c0-2.7-1.3-4.5-4.5-4.5c-5.7,0-4.6,14.4-15.5,14.4
			c-5.2,0-9.3-4-9.3-9.4c0-4.6,2.3-8.1,6.2-9.9L1417.8,671.1z"/>
	</g>
	<g>
		<g>
			<defs>
				<rect id="SVGID_13_" x="1043.7" y="370.9" width="538.1" height="703.4"/>
			</defs>
			<clipPath id="SVGID_14_">
				<use xlink:href="#SVGID_13_"  style="overflow:visible;"/>
			</clipPath>
			<g class="st8">
				<path class="st2" d="M1490.3,898v10.9l8.1,2.5v6.9l-34.5-11.7v-6.4l34.5-11.7v6.9L1490.3,898z M1484.4,907.1v-7.3l-12,3.6
					L1484.4,907.1z"/>
				<path class="st2" d="M1464,883.9v-7.2l21.5-8.1l-21.5-8.1v-7.2h34.5v6.4h-21.3l18.1,6.6v4.6l-18.1,6.6h21.3v6.4H1464z"/>
				<path class="st2" d="M1464,833.6c0-5.9,3.1-9.8,9.3-9.8c2.8,0,5.2,1.2,6.3,3.4c1.3-3.2,4-5.2,8.4-5.2c6.7,0,10.4,4.3,10.4,11.4
					v12.8h-34.5v-12.6H1464z M1469.9,839.8h7.5v-5.9c0-2.6-0.9-4-3.7-4s-3.7,1.5-3.7,4.2v5.7H1469.9z M1483.3,839.8h9.3v-5.9
					c0-4-1.7-5.6-4.6-5.6s-4.6,1.6-4.6,5.6L1483.3,839.8L1483.3,839.8z"/>
				<path class="st2" d="M1498.4,810v6.4h-34.5V810H1498.4z"/>
				<path class="st2" d="M1464,781.6h5.9v14.9h7.2v-12h5.9v12h9.5v-15.4h5.9v21.8h-34.5v-21.3H1464z"/>
				<path class="st2" d="M1464,749.4h34.5v6.7l-22.7,12.6h22.7v6.4H1464v-6.7l22.7-12.6H1464V749.4z"/>
				<path class="st2" d="M1464,743.9v-25.5h5.9v9.5h28.5v6.4h-28.5v9.5L1464,743.9L1464,743.9z"/>
				<path class="st2" d="M1490.3,699.3v10.9l8.1,2.5v6.9l-34.5-11.7v-6.4l34.5-11.7v6.9L1490.3,699.3z M1484.4,708.4v-7.3l-12,3.6
					L1484.4,708.4z"/>
				<path class="st2" d="M1464,679.2h28.5v-14.6h5.9v21h-34.5v-6.4H1464z"/>
				<path class="st2" d="M1464,637.5h5.9v14.9h7.2v-12h5.9v12h9.5V637h5.9v21.8h-34.5v-21.3H1464z"/>
				<path class="st2" d="M1473.2,617c-2.6,1.3-3.6,2.8-3.6,4.8c0,1.9,1.3,3.3,3.1,3.3c6,0,5.2-14.7,15.5-14.7
					c6.7,0,10.7,4.4,10.7,11c0,6.3-4.4,10.8-9.6,11.9l-3.2-5.2c3.7-1,7-3.1,7-6.8c0-2.7-1.3-4.5-4.5-4.5c-5.7,0-4.6,14.4-15.5,14.4
					c-5.2,0-9.3-4-9.3-9.4c0-4.6,2.3-8.1,6.2-9.9L1473.2,617z"/>
			</g>
		</g>
	</g>
	<g>
		<path class="st2" d="M1119.2,997.7h25.5v5.9h-9.5v28.5h-6.4v-28.5h-9.5v-5.9H1119.2z"/>
		<path class="st2" d="M1155.2,1032.1h-6.4v-34.5h6.4V1032.1z"/>
		<path class="st2" d="M1184.9,1009.2c-1.3-3.5-3.7-6-8.5-6c-5.3,0-9.8,3.7-9.8,11.7s4.5,11.7,9.8,11.7c4.8,0,7.2-2.5,8.5-6l5.8,1.5
			c-1.6,6.6-6.8,10.4-14.3,10.4c-8.6,0-16.3-6.1-16.3-17.6c0-11.5,7.7-17.6,16.3-17.6c7.5,0,12.6,3.8,14.3,10.4L1184.9,1009.2z"/>
		<path class="st2" d="M1227.3,997.7v5.9h-14.9v7.2h12v5.9h-12v9.5h15.4v5.9H1206v-34.5L1227.3,997.7L1227.3,997.7z"/>
		<path class="st2" d="M1250,1032.1h-6.4v-34.5h6.4V1032.1z"/>
		<path class="st2" d="M1281.4,997.7v34.5h-6.7l-12.6-22.7v22.7h-6.4v-34.5h6.7l12.6,22.7v-22.7H1281.4z"/>
		<path class="st2" d="M1312.8,997.7v34.5h-6.7l-12.6-22.7v22.7h-6.4v-34.5h6.7l12.6,22.7v-22.7H1312.8z"/>
		<path class="st2" d="M1350.3,1014.9c0,12-7.5,17.6-16.2,17.6s-16.2-5.7-16.2-17.6c0-11.9,7.5-17.6,16.2-17.6
			S1350.3,1003,1350.3,1014.9z M1324.3,1014.9c0,8.2,4.6,11.7,9.7,11.7s9.7-3.5,9.7-11.7s-4.6-11.7-9.7-11.7
			S1324.3,1006.7,1324.3,1014.9z"/>
		<path class="st2" d="M1362.2,1032.1l-11.6-34.5h7.1l7.7,25.5l7.7-25.5h7.1l-11.6,34.5H1362.2z"/>
		<path class="st2" d="M1395.5,1024h-10.9l-2.5,8.1h-6.9l11.7-34.5h6.4l11.7,34.5h-6.9L1395.5,1024z M1386.4,1018.1h7.3l-3.6-12
			L1386.4,1018.1z"/>
		<path class="st2" d="M1429.7,1009.2c-1.3-3.5-3.7-6-8.5-6c-5.3,0-9.8,3.7-9.8,11.7s4.5,11.7,9.8,11.7c4.8,0,7.2-2.5,8.5-6l5.8,1.5
			c-1.6,6.6-6.8,10.4-14.3,10.4c-8.6,0-16.3-6.1-16.3-17.6c0-11.5,7.7-17.6,16.3-17.6c7.5,0,12.6,3.8,14.3,10.4L1429.7,1009.2z"/>
		<path class="st2" d="M1446,1032.1h-6.4v-34.5h6.4V1032.1z"/>
		<path class="st2" d="M1483.5,1014.9c0,12-7.5,17.6-16.2,17.6s-16.2-5.7-16.2-17.6c0-11.9,7.5-17.6,16.2-17.6
			S1483.5,1003,1483.5,1014.9z M1457.5,1014.9c0,8.2,4.6,11.7,9.7,11.7s9.7-3.5,9.7-11.7s-4.6-11.7-9.7-11.7
			S1457.5,1006.7,1457.5,1014.9z M1466.1,987.6h8.3l-6.7,7.3h-4.7L1466.1,987.6z"/>
		<path class="st2" d="M1513.5,997.7v34.5h-6.7l-12.6-22.7v22.7h-6.4v-34.5h6.7l12.6,22.7v-22.7H1513.5z"/>
	</g>
	<g>
		<path class="st2" d="M1537.5,1061.3h-436.1v-91.5h436.1V1061.3z M1107.6,1055.2h423.8V976h-423.8V1055.2z"/>
	</g>
	<g>
		<path class="st2" d="M1537.5,506.7h-436.1V384.2h436.1V506.7z M1107.6,500.6h423.8V390.4h-423.8V500.6z"/>
	</g>
	<g>
		<path class="st2" d="M1274.9,933.7h-174.4V584.8h174.4V933.7z M1106.6,927.5h162.1V591h-162.1V927.5z"/>
	</g>
	<g>
		<path class="st2" d="M1535.4,933.7H1361V584.8h174.4V933.7z M1367.1,927.5h162.1V591h-162.1V927.5z"/>
	</g>
	<g>
		<polygon class="st2" points="1557.3,569.6 1551.2,569.6 1551.2,547.9 1087.8,547.9 1087.8,569.6 1081.7,569.6 1081.7,541.7 
			1557.3,541.7 		"/>
	</g>
	<g>
		<rect x="1316.4" y="516.9" class="st2" width="6.2" height="27.9"/>
	</g>
</g>
</svg>
