<?xml version="1.0" encoding="utf-8"?>
<!-- Generator: Adobe Illustrator 22.1.0, SVG Export Plug-In . SVG Version: 6.00 Build 0)  -->
<svg version="1.1" id="Capa_1" xmlns="http://www.w3.org/2000/svg" xmlns:xlink="http://www.w3.org/1999/xlink" x="0px" y="0px"
	 viewBox="0 0 859.1 1445.1" style="enable-background:new 0 0 859.1 1445.1;" xml:space="preserve">
<style type="text/css">
	.st0{clip-path:url(#SVGID_2_);fill:#FFFFFF;fill-opacity:0;}
	.st1{fill:#B8B8ED;}
	.st2{fill:#3B31F5;}
	.st3{clip-path:url(#SVGID_4_);}
	.st4{clip-path:url(#SVGID_6_);}
	.st5{clip-path:url(#SVGID_8_);}
	.st6{clip-path:url(#SVGID_10_);}
	.st7{clip-path:url(#SVGID_12_);}
	.st8{clip-path:url(#SVGID_14_);}
</style>
<g>
	<g>
		<g>
			<defs>
				<rect id="SVGID_1_" x="-3433.8" y="-3198.4" width="499" height="373"/>
			</defs>
			<clipPath id="SVGID_2_">
				<use xlink:href="#SVGID_1_"  style="overflow:visible;"/>
			</clipPath>
			<rect x="-3433.8" y="-3198.4" class="st0" width="499" height="373"/>
		</g>
	</g>
</g>
<g>
	<g>
		<rect x="-1564.2" y="987" class="st1" width="451.9" height="89.7"/>
	</g>
	<g>
		<rect x="-1564.2" y="390.4" class="st1" width="451.9" height="89.7"/>
	</g>
	<g>
		<rect x="-1565.2" y="582.3" class="st1" width="176.9" height="360.2"/>
	</g>
	<g>
		<rect x="-1291.5" y="582.3" class="st1" width="176.9" height="360.2"/>
	</g>
	<g>
		<path class="st2" d="M-1456.2,440v-36.2h11.3c8.5,0,16.9,5.4,16.9,18.1s-8.3,18.1-16.9,18.1H-1456.2z M-1447,433.8
			c5.8,0,12.2-2.3,12.2-11.9s-6.4-11.9-12.2-11.9h-2.5v23.8H-1447z"/>
		<path class="st2" d="M-1399.5,403.8v6.2h-15.7v7.6h12.6v6.2h-12.6v10h16.2v6.2h-22.9v-36.2L-1399.5,403.8L-1399.5,403.8z"/>
		<path class="st2" d="M-1368.9,415.9c-1.4-3.7-3.9-6.3-9-6.3c-5.6,0-10.3,3.9-10.3,12.3s4.7,12.3,10.3,12.3c5,0,7.6-2.6,9-6.3
			l6.1,1.6c-1.7,6.9-7.1,11-15,11c-9.1,0-17.1-6.4-17.1-18.5s8.1-18.5,17.1-18.5c7.9,0,13.3,4,15,11L-1368.9,415.9z"/>
		<path class="st2" d="M-1339.4,423.8l10,16.2h-7.5l-9.7-15.6h-3.5V440h-6.7v-36.2h13.2c7.2,0,11,4.3,11,10.3
			C-1332.7,418.8-1335,422.5-1339.4,423.8z M-1339.4,414.1c0-2.9-1.8-4.1-4.2-4.1h-6.5v8.2h6.5
			C-1341.2,418.2-1339.4,417-1339.4,414.1z"/>
		<path class="st2" d="M-1302.2,403.8v6.2h-15.7v7.6h12.6v6.2h-12.6v10h16.2v6.2h-22.9v-36.2L-1302.2,403.8L-1302.2,403.8z"/>
		<path class="st2" d="M-1296.7,403.8h26.8v6.2h-10v30h-6.7v-30h-10L-1296.7,403.8L-1296.7,403.8z"/>
	</g>
	<g>
		<path class="st2" d="M-1546.6,857.4v-7.6l22.6-8.5l-22.6-8.5v-7.6h36.2v6.7h-22.3l19,6.9v4.9l-19,6.9h22.3v6.7L-1546.6,857.4
			L-1546.6,857.4z"/>
		<path class="st2" d="M-1546.6,795.3h6.2V811h7.6v-12.6h6.2V811h10v-16.2h6.2v22.9h-36.2V795.3L-1546.6,795.3z"/>
		<path class="st2" d="M-1537,773.8c-2.7,1.4-3.8,2.9-3.8,5c0,2,1.4,3.5,3.3,3.5c6.3,0,5.5-15.5,16.2-15.5c7.1,0,11.3,4.7,11.3,11.6
			c0,6.6-4.6,11.3-10.1,12.5l-3.4-5.4c3.9-1.1,7.3-3.3,7.3-7.2c0-2.8-1.4-4.7-4.7-4.7c-6,0-4.8,15.2-16.3,15.2
			c-5.5,0-9.8-4.2-9.8-9.9c0-4.8,2.4-8.5,6.6-10.4L-1537,773.8z"/>
		<path class="st2" d="M-1524.1,734.4c9.7,0,14.2,5.6,14.2,13.5s-4.5,13.5-14.2,13.5h-22.5v-6.7h22.6c5.3,0,7.9-2.2,7.9-6.8
			s-2.6-6.8-7.9-6.8h-22.6v-6.7H-1524.1z"/>
		<path class="st2" d="M-1526.6,710.5l16.2-10v7.5l-15.6,9.7v3.5h15.6v6.7h-36.2v-13.2c0-7.2,4.3-11,10.3-11
			C-1531.5,703.8-1527.9,706.1-1526.6,710.5z M-1536.3,710.5c-2.9,0-4.1,1.8-4.1,4.2v6.5h8.2v-6.5
			C-1532.2,712.3-1533.4,710.5-1536.3,710.5z"/>
		<path class="st2" d="M-1546.6,673.3h6.2V689h7.6v-12.6h6.2V689h10v-16.2h6.2v22.9h-36.2V673.3L-1546.6,673.3z"/>
		<path class="st2" d="M-1537,651.7c-2.7,1.4-3.8,2.9-3.8,5c0,2,1.4,3.5,3.3,3.5c6.3,0,5.5-15.5,16.2-15.5c7.1,0,11.3,4.7,11.3,11.6
			c0,6.6-4.6,11.3-10.1,12.5l-3.4-5.4c3.9-1.1,7.3-3.3,7.3-7.2c0-2.8-1.4-4.7-4.7-4.7c-6,0-4.8,15.2-16.3,15.2
			c-5.5,0-9.8-4.2-9.8-9.9c0-4.8,2.4-8.5,6.6-10.4L-1537,651.7z"/>
	</g>
	<g>
		<path class="st2" d="M-1478.8,836.5c-2.7,1.4-3.8,2.9-3.8,5c0,2,1.4,3.5,3.3,3.5c6.3,0,5.5-15.5,16.2-15.5
			c7.1,0,11.3,4.7,11.3,11.6c0,6.6-4.6,11.3-10.1,12.5l-3.4-5.4c3.9-1.1,7.3-3.3,7.3-7.2c0-2.8-1.4-4.7-4.7-4.7
			c-6,0-4.8,15.2-16.3,15.2c-5.5,0-9.8-4.2-9.8-9.9c0-4.8,2.4-8.5,6.6-10.4L-1478.8,836.5z"/>
		<path class="st2" d="M-1470.3,790.6c12.6,0,18.5,7.9,18.5,17.1c0,9.2-6,17.1-18.5,17.1c-12.6,0-18.5-7.9-18.5-17.1
			S-1482.8,790.6-1470.3,790.6z M-1470.3,817.9c8.6,0,12.3-4.8,12.3-10.2s-3.7-10.2-12.3-10.2s-12.3,4.8-12.3,10.2
			C-1482.6,813.1-1478.9,817.9-1470.3,817.9z"/>
		<path class="st2" d="M-1476.3,758.9c-3.7,1.4-6.3,3.9-6.3,9c0,5.6,3.9,10.3,12.3,10.3s12.3-4.7,12.3-10.3c0-5-2.6-7.6-6.3-9l1.6-6
			c6.9,1.7,11,7.1,11,15c0,9.1-6.4,17.1-18.5,17.1c-12.1,0-18.5-8.1-18.5-17.1c0-7.9,4-13.3,11-15L-1476.3,758.9z"/>
		<path class="st2" d="M-1452.2,740.2v6.7h-36.2v-6.7H-1452.2z"/>
		<path class="st2" d="M-1460.7,714.6V726l8.5,2.6v7.2l-36.2-12.3v-6.7l36.2-12.3v7.2L-1460.7,714.6z M-1466.9,724.1v-7.7l-12.6,3.8
			L-1466.9,724.1z"/>
		<path class="st2" d="M-1488.4,693.4h30V678h6.2v22.1h-36.2V693.4z"/>
		<path class="st2" d="M-1478.8,658.4c-2.7,1.4-3.8,2.9-3.8,5c0,2,1.4,3.5,3.3,3.5c6.3,0,5.5-15.5,16.2-15.5
			c7.1,0,11.3,4.7,11.3,11.6c0,6.6-4.6,11.3-10.1,12.5l-3.4-5.4c3.9-1.1,7.3-3.3,7.3-7.2c0-2.8-1.4-4.7-4.7-4.7
			c-6,0-4.8,15.2-16.3,15.2c-5.5,0-9.8-4.2-9.8-9.9c0-4.8,2.4-8.5,6.6-10.4L-1478.8,658.4z"/>
	</g>
	<g>
		<path class="st2" d="M-1263.1,855v-7.5l22.6-8.5l-22.6-8.5v-7.6h36.2v6.7h-22.3l19,6.9v4.9l-19,6.9h22.3v6.7L-1263.1,855
			L-1263.1,855z"/>
		<path class="st2" d="M-1263.1,793h6.2v15.7h7.6v-12.6h6.2v12.6h10v-16.2h6.2v22.9h-36.2V793L-1263.1,793z"/>
		<path class="st2" d="M-1253.5,771.4c-2.7,1.4-3.8,2.9-3.8,5c0,2,1.4,3.5,3.3,3.5c6.3,0,5.5-15.5,16.2-15.5
			c7.1,0,11.3,4.7,11.3,11.6c0,6.6-4.6,11.3-10.1,12.5l-3.4-5.4c3.9-1.1,7.3-3.3,7.3-7.2c0-2.8-1.4-4.7-4.7-4.7
			c-6,0-4.8,15.2-16.3,15.2c-5.5,0-9.8-4.2-9.8-9.9c0-4.8,2.4-8.5,6.6-10.4L-1253.5,771.4z"/>
		<path class="st2" d="M-1240.6,732.1c9.7,0,14.2,5.6,14.2,13.5s-4.5,13.5-14.2,13.5h-22.5v-6.7h22.6c5.3,0,7.9-2.2,7.9-6.8
			s-2.6-6.8-7.9-6.8h-22.6v-6.7H-1240.6z"/>
		<path class="st2" d="M-1243.1,708.2l16.2-10v7.5l-15.6,9.7v3.5h15.6v6.7h-36.2v-13.2c0-7.2,4.3-11,10.3-11
			C-1248,701.4-1244.4,703.8-1243.1,708.2z M-1252.8,708.1c-2.9,0-4.1,1.8-4.1,4.2v6.5h8.2v-6.5
			C-1248.7,710-1249.8,708.1-1252.8,708.1z"/>
		<path class="st2" d="M-1263.1,670.9h6.2v15.7h7.6V674h6.2v12.6h10v-16.2h6.2v22.9h-36.2V670.9L-1263.1,670.9z"/>
		<path class="st2" d="M-1253.5,649.4c-2.7,1.4-3.8,2.9-3.8,5c0,2,1.4,3.5,3.3,3.5c6.3,0,5.5-15.5,16.2-15.5
			c7.1,0,11.3,4.7,11.3,11.6c0,6.6-4.6,11.3-10.1,12.5l-3.4-5.4c3.9-1.1,7.3-3.3,7.3-7.2c0-2.8-1.4-4.7-4.7-4.7
			c-6,0-4.8,15.2-16.3,15.2c-5.5,0-9.8-4.2-9.8-9.9c0-4.8,2.4-8.5,6.6-10.4L-1253.5,649.4z"/>
	</g>
	<g>
		<g>
			<g>
				<defs>
					<rect id="SVGID_3_" x="-1632.5" y="368.3" width="556.1" height="708.4"/>
				</defs>
				<clipPath id="SVGID_4_">
					<use xlink:href="#SVGID_3_"  style="overflow:visible;"/>
				</clipPath>
				<g class="st3">
					<path class="st2" d="M-1177.2,876.2v11.5l8.5,2.6v7.2l-36.2-12.3v-6.7l36.2-12.3v7.2L-1177.2,876.2z M-1183.4,885.8v-7.7
						l-12.6,3.8L-1183.4,885.8z"/>
					<path class="st2" d="M-1204.9,861.4v-7.6l22.6-8.5l-22.6-8.5v-7.5h36.2v6.7h-22.3l19,6.9v4.9l-19,6.9h22.3v6.7L-1204.9,861.4
						L-1204.9,861.4z"/>
					<path class="st2" d="M-1204.9,808.5c0-6.2,3.2-10.3,9.8-10.3c2.9,0,5.5,1.3,6.7,3.6c1.4-3.4,4.2-5.4,8.8-5.4
						c7,0,10.9,4.6,10.9,11.9v13.5h-36.2V808.5L-1204.9,808.5z M-1198.7,815h7.9v-6.2c0-2.7-1-4.2-3.9-4.2s-3.9,1.6-3.9,4.4
						L-1198.7,815L-1198.7,815z M-1184.6,815h9.7v-6.2c0-4.2-1.8-5.8-4.9-5.8c-3.1,0-4.9,1.7-4.9,5.8v6.2H-1184.6z"/>
					<path class="st2" d="M-1168.7,783.7v6.7h-36.2v-6.7H-1168.7z"/>
					<path class="st2" d="M-1204.9,753.9h6.2v15.7h7.6V757h6.2v12.6h10v-16.2h6.2v22.9h-36.2V753.9L-1204.9,753.9z"/>
					<path class="st2" d="M-1204.9,720h36.2v7.1l-23.9,13.3h23.9v6.7h-36.2V740l23.9-13.3h-23.9V720z"/>
					<path class="st2" d="M-1204.9,714.3v-26.8h6.2v10h30v6.7h-30v10L-1204.9,714.3L-1204.9,714.3z"/>
					<path class="st2" d="M-1177.2,667.5V679l8.5,2.6v7.2l-36.2-12.3v-6.7l36.2-12.3v7.2L-1177.2,667.5z M-1183.4,677v-7.7
						l-12.6,3.8L-1183.4,677z"/>
					<path class="st2" d="M-1204.9,646.3h30V631h6.2v22.1h-36.2V646.3z"/>
					<path class="st2" d="M-1195.3,611.4c-2.7,1.4-3.8,2.9-3.8,5c0,2,1.4,3.5,3.3,3.5c6.3,0,5.5-15.5,16.2-15.5
						c7.1,0,11.3,4.7,11.3,11.6c0,6.6-4.6,11.3-10.1,12.5l-3.4-5.4c3.9-1.1,7.3-3.3,7.3-7.2c0-2.8-1.4-4.7-4.7-4.7
						c-6,0-4.8,15.2-16.3,15.2c-5.5,0-9.8-4.2-9.8-9.9c0-4.8,2.4-8.5,6.6-10.4L-1195.3,611.4z"/>
				</g>
			</g>
		</g>
	</g>
	<g>
		<path class="st2" d="M-1550.8,1004.9h26.8v6.2h-10v30h-6.7v-30h-10L-1550.8,1004.9L-1550.8,1004.9L-1550.8,1004.9z"/>
		<path class="st2" d="M-1511.5,1041.1h-6.7v-36.2h6.7V1041.1z"/>
		<path class="st2" d="M-1478.6,1017c-1.4-3.7-3.9-6.3-8.9-6.3c-5.6,0-10.3,3.9-10.3,12.3c0,8.4,4.7,12.3,10.3,12.3
			c5,0,7.6-2.6,8.9-6.3l6.1,1.6c-1.7,6.9-7.1,11-15,11c-9.1,0-17.1-6.4-17.1-18.5s8.1-18.5,17.1-18.5c7.9,0,13.3,4,15,11
			L-1478.6,1017z"/>
		<path class="st2" d="M-1446.8,1041.1h-6.7v-36.2h6.7V1041.1z"/>
		<path class="st2" d="M-1417.9,1041.1h-6.7v-36.2h6.7V1041.1z"/>
		<path class="st2" d="M-1383.3,1004.9v36.2h-7.1l-13.3-23.9v23.9h-6.7v-36.2h7.1l13.3,23.9v-23.9L-1383.3,1004.9L-1383.3,1004.9z"
			/>
		<path class="st2" d="M-1348.8,1004.9v36.2h-7.1l-13.3-23.9v23.9h-6.7v-36.2h7.1l13.3,23.9v-23.9L-1348.8,1004.9L-1348.8,1004.9z"
			/>
		<path class="st2" d="M-1307.8,1023c0,12.6-7.9,18.5-17.1,18.5s-17.1-6-17.1-18.5c0-12.6,7.9-18.5,17.1-18.5
			S-1307.8,1010.4-1307.8,1023z M-1335.1,1023c0,8.6,4.8,12.3,10.2,12.3s10.2-3.7,10.2-12.3c0-8.6-4.8-12.3-10.2-12.3
			S-1335.1,1014.4-1335.1,1023z"/>
		<path class="st2" d="M-1293.7,1041.1l-12.2-36.2h7.4l8.1,26.8l8.1-26.8h7.4l-12.2,36.2H-1293.7z"/>
		<path class="st2" d="M-1257.2,1032.6h-11.5l-2.6,8.5h-7.2l12.3-36.2h6.7l12.3,36.2h-7.2L-1257.2,1032.6z M-1266.7,1026.4h7.7
			l-3.8-12.6L-1266.7,1026.4z"/>
		<path class="st2" d="M-1219.7,1017c-1.4-3.7-3.9-6.3-9-6.3c-5.6,0-10.3,3.9-10.3,12.3c0,8.4,4.7,12.3,10.3,12.3c5,0,7.6-2.6,9-6.3
			l6.1,1.6c-1.7,6.9-7.1,11-15,11c-9.1,0-17.1-6.4-17.1-18.5s8.1-18.5,17.1-18.5c7.9,0,13.3,4,15,11L-1219.7,1017z"/>
		<path class="st2" d="M-1201,1041.1h-6.7v-36.2h6.7V1041.1z"/>
		<path class="st2" d="M-1160,1023c0,12.6-7.9,18.5-17.1,18.5s-17.1-6-17.1-18.5c0-12.6,7.9-18.5,17.1-18.5S-1160,1010.4-1160,1023z
			 M-1187.4,1023c0,8.6,4.8,12.3,10.2,12.3s10.2-3.7,10.2-12.3c0-8.6-4.8-12.3-10.2-12.3S-1187.4,1014.4-1187.4,1023z
			 M-1178.3,994.3h8.7l-7.1,7.7h-4.9L-1178.3,994.3z"/>
	</g>
	<g>
		<path class="st2" d="M-1127.6,1063.1H-1586v-96.2h458.4L-1127.6,1063.1L-1127.6,1063.1z M-1579.5,1056.7h445.4v-83.3h-445.4
			V1056.7z"/>
	</g>
	<g>
		<g>
			<g>
				<defs>
					<rect id="SVGID_5_" x="-1632.5" y="368.3" width="556.1" height="708.4"/>
				</defs>
				<clipPath id="SVGID_6_">
					<use xlink:href="#SVGID_5_"  style="overflow:visible;"/>
				</clipPath>
				<g class="st4">
					<path class="st2" d="M-1127.6,468.9H-1586v-96.2h458.4L-1127.6,468.9L-1127.6,468.9z M-1579.5,462.4h445.4v-83.3h-445.4V462.4z
						"/>
				</g>
			</g>
		</g>
	</g>
	<g>
		<path class="st2" d="M-1403.6,929H-1587V562.3h183.4L-1403.6,929L-1403.6,929z M-1580.5,922.5h170.4V568.7h-170.4V922.5z"/>
	</g>
	<g>
		<path class="st2" d="M-1129.9,929h-183.4V562.3h183.4V929z M-1306.7,922.5h170.4V568.7h-170.4V922.5z"/>
	</g>
	<g>
		<polygon class="st2" points="-1106.8,546.3 -1113.2,546.3 -1113.2,523.5 -1600.3,523.5 -1600.3,546.3 -1606.7,546.3 -1606.7,517 
			-1106.8,517 		"/>
	</g>
	<g>
		<rect x="-1360" y="490.9" class="st2" width="6.5" height="29.3"/>
	</g>
</g>
<g>
	<g>
		<rect x="-655.6" y="992.5" class="st1" width="423.8" height="84.2"/>
	</g>
	<g>
		<rect x="-655.6" y="393" class="st1" width="423.8" height="101.1"/>
	</g>
	<g>
		<rect x="-656.5" y="590.9" class="st1" width="165.9" height="357.7"/>
	</g>
	<g>
		<rect x="-399.8" y="590.9" class="st1" width="165.9" height="357.7"/>
	</g>
	<g>
		<path class="st2" d="M-644.8,416.6h7.1l8,21.2l8-21.2h7.1v34h-6.3v-21l-6.5,17.8h-4.6l-6.5-17.8v21h-6.3L-644.8,416.6
			L-644.8,416.6z"/>
		<path class="st2" d="M-590.8,442.6h-10.8l-2.5,8h-6.8l11.5-34h6.3l11.5,34h-6.8L-590.8,442.6z M-599.8,436.7h7.2l-3.6-11.8
			L-599.8,436.7z"/>
		<path class="st2" d="M-578.5,416.6l6.2,13.2l6.2-13.2h6.8l-9.8,19.5v14.5h-6.3v-14.5l-9.8-19.5H-578.5z"/>
		<path class="st2" d="M-527.5,433.6c0,11.8-7.4,17.4-16,17.4s-16-5.6-16-17.4s7.4-17.4,16-17.4S-527.5,421.8-527.5,433.6z
			 M-553.1,433.6c0,8.1,4.5,11.5,9.6,11.5s9.6-3.5,9.6-11.5s-4.5-11.5-9.6-11.5S-553.1,425.5-553.1,433.6z"/>
		<path class="st2" d="M-506.5,435.4l9.4,15.2h-7l-9.1-14.6h-3.3v14.6h-6.3v-34h12.4c6.8,0,10.3,4,10.3,9.7
			C-500.1,430.7-502.3,434.1-506.5,435.4z M-506.4,426.3c0-2.8-1.7-3.8-4-3.8h-6.1v7.7h6.1C-508.1,430.1-506.4,429-506.4,426.3z"/>
		<path class="st2" d="M-475.5,442.6h-10.8l-2.5,8h-6.8l11.5-34h6.3l11.5,34h-6.8L-475.5,442.6z M-484.4,436.7h7.2l-3.6-11.8
			L-484.4,436.7z"/>
		<path class="st2" d="M-456.6,416.6v28.1h14.4v5.8h-20.7v-34h6.3V416.6z"/>
		<path class="st2" d="M-427,450.6v-34h10.6c8,0,15.8,5.1,15.8,17s-7.8,17-15.8,17H-427z M-418.3,444.8c5.4,0,11.4-2.1,11.4-11.2
			c0-9-6-11.2-11.4-11.2h-2.3v22.3h2.3V444.8z"/>
		<path class="st2" d="M-374.8,416.6v5.8h-14.7v7.1h11.8v5.8h-11.8v9.4h15.2v5.8h-21.5v-34h21V416.6z"/>
		<path class="st2" d="M-347.1,428c-1.3-3.4-3.7-5.9-8.4-5.9c-5.2,0-9.7,3.7-9.7,11.5c0,7.9,4.4,11.5,9.7,11.5
			c4.7,0,7.1-2.5,8.4-5.9l5.7,1.5c-1.6,6.5-6.7,10.3-14.1,10.3c-8.5,0-16.1-6-16.1-17.4s7.6-17.4,16.1-17.4
			c7.4,0,12.5,3.8,14.1,10.3L-347.1,428z"/>
		<path class="st2" d="M-320.4,435.4l9.4,15.2h-7l-9.1-14.6h-3.3v14.6h-6.3v-34h12.4c6.8,0,10.3,4,10.3,9.7
			C-314.1,430.7-316.3,434.1-320.4,435.4z M-320.4,426.3c0-2.8-1.7-3.8-4-3.8h-6.1v7.7h6.1C-322.1,430.1-320.4,429-320.4,426.3z"/>
		<path class="st2" d="M-286.5,416.6v5.8h-14.7v7.1h11.8v5.8h-11.8v9.4h15.2v5.8h-21.5v-34h21V416.6z"/>
		<path class="st2" d="M-260.2,416.6v5.8h-14.7v7.1h11.8v5.8h-11.8v9.4h15.2v5.8h-21.5v-34h21V416.6z"/>
	</g>
	<g>
		<path class="st2" d="M-630,828.4c-2.5,1.3-3.6,2.7-3.6,4.7c0,1.8,1.3,3.2,3.1,3.2c5.9,0,5.1-14.5,15.2-14.5
			c6.6,0,10.6,4.4,10.6,10.9c0,6.2-4.3,10.6-9.5,11.7l-3.2-5.1c3.6-1,6.9-3.1,6.9-6.7c0-2.6-1.3-4.4-4.4-4.4
			c-5.6,0-4.5,14.2-15.3,14.2c-5.1,0-9.2-3.9-9.2-9.3c0-4.5,2.2-8,6.2-9.8L-630,828.4z"/>
		<path class="st2" d="M-622.1,785.4c11.8,0,17.4,7.4,17.4,16s-5.6,16-17.4,16s-17.4-7.4-17.4-16S-633.9,785.4-622.1,785.4z
			 M-622.1,811c8.1,0,11.5-4.5,11.5-9.6s-3.5-9.6-11.5-9.6s-11.5,4.5-11.5,9.6S-630.1,811-622.1,811z"/>
		<path class="st2" d="M-627.7,755.8c-3.4,1.3-5.9,3.7-5.9,8.4c0,5.2,3.7,9.7,11.5,9.7c7.9,0,11.5-4.4,11.5-9.7
			c0-4.7-2.5-7.1-5.9-8.4l1.5-5.7c6.5,1.6,10.3,6.7,10.3,14.1c0,8.5-6,16.1-17.4,16.1s-17.4-7.6-17.4-16.1c0-7.4,3.8-12.5,10.3-14.1
			L-627.7,755.8z"/>
		<path class="st2" d="M-605.1,738.2v6.3h-34v-6.3H-605.1z"/>
		<path class="st2" d="M-613.1,714.1v10.8l8,2.5v6.8l-34-11.5v-6.3l34-11.5v6.8L-613.1,714.1z M-618.9,723.1v-7.2l-11.8,3.6
			L-618.9,723.1z"/>
		<path class="st2" d="M-639.1,694.3h28.1v-14.4h5.8v20.7h-34L-639.1,694.3L-639.1,694.3z"/>
	</g>
	<g>
		<path class="st2" d="M-584.5,876.7v-7.1l21.2-8l-21.2-8v-7.1h34v6.3h-21l17.8,6.5v4.6l-17.8,6.5h21v6.3H-584.5z"/>
		<path class="st2" d="M-584.5,818.5h5.8v14.7h7.1v-11.8h5.8v11.8h9.4V818h5.8v21.5h-34L-584.5,818.5L-584.5,818.5z"/>
		<path class="st2" d="M-558.5,795v10.8l8,2.5v6.8l-34-11.5v-6.3l34-11.5v6.8L-558.5,795z M-564.3,804v-7.2l-11.8,3.6L-564.3,804z"
			/>
		<path class="st2" d="M-575.4,767c-2.5,1.3-3.6,2.7-3.6,4.7c0,1.8,1.3,3.2,3.1,3.2c5.9,0,5.1-14.5,15.2-14.5
			c6.6,0,10.6,4.4,10.6,10.9c0,6.2-4.3,10.6-9.5,11.7l-3.2-5.1c3.6-1,6.9-3.1,6.9-6.7c0-2.6-1.3-4.4-4.4-4.4
			c-5.6,0-4.5,14.2-15.3,14.2c-5.1,0-9.2-3.9-9.2-9.3c0-4.5,2.2-8,6.2-9.8L-575.4,767z"/>
		<path class="st2" d="M-563.4,730.1c9.1,0,13.3,5.2,13.3,12.7c0,7.4-4.2,12.7-13.3,12.7h-21.1v-6.3h21.2c4.9,0,7.4-2.1,7.4-6.4
			c0-4.3-2.4-6.4-7.4-6.4h-21.2v-6.3H-563.4z"/>
		<path class="st2" d="M-565.7,707.7l15.2-9.4v7l-14.6,9.1v3.3h14.6v6.3h-34v-12.4c0-6.8,4-10.3,9.7-10.3
			C-570.4,701.4-567,703.6-565.7,707.7z M-574.8,707.7c-2.8,0-3.8,1.7-3.8,4v6.1h7.7v-6.1C-571,709.4-572.1,707.7-574.8,707.7z"/>
		<path class="st2" d="M-584.5,672.8h5.8v14.7h7.1v-11.8h5.8v11.8h9.4v-15.2h5.8v21.5h-34L-584.5,672.8L-584.5,672.8z"/>
		<path class="st2" d="M-575.4,652.5c-2.5,1.3-3.6,2.7-3.6,4.7c0,1.8,1.3,3.2,3.1,3.2c5.9,0,5.1-14.5,15.2-14.5
			c6.6,0,10.6,4.4,10.6,10.9c0,6.2-4.3,10.6-9.5,11.7l-3.2-5.1c3.6-1,6.9-3.1,6.9-6.7c0-2.6-1.3-4.4-4.4-4.4
			c-5.6,0-4.5,14.2-15.3,14.2c-5.1,0-9.2-3.9-9.2-9.3c0-4.5,2.2-8,6.2-9.8L-575.4,652.5z"/>
	</g>
	<g>
		<g>
			<defs>
				<rect id="SVGID_7_" x="-738.9" y="373.3" width="545" height="703.4"/>
			</defs>
			<clipPath id="SVGID_8_">
				<use xlink:href="#SVGID_7_"  style="overflow:visible;"/>
			</clipPath>
			<g class="st5">
				<path class="st2" d="M-373.2,888h5.8v14.7h7.1v-11.8h5.8v11.8h9.4v-15.2h5.8V909h-34L-373.2,888L-373.2,888z"/>
				<path class="st2" d="M-373.2,857.7h34v6.6l-22.4,12.5h22.4v6.3h-34v-6.6l22.4-12.5h-22.4V857.7z"/>
				<path class="st2" d="M-339.2,843.4l-34,11.4v-7l25.1-7.6l-25.1-7.6v-7l34,11.4V843.4z"/>
				<path class="st2" d="M-339.2,817v6.3h-34V817H-339.2z"/>
				<path class="st2" d="M-354.4,795.1l15.2-9.4v7l-14.7,9.1v3.3h14.7v6.3h-34V799c0-6.8,4-10.3,9.7-10.3
					C-359.1,788.8-355.7,791-354.4,795.1z M-363.5,795.1c-2.8,0-3.8,1.7-3.8,4v6.1h7.7v-6.1C-359.7,796.8-360.8,795.1-363.5,795.1z"
					/>
				<path class="st2" d="M-356.2,753.1c11.8,0,17.4,7.4,17.4,16s-5.6,16-17.4,16s-17.4-7.4-17.4-16S-368,753.1-356.2,753.1z
					 M-356.2,778.7c8,0,11.5-4.5,11.5-9.6s-3.5-9.6-11.5-9.6s-11.5,4.5-11.5,9.6C-367.8,774.2-364.3,778.7-356.2,778.7z"/>
				<path class="st2" d="M-373.2,723.4h34v6.6l-22.4,12.5h22.4v6.3h-34v-6.6l22.4-12.5h-22.4V723.4z"/>
				<path class="st2" d="M-373.2,717.3v-7.1l21.2-8l-21.2-8v-7.1h34v6.3h-21l17.8,6.5v4.6l-17.8,6.5h21v6.3H-373.2z"/>
				<path class="st2" d="M-373.2,660.6h5.8v14.7h7.1v-11.8h5.8v11.8h9.4v-15.2h5.8v21.5h-34L-373.2,660.6L-373.2,660.6z"/>
				<path class="st2" d="M-373.2,630.3h34v6.6l-22.4,12.5h22.4v6.3h-34v-6.6l22.4-12.5h-22.4V630.3z"/>
				<path class="st2" d="M-373.2,626.3v-25.1h5.8v9.4h28.1v6.3h-28.1v9.4L-373.2,626.3L-373.2,626.3z"/>
			</g>
		</g>
		<g>
			<defs>
				<rect id="SVGID_9_" x="-738.9" y="373.3" width="545" height="703.4"/>
			</defs>
			<clipPath id="SVGID_10_">
				<use xlink:href="#SVGID_9_"  style="overflow:visible;"/>
			</clipPath>
			<g class="st6">
				<path class="st2" d="M-292.7,881.6v10.8l8,2.5v6.8l-34-11.5v-6.3l34-11.5v6.8L-292.7,881.6z M-298.5,890.6v-7.2l-11.8,3.6
					L-298.5,890.6z"/>
				<path class="st2" d="M-318.6,863.3h28.1v-14.4h5.8v20.7h-34L-318.6,863.3L-318.6,863.3z"/>
				<path class="st2" d="M-318.6,834.6v-7.1l21.2-8l-21.2-8v-7.1h34v6.3h-21l17.8,6.5v4.6l-17.8,6.5h21v6.3H-318.6z"/>
				<path class="st2" d="M-318.6,777.9h5.8v14.7h7.1v-11.8h5.8v11.8h9.4v-15.2h5.8v21.5h-34L-318.6,777.9L-318.6,777.9z"/>
				<path class="st2" d="M-292.7,755.8v10.8l8,2.5v6.8l-34-11.5V758l34-11.5v6.8L-292.7,755.8z M-298.5,764.8v-7.2l-11.8,3.6
					L-298.5,764.8z"/>
				<path class="st2" d="M-309.6,729.2c-2.5,1.3-3.6,2.7-3.6,4.7c0,1.8,1.3,3.2,3.1,3.2c5.9,0,5.1-14.5,15.2-14.5
					c6.6,0,10.6,4.4,10.6,10.9c0,6.2-4.3,10.6-9.5,11.7l-3.2-5.1c3.6-1,6.9-3.1,6.9-6.7c0-2.6-1.3-4.4-4.4-4.4
					c-5.6,0-4.5,14.2-15.3,14.2c-5.1,0-9.2-3.9-9.2-9.3c0-4.5,2.2-8,6.2-9.8L-309.6,729.2z"/>
				<path class="st2" d="M-297.6,693.7c9.1,0,13.3,5.2,13.3,12.7c0,7.4-4.2,12.7-13.3,12.7h-21.1v-6.3h21.2c4.9,0,7.4-2.1,7.4-6.4
					c0-4.3-2.4-6.4-7.4-6.4h-21.2v-6.3H-297.6z"/>
				<path class="st2" d="M-299.8,672.8l15.2-9.4v7l-14.6,9.1v3.3h14.6v6.3h-34v-12.4c0-6.8,4-10.3,9.7-10.3
					C-304.5,666.4-301.1,668.7-299.8,672.8z M-309,672.7c-2.8,0-3.8,1.7-3.8,4v6.1h7.7v-6.1C-305.1,674.4-306.2,672.7-309,672.7z"/>
				<path class="st2" d="M-318.6,639.3h5.8V654h7.1v-11.8h5.8V654h9.4v-15.2h5.8v21.5h-34L-318.6,639.3L-318.6,639.3z"/>
				<path class="st2" d="M-309.6,620.5c-2.5,1.3-3.6,2.7-3.6,4.7c0,1.8,1.3,3.2,3.1,3.2c5.9,0,5.1-14.5,15.2-14.5
					c6.6,0,10.6,4.4,10.6,10.9c0,6.2-4.3,10.6-9.5,11.7l-3.2-5.1c3.6-1,6.9-3.1,6.9-6.7c0-2.6-1.3-4.4-4.4-4.4
					c-5.6,0-4.5,14.2-15.3,14.2c-5.1,0-9.2-3.9-9.2-9.3c0-4.5,2.2-8,6.2-9.8L-309.6,620.5z"/>
			</g>
		</g>
	</g>
	<g>
		<path class="st2" d="M-658.3,1002.4h25.1v5.8h-9.4v28.1h-6.3v-28.1h-9.4L-658.3,1002.4L-658.3,1002.4z"/>
		<path class="st2" d="M-622.9,1036.4h-6.3v-34h6.3V1036.4z"/>
		<path class="st2" d="M-593.5,1013.8c-1.3-3.4-3.7-5.9-8.4-5.9c-5.2,0-9.7,3.7-9.7,11.5s4.4,11.5,9.7,11.5c4.7,0,7.1-2.5,8.4-5.9
			l5.7,1.5c-1.6,6.5-6.7,10.3-14.1,10.3c-8.5,0-16.1-6-16.1-17.4s7.6-17.4,16.1-17.4c7.4,0,12.5,3.8,14.1,10.3L-593.5,1013.8z"/>
		<path class="st2" d="M-551.7,1002.4v5.8h-14.7v7.1h11.8v5.8h-11.8v9.4h15.2v5.8h-21.5v-34h21V1002.4z"/>
		<path class="st2" d="M-529.3,1036.4h-6.3v-34h6.3V1036.4z"/>
		<path class="st2" d="M-498.4,1002.4v34h-6.6l-12.5-22.4v22.4h-6.3v-34h6.6l12.5,22.4v-22.4H-498.4z"/>
		<path class="st2" d="M-467.4,1002.4v34h-6.6l-12.5-22.4v22.4h-6.3v-34h6.6l12.5,22.4v-22.4H-467.4z"/>
		<path class="st2" d="M-430.4,1019.4c0,11.8-7.4,17.4-16,17.4s-16-5.6-16-17.4s7.4-17.4,16-17.4S-430.4,1007.6-430.4,1019.4z
			 M-456,1019.4c0,8.1,4.5,11.5,9.6,11.5s9.6-3.5,9.6-11.5s-4.5-11.5-9.6-11.5C-451.5,1007.8-456,1011.3-456,1019.4z"/>
		<path class="st2" d="M-418.7,1036.4l-11.4-34h7l7.6,25.1l7.6-25.1h7l-11.4,34H-418.7z"/>
		<path class="st2" d="M-385.9,1028.4h-10.8l-2.5,8h-6.8l11.5-34h6.3l11.5,34h-6.8L-385.9,1028.4z M-394.9,1022.5h7.2l-3.6-11.8
			L-394.9,1022.5z"/>
		<path class="st2" d="M-352.2,1013.8c-1.3-3.4-3.7-5.9-8.4-5.9c-5.2,0-9.7,3.7-9.7,11.5s4.4,11.5,9.7,11.5c4.7,0,7.1-2.5,8.4-5.9
			l5.7,1.5c-1.6,6.5-6.7,10.3-14.1,10.3c-8.5,0-16.1-6-16.1-17.4s7.6-17.4,16.1-17.4c7.4,0,12.5,3.8,14.1,10.3L-352.2,1013.8z"/>
		<path class="st2" d="M-336.1,1036.4h-6.3v-34h6.3V1036.4z"/>
		<path class="st2" d="M-299.2,1019.4c0,11.8-7.4,17.4-16,17.4s-16-5.6-16-17.4s7.4-17.4,16-17.4
			C-306.7,1002-299.2,1007.6-299.2,1019.4z M-324.8,1019.4c0,8.1,4.5,11.5,9.6,11.5s9.6-3.5,9.6-11.5s-4.5-11.5-9.6-11.5
			C-320.3,1007.8-324.8,1011.3-324.8,1019.4z M-316.3,992.5h8.2l-6.6,7.2h-4.6L-316.3,992.5z"/>
		<path class="st2" d="M-269.6,1002.4v34h-6.6l-12.5-22.4v22.4h-6.3v-34h6.6l12.5,22.4v-22.4H-269.6z"/>
	</g>
	<g>
		<path class="st2" d="M-246.1,1064h-429.8v-90.2h429.8V1064z M-669.9,1057.9h417.7v-78.1h-417.7L-669.9,1057.9L-669.9,1057.9z"/>
	</g>
	<g>
		<g>
			<defs>
				<rect id="SVGID_11_" x="-738.9" y="373.3" width="545" height="703.4"/>
			</defs>
			<clipPath id="SVGID_12_">
				<use xlink:href="#SVGID_11_"  style="overflow:visible;"/>
			</clipPath>
			<g class="st7">
				<path class="st2" d="M-246.1,494.1h-429.8V373.3h429.8V494.1z M-669.9,488h417.7V379.4h-417.7L-669.9,488L-669.9,488z"/>
			</g>
		</g>
	</g>
	<g>
		<path class="st2" d="M-505,935.2h-171.9V571H-505V935.2z M-670.8,929.1H-511v-352h-159.8V929.1z"/>
	</g>
	<g>
		<path class="st2" d="M-248.3,935.2h-171.9V571h171.9V935.2z M-414.1,929.1h159.8v-352h-159.8V929.1z"/>
	</g>
	<g>
		<polygon class="st2" points="-226.6,556 -232.7,556 -232.7,534.6 -689.4,534.6 -689.4,556 -695.5,556 -695.5,528.6 -226.6,528.6 
					"/>
	</g>
	<g>
		<rect x="-464.1" y="504.1" class="st2" width="6.1" height="27.5"/>
	</g>
</g>
<g>
	<g>
		<rect x="222.1" y="988.9" class="st1" width="429.9" height="85.4"/>
	</g>
	<g>
		<rect x="222.1" y="404.2" class="st1" width="429.9" height="102.6"/>
	</g>
	<g>
		<rect x="221.2" y="603.9" class="st1" width="168.3" height="342.7"/>
	</g>
	<g>
		<rect x="481.6" y="603.9" class="st1" width="168.3" height="342.7"/>
	</g>
	<g>
		<path class="st2" d="M299.4,439v-34.5h10.8c8.1,0,16,5.2,16,17.2c0,12.1-7.9,17.2-16,17.2L299.4,439L299.4,439z M308.2,433.1
			c5.5,0,11.6-2.2,11.6-11.3c0-9.2-6.1-11.3-11.6-11.3h-2.4v22.6L308.2,433.1L308.2,433.1z"/>
		<path class="st2" d="M353.3,404.6v5.9h-14.9v7.2h12v5.9h-12v9.5h15.4v5.9H332v-34.5h21.3V404.6z"/>
		<path class="st2" d="M382.5,416.1c-1.3-3.5-3.7-6-8.5-6c-5.3,0-9.8,3.7-9.8,11.7s4.5,11.7,9.8,11.7c4.8,0,7.2-2.5,8.5-6l5.8,1.5
			c-1.6,6.6-6.8,10.4-14.3,10.4c-8.6,0-16.3-6.1-16.3-17.6s7.7-17.6,16.3-17.6c7.5,0,12.6,3.8,14.3,10.4L382.5,416.1z"/>
		<path class="st2" d="M410.5,423.6L420,439h-7.1l-9.3-14.9h-3.3V439h-6.4v-34.5h12.6c6.9,0,10.5,4.1,10.5,9.8
			C416.9,418.9,414.7,422.3,410.5,423.6z M410.5,414.4c0-2.8-1.7-3.9-4-3.9h-6.2v7.8h6.2C408.8,418.2,410.5,417.2,410.5,414.4z"/>
		<path class="st2" d="M445.9,404.6v5.9H431v7.2h12v5.9h-12v9.5h15.4v5.9h-21.8v-34.5h21.3V404.6z"/>
		<path class="st2" d="M451.1,404.6h25.5v5.9h-9.5V439h-6.4v-28.5h-9.5v-5.9H451.1z"/>
		<path class="st2" d="M511.7,421.8c0,12-7.5,17.6-16.2,17.6s-16.2-5.7-16.2-17.6s7.5-17.6,16.2-17.6S511.7,409.8,511.7,421.8z
			 M485.7,421.8c0,8.2,4.6,11.7,9.7,11.7s9.7-3.5,9.7-11.7s-4.6-11.7-9.7-11.7S485.7,413.6,485.7,421.8z"/>
		<path class="st2" d="M530.7,439v-34.5h10.8c8.1,0,16,5.2,16,17.2c0,12.1-7.9,17.2-16,17.2L530.7,439L530.7,439z M539.5,433.1
			c5.5,0,11.6-2.2,11.6-11.3c0-9.2-6.1-11.3-11.6-11.3h-2.4v22.6L539.5,433.1L539.5,433.1z"/>
		<path class="st2" d="M584.6,404.6v5.9h-14.9v7.2h12v5.9h-12v9.5h15.4v5.9h-21.8v-34.5h21.3V404.6z"/>
	</g>
	<g>
		<path class="st2" d="M325.3,486.3h-10.9l-2.5,8.1H305l11.7-34.5h6.4l11.7,34.5h-6.9L325.3,486.3z M316.2,480.4h7.3l-3.6-12
			L316.2,480.4z"/>
		<path class="st2" d="M345.4,459.9v28.5H360v5.9h-21v-34.5h6.4V459.9z"/>
		<path class="st2" d="M386.9,471.5c-1.3-3.5-3.7-6-8.5-6c-5.3,0-9.8,3.7-9.8,11.7s4.5,11.7,9.8,11.7c4.8,0,7.2-2.5,8.5-6l5.8,1.5
			c-1.6,6.6-6.8,10.4-14.3,10.4c-8.6,0-16.3-6.1-16.3-17.6s7.7-17.6,16.3-17.6c7.5,0,12.6,3.8,14.3,10.4L386.9,471.5z"/>
		<path class="st2" d="M414.7,486.3h-11l-2.5,8.1h-6.9l11.7-34.5h6.4l11.7,34.5h-6.9L414.7,486.3z M405.6,480.4h7.3l-3.6-12
			L405.6,480.4z"/>
		<path class="st2" d="M434.8,459.9v28.5h14.6v5.9h-21v-34.5h6.4V459.9z"/>
		<path class="st2" d="M455.2,494.4v-34.5H466c8.1,0,16,5.2,16,17.2c0,12.1-7.9,17.2-16,17.2L455.2,494.4L455.2,494.4z M463.9,488.5
			c5.5,0,11.6-2.2,11.6-11.3c0-9.2-6.1-11.3-11.6-11.3h-2.4v22.6L463.9,488.5L463.9,488.5z"/>
		<path class="st2" d="M490.4,449.9h8.3l-6.7,7.3h-4.7L490.4,449.9z M494.2,494.4h-6.4v-34.5h6.4V494.4z"/>
		<path class="st2" d="M518.6,486.3h-10.9l-2.5,8.1h-6.9l11.7-34.5h6.4l11.7,34.5h-6.9L518.6,486.3z M509.5,480.4h7.3l-3.6-12
			L509.5,480.4z"/>
	</g>
	<g>
		<path class="st2" d="M238.9,862.2V855l21.5-8.1l-21.5-8.1v-7.2h34.5v6.4h-21.3l18.1,6.6v4.6l-18.1,6.6h21.3v6.4H238.9z"/>
		<path class="st2" d="M238.9,803.2h5.9v14.9h7.2v-12h5.9v12h9.5v-15.4h5.9v21.8h-34.5v-21.3H238.9z"/>
		<path class="st2" d="M273.3,796.8h-34.5V786c0-8.1,5.2-16,17.2-16c12.1,0,17.2,7.9,17.2,16v10.8H273.3z M267.4,788
			c0-5.5-2.2-11.6-11.3-11.6c-9.2,0-11.3,6.1-11.3,11.6v2.4h22.6V788z"/>
		<path class="st2" d="M273.3,757.8v6.4h-34.5v-6.4H273.3z"/>
		<path class="st2" d="M273.3,750.7h-34.5v-10.8c0-8.1,5.2-16,17.2-16c12.1,0,17.2,7.9,17.2,16v10.8H273.3z M267.4,742
			c0-5.5-2.2-11.6-11.3-11.6c-9.2,0-11.3,6.1-11.3,11.6v2.4h22.6V742z"/>
		<path class="st2" d="M265.2,701.7v10.9l8.1,2.5v6.9l-34.5-11.7V704l34.5-11.7v6.9L265.2,701.7z M259.3,710.8v-7.3l-12,3.6
			L259.3,710.8z"/>
		<path class="st2" d="M248,673.3c-2.6,1.3-3.6,2.8-3.6,4.8c0,1.9,1.3,3.3,3.1,3.3c6,0,5.2-14.7,15.5-14.7c6.7,0,10.7,4.4,10.7,11
			c0,6.3-4.4,10.8-9.6,11.9l-3.2-5.2c3.7-1,7-3.1,7-6.8c0-2.7-1.3-4.5-4.5-4.5c-5.7,0-4.6,14.4-15.5,14.4c-5.2,0-9.3-4-9.3-9.4
			c0-4.6,2.3-8.1,6.2-9.9L248,673.3z"/>
	</g>
	<g>
		<path class="st2" d="M303.4,860.2c-2.6,1.3-3.6,2.8-3.6,4.8c0,1.9,1.3,3.3,3.1,3.3c6,0,5.2-14.7,15.5-14.7c6.7,0,10.7,4.4,10.7,11
			c0,6.3-4.4,10.8-9.6,11.9l-3.2-5.2c3.7-1,7-3.1,7-6.8c0-2.7-1.3-4.5-4.5-4.5c-5.7,0-4.6,14.4-15.5,14.4c-5.2,0-9.3-4-9.3-9.4
			c0-4.6,2.3-8.1,6.2-9.9L303.4,860.2z"/>
		<path class="st2" d="M311.5,816.5c12,0,17.6,7.5,17.6,16.2s-5.7,16.2-17.6,16.2c-12,0-17.6-7.5-17.6-16.2S299.5,816.5,311.5,816.5
			z M311.5,842.5c8.2,0,11.7-4.6,11.7-9.7c0-5.2-3.5-9.7-11.7-9.7s-11.7,4.6-11.7,9.7S303.3,842.5,311.5,842.5z"/>
		<path class="st2" d="M305.8,786.4c-3.5,1.3-6,3.7-6,8.5c0,5.3,3.7,9.8,11.7,9.8s11.7-4.5,11.7-9.8c0-4.8-2.5-7.2-6-8.5l1.5-5.8
			c6.6,1.6,10.4,6.8,10.4,14.3c0,8.6-6.1,16.3-17.6,16.3s-17.6-7.7-17.6-16.3c0-7.5,3.8-12.6,10.4-14.3L305.8,786.4z"/>
		<path class="st2" d="M328.7,768.6v6.4h-34.5v-6.4H328.7z"/>
		<path class="st2" d="M320.6,744.1V755l8.1,2.5v6.9l-34.5-11.7v-6.4l34.5-11.7v6.9L320.6,744.1z M314.7,753.2v-7.3l-12,3.6
			L314.7,753.2z"/>
		<path class="st2" d="M294.3,724h28.5v-14.6h5.9v21h-34.5V724H294.3z"/>
		<path class="st2" d="M294.3,682.3h5.9v14.9h7.2v-12h5.9v12h9.5v-15.4h5.9v21.8h-34.5v-21.3H294.3z"/>
		<path class="st2" d="M303.4,661.8c-2.6,1.3-3.6,2.8-3.6,4.8c0,1.9,1.3,3.3,3.1,3.3c6,0,5.2-14.7,15.5-14.7c6.7,0,10.7,4.4,10.7,11
			c0,6.3-4.4,10.8-9.6,11.9l-3.2-5.2c3.7-1,7-3.1,7-6.8c0-2.7-1.3-4.5-4.5-4.5c-5.7,0-4.6,14.4-15.5,14.4c-5.2,0-9.3-4-9.3-9.4
			c0-4.6,2.3-8.1,6.2-9.9L303.4,661.8z"/>
	</g>
	<g>
		<path class="st2" d="M508.6,860v-7.2l21.5-8.1l-21.5-8.1v-7.2h34.5v6.4h-21.3l18.1,6.6v4.6l-18.1,6.6h21.3v6.4H508.6z"/>
		<path class="st2" d="M508.6,800.9h5.9v14.9h7.2v-12h5.9v12h9.5v-15.4h5.9v21.8h-34.5v-21.3H508.6z"/>
		<path class="st2" d="M543.1,794.5h-34.5v-10.8c0-8.1,5.2-16,17.2-16c12.1,0,17.2,7.9,17.2,16v10.8H543.1z M537.2,785.8
			c0-5.5-2.2-11.6-11.3-11.6c-9.2,0-11.3,6.1-11.3,11.6v2.4h22.6V785.8z"/>
		<path class="st2" d="M543.1,755.5v6.4h-34.5v-6.4H543.1z"/>
		<path class="st2" d="M543.1,748.5h-34.5v-10.8c0-8.1,5.2-16,17.2-16c12.1,0,17.2,7.9,17.2,16v10.8H543.1z M537.2,739.7
			c0-5.5-2.2-11.6-11.3-11.6c-9.2,0-11.3,6.1-11.3,11.6v2.4h22.6V739.7z"/>
		<path class="st2" d="M534.9,699.5v10.9l8.1,2.5v6.9l-34.5-11.7v-6.4L543,690v6.9L534.9,699.5z M529,708.6v-7.3l-12,3.6L529,708.6z
			"/>
		<path class="st2" d="M517.8,671.1c-2.6,1.3-3.6,2.8-3.6,4.8c0,1.9,1.3,3.3,3.1,3.3c6,0,5.2-14.7,15.5-14.7c6.7,0,10.7,4.4,10.7,11
			c0,6.3-4.4,10.8-9.6,11.9l-3.2-5.2c3.7-1,7-3.1,7-6.8c0-2.7-1.3-4.5-4.5-4.5c-5.7,0-4.6,14.4-15.5,14.4c-5.2,0-9.3-4-9.3-9.4
			c0-4.6,2.3-8.1,6.2-9.9L517.8,671.1z"/>
	</g>
	<g>
		<g>
			<defs>
				<rect id="SVGID_13_" x="143.7" y="370.9" width="538.1" height="703.4"/>
			</defs>
			<clipPath id="SVGID_14_">
				<use xlink:href="#SVGID_13_"  style="overflow:visible;"/>
			</clipPath>
			<g class="st8">
				<path class="st2" d="M590.3,898v10.9l8.1,2.5v6.9l-34.5-11.7v-6.4l34.5-11.7v6.9L590.3,898z M584.4,907.1v-7.3l-12,3.6
					L584.4,907.1z"/>
				<path class="st2" d="M564,883.9v-7.2l21.5-8.1l-21.5-8.1v-7.2h34.5v6.4h-21.3l18.1,6.6v4.6l-18.1,6.6h21.3v6.4H564z"/>
				<path class="st2" d="M564,833.6c0-5.9,3.1-9.8,9.3-9.8c2.8,0,5.2,1.2,6.3,3.4c1.3-3.2,4-5.2,8.4-5.2c6.7,0,10.4,4.3,10.4,11.4
					v12.8h-34.5v-12.6H564z M569.9,839.8h7.5v-5.9c0-2.6-0.9-4-3.7-4s-3.7,1.5-3.7,4.2v5.7H569.9z M583.3,839.8h9.3v-5.9
					c0-4-1.7-5.6-4.6-5.6s-4.6,1.6-4.6,5.6L583.3,839.8L583.3,839.8z"/>
				<path class="st2" d="M598.4,810v6.4h-34.5V810H598.4z"/>
				<path class="st2" d="M564,781.6h5.9v14.9h7.2v-12h5.9v12h9.5v-15.4h5.9v21.8h-34.5v-21.3H564z"/>
				<path class="st2" d="M564,749.4h34.5v6.7l-22.7,12.6h22.7v6.4H564v-6.7l22.7-12.6H564V749.4z"/>
				<path class="st2" d="M564,743.9v-25.5h5.9v9.5h28.5v6.4h-28.5v9.5L564,743.9L564,743.9z"/>
				<path class="st2" d="M590.3,699.3v10.9l8.1,2.5v6.9l-34.5-11.7v-6.4l34.5-11.7v6.9L590.3,699.3z M584.4,708.4v-7.3l-12,3.6
					L584.4,708.4z"/>
				<path class="st2" d="M564,679.2h28.5v-14.6h5.9v21h-34.5v-6.4H564z"/>
				<path class="st2" d="M564,637.5h5.9v14.9h7.2v-12h5.9v12h9.5V637h5.9v21.8h-34.5v-21.3H564z"/>
				<path class="st2" d="M573.2,617c-2.6,1.3-3.6,2.8-3.6,4.8c0,1.9,1.3,3.3,3.1,3.3c6,0,5.2-14.7,15.5-14.7c6.7,0,10.7,4.4,10.7,11
					c0,6.3-4.4,10.8-9.6,11.9l-3.2-5.2c3.7-1,7-3.1,7-6.8c0-2.7-1.3-4.5-4.5-4.5c-5.7,0-4.6,14.4-15.5,14.4c-5.2,0-9.3-4-9.3-9.4
					c0-4.6,2.3-8.1,6.2-9.9L573.2,617z"/>
			</g>
		</g>
	</g>
	<g>
		<path class="st2" d="M219.2,997.7h25.5v5.9h-9.5v28.5h-6.4v-28.5h-9.5v-5.9H219.2z"/>
		<path class="st2" d="M255.2,1032.1h-6.4v-34.5h6.4V1032.1z"/>
		<path class="st2" d="M284.9,1009.2c-1.3-3.5-3.7-6-8.5-6c-5.3,0-9.8,3.7-9.8,11.7s4.5,11.7,9.8,11.7c4.8,0,7.2-2.5,8.5-6l5.8,1.5
			c-1.6,6.6-6.8,10.4-14.3,10.4c-8.6,0-16.3-6.1-16.3-17.6c0-11.5,7.7-17.6,16.3-17.6c7.5,0,12.6,3.8,14.3,10.4L284.9,1009.2z"/>
		<path class="st2" d="M327.3,997.7v5.9h-14.9v7.2h12v5.9h-12v9.5h15.4v5.9H306v-34.5L327.3,997.7L327.3,997.7z"/>
		<path class="st2" d="M350,1032.1h-6.4v-34.5h6.4V1032.1z"/>
		<path class="st2" d="M381.4,997.7v34.5h-6.7l-12.6-22.7v22.7h-6.4v-34.5h6.7l12.6,22.7v-22.7H381.4z"/>
		<path class="st2" d="M412.8,997.7v34.5h-6.7l-12.6-22.7v22.7h-6.4v-34.5h6.7l12.6,22.7v-22.7H412.8z"/>
		<path class="st2" d="M450.3,1014.9c0,12-7.5,17.6-16.2,17.6s-16.2-5.7-16.2-17.6c0-11.9,7.5-17.6,16.2-17.6
			S450.3,1003,450.3,1014.9z M424.3,1014.9c0,8.2,4.6,11.7,9.7,11.7s9.7-3.5,9.7-11.7s-4.6-11.7-9.7-11.7S424.3,1006.7,424.3,1014.9
			z"/>
		<path class="st2" d="M462.2,1032.1l-11.6-34.5h7.1l7.7,25.5l7.7-25.5h7.1l-11.6,34.5H462.2z"/>
		<path class="st2" d="M495.5,1024h-10.9l-2.5,8.1h-6.9l11.7-34.5h6.4l11.7,34.5h-6.9L495.5,1024z M486.4,1018.1h7.3l-3.6-12
			L486.4,1018.1z"/>
		<path class="st2" d="M529.7,1009.2c-1.3-3.5-3.7-6-8.5-6c-5.3,0-9.8,3.7-9.8,11.7s4.5,11.7,9.8,11.7c4.8,0,7.2-2.5,8.5-6l5.8,1.5
			c-1.6,6.6-6.8,10.4-14.3,10.4c-8.6,0-16.3-6.1-16.3-17.6c0-11.5,7.7-17.6,16.3-17.6c7.5,0,12.6,3.8,14.3,10.4L529.7,1009.2z"/>
		<path class="st2" d="M546,1032.1h-6.4v-34.5h6.4V1032.1z"/>
		<path class="st2" d="M583.5,1014.9c0,12-7.5,17.6-16.2,17.6s-16.2-5.7-16.2-17.6c0-11.9,7.5-17.6,16.2-17.6
			S583.5,1003,583.5,1014.9z M557.5,1014.9c0,8.2,4.6,11.7,9.7,11.7s9.7-3.5,9.7-11.7s-4.6-11.7-9.7-11.7S557.5,1006.7,557.5,1014.9
			z M566.1,987.6h8.3l-6.7,7.3H563L566.1,987.6z"/>
		<path class="st2" d="M613.5,997.7v34.5h-6.7l-12.6-22.7v22.7h-6.4v-34.5h6.7l12.6,22.7v-22.7H613.5z"/>
	</g>
	<g>
		<path class="st2" d="M637.5,1061.3H201.4v-91.5h436.1V1061.3z M207.6,1055.2h423.8V976H207.6V1055.2z"/>
	</g>
	<g>
		<path class="st2" d="M637.5,506.7H201.4V384.2h436.1V506.7z M207.6,500.6h423.8V390.4H207.6V500.6z"/>
	</g>
	<g>
		<path class="st2" d="M374.9,933.7H200.5V584.8h174.4V933.7z M206.6,927.5h162.1V591H206.6V927.5z"/>
	</g>
	<g>
		<path class="st2" d="M635.4,933.7H461V584.8h174.4V933.7z M467.1,927.5h162.1V591H467.1V927.5z"/>
	</g>
	<g>
		<polygon class="st2" points="657.3,569.6 651.2,569.6 651.2,547.9 187.8,547.9 187.8,569.6 181.7,569.6 181.7,541.7 657.3,541.7 
					"/>
	</g>
	<g>
		<rect x="416.4" y="516.9" class="st2" width="6.2" height="27.9"/>
	</g>
</g>
</svg>
