<?xml version="1.0" encoding="utf-8"?>
<!-- Generator: Adobe Illustrator 22.1.0, SVG Export Plug-In . SVG Version: 6.00 Build 0)  -->
<svg version="1.1" id="Capa_1" xmlns="http://www.w3.org/2000/svg" xmlns:xlink="http://www.w3.org/1999/xlink" x="0px" y="0px"
	 viewBox="0 0 2813.9 1445.1" style="enable-background:new 0 0 2813.9 1445.1;" xml:space="preserve">
<style type="text/css">
	.st0{opacity:0;clip-path:url(#SVGID_2_);fill-rule:evenodd;clip-rule:evenodd;fill:#FFFFFF;}
	.st1{fill:#3B30F4;}
	.st2{fill:#6A62F6;}
	.st3{fill:#9C97F9;}
	.st4{fill:none;stroke:#3B31F4;stroke-miterlimit:10;}
	.st5{fill:#FFFFFF;}
	.st6{font-family:'Apercu-Bold';}
	.st7{font-size:32.7203px;}
	.st8{font-family:'Apercu-Light';}
	.st9{font-size:25.7088px;}
	.st10{letter-spacing:-1;}
	.st11{letter-spacing:-2;}
	.st12{fill:#1D1D1B;}
	.st13{font-size:23.3717px;}
	.st14{fill:#E74F52;}
</style>
<g>
	<defs>
		<rect id="SVGID_1_" x="-1560.5" y="-3198.4" width="499" height="373"/>
	</defs>
	<clipPath id="SVGID_2_">
		<use xlink:href="#SVGID_1_"  style="overflow:visible;"/>
	</clipPath>
	<rect x="-1560.5" y="-3198.4" class="st0" width="499" height="373"/>
</g>
<g>
	<rect x="864.9" y="383.9" class="st1" width="348.7" height="88.7"/>
	<rect x="1213.6" y="383.9" class="st2" width="178.9" height="88.7"/>
	<path class="st3" d="M1856.2,425.8h92.8v46.8h-92.8V425.8z M1763.5,425.8h92.8v46.8h-92.8V425.8z M1670.7,425.8h92.8v46.8h-92.8
		V425.8z M1578,425.8h92.8v46.8H1578V425.8z M1485.2,425.8h92.8v46.8h-92.8V425.8z M1392.5,425.8h92.8v46.8h-92.8V425.8z
		 M1763.5,383.9H1949v41.9h-185.5V383.9z M1392.5,383.9h371v41.9h-371V383.9z"/>
	<line class="st4" x1="864.9" y1="526.1" x2="864.9" y2="473.8"/>
	<line class="st4" x1="1213.6" y1="526.1" x2="1213.6" y2="473.8"/>
	<line class="st4" x1="1392.5" y1="526.1" x2="1392.5" y2="473.8"/>
	<line class="st4" x1="1485.2" y1="526.1" x2="1485.2" y2="473.8"/>
	<line class="st4" x1="1578" y1="526.1" x2="1578" y2="473.8"/>
	<line class="st4" x1="1670.7" y1="526.1" x2="1670.7" y2="473.8"/>
	<line class="st4" x1="1763.5" y1="526.1" x2="1763.5" y2="473.8"/>
	<line class="st4" x1="1856.2" y1="526.1" x2="1856.2" y2="473.8"/>
	<line class="st4" x1="1949" y1="526.1" x2="1949" y2="473.8"/>
	<line class="st4" x1="863.7" y1="527.2" x2="1213.6" y2="527.2"/>
	<line class="st4" x1="864.9" y1="580.7" x2="864.9" y2="528.4"/>
	<line class="st4" x1="1213.6" y1="527.2" x2="1392.5" y2="527.2"/>
	<line class="st4" x1="1213.6" y1="580.7" x2="1213.6" y2="528.4"/>
	<line class="st4" x1="1392.5" y1="527.2" x2="1485.2" y2="527.2"/>
	<line class="st4" x1="1392.5" y1="580.7" x2="1392.5" y2="528.4"/>
	<line class="st4" x1="1485.2" y1="527.2" x2="1578" y2="527.2"/>
	<line class="st4" x1="1485.2" y1="580.7" x2="1485.2" y2="528.4"/>
	<line class="st4" x1="1578" y1="527.2" x2="1670.7" y2="527.2"/>
	<line class="st4" x1="1578" y1="580.7" x2="1578" y2="528.4"/>
	<line class="st4" x1="1670.7" y1="527.2" x2="1763.5" y2="527.2"/>
	<line class="st4" x1="1670.7" y1="580.7" x2="1670.7" y2="528.4"/>
	<line class="st4" x1="1763.5" y1="527.2" x2="1856.2" y2="527.2"/>
	<line class="st4" x1="1763.5" y1="580.7" x2="1763.5" y2="528.4"/>
	<line class="st4" x1="1856.2" y1="527.2" x2="1950.1" y2="527.2"/>
	<line class="st4" x1="1856.2" y1="580.7" x2="1856.2" y2="528.4"/>
	<line class="st4" x1="1949" y1="580.7" x2="1949" y2="528.4"/>
	<line class="st4" x1="863.7" y1="581.9" x2="1213.6" y2="581.9"/>
	<line class="st4" x1="864.9" y1="635.3" x2="864.9" y2="583"/>
	<line class="st4" x1="1213.6" y1="581.9" x2="1392.5" y2="581.9"/>
	<line class="st4" x1="1213.6" y1="635.3" x2="1213.6" y2="583"/>
	<line class="st4" x1="1392.5" y1="581.9" x2="1485.2" y2="581.9"/>
	<line class="st4" x1="1392.5" y1="635.3" x2="1392.5" y2="583"/>
	<line class="st4" x1="1485.2" y1="581.9" x2="1578" y2="581.9"/>
	<line class="st4" x1="1485.2" y1="635.3" x2="1485.2" y2="583"/>
	<line class="st4" x1="1578" y1="581.9" x2="1670.7" y2="581.9"/>
	<line class="st4" x1="1578" y1="635.3" x2="1578" y2="583"/>
	<line class="st4" x1="1670.7" y1="581.9" x2="1763.5" y2="581.9"/>
	<line class="st4" x1="1670.7" y1="635.3" x2="1670.7" y2="583"/>
	<line class="st4" x1="1763.5" y1="581.9" x2="1856.2" y2="581.9"/>
	<line class="st4" x1="1763.5" y1="635.3" x2="1763.5" y2="583"/>
	<line class="st4" x1="1856.2" y1="581.9" x2="1950.1" y2="581.9"/>
	<line class="st4" x1="1856.2" y1="635.3" x2="1856.2" y2="583"/>
	<line class="st4" x1="1949" y1="635.3" x2="1949" y2="583"/>
	<line class="st4" x1="863.7" y1="636.5" x2="1213.6" y2="636.5"/>
	<line class="st4" x1="864.9" y1="689.9" x2="864.9" y2="637.7"/>
	<line class="st4" x1="1213.6" y1="636.5" x2="1392.5" y2="636.5"/>
	<line class="st4" x1="1213.6" y1="689.9" x2="1213.6" y2="637.7"/>
	<line class="st4" x1="1392.5" y1="636.5" x2="1485.2" y2="636.5"/>
	<line class="st4" x1="1392.5" y1="689.9" x2="1392.5" y2="637.7"/>
	<line class="st4" x1="1485.2" y1="636.5" x2="1578" y2="636.5"/>
	<line class="st4" x1="1485.2" y1="689.9" x2="1485.2" y2="637.7"/>
	<line class="st4" x1="1578" y1="636.5" x2="1670.7" y2="636.5"/>
	<line class="st4" x1="1578" y1="689.9" x2="1578" y2="637.7"/>
	<line class="st4" x1="1670.7" y1="636.5" x2="1763.5" y2="636.5"/>
	<line class="st4" x1="1670.7" y1="689.9" x2="1670.7" y2="637.7"/>
	<line class="st4" x1="1763.5" y1="636.5" x2="1856.2" y2="636.5"/>
	<line class="st4" x1="1763.5" y1="689.9" x2="1763.5" y2="637.7"/>
	<line class="st4" x1="1856.2" y1="636.5" x2="1950.1" y2="636.5"/>
	<line class="st4" x1="1856.2" y1="689.9" x2="1856.2" y2="637.7"/>
	<line class="st4" x1="1949" y1="689.9" x2="1949" y2="637.7"/>
	<line class="st4" x1="863.7" y1="691.1" x2="1213.6" y2="691.1"/>
	<line class="st4" x1="864.9" y1="744.6" x2="864.9" y2="692.3"/>
	<line class="st4" x1="1213.6" y1="691.1" x2="1392.5" y2="691.1"/>
	<line class="st4" x1="1213.6" y1="744.6" x2="1213.6" y2="692.3"/>
	<line class="st4" x1="1392.5" y1="691.1" x2="1485.2" y2="691.1"/>
	<line class="st4" x1="1392.5" y1="744.6" x2="1392.5" y2="692.3"/>
	<line class="st4" x1="1485.2" y1="691.1" x2="1578" y2="691.1"/>
	<line class="st4" x1="1485.2" y1="744.6" x2="1485.2" y2="692.3"/>
	<line class="st4" x1="1578" y1="691.1" x2="1670.7" y2="691.1"/>
	<line class="st4" x1="1578" y1="744.6" x2="1578" y2="692.3"/>
	<line class="st4" x1="1670.7" y1="691.1" x2="1763.5" y2="691.1"/>
	<line class="st4" x1="1670.7" y1="744.6" x2="1670.7" y2="692.3"/>
	<line class="st4" x1="1763.5" y1="691.1" x2="1856.2" y2="691.1"/>
	<line class="st4" x1="1763.5" y1="744.6" x2="1763.5" y2="692.3"/>
	<line class="st4" x1="1856.2" y1="691.1" x2="1950.1" y2="691.1"/>
	<line class="st4" x1="1856.2" y1="744.6" x2="1856.2" y2="692.3"/>
	<line class="st4" x1="1949" y1="744.6" x2="1949" y2="692.3"/>
	<line class="st4" x1="863.7" y1="745.7" x2="1213.6" y2="745.7"/>
	<line class="st4" x1="864.9" y1="799.2" x2="864.9" y2="746.9"/>
	<line class="st4" x1="1213.6" y1="745.7" x2="1392.5" y2="745.7"/>
	<line class="st4" x1="1213.6" y1="799.2" x2="1213.6" y2="746.9"/>
	<line class="st4" x1="1392.5" y1="745.7" x2="1485.2" y2="745.7"/>
	<line class="st4" x1="1392.5" y1="799.2" x2="1392.5" y2="746.9"/>
	<line class="st4" x1="1485.2" y1="745.7" x2="1578" y2="745.7"/>
	<line class="st4" x1="1485.2" y1="799.2" x2="1485.2" y2="746.9"/>
	<line class="st4" x1="1578" y1="745.7" x2="1670.7" y2="745.7"/>
	<line class="st4" x1="1578" y1="799.2" x2="1578" y2="746.9"/>
	<line class="st4" x1="1670.7" y1="745.7" x2="1763.5" y2="745.7"/>
	<line class="st4" x1="1670.7" y1="799.2" x2="1670.7" y2="746.9"/>
	<line class="st4" x1="1763.5" y1="745.7" x2="1856.2" y2="745.7"/>
	<line class="st4" x1="1763.5" y1="799.2" x2="1763.5" y2="746.9"/>
	<line class="st4" x1="1856.2" y1="745.7" x2="1950.1" y2="745.7"/>
	<line class="st4" x1="1856.2" y1="799.2" x2="1856.2" y2="746.9"/>
	<line class="st4" x1="1949" y1="799.2" x2="1949" y2="746.9"/>
	<line class="st4" x1="863.7" y1="800.4" x2="1213.6" y2="800.4"/>
	<line class="st4" x1="864.9" y1="875" x2="864.9" y2="801.5"/>
	<line class="st4" x1="1213.6" y1="800.4" x2="1392.5" y2="800.4"/>
	<line class="st4" x1="1213.6" y1="875" x2="1213.6" y2="801.5"/>
	<line class="st4" x1="1392.5" y1="800.4" x2="1485.2" y2="800.4"/>
	<line class="st4" x1="1392.5" y1="875" x2="1392.5" y2="801.5"/>
	<line class="st4" x1="1485.2" y1="800.4" x2="1578" y2="800.4"/>
	<line class="st4" x1="1485.2" y1="875" x2="1485.2" y2="801.5"/>
	<line class="st4" x1="1578" y1="800.4" x2="1670.7" y2="800.4"/>
	<line class="st4" x1="1578" y1="875" x2="1578" y2="801.5"/>
	<line class="st4" x1="1670.7" y1="800.4" x2="1763.5" y2="800.4"/>
	<line class="st4" x1="1670.7" y1="875" x2="1670.7" y2="801.5"/>
	<line class="st4" x1="1763.5" y1="800.4" x2="1856.2" y2="800.4"/>
	<line class="st4" x1="1763.5" y1="875" x2="1763.5" y2="801.5"/>
	<line class="st4" x1="1856.2" y1="800.4" x2="1950.1" y2="800.4"/>
	<line class="st4" x1="1856.2" y1="875" x2="1856.2" y2="801.5"/>
	<line class="st4" x1="1949" y1="875" x2="1949" y2="801.5"/>
	<line class="st4" x1="863.7" y1="876.1" x2="1213.6" y2="876.1"/>
	<line class="st4" x1="864.9" y1="950.7" x2="864.9" y2="877.3"/>
	<line class="st4" x1="1213.6" y1="876.1" x2="1392.5" y2="876.1"/>
	<line class="st4" x1="1213.6" y1="950.7" x2="1213.6" y2="877.3"/>
	<line class="st4" x1="1392.5" y1="876.1" x2="1485.2" y2="876.1"/>
	<line class="st4" x1="1392.5" y1="950.7" x2="1392.5" y2="877.3"/>
	<line class="st4" x1="1485.2" y1="876.1" x2="1578" y2="876.1"/>
	<line class="st4" x1="1485.2" y1="950.7" x2="1485.2" y2="877.3"/>
	<line class="st4" x1="1578" y1="876.1" x2="1670.7" y2="876.1"/>
	<line class="st4" x1="1578" y1="950.7" x2="1578" y2="877.3"/>
	<line class="st4" x1="1670.7" y1="876.1" x2="1763.5" y2="876.1"/>
	<line class="st4" x1="1670.7" y1="950.7" x2="1670.7" y2="877.3"/>
	<line class="st4" x1="1763.5" y1="876.1" x2="1856.2" y2="876.1"/>
	<line class="st4" x1="1763.5" y1="950.7" x2="1763.5" y2="877.3"/>
	<line class="st4" x1="1856.2" y1="876.1" x2="1950.1" y2="876.1"/>
	<line class="st4" x1="1856.2" y1="950.7" x2="1856.2" y2="877.3"/>
	<line class="st4" x1="1949" y1="950.7" x2="1949" y2="877.3"/>
	<line class="st4" x1="863.7" y1="951.9" x2="1213.6" y2="951.9"/>
	<line class="st4" x1="864.9" y1="1005.4" x2="864.9" y2="953.1"/>
	<line class="st4" x1="1213.6" y1="951.9" x2="1392.5" y2="951.9"/>
	<line class="st4" x1="1213.6" y1="1005.4" x2="1213.6" y2="953.1"/>
	<line class="st4" x1="1392.5" y1="951.9" x2="1485.2" y2="951.9"/>
	<line class="st4" x1="1392.5" y1="1005.4" x2="1392.5" y2="953.1"/>
	<line class="st4" x1="1485.2" y1="951.9" x2="1578" y2="951.9"/>
	<line class="st4" x1="1485.2" y1="1005.4" x2="1485.2" y2="953.1"/>
	<line class="st4" x1="1578" y1="951.9" x2="1670.7" y2="951.9"/>
	<line class="st4" x1="1578" y1="1005.4" x2="1578" y2="953.1"/>
	<line class="st4" x1="1670.7" y1="951.9" x2="1763.5" y2="951.9"/>
	<line class="st4" x1="1670.7" y1="1005.4" x2="1670.7" y2="953.1"/>
	<line class="st4" x1="1763.5" y1="951.9" x2="1856.2" y2="951.9"/>
	<line class="st4" x1="1763.5" y1="1005.4" x2="1763.5" y2="953.1"/>
	<line class="st4" x1="1856.2" y1="951.9" x2="1950.1" y2="951.9"/>
	<line class="st4" x1="1856.2" y1="1005.4" x2="1856.2" y2="953.1"/>
	<line class="st4" x1="1949" y1="1005.4" x2="1949" y2="953.1"/>
	<line class="st4" x1="863.7" y1="1006.5" x2="1213.6" y2="1006.5"/>
	<line class="st4" x1="864.9" y1="1060" x2="864.9" y2="1007.7"/>
	<line class="st4" x1="1213.6" y1="1006.5" x2="1392.5" y2="1006.5"/>
	<line class="st4" x1="1213.6" y1="1060" x2="1213.6" y2="1007.7"/>
	<line class="st4" x1="1392.5" y1="1006.5" x2="1485.2" y2="1006.5"/>
	<line class="st4" x1="1392.5" y1="1060" x2="1392.5" y2="1007.7"/>
	<line class="st4" x1="1485.2" y1="1006.5" x2="1578" y2="1006.5"/>
	<line class="st4" x1="1485.2" y1="1060" x2="1485.2" y2="1007.7"/>
	<line class="st4" x1="1578" y1="1006.5" x2="1670.7" y2="1006.5"/>
	<line class="st4" x1="1578" y1="1060" x2="1578" y2="1007.7"/>
	<line class="st4" x1="1670.7" y1="1006.5" x2="1763.5" y2="1006.5"/>
	<line class="st4" x1="1670.7" y1="1060" x2="1670.7" y2="1007.7"/>
	<line class="st4" x1="1763.5" y1="1006.5" x2="1856.2" y2="1006.5"/>
	<line class="st4" x1="1763.5" y1="1060" x2="1763.5" y2="1007.7"/>
	<line class="st4" x1="1856.2" y1="1006.5" x2="1950.1" y2="1006.5"/>
	<line class="st4" x1="1856.2" y1="1060" x2="1856.2" y2="1007.7"/>
	<line class="st4" x1="1949" y1="1060" x2="1949" y2="1007.7"/>
	<line class="st4" x1="863.7" y1="1061.2" x2="1213.6" y2="1061.2"/>
	<line class="st4" x1="1213.6" y1="1061.2" x2="1392.5" y2="1061.2"/>
	<line class="st4" x1="1392.5" y1="1061.2" x2="1485.2" y2="1061.2"/>
	<line class="st4" x1="1485.2" y1="1061.2" x2="1578" y2="1061.2"/>
	<line class="st4" x1="1578" y1="1061.2" x2="1670.7" y2="1061.2"/>
	<line class="st4" x1="1670.7" y1="1061.2" x2="1763.5" y2="1061.2"/>
	<line class="st4" x1="1763.5" y1="1061.2" x2="1856.2" y2="1061.2"/>
	<line class="st4" x1="1856.2" y1="1061.2" x2="1950.1" y2="1061.2"/>
	<line class="st4" x1="863.7" y1="383.9" x2="1213.6" y2="383.9"/>
	<line class="st4" x1="864.9" y1="425.8" x2="864.9" y2="385.1"/>
	<line class="st4" x1="1213.6" y1="383.9" x2="1392.5" y2="383.9"/>
	<line class="st4" x1="1213.6" y1="425.8" x2="1213.6" y2="385.1"/>
	<line class="st4" x1="864.9" y1="471.4" x2="864.9" y2="425.8"/>
	<line class="st4" x1="1213.6" y1="471.4" x2="1213.6" y2="425.8"/>
	<line class="st4" x1="863.7" y1="472.6" x2="1213.6" y2="472.6"/>
	<line class="st4" x1="1213.6" y1="472.6" x2="1392.5" y2="472.6"/>
	<line class="st4" x1="1392.5" y1="383.9" x2="1485.2" y2="383.9"/>
	<line class="st4" x1="1392.5" y1="424.6" x2="1392.5" y2="385.1"/>
	<line class="st4" x1="1485.2" y1="383.9" x2="1578" y2="383.9"/>
	<line class="st4" x1="1578" y1="383.9" x2="1670.7" y2="383.9"/>
	<line class="st4" x1="1670.7" y1="383.9" x2="1763.5" y2="383.9"/>
	<line class="st4" x1="1763.5" y1="383.9" x2="1856.2" y2="383.9"/>
	<line class="st4" x1="1763.5" y1="424.6" x2="1763.5" y2="385.1"/>
	<line class="st4" x1="1856.2" y1="383.9" x2="1950.1" y2="383.9"/>
	<line class="st4" x1="1949" y1="424.6" x2="1949" y2="385.1"/>
	<line class="st4" x1="1391.3" y1="425.8" x2="1485.2" y2="425.8"/>
	<line class="st4" x1="1392.5" y1="471.4" x2="1392.5" y2="426.9"/>
	<line class="st4" x1="1485.2" y1="425.8" x2="1578" y2="425.8"/>
	<line class="st4" x1="1485.2" y1="471.4" x2="1485.2" y2="426.9"/>
	<line class="st4" x1="1578" y1="425.8" x2="1670.7" y2="425.8"/>
	<line class="st4" x1="1578" y1="471.4" x2="1578" y2="426.9"/>
	<line class="st4" x1="1670.7" y1="425.8" x2="1763.5" y2="425.8"/>
	<line class="st4" x1="1670.7" y1="471.4" x2="1670.7" y2="426.9"/>
	<line class="st4" x1="1763.5" y1="425.8" x2="1856.2" y2="425.8"/>
	<line class="st4" x1="1763.5" y1="471.4" x2="1763.5" y2="426.9"/>
	<line class="st4" x1="1856.2" y1="425.8" x2="1950.1" y2="425.8"/>
	<line class="st4" x1="1856.2" y1="471.4" x2="1856.2" y2="426.9"/>
	<line class="st4" x1="1949" y1="471.4" x2="1949" y2="426.9"/>
	<line class="st4" x1="1392.5" y1="472.6" x2="1485.2" y2="472.6"/>
	<line class="st4" x1="1485.2" y1="472.6" x2="1578" y2="472.6"/>
	<line class="st4" x1="1578" y1="472.6" x2="1670.7" y2="472.6"/>
	<line class="st4" x1="1670.7" y1="472.6" x2="1763.5" y2="472.6"/>
	<line class="st4" x1="1763.5" y1="472.6" x2="1856.2" y2="472.6"/>
	<line class="st4" x1="1856.2" y1="472.6" x2="1950.1" y2="472.6"/>
	<text transform="matrix(1 0 0 1 974.3001 439.8259)"><tspan x="0" y="0" class="st5 st6 st7">P</tspan><tspan x="19.2" y="0" class="st5 st6 st7">r</tspan><tspan x="33.1" y="0" class="st5 st6 st7">o</tspan><tspan x="53" y="0" class="st5 st6 st7">j</tspan><tspan x="61.5" y="0" class="st5 st6 st7">ec</tspan><tspan x="99" y="0" class="st5 st6 st7">t</tspan><tspan x="111.7" y="0" class="st5 st6 st7">e</tspan></text>
	<text transform="matrix(1 0 0 1 1222.9379 437.3455)"><tspan x="0" y="0" class="st5 st8 st9">P</tspan><tspan x="14.9" y="0" class="st5 st8 st9">r</tspan><tspan x="25.3" y="0" class="st5 st8 st9">e</tspan><tspan x="39.7" y="0" class="st5 st8 st9">s</tspan><tspan x="50.9" y="0" class="st5 st8 st9">s</tspan><tspan x="62.1" y="0" class="st5 st8 st9">u</tspan><tspan x="76.7" y="0" class="st5 st8 st9">p</tspan><tspan x="92.7" y="0" class="st5 st8 st9">o</tspan><tspan x="107.9" y="0" class="st5 st8 st9">st</tspan></text>
	<text transform="matrix(1 0 0 1 1542.2689 416.408)"><tspan x="0" y="0" class="st5 st6 st7">2</tspan><tspan x="18.7" y="0" class="st5 st6 st7 st10">0</tspan><tspan x="38.6" y="0" class="st5 st6 st7">1</tspan><tspan x="52" y="0" class="st5 st6 st7">8</tspan></text>
	<text transform="matrix(1 0 0 1 1820.7181 416.408)"><tspan x="0" y="0" class="st5 st6 st7">2</tspan><tspan x="18.7" y="0" class="st5 st6 st7 st10">0</tspan><tspan x="38.6" y="0" class="st5 st6 st7">1</tspan><tspan x="51.7" y="0" class="st5 st6 st7">9</tspan></text>
	<text transform="matrix(1 0 0 1 1422.8392 460.7439)"><tspan x="0" y="0" class="st5 st6 st7">T</tspan><tspan x="18.5" y="0" class="st5 st6 st7">1</tspan></text>
	<text transform="matrix(1 0 0 1 1513.3763 460.7439)" class="st5 st6 st7">T2</text>
	<text transform="matrix(1 0 0 1 1605.976 460.7439)" class="st5 st6 st7">T3</text>
	<text transform="matrix(1 0 0 1 1699.6205 460.7439)"><tspan x="0" y="0" class="st5 st6 st7 st11">T</tspan><tspan x="14.9" y="0" class="st5 st6 st7">4</tspan></text>
	<text transform="matrix(1 0 0 1 1793.8549 460.7439)"><tspan x="0" y="0" class="st5 st6 st7">T</tspan><tspan x="18.5" y="0" class="st5 st6 st7">1</tspan></text>
	<text transform="matrix(1 0 0 1 1884.3939 460.7439)" class="st5 st6 st7">T2</text>
	<text transform="matrix(1 0 0 1 878.1605 508.1814)"><tspan x="0" y="0" class="st12 st8 st13">O</tspan><tspan x="17.4" y="0" class="st12 st8 st13">fi</tspan><tspan x="30.1" y="0" class="st12 st8 st13">c</tspan><tspan x="42.3" y="0" class="st12 st8 st13">i</tspan><tspan x="48.6" y="0" class="st12 st8 st13">n</tspan><tspan x="62.3" y="0" class="st12 st8 st13">a </tspan><tspan x="81.2" y="0" class="st12 st8 st13">M</tspan><tspan x="99.5" y="0" class="st12 st8 st13">u</tspan><tspan x="113" y="0" class="st12 st8 st13">n</tspan><tspan x="125.9" y="0" class="st12 st8 st13">i</tspan><tspan x="132.6" y="0" class="st12 st8 st13">c</tspan><tspan x="144.8" y="0" class="st12 st8 st13">i</tspan><tspan x="150.7" y="0" class="st12 st8 st13">p</tspan><tspan x="165.2" y="0" class="st12 st8 st13">a</tspan><tspan x="177.2" y="0" class="st12 st8 st13">l </tspan><tspan x="190" y="0" class="st12 st8 st13">d</tspan><tspan x="203.9" y="0" class="st12 st8 st13">e </tspan><tspan x="223.9" y="0" class="st12 st8 st13">D</tspan><tspan x="239.9" y="0" class="st12 st8 st13">a</tspan><tspan x="252.4" y="0" class="st12 st8 st13">d</tspan><tspan x="266.4" y="0" class="st12 st8 st13">e</tspan><tspan x="279.8" y="0" class="st12 st8 st13">s</tspan></text>
	<text transform="matrix(1 0 0 1 1270.9916 508.1814)"><tspan x="0" y="0" class="st12 st6 st13">6</tspan><tspan x="13.9" y="0" class="st12 st6 st13">8</tspan><tspan x="27.6" y="0" class="st12 st6 st13">0</tspan><tspan x="42.9" y="0" class="st12 st6 st13"> </tspan><tspan x="49.1" y="0" class="st12 st6 st13">K</tspan></text>
	<text transform="matrix(1 0 0 1 878.1605 562.7986)"><tspan x="0" y="0" class="st12 st8 st13">S</tspan><tspan x="12.3" y="0" class="st12 st8 st13">e</tspan><tspan x="25.6" y="0" class="st12 st8 st13">r</tspan><tspan x="35.8" y="0" class="st12 st8 st13">v</tspan><tspan x="46.7" y="0" class="st12 st8 st13">e</tspan><tspan x="60.2" y="0" class="st12 st8 st13">i</tspan><tspan x="66.4" y="0" class="st12 st8 st13">s </tspan><tspan x="84" y="0" class="st12 st8 st13">C</tspan><tspan x="100" y="0" class="st12 st8 st13">i</tspan><tspan x="106.7" y="0" class="st12 st8 st13">t</tspan><tspan x="116.2" y="0" class="st12 st8 st13">y </tspan><tspan x="133.8" y="0" class="st12 st8 st13">O</tspan><tspan x="151.3" y="0" class="st12 st8 st13">S</tspan></text>
	<text transform="matrix(1 0 0 1 1265.2181 562.7986)"><tspan x="0" y="0" class="st12 st6 st13">1</tspan><tspan x="9.6" y="0" class="st12 st6 st13">.</tspan><tspan x="17.6" y="0" class="st12 st6 st13">1</tspan><tspan x="27.3" y="0" class="st12 st6 st13">3</tspan><tspan x="40.5" y="0" class="st12 st6 st13">2</tspan><tspan x="54.4" y="0" class="st12 st6 st13"> </tspan><tspan x="60.6" y="0" class="st12 st6 st13">K</tspan></text>
	<text transform="matrix(1 0 0 1 878.1605 617.4177)"><tspan x="0" y="0" class="st12 st8 st13">B</tspan><tspan x="13.9" y="0" class="st12 st8 st13">C</tspan><tspan x="29.3" y="0" class="st12 st8 st13">N</tspan><tspan x="45.2" y="0" class="st12 st8 st13"> </tspan><tspan x="50.7" y="0" class="st12 st8 st13">O</tspan><tspan x="66.9" y="0" class="st12 st8 st13">p</tspan><tspan x="80.8" y="0" class="st12 st8 st13">e</tspan><tspan x="93.2" y="0" class="st12 st8 st13">n </tspan><tspan x="111.9" y="0" class="st12 st8 st13">D</tspan><tspan x="127" y="0" class="st12 st8 st13">a</tspan><tspan x="138.3" y="0" class="st12 st8 st13">t</tspan><tspan x="146.5" y="0" class="st12 st8 st13">a</tspan></text>
	<text transform="matrix(1 0 0 1 1278.4701 617.4177)"><tspan x="0" y="0" class="st12 st6 st13">5</tspan><tspan x="13.7" y="0" class="st12 st6 st13">6</tspan><tspan x="27.9" y="0" class="st12 st6 st13"> </tspan><tspan x="34.1" y="0" class="st12 st6 st13">K</tspan></text>
	<text transform="matrix(1 0 0 1 878.1605 672.0388)"><tspan x="0" y="0" class="st12 st8 st13">D</tspan><tspan x="15.4" y="0" class="st12 st8 st13">E</tspan><tspan x="28.7" y="0" class="st12 st8 st13">C</tspan><tspan x="45.1" y="0" class="st12 st8 st13">O</tspan><tspan x="62.2" y="0" class="st12 st8 st13">D</tspan><tspan x="77.6" y="0" class="st12 st8 st13">E</tspan></text>
	<text transform="matrix(1 0 0 1 1271.1781 672.0388)"><tspan x="0" y="0" class="st12 st6 st13">5</tspan><tspan x="13.8" y="0" class="st12 st6 st13">45 </tspan><tspan x="48.7" y="0" class="st12 st6 st13">K</tspan></text>
	<text transform="matrix(1 0 0 1 878.1605 726.658)"><tspan x="0" y="0" class="st12 st8 st13">D</tspan><tspan x="16" y="0" class="st12 st8 st13">a</tspan><tspan x="28.3" y="0" class="st12 st8 st13">t</tspan><tspan x="37.4" y="0" class="st12 st8 st13">a </tspan><tspan x="56.3" y="0" class="st12 st8 st13">C</tspan><tspan x="72.2" y="0" class="st12 st8 st13">i</tspan><tspan x="78.9" y="0" class="st12 st8 st13">t</tspan><tspan x="88.4" y="0" class="st12 st8 st13">y </tspan><tspan x="106.1" y="0" class="st12 st8 st13">C</tspan><tspan x="122.2" y="0" class="st12 st8 st13">h</tspan><tspan x="136.1" y="0" class="st12 st8 st13">a</tspan><tspan x="148.1" y="0" class="st12 st8 st13">l</tspan><tspan x="153.5" y="0" class="st12 st8 st13">l</tspan><tspan x="159.4" y="0" class="st12 st8 st13">e</tspan><tspan x="172.7" y="0" class="st12 st8 st13">n</tspan><tspan x="186.4" y="0" class="st12 st8 st13">g</tspan><tspan x="198.4" y="0" class="st12 st8 st13">e</tspan></text>
	<text transform="matrix(1 0 0 1 1272.9779 726.658)"><tspan x="0" y="0" class="st12 st6 st13">1</tspan><tspan x="9.9" y="0" class="st12 st6 st13">8</tspan><tspan x="23.6" y="0" class="st12 st6 st13">0</tspan><tspan x="38.9" y="0" class="st12 st6 st13"> </tspan><tspan x="45.1" y="0" class="st12 st6 st13">K</tspan></text>
	<text transform="matrix(1 0 0 1 878.1605 782.156)"><tspan x="0" y="0" class="st12 st8 st9">B</tspan><tspan x="16.3" y="0" class="st12 st8 st9">C</tspan><tspan x="34.2" y="0" class="st12 st8 st9">N </tspan><tspan x="59.8" y="0" class="st12 st8 st9">D</tspan><tspan x="77.4" y="0" class="st12 st8 st9">a</tspan><tspan x="90.9" y="0" class="st12 st8 st9">t</tspan><tspan x="100.9" y="0" class="st12 st8 st9">a E</tspan><tspan x="136.9" y="0" class="st12 st8 st9">x</tspan><tspan x="148.7" y="0" class="st12 st8 st9">c</tspan><tspan x="162.5" y="0" class="st12 st8 st9">h</tspan><tspan x="177.8" y="0" class="st12 st8 st9">a</tspan><tspan x="190.9" y="0" class="st12 st8 st9">n</tspan><tspan x="206" y="0" class="st12 st8 st9">g</tspan><tspan x="219.2" y="0" class="st12 st8 st9">e</tspan></text>
	<text transform="matrix(1 0 0 1 1272.9574 781.3298)"><tspan x="0" y="0" class="st12 st6 st13">1</tspan><tspan x="9.7" y="0" class="st12 st6 st13">3</tspan><tspan x="23.7" y="0" class="st12 st6 st13">0</tspan><tspan x="38.9" y="0" class="st12 st6 st13"> </tspan><tspan x="45.1" y="0" class="st12 st6 st13">K</tspan></text>
	<text transform="matrix(1 0 0 1 878.1634 830.1755)"><tspan x="0" y="0" class="st12 st8 st13">Q</tspan><tspan x="17" y="0" class="st12 st8 st13">u</tspan><tspan x="30.2" y="0" class="st12 st8 st13">a</tspan><tspan x="42.3" y="0" class="st12 st8 st13">d</tspan><tspan x="55.3" y="0" class="st12 st8 st13">r</tspan><tspan x="64.5" y="0" class="st12 st8 st13">e</tspan><tspan x="77.5" y="0" class="st12 st8 st13"> </tspan><tspan x="83.5" y="0" class="st12 st8 st13">d</tspan><tspan x="97" y="0" class="st12 st8 st13">e</tspan><tspan x="110" y="0" class="st12 st8 st13"> </tspan><tspan x="116" y="0" class="st12 st8 st13">c</tspan><tspan x="128.4" y="0" class="st12 st8 st13">o</tspan><tspan x="141.9" y="0" class="st12 st8 st13">m</tspan><tspan x="161.8" y="0" class="st12 st8 st13">a</tspan><tspan x="173.2" y="0" class="st12 st8 st13">n</tspan><tspan x="186.6" y="0" class="st12 st8 st13">da</tspan><tspan x="212" y="0" class="st12 st8 st13">m</tspan><tspan x="231.9" y="0" class="st12 st8 st13">e</tspan><tspan x="244.7" y="0" class="st12 st8 st13">n</tspan><tspan x="257.8" y="0" class="st12 st8 st13">t </tspan><tspan x="272.6" y="0" class="st12 st8 st13">p</tspan><tspan x="286.9" y="0" class="st12 st8 st13">e</tspan><tspan x="299.8" y="0" class="st12 st8 st13">r </tspan></text>
	<text transform="matrix(1 0 0 1 878.1634 862.8962)"><tspan x="0" y="0" class="st12 st8 st13">a</tspan><tspan x="11.9" y="0" class="st12 st8 st13"> </tspan><tspan x="17.9" y="0" class="st12 st8 st13">l</tspan><tspan x="23.3" y="0" class="st12 st8 st13">a </tspan><tspan x="41.2" y="0" class="st12 st8 st13">g</tspan><tspan x="52.7" y="0" class="st12 st8 st13">e</tspan><tspan x="65.5" y="0" class="st12 st8 st13">r</tspan><tspan x="74.7" y="0" class="st12 st8 st13">è</tspan><tspan x="87.5" y="0" class="st12 st8 st13">n</tspan><tspan x="100.9" y="0" class="st12 st8 st13">c</tspan><tspan x="112.7" y="0" class="st12 st8 st13">i</tspan><tspan x="118.7" y="0" class="st12 st8 st13">a</tspan><tspan x="130.6" y="0" class="st12 st8 st13"> </tspan><tspan x="136.6" y="0" class="st12 st8 st13">m</tspan><tspan x="156" y="0" class="st12 st8 st13">u</tspan><tspan x="169" y="0" class="st12 st8 st13 st10">n</tspan><tspan x="181.5" y="0" class="st12 st8 st13">i</tspan><tspan x="187.8" y="0" class="st12 st8 st13">c</tspan><tspan x="199.5" y="0" class="st12 st8 st13 st10">i</tspan><tspan x="204.9" y="0" class="st12 st8 st13">p</tspan><tspan x="218.9" y="0" class="st12 st8 st13">a</tspan><tspan x="230.5" y="0" class="st12 st8 st13">l</tspan></text>
	<text transform="matrix(1 0 0 1 1271.6488 846.5369)"><tspan x="0" y="0" class="st12 st6 st13">2</tspan><tspan x="13.6" y="0" class="st12 st6 st13">3</tspan><tspan x="27.6" y="0" class="st12 st6 st13">5</tspan><tspan x="41.6" y="0" class="st12 st6 st13"> </tspan><tspan x="47.7" y="0" class="st12 st6 st13">K</tspan></text>
	<text transform="matrix(1 0 0 1 878.1634 922.3064)"><tspan x="0" y="0" class="st12 st8 st13">M</tspan><tspan x="18.5" y="0" class="st12 st8 st13">o</tspan><tspan x="32.5" y="0" class="st12 st8 st13">n</tspan><tspan x="45.5" y="0" class="st12 st8 st13">it</tspan><tspan x="61" y="0" class="st12 st8 st13">o</tspan><tspan x="74.7" y="0" class="st12 st8 st13">ra</tspan><tspan x="96.7" y="0" class="st12 st8 st13">t</tspan><tspan x="106" y="0" class="st12 st8 st13">g</tspan><tspan x="118" y="0" class="st12 st8 st13">e </tspan><tspan x="137.9" y="0" class="st12 st8 st13">d</tspan><tspan x="151.9" y="0" class="st12 st8 st13">e </tspan><tspan x="171.8" y="0" class="st12 st8 st13">g</tspan><tspan x="183.8" y="0" class="st12 st8 st13">e</tspan><tspan x="197.1" y="0" class="st12 st8 st13">n</tspan><tspan x="210.6" y="0" class="st12 st8 st13">t</tspan><tspan x="219.5" y="0" class="st12 st8 st13">r</tspan><tspan x="228.8" y="0" class="st12 st8 st13">i</tspan><tspan x="235" y="0" class="st12 st8 st13">fi</tspan><tspan x="247.8" y="0" class="st12 st8 st13">c</tspan><tspan x="260.5" y="0" class="st12 st8 st13">a</tspan><tspan x="273" y="0" class="st12 st8 st13">c</tspan><tspan x="285.2" y="0" class="st12 st8 st13">i</tspan><tspan x="292" y="0" class="st12 st8 st13">ó</tspan></text>
	<text transform="matrix(1 0 0 1 1252.1801 905.947)"><tspan x="0" y="0" class="st12 st6 st13">R</tspan><tspan x="15.2" y="0" class="st12 st6 st13">e</tspan><tspan x="29.1" y="0" class="st12 st6 st13">c</tspan><tspan x="42.3" y="0" class="st12 st6 st13">u</tspan><tspan x="55.7" y="0" class="st12 st6 st13">r</tspan><tspan x="65.9" y="0" class="st12 st6 st13">so</tspan><tspan x="91" y="0" class="st12 st6 st13">s </tspan></text>
	<text transform="matrix(1 0 0 1 1268.1429 938.6677)"><tspan x="0" y="0" class="st12 st6 st13">p</tspan><tspan x="14" y="0" class="st12 st6 st13">r</tspan><tspan x="24.2" y="0" class="st12 st6 st13">o</tspan><tspan x="38.5" y="0" class="st12 st6 st13">p</tspan><tspan x="52.7" y="0" class="st12 st6 st13">i</tspan><tspan x="59.1" y="0" class="st12 st6 st13">s</tspan></text>
	<text transform="matrix(1 0 0 1 878.1634 987.5154)"><tspan x="0" y="0" class="st12 st8 st13">C</tspan><tspan x="16.3" y="0" class="st12 st8 st13">e</tspan><tspan x="29.6" y="0" class="st12 st8 st13">n</tspan><tspan x="42.8" y="0" class="st12 st8 st13">s</tspan><tspan x="53.6" y="0" class="st12 st8 st13">o</tspan><tspan x="67.4" y="0" class="st12 st8 st13">/</tspan><tspan x="79.3" y="0" class="st12 st8 st13">E</tspan><tspan x="92.6" y="0" class="st12 st8 st13">I</tspan><tspan x="99" y="0" class="st12 st8 st13">A</tspan><tspan x="113" y="0" class="st12 st8 st13">E</tspan></text>
	<text transform="matrix(1 0 0 1 1270.2699 987.5154)"><tspan x="0" y="0" class="st12 st6 st13">5</tspan><tspan x="13.7" y="0" class="st12 st6 st13">00</tspan><tspan x="44.3" y="0" class="st12 st6 st13"> </tspan><tspan x="50.4" y="0" class="st12 st6 st13">K</tspan></text>
	<text transform="matrix(1 0 0 1 878.1634 1042.1345)"><tspan x="0" y="0" class="st12 st8 st13">O</tspan><tspan x="17.5" y="0" class="st12 st8 st13">b</tspan><tspan x="31.8" y="0" class="st12 st8 st13">s</tspan><tspan x="42.7" y="0" class="st12 st8 st13">e</tspan><tspan x="56" y="0" class="st12 st8 st13">r</tspan><tspan x="66.1" y="0" class="st12 st8 st13">v</tspan><tspan x="76.9" y="0" class="st12 st8 st13">a</tspan><tspan x="89.2" y="0" class="st12 st8 st13">t</tspan><tspan x="98" y="0" class="st12 st8 st13">o</tspan><tspan x="111.7" y="0" class="st12 st8 st13">r</tspan><tspan x="120.9" y="0" class="st12 st8 st13">i </tspan><tspan x="134.5" y="0" class="st12 st8 st13">d</tspan><tspan x="148.5" y="0" class="st12 st8 st13">e </tspan><tspan x="168.4" y="0" class="st12 st8 st13">l’</tspan><tspan x="179.9" y="0" class="st12 st8 st13">H</tspan><tspan x="196.3" y="0" class="st12 st8 st13">a</tspan><tspan x="208.2" y="0" class="st12 st8 st13">b</tspan><tspan x="222.1" y="0" class="st12 st8 st13">i</tspan><tspan x="228.8" y="0" class="st12 st8 st13">t</tspan><tspan x="237.8" y="0" class="st12 st8 st13">a</tspan><tspan x="250.1" y="0" class="st12 st8 st13">t</tspan><tspan x="259.4" y="0" class="st12 st8 st13">g</tspan><tspan x="271.4" y="0" class="st12 st8 st13">e</tspan></text>
	<text transform="matrix(1 0 0 1 1271.6263 1042.1345)"><tspan x="0" y="0" class="st12 st6 st13">3</tspan><tspan x="13.7" y="0" class="st12 st6 st13">4</tspan><tspan x="27.5" y="0" class="st12 st6 st13">9</tspan><tspan x="41.6" y="0" class="st12 st6 st13"> </tspan><tspan x="47.8" y="0" class="st12 st6 st13">K</tspan></text>
	<rect x="1401.3" y="482.3" class="st14" width="347.7" height="33.1"/>
	<rect x="1401.3" y="963.1" class="st14" width="347.7" height="33.1"/>
	<rect x="1401.3" y="1017.4" class="st14" width="347.7" height="33.1"/>
	<rect x="1401.3" y="817.7" class="st14" width="256.3" height="33.1"/>
	<rect x="1401.3" y="758" class="st14" width="164.6" height="33.1"/>
	<rect x="1401.3" y="647.1" class="st14" width="347.7" height="33.1"/>
	<rect x="1401.3" y="899.3" class="st14" width="441.8" height="33.1"/>
	<rect x="1401.3" y="703" class="st14" width="441.8" height="33.1"/>
	<rect x="1401.3" y="537.8" class="st14" width="536.7" height="33.1"/>
	<rect x="1401.3" y="592" class="st14" width="536.7" height="33.1"/>
</g>
</svg>
