<?xml version="1.0" encoding="utf-8"?>
<!-- Generator: Adobe Illustrator 22.1.0, SVG Export Plug-In . SVG Version: 6.00 Build 0)  -->
<svg version="1.1" id="Capa_1" xmlns="http://www.w3.org/2000/svg" xmlns:xlink="http://www.w3.org/1999/xlink" x="0px" y="0px"
	 viewBox="0 0 1010 1445.1" style="enable-background:new 0 0 1010 1445.1;" xml:space="preserve">
<style type="text/css">
	.st0{clip-path:url(#SVGID_2_);fill:#FFFFFF;fill-opacity:0;}
	.st1{fill:#B8B8ED;}
	.st2{fill:#3B31F5;}
	.st3{clip-path:url(#SVGID_4_);}
	.st4{clip-path:url(#SVGID_6_);}
	.st5{clip-path:url(#SVGID_8_);}
	.st6{clip-path:url(#SVGID_10_);}
	.st7{clip-path:url(#SVGID_12_);}
	.st8{clip-path:url(#SVGID_14_);}
</style>
<g>
	<g>
		<g>
			<defs>
				<rect id="SVGID_1_" x="-1560.5" y="-3198.4" width="499" height="373"/>
			</defs>
			<clipPath id="SVGID_2_">
				<use xlink:href="#SVGID_1_"  style="overflow:visible;"/>
			</clipPath>
			<rect x="-1560.5" y="-3198.4" class="st0" width="499" height="373"/>
		</g>
	</g>
</g>
<g>
	<g>
		<rect x="309.1" y="987" class="st1" width="451.9" height="89.7"/>
	</g>
	<g>
		<rect x="309.1" y="390.4" class="st1" width="451.9" height="89.7"/>
	</g>
	<g>
		<rect x="308.1" y="582.3" class="st1" width="176.9" height="360.2"/>
	</g>
	<g>
		<rect x="581.8" y="582.3" class="st1" width="176.9" height="360.2"/>
	</g>
	<g>
		<path class="st2" d="M417.1,440v-36.2h11.3c8.5,0,16.9,5.4,16.9,18.1S437,440,428.4,440H417.1z M426.3,433.8
			c5.8,0,12.2-2.3,12.2-11.9s-6.4-11.9-12.2-11.9h-2.5v23.8H426.3z"/>
		<path class="st2" d="M473.8,403.8v6.2h-15.7v7.6h12.6v6.2h-12.6v10h16.2v6.2h-22.9v-36.2L473.8,403.8L473.8,403.8z"/>
		<path class="st2" d="M504.4,415.9c-1.4-3.7-3.9-6.3-9-6.3c-5.6,0-10.3,3.9-10.3,12.3s4.7,12.3,10.3,12.3c5,0,7.6-2.6,9-6.3
			l6.1,1.6c-1.7,6.9-7.1,11-15,11c-9.1,0-17.1-6.4-17.1-18.5s8.1-18.5,17.1-18.5c7.9,0,13.3,4,15,11L504.4,415.9z"/>
		<path class="st2" d="M533.9,423.8l10,16.2h-7.5l-9.7-15.6h-3.5V440h-6.7v-36.2h13.2c7.2,0,11,4.3,11,10.3
			C540.6,418.8,538.3,422.5,533.9,423.8z M533.9,414.1c0-2.9-1.8-4.1-4.2-4.1h-6.5v8.2h6.5C532.1,418.2,533.9,417,533.9,414.1z"/>
		<path class="st2" d="M571.1,403.8v6.2h-15.7v7.6H568v6.2h-12.6v10h16.2v6.2h-22.9v-36.2L571.1,403.8L571.1,403.8z"/>
		<path class="st2" d="M576.6,403.8h26.8v6.2h-10v30h-6.7v-30h-10L576.6,403.8L576.6,403.8z"/>
	</g>
	<g>
		<path class="st2" d="M326.7,857.4v-7.6l22.6-8.5l-22.6-8.5v-7.6h36.2v6.7h-22.3l19,6.9v4.9l-19,6.9h22.3v6.7L326.7,857.4
			L326.7,857.4z"/>
		<path class="st2" d="M326.7,795.3h6.2V811h7.6v-12.6h6.2V811h10v-16.2h6.2v22.9h-36.2L326.7,795.3L326.7,795.3z"/>
		<path class="st2" d="M336.3,773.8c-2.7,1.4-3.8,2.9-3.8,5c0,2,1.4,3.5,3.3,3.5c6.3,0,5.5-15.5,16.2-15.5c7.1,0,11.3,4.7,11.3,11.6
			c0,6.6-4.6,11.3-10.1,12.5l-3.4-5.4c3.9-1.1,7.3-3.3,7.3-7.2c0-2.8-1.4-4.7-4.7-4.7c-6,0-4.8,15.2-16.3,15.2
			c-5.5,0-9.8-4.2-9.8-9.9c0-4.8,2.4-8.5,6.6-10.4L336.3,773.8z"/>
		<path class="st2" d="M349.2,734.4c9.7,0,14.2,5.6,14.2,13.5s-4.5,13.5-14.2,13.5h-22.5v-6.7h22.6c5.3,0,7.9-2.2,7.9-6.8
			s-2.6-6.8-7.9-6.8h-22.6v-6.7H349.2z"/>
		<path class="st2" d="M346.7,710.5l16.2-10v7.5l-15.6,9.7v3.5h15.6v6.7h-36.2v-13.2c0-7.2,4.3-11,10.3-11
			C341.8,703.8,345.4,706.1,346.7,710.5z M337,710.5c-2.9,0-4.1,1.8-4.1,4.2v6.5h8.2v-6.5C341.1,712.3,339.9,710.5,337,710.5z"/>
		<path class="st2" d="M326.7,673.3h6.2V689h7.6v-12.6h6.2V689h10v-16.2h6.2v22.9h-36.2L326.7,673.3L326.7,673.3z"/>
		<path class="st2" d="M336.3,651.7c-2.7,1.4-3.8,2.9-3.8,5c0,2,1.4,3.5,3.3,3.5c6.3,0,5.5-15.5,16.2-15.5c7.1,0,11.3,4.7,11.3,11.6
			c0,6.6-4.6,11.3-10.1,12.5l-3.4-5.4c3.9-1.1,7.3-3.3,7.3-7.2c0-2.8-1.4-4.7-4.7-4.7c-6,0-4.8,15.2-16.3,15.2
			c-5.5,0-9.8-4.2-9.8-9.9c0-4.8,2.4-8.5,6.6-10.4L336.3,651.7z"/>
	</g>
	<g>
		<path class="st2" d="M394.5,836.5c-2.7,1.4-3.8,2.9-3.8,5c0,2,1.4,3.5,3.3,3.5c6.3,0,5.5-15.5,16.2-15.5c7.1,0,11.3,4.7,11.3,11.6
			c0,6.6-4.6,11.3-10.1,12.5l-3.4-5.4c3.9-1.1,7.3-3.3,7.3-7.2c0-2.8-1.4-4.7-4.7-4.7c-6,0-4.8,15.2-16.3,15.2
			c-5.5,0-9.8-4.2-9.8-9.9c0-4.8,2.4-8.5,6.6-10.4L394.5,836.5z"/>
		<path class="st2" d="M403,790.6c12.6,0,18.5,7.9,18.5,17.1c0,9.2-6,17.1-18.5,17.1c-12.6,0-18.5-7.9-18.5-17.1
			S390.5,790.6,403,790.6z M403,817.9c8.6,0,12.3-4.8,12.3-10.2s-3.7-10.2-12.3-10.2c-8.6,0-12.3,4.8-12.3,10.2
			C390.7,813.1,394.4,817.9,403,817.9z"/>
		<path class="st2" d="M397,758.9c-3.7,1.4-6.3,3.9-6.3,9c0,5.6,3.9,10.3,12.3,10.3s12.3-4.7,12.3-10.3c0-5-2.6-7.6-6.3-9l1.6-6
			c6.9,1.7,11,7.1,11,15c0,9.1-6.4,17.1-18.5,17.1s-18.5-8.1-18.5-17.1c0-7.9,4-13.3,11-15L397,758.9z"/>
		<path class="st2" d="M421.1,740.2v6.7h-36.2v-6.7H421.1z"/>
		<path class="st2" d="M412.6,714.6V726l8.5,2.6v7.2l-36.2-12.3v-6.7l36.2-12.3v7.2L412.6,714.6z M406.4,724.1v-7.7l-12.6,3.8
			L406.4,724.1z"/>
		<path class="st2" d="M384.9,693.4h30V678h6.2v22.1h-36.2V693.4z"/>
		<path class="st2" d="M394.5,658.4c-2.7,1.4-3.8,2.9-3.8,5c0,2,1.4,3.5,3.3,3.5c6.3,0,5.5-15.5,16.2-15.5c7.1,0,11.3,4.7,11.3,11.6
			c0,6.6-4.6,11.3-10.1,12.5l-3.4-5.4c3.9-1.1,7.3-3.3,7.3-7.2c0-2.8-1.4-4.7-4.7-4.7c-6,0-4.8,15.2-16.3,15.2
			c-5.5,0-9.8-4.2-9.8-9.9c0-4.8,2.4-8.5,6.6-10.4L394.5,658.4z"/>
	</g>
	<g>
		<path class="st2" d="M610.2,855v-7.5l22.6-8.5l-22.6-8.5v-7.6h36.2v6.7h-22.3l19,6.9v4.9l-19,6.9h22.3v6.7L610.2,855L610.2,855z"
			/>
		<path class="st2" d="M610.2,793h6.2v15.7h7.6v-12.6h6.2v12.6h10v-16.2h6.2v22.9h-36.2V793L610.2,793z"/>
		<path class="st2" d="M619.8,771.4c-2.7,1.4-3.8,2.9-3.8,5c0,2,1.4,3.5,3.3,3.5c6.3,0,5.5-15.5,16.2-15.5c7.1,0,11.3,4.7,11.3,11.6
			c0,6.6-4.6,11.3-10.1,12.5l-3.4-5.4c3.9-1.1,7.3-3.3,7.3-7.2c0-2.8-1.4-4.7-4.7-4.7c-6,0-4.8,15.2-16.3,15.2
			c-5.5,0-9.8-4.2-9.8-9.9c0-4.8,2.4-8.5,6.6-10.4L619.8,771.4z"/>
		<path class="st2" d="M632.7,732.1c9.7,0,14.2,5.6,14.2,13.5s-4.5,13.5-14.2,13.5h-22.5v-6.7h22.6c5.3,0,7.9-2.2,7.9-6.8
			s-2.6-6.8-7.9-6.8h-22.6v-6.7H632.7z"/>
		<path class="st2" d="M630.2,708.2l16.2-10v7.5l-15.6,9.7v3.5h15.6v6.7h-36.2v-13.2c0-7.2,4.3-11,10.3-11
			C625.3,701.4,628.9,703.8,630.2,708.2z M620.5,708.1c-2.9,0-4.1,1.8-4.1,4.2v6.5h8.2v-6.5C624.6,710,623.5,708.1,620.5,708.1z"/>
		<path class="st2" d="M610.2,670.9h6.2v15.7h7.6V674h6.2v12.6h10v-16.2h6.2v22.9h-36.2V670.9L610.2,670.9z"/>
		<path class="st2" d="M619.8,649.4c-2.7,1.4-3.8,2.9-3.8,5c0,2,1.4,3.5,3.3,3.5c6.3,0,5.5-15.5,16.2-15.5c7.1,0,11.3,4.7,11.3,11.6
			c0,6.6-4.6,11.3-10.1,12.5l-3.4-5.4c3.9-1.1,7.3-3.3,7.3-7.2c0-2.8-1.4-4.7-4.7-4.7c-6,0-4.8,15.2-16.3,15.2
			c-5.5,0-9.8-4.2-9.8-9.9c0-4.8,2.4-8.5,6.6-10.4L619.8,649.4z"/>
	</g>
	<g>
		<g>
			<g>
				<defs>
					<rect id="SVGID_3_" x="240.8" y="368.3" width="556.1" height="708.4"/>
				</defs>
				<clipPath id="SVGID_4_">
					<use xlink:href="#SVGID_3_"  style="overflow:visible;"/>
				</clipPath>
				<g class="st3">
					<path class="st2" d="M696.1,876.2v11.5l8.5,2.6v7.2l-36.2-12.3v-6.7l36.2-12.3v7.2L696.1,876.2z M689.9,885.8v-7.7l-12.6,3.8
						L689.9,885.8z"/>
					<path class="st2" d="M668.4,861.4v-7.6l22.6-8.5l-22.6-8.5v-7.5h36.2v6.7h-22.3l19,6.9v4.9l-19,6.9h22.3v6.7L668.4,861.4
						L668.4,861.4z"/>
					<path class="st2" d="M668.4,808.5c0-6.2,3.2-10.3,9.8-10.3c2.9,0,5.5,1.3,6.7,3.6c1.4-3.4,4.2-5.4,8.8-5.4
						c7,0,10.9,4.6,10.9,11.9v13.5h-36.2V808.5L668.4,808.5z M674.6,815h7.9v-6.2c0-2.7-1-4.2-3.9-4.2s-3.9,1.6-3.9,4.4L674.6,815
						L674.6,815z M688.7,815h9.7v-6.2c0-4.2-1.8-5.8-4.9-5.8s-4.9,1.7-4.9,5.8v6.2H688.7z"/>
					<path class="st2" d="M704.6,783.7v6.7h-36.2v-6.7H704.6z"/>
					<path class="st2" d="M668.4,753.9h6.2v15.7h7.6V757h6.2v12.6h10v-16.2h6.2v22.9h-36.2V753.9L668.4,753.9z"/>
					<path class="st2" d="M668.4,720h36.2v7.1l-23.9,13.3h23.9v6.7h-36.2V740l23.9-13.3h-23.9V720z"/>
					<path class="st2" d="M668.4,714.3v-26.8h6.2v10h30v6.7h-30v10L668.4,714.3L668.4,714.3z"/>
					<path class="st2" d="M696.1,667.5V679l8.5,2.6v7.2l-36.2-12.3v-6.7l36.2-12.3v7.2L696.1,667.5z M689.9,677v-7.7l-12.6,3.8
						L689.9,677z"/>
					<path class="st2" d="M668.4,646.3h30V631h6.2v22.1h-36.2V646.3z"/>
					<path class="st2" d="M678,611.4c-2.7,1.4-3.8,2.9-3.8,5c0,2,1.4,3.5,3.3,3.5c6.3,0,5.5-15.5,16.2-15.5
						c7.1,0,11.3,4.7,11.3,11.6c0,6.6-4.6,11.3-10.1,12.5l-3.4-5.4c3.9-1.1,7.3-3.3,7.3-7.2c0-2.8-1.4-4.7-4.7-4.7
						c-6,0-4.8,15.2-16.3,15.2c-5.5,0-9.8-4.2-9.8-9.9c0-4.8,2.4-8.5,6.6-10.4L678,611.4z"/>
				</g>
			</g>
		</g>
	</g>
	<g>
		<path class="st2" d="M322.5,1004.9h26.8v6.2h-10v30h-6.7v-30h-10L322.5,1004.9L322.5,1004.9L322.5,1004.9z"/>
		<path class="st2" d="M361.8,1041.1h-6.7v-36.2h6.7V1041.1z"/>
		<path class="st2" d="M394.7,1017c-1.4-3.7-3.9-6.3-8.9-6.3c-5.6,0-10.3,3.9-10.3,12.3c0,8.4,4.7,12.3,10.3,12.3
			c5,0,7.6-2.6,8.9-6.3l6.1,1.6c-1.7,6.9-7.1,11-15,11c-9.1,0-17.1-6.4-17.1-18.5s8.1-18.5,17.1-18.5c7.9,0,13.3,4,15,11L394.7,1017
			z"/>
		<path class="st2" d="M426.5,1041.1h-6.7v-36.2h6.7V1041.1z"/>
		<path class="st2" d="M455.4,1041.1h-6.7v-36.2h6.7V1041.1z"/>
		<path class="st2" d="M490,1004.9v36.2h-7.1l-13.3-23.9v23.9h-6.7v-36.2h7.1l13.3,23.9v-23.9L490,1004.9L490,1004.9z"/>
		<path class="st2" d="M524.5,1004.9v36.2h-7.1l-13.3-23.9v23.9h-6.7v-36.2h7.1l13.3,23.9v-23.9L524.5,1004.9L524.5,1004.9z"/>
		<path class="st2" d="M565.5,1023c0,12.6-7.9,18.5-17.1,18.5s-17.1-6-17.1-18.5c0-12.6,7.9-18.5,17.1-18.5S565.5,1010.4,565.5,1023
			z M538.2,1023c0,8.6,4.8,12.3,10.2,12.3s10.2-3.7,10.2-12.3c0-8.6-4.8-12.3-10.2-12.3S538.2,1014.4,538.2,1023z"/>
		<path class="st2" d="M579.6,1041.1l-12.2-36.2h7.4l8.1,26.8l8.1-26.8h7.4l-12.2,36.2H579.6z"/>
		<path class="st2" d="M616.1,1032.6h-11.5l-2.6,8.5h-7.2l12.3-36.2h6.7l12.3,36.2h-7.2L616.1,1032.6z M606.6,1026.4h7.7l-3.8-12.6
			L606.6,1026.4z"/>
		<path class="st2" d="M653.6,1017c-1.4-3.7-3.9-6.3-9-6.3c-5.6,0-10.3,3.9-10.3,12.3c0,8.4,4.7,12.3,10.3,12.3c5,0,7.6-2.6,9-6.3
			l6.1,1.6c-1.7,6.9-7.1,11-15,11c-9.1,0-17.1-6.4-17.1-18.5s8.1-18.5,17.1-18.5c7.9,0,13.3,4,15,11L653.6,1017z"/>
		<path class="st2" d="M672.3,1041.1h-6.7v-36.2h6.7V1041.1z"/>
		<path class="st2" d="M713.3,1023c0,12.6-7.9,18.5-17.1,18.5s-17.1-6-17.1-18.5c0-12.6,7.9-18.5,17.1-18.5S713.3,1010.4,713.3,1023
			z M685.9,1023c0,8.6,4.8,12.3,10.2,12.3s10.2-3.7,10.2-12.3c0-8.6-4.8-12.3-10.2-12.3S685.9,1014.4,685.9,1023z M695,994.3h8.7
			l-7.1,7.7h-4.9L695,994.3z"/>
	</g>
	<g>
		<path class="st2" d="M745.7,1063.1H287.3v-96.2h458.4L745.7,1063.1L745.7,1063.1z M293.8,1056.7h445.4v-83.3H293.8V1056.7z"/>
	</g>
	<g>
		<g>
			<g>
				<defs>
					<rect id="SVGID_5_" x="240.8" y="368.3" width="556.1" height="708.4"/>
				</defs>
				<clipPath id="SVGID_6_">
					<use xlink:href="#SVGID_5_"  style="overflow:visible;"/>
				</clipPath>
				<g class="st4">
					<path class="st2" d="M745.7,468.9H287.3v-96.2h458.4L745.7,468.9L745.7,468.9z M293.8,462.4h445.4v-83.3H293.8V462.4z"/>
				</g>
			</g>
		</g>
	</g>
	<g>
		<path class="st2" d="M469.7,929H286.3V562.3h183.4L469.7,929L469.7,929z M292.8,922.5h170.4V568.7H292.8V922.5z"/>
	</g>
	<g>
		<path class="st2" d="M743.4,929H560V562.3h183.4V929z M566.6,922.5H737V568.7H566.6V922.5z"/>
	</g>
	<g>
		<polygon class="st2" points="766.5,546.3 760.1,546.3 760.1,523.5 273,523.5 273,546.3 266.6,546.3 266.6,517 766.5,517 		"/>
	</g>
	<g>
		<rect x="513.3" y="490.9" class="st2" width="6.5" height="29.3"/>
	</g>
</g>
<g>
	<g>
		<rect x="1217.7" y="992.5" class="st1" width="423.8" height="84.2"/>
	</g>
	<g>
		<rect x="1217.7" y="393" class="st1" width="423.8" height="101.1"/>
	</g>
	<g>
		<rect x="1216.8" y="590.9" class="st1" width="165.9" height="357.7"/>
	</g>
	<g>
		<rect x="1473.5" y="590.9" class="st1" width="165.9" height="357.7"/>
	</g>
	<g>
		<path class="st2" d="M1228.5,416.6h7.1l8,21.2l8-21.2h7.1v34h-6.3v-21l-6.5,17.8h-4.6l-6.5-17.8v21h-6.3L1228.5,416.6
			L1228.5,416.6z"/>
		<path class="st2" d="M1282.5,442.6h-10.8l-2.5,8h-6.8l11.5-34h6.3l11.5,34h-6.8L1282.5,442.6z M1273.5,436.7h7.2l-3.6-11.8
			L1273.5,436.7z"/>
		<path class="st2" d="M1294.8,416.6l6.2,13.2l6.2-13.2h6.8l-9.8,19.5v14.5h-6.3v-14.5l-9.8-19.5H1294.8z"/>
		<path class="st2" d="M1345.8,433.6c0,11.8-7.4,17.4-16,17.4s-16-5.6-16-17.4s7.4-17.4,16-17.4S1345.8,421.8,1345.8,433.6z
			 M1320.2,433.6c0,8.1,4.5,11.5,9.6,11.5s9.6-3.5,9.6-11.5s-4.5-11.5-9.6-11.5S1320.2,425.5,1320.2,433.6z"/>
		<path class="st2" d="M1366.8,435.4l9.4,15.2h-7l-9.1-14.6h-3.3v14.6h-6.3v-34h12.4c6.8,0,10.3,4,10.3,9.7
			C1373.2,430.7,1371,434.1,1366.8,435.4z M1366.9,426.3c0-2.8-1.7-3.8-4-3.8h-6.1v7.7h6.1C1365.2,430.1,1366.9,429,1366.9,426.3z"
			/>
		<path class="st2" d="M1397.8,442.6H1387l-2.5,8h-6.8l11.5-34h6.3l11.5,34h-6.8L1397.8,442.6z M1388.9,436.7h7.2l-3.6-11.8
			L1388.9,436.7z"/>
		<path class="st2" d="M1416.7,416.6v28.1h14.4v5.8h-20.7v-34h6.3V416.6z"/>
		<path class="st2" d="M1446.3,450.6v-34h10.6c8,0,15.8,5.1,15.8,17s-7.8,17-15.8,17H1446.3z M1455,444.8c5.4,0,11.4-2.1,11.4-11.2
			c0-9-6-11.2-11.4-11.2h-2.3v22.3h2.3V444.8z"/>
		<path class="st2" d="M1498.5,416.6v5.8h-14.7v7.1h11.8v5.8h-11.8v9.4h15.2v5.8h-21.5v-34h21V416.6z"/>
		<path class="st2" d="M1526.2,428c-1.3-3.4-3.7-5.9-8.4-5.9c-5.2,0-9.7,3.7-9.7,11.5c0,7.9,4.4,11.5,9.7,11.5
			c4.7,0,7.1-2.5,8.4-5.9l5.7,1.5c-1.6,6.5-6.7,10.3-14.1,10.3c-8.5,0-16.1-6-16.1-17.4s7.6-17.4,16.1-17.4
			c7.4,0,12.5,3.8,14.1,10.3L1526.2,428z"/>
		<path class="st2" d="M1552.9,435.4l9.4,15.2h-7l-9.1-14.6h-3.3v14.6h-6.3v-34h12.4c6.8,0,10.3,4,10.3,9.7
			C1559.2,430.7,1557,434.1,1552.9,435.4z M1552.9,426.3c0-2.8-1.7-3.8-4-3.8h-6.1v7.7h6.1C1551.2,430.1,1552.9,429,1552.9,426.3z"
			/>
		<path class="st2" d="M1586.8,416.6v5.8h-14.7v7.1h11.8v5.8h-11.8v9.4h15.2v5.8h-21.5v-34h21V416.6z"/>
		<path class="st2" d="M1613.1,416.6v5.8h-14.7v7.1h11.8v5.8h-11.8v9.4h15.2v5.8h-21.5v-34h21V416.6z"/>
	</g>
	<g>
		<path class="st2" d="M1243.3,828.4c-2.5,1.3-3.6,2.7-3.6,4.7c0,1.8,1.3,3.2,3.1,3.2c5.9,0,5.1-14.5,15.2-14.5
			c6.6,0,10.6,4.4,10.6,10.9c0,6.2-4.3,10.6-9.5,11.7l-3.2-5.1c3.6-1,6.9-3.1,6.9-6.7c0-2.6-1.3-4.4-4.4-4.4
			c-5.6,0-4.5,14.2-15.3,14.2c-5.1,0-9.2-3.9-9.2-9.3c0-4.5,2.2-8,6.2-9.8L1243.3,828.4z"/>
		<path class="st2" d="M1251.2,785.4c11.8,0,17.4,7.4,17.4,16s-5.6,16-17.4,16s-17.4-7.4-17.4-16S1239.4,785.4,1251.2,785.4z
			 M1251.2,811c8.1,0,11.5-4.5,11.5-9.6s-3.5-9.6-11.5-9.6s-11.5,4.5-11.5,9.6S1243.2,811,1251.2,811z"/>
		<path class="st2" d="M1245.6,755.8c-3.4,1.3-5.9,3.7-5.9,8.4c0,5.2,3.7,9.7,11.5,9.7c7.9,0,11.5-4.4,11.5-9.7
			c0-4.7-2.5-7.1-5.9-8.4l1.5-5.7c6.5,1.6,10.3,6.7,10.3,14.1c0,8.5-6,16.1-17.4,16.1s-17.4-7.6-17.4-16.1c0-7.4,3.8-12.5,10.3-14.1
			L1245.6,755.8z"/>
		<path class="st2" d="M1268.2,738.2v6.3h-34v-6.3H1268.2z"/>
		<path class="st2" d="M1260.2,714.1v10.8l8,2.5v6.8l-34-11.5v-6.3l34-11.5v6.8L1260.2,714.1z M1254.4,723.1v-7.2l-11.8,3.6
			L1254.4,723.1z"/>
		<path class="st2" d="M1234.2,694.3h28.1v-14.4h5.8v20.7h-34L1234.2,694.3L1234.2,694.3z"/>
	</g>
	<g>
		<path class="st2" d="M1288.8,876.7v-7.1l21.2-8l-21.2-8v-7.1h34v6.3h-21l17.8,6.5v4.6l-17.8,6.5h21v6.3H1288.8z"/>
		<path class="st2" d="M1288.8,818.5h5.8v14.7h7.1v-11.8h5.8v11.8h9.4V818h5.8v21.5h-34L1288.8,818.5L1288.8,818.5z"/>
		<path class="st2" d="M1314.8,795v10.8l8,2.5v6.8l-34-11.5v-6.3l34-11.5v6.8L1314.8,795z M1309,804v-7.2l-11.8,3.6L1309,804z"/>
		<path class="st2" d="M1297.9,767c-2.5,1.3-3.6,2.7-3.6,4.7c0,1.8,1.3,3.2,3.1,3.2c5.9,0,5.1-14.5,15.2-14.5
			c6.6,0,10.6,4.4,10.6,10.9c0,6.2-4.3,10.6-9.5,11.7l-3.2-5.1c3.6-1,6.9-3.1,6.9-6.7c0-2.6-1.3-4.4-4.4-4.4
			c-5.6,0-4.5,14.2-15.3,14.2c-5.1,0-9.2-3.9-9.2-9.3c0-4.5,2.2-8,6.2-9.8L1297.9,767z"/>
		<path class="st2" d="M1309.9,730.1c9.1,0,13.3,5.2,13.3,12.7c0,7.4-4.2,12.7-13.3,12.7h-21.1v-6.3h21.2c4.9,0,7.4-2.1,7.4-6.4
			c0-4.3-2.4-6.4-7.4-6.4h-21.2v-6.3H1309.9z"/>
		<path class="st2" d="M1307.6,707.7l15.2-9.4v7l-14.6,9.1v3.3h14.6v6.3h-34v-12.4c0-6.8,4-10.3,9.7-10.3
			C1302.9,701.4,1306.3,703.6,1307.6,707.7z M1298.5,707.7c-2.8,0-3.8,1.7-3.8,4v6.1h7.7v-6.1
			C1302.3,709.4,1301.2,707.7,1298.5,707.7z"/>
		<path class="st2" d="M1288.8,672.8h5.8v14.7h7.1v-11.8h5.8v11.8h9.4v-15.2h5.8v21.5h-34L1288.8,672.8L1288.8,672.8z"/>
		<path class="st2" d="M1297.9,652.5c-2.5,1.3-3.6,2.7-3.6,4.7c0,1.8,1.3,3.2,3.1,3.2c5.9,0,5.1-14.5,15.2-14.5
			c6.6,0,10.6,4.4,10.6,10.9c0,6.2-4.3,10.6-9.5,11.7l-3.2-5.1c3.6-1,6.9-3.1,6.9-6.7c0-2.6-1.3-4.4-4.4-4.4
			c-5.6,0-4.5,14.2-15.3,14.2c-5.1,0-9.2-3.9-9.2-9.3c0-4.5,2.2-8,6.2-9.8L1297.9,652.5z"/>
	</g>
	<g>
		<g>
			<defs>
				<rect id="SVGID_7_" x="1134.4" y="373.3" width="545" height="703.4"/>
			</defs>
			<clipPath id="SVGID_8_">
				<use xlink:href="#SVGID_7_"  style="overflow:visible;"/>
			</clipPath>
			<g class="st5">
				<path class="st2" d="M1500.1,888h5.8v14.7h7.1v-11.8h5.8v11.8h9.4v-15.2h5.8V909h-34L1500.1,888L1500.1,888z"/>
				<path class="st2" d="M1500.1,857.7h34v6.6l-22.4,12.5h22.4v6.3h-34v-6.6l22.4-12.5h-22.4V857.7z"/>
				<path class="st2" d="M1534.1,843.4l-34,11.4v-7l25.1-7.6l-25.1-7.6v-7l34,11.4V843.4z"/>
				<path class="st2" d="M1534.1,817v6.3h-34V817H1534.1z"/>
				<path class="st2" d="M1518.9,795.1l15.2-9.4v7l-14.7,9.1v3.3h14.7v6.3h-34V799c0-6.8,4-10.3,9.7-10.3
					C1514.2,788.8,1517.6,791,1518.9,795.1z M1509.8,795.1c-2.8,0-3.8,1.7-3.8,4v6.1h7.7v-6.1
					C1513.6,796.8,1512.5,795.1,1509.8,795.1z"/>
				<path class="st2" d="M1517.1,753.1c11.8,0,17.4,7.4,17.4,16s-5.6,16-17.4,16s-17.4-7.4-17.4-16S1505.3,753.1,1517.1,753.1z
					 M1517.1,778.7c8,0,11.5-4.5,11.5-9.6s-3.5-9.6-11.5-9.6s-11.5,4.5-11.5,9.6C1505.5,774.2,1509,778.7,1517.1,778.7z"/>
				<path class="st2" d="M1500.1,723.4h34v6.6l-22.4,12.5h22.4v6.3h-34v-6.6l22.4-12.5h-22.4V723.4z"/>
				<path class="st2" d="M1500.1,717.3v-7.1l21.2-8l-21.2-8v-7.1h34v6.3h-21l17.8,6.5v4.6l-17.8,6.5h21v6.3H1500.1z"/>
				<path class="st2" d="M1500.1,660.6h5.8v14.7h7.1v-11.8h5.8v11.8h9.4v-15.2h5.8v21.5h-34L1500.1,660.6L1500.1,660.6z"/>
				<path class="st2" d="M1500.1,630.3h34v6.6l-22.4,12.5h22.4v6.3h-34v-6.6l22.4-12.5h-22.4V630.3z"/>
				<path class="st2" d="M1500.1,626.3v-25.1h5.8v9.4h28.1v6.3h-28.1v9.4L1500.1,626.3L1500.1,626.3z"/>
			</g>
		</g>
		<g>
			<defs>
				<rect id="SVGID_9_" x="1134.4" y="373.3" width="545" height="703.4"/>
			</defs>
			<clipPath id="SVGID_10_">
				<use xlink:href="#SVGID_9_"  style="overflow:visible;"/>
			</clipPath>
			<g class="st6">
				<path class="st2" d="M1580.6,881.6v10.8l8,2.5v6.8l-34-11.5v-6.3l34-11.5v6.8L1580.6,881.6z M1574.8,890.6v-7.2L1563,887
					L1574.8,890.6z"/>
				<path class="st2" d="M1554.7,863.3h28.1v-14.4h5.8v20.7h-34L1554.7,863.3L1554.7,863.3z"/>
				<path class="st2" d="M1554.7,834.6v-7.1l21.2-8l-21.2-8v-7.1h34v6.3h-21l17.8,6.5v4.6l-17.8,6.5h21v6.3H1554.7z"/>
				<path class="st2" d="M1554.7,777.9h5.8v14.7h7.1v-11.8h5.8v11.8h9.4v-15.2h5.8v21.5h-34L1554.7,777.9L1554.7,777.9z"/>
				<path class="st2" d="M1580.6,755.8v10.8l8,2.5v6.8l-34-11.5V758l34-11.5v6.8L1580.6,755.8z M1574.8,764.8v-7.2l-11.8,3.6
					L1574.8,764.8z"/>
				<path class="st2" d="M1563.7,729.2c-2.5,1.3-3.6,2.7-3.6,4.7c0,1.8,1.3,3.2,3.1,3.2c5.9,0,5.1-14.5,15.2-14.5
					c6.6,0,10.6,4.4,10.6,10.9c0,6.2-4.3,10.6-9.5,11.7l-3.2-5.1c3.6-1,6.9-3.1,6.9-6.7c0-2.6-1.3-4.4-4.4-4.4
					c-5.6,0-4.5,14.2-15.3,14.2c-5.1,0-9.2-3.9-9.2-9.3c0-4.5,2.2-8,6.2-9.8L1563.7,729.2z"/>
				<path class="st2" d="M1575.7,693.7c9.1,0,13.3,5.2,13.3,12.7c0,7.4-4.2,12.7-13.3,12.7h-21.1v-6.3h21.2c4.9,0,7.4-2.1,7.4-6.4
					c0-4.3-2.4-6.4-7.4-6.4h-21.2v-6.3H1575.7z"/>
				<path class="st2" d="M1573.5,672.8l15.2-9.4v7l-14.6,9.1v3.3h14.6v6.3h-34v-12.4c0-6.8,4-10.3,9.7-10.3
					C1568.8,666.4,1572.2,668.7,1573.5,672.8z M1564.3,672.7c-2.8,0-3.8,1.7-3.8,4v6.1h7.7v-6.1
					C1568.2,674.4,1567.1,672.7,1564.3,672.7z"/>
				<path class="st2" d="M1554.7,639.3h5.8V654h7.1v-11.8h5.8V654h9.4v-15.2h5.8v21.5h-34L1554.7,639.3L1554.7,639.3z"/>
				<path class="st2" d="M1563.7,620.5c-2.5,1.3-3.6,2.7-3.6,4.7c0,1.8,1.3,3.2,3.1,3.2c5.9,0,5.1-14.5,15.2-14.5
					c6.6,0,10.6,4.4,10.6,10.9c0,6.2-4.3,10.6-9.5,11.7l-3.2-5.1c3.6-1,6.9-3.1,6.9-6.7c0-2.6-1.3-4.4-4.4-4.4
					c-5.6,0-4.5,14.2-15.3,14.2c-5.1,0-9.2-3.9-9.2-9.3c0-4.5,2.2-8,6.2-9.8L1563.7,620.5z"/>
			</g>
		</g>
	</g>
	<g>
		<path class="st2" d="M1215,1002.4h25.1v5.8h-9.4v28.1h-6.3v-28.1h-9.4L1215,1002.4L1215,1002.4z"/>
		<path class="st2" d="M1250.4,1036.4h-6.3v-34h6.3V1036.4z"/>
		<path class="st2" d="M1279.8,1013.8c-1.3-3.4-3.7-5.9-8.4-5.9c-5.2,0-9.7,3.7-9.7,11.5s4.4,11.5,9.7,11.5c4.7,0,7.1-2.5,8.4-5.9
			l5.7,1.5c-1.6,6.5-6.7,10.3-14.1,10.3c-8.5,0-16.1-6-16.1-17.4s7.6-17.4,16.1-17.4c7.4,0,12.5,3.8,14.1,10.3L1279.8,1013.8z"/>
		<path class="st2" d="M1321.6,1002.4v5.8h-14.7v7.1h11.8v5.8h-11.8v9.4h15.2v5.8h-21.5v-34h21V1002.4z"/>
		<path class="st2" d="M1344,1036.4h-6.3v-34h6.3V1036.4z"/>
		<path class="st2" d="M1374.9,1002.4v34h-6.6l-12.5-22.4v22.4h-6.3v-34h6.6l12.5,22.4v-22.4H1374.9z"/>
		<path class="st2" d="M1405.9,1002.4v34h-6.6l-12.5-22.4v22.4h-6.3v-34h6.6l12.5,22.4v-22.4H1405.9z"/>
		<path class="st2" d="M1442.9,1019.4c0,11.8-7.4,17.4-16,17.4s-16-5.6-16-17.4s7.4-17.4,16-17.4S1442.9,1007.6,1442.9,1019.4z
			 M1417.3,1019.4c0,8.1,4.5,11.5,9.6,11.5s9.6-3.5,9.6-11.5s-4.5-11.5-9.6-11.5C1421.8,1007.8,1417.3,1011.3,1417.3,1019.4z"/>
		<path class="st2" d="M1454.6,1036.4l-11.4-34h7l7.6,25.1l7.6-25.1h7l-11.4,34H1454.6z"/>
		<path class="st2" d="M1487.4,1028.4h-10.8l-2.5,8h-6.8l11.5-34h6.3l11.5,34h-6.8L1487.4,1028.4z M1478.4,1022.5h7.2l-3.6-11.8
			L1478.4,1022.5z"/>
		<path class="st2" d="M1521.1,1013.8c-1.3-3.4-3.7-5.9-8.4-5.9c-5.2,0-9.7,3.7-9.7,11.5s4.4,11.5,9.7,11.5c4.7,0,7.1-2.5,8.4-5.9
			l5.7,1.5c-1.6,6.5-6.7,10.3-14.1,10.3c-8.5,0-16.1-6-16.1-17.4s7.6-17.4,16.1-17.4c7.4,0,12.5,3.8,14.1,10.3L1521.1,1013.8z"/>
		<path class="st2" d="M1537.2,1036.4h-6.3v-34h6.3V1036.4z"/>
		<path class="st2" d="M1574.1,1019.4c0,11.8-7.4,17.4-16,17.4s-16-5.6-16-17.4s7.4-17.4,16-17.4
			C1566.6,1002,1574.1,1007.6,1574.1,1019.4z M1548.5,1019.4c0,8.1,4.5,11.5,9.6,11.5s9.6-3.5,9.6-11.5s-4.5-11.5-9.6-11.5
			C1553,1007.8,1548.5,1011.3,1548.5,1019.4z M1557,992.5h8.2l-6.6,7.2h-4.6L1557,992.5z"/>
		<path class="st2" d="M1603.7,1002.4v34h-6.6l-12.5-22.4v22.4h-6.3v-34h6.6l12.5,22.4v-22.4H1603.7z"/>
	</g>
	<g>
		<path class="st2" d="M1627.2,1064h-429.8v-90.2h429.8V1064z M1203.4,1057.9h417.7v-78.1h-417.7L1203.4,1057.9L1203.4,1057.9z"/>
	</g>
	<g>
		<g>
			<defs>
				<rect id="SVGID_11_" x="1134.4" y="373.3" width="545" height="703.4"/>
			</defs>
			<clipPath id="SVGID_12_">
				<use xlink:href="#SVGID_11_"  style="overflow:visible;"/>
			</clipPath>
			<g class="st7">
				<path class="st2" d="M1627.2,494.1h-429.8V373.3h429.8V494.1z M1203.4,488h417.7V379.4h-417.7L1203.4,488L1203.4,488z"/>
			</g>
		</g>
	</g>
	<g>
		<path class="st2" d="M1368.3,935.2h-171.9V571h171.9V935.2z M1202.5,929.1h159.8v-352h-159.8V929.1z"/>
	</g>
	<g>
		<path class="st2" d="M1625,935.2h-171.9V571H1625V935.2z M1459.2,929.1H1619v-352h-159.8V929.1z"/>
	</g>
	<g>
		<polygon class="st2" points="1646.7,556 1640.6,556 1640.6,534.6 1183.9,534.6 1183.9,556 1177.8,556 1177.8,528.6 1646.7,528.6 
					"/>
	</g>
	<g>
		<rect x="1409.2" y="504.1" class="st2" width="6.1" height="27.5"/>
	</g>
</g>
<g>
	<g>
		<rect x="2095.4" y="988.9" class="st1" width="429.9" height="85.4"/>
	</g>
	<g>
		<rect x="2095.4" y="404.2" class="st1" width="429.9" height="102.6"/>
	</g>
	<g>
		<rect x="2094.5" y="603.9" class="st1" width="168.3" height="342.7"/>
	</g>
	<g>
		<rect x="2354.9" y="603.9" class="st1" width="168.3" height="342.7"/>
	</g>
	<g>
		<path class="st2" d="M2172.7,439v-34.5h10.8c8.1,0,16,5.2,16,17.2c0,12.1-7.9,17.2-16,17.2L2172.7,439L2172.7,439z M2181.5,433.1
			c5.5,0,11.6-2.2,11.6-11.3c0-9.2-6.1-11.3-11.6-11.3h-2.4v22.6L2181.5,433.1L2181.5,433.1z"/>
		<path class="st2" d="M2226.6,404.6v5.9h-14.9v7.2h12v5.9h-12v9.5h15.4v5.9h-21.8v-34.5h21.3V404.6z"/>
		<path class="st2" d="M2255.8,416.1c-1.3-3.5-3.7-6-8.5-6c-5.3,0-9.8,3.7-9.8,11.7s4.5,11.7,9.8,11.7c4.8,0,7.2-2.5,8.5-6l5.8,1.5
			c-1.6,6.6-6.8,10.4-14.3,10.4c-8.6,0-16.3-6.1-16.3-17.6s7.7-17.6,16.3-17.6c7.5,0,12.6,3.8,14.3,10.4L2255.8,416.1z"/>
		<path class="st2" d="M2283.8,423.6l9.5,15.4h-7.1l-9.3-14.9h-3.3V439h-6.4v-34.5h12.6c6.9,0,10.5,4.1,10.5,9.8
			C2290.2,418.9,2288,422.3,2283.8,423.6z M2283.8,414.4c0-2.8-1.7-3.9-4-3.9h-6.2v7.8h6.2C2282.1,418.2,2283.8,417.2,2283.8,414.4z
			"/>
		<path class="st2" d="M2319.2,404.6v5.9h-14.9v7.2h12v5.9h-12v9.5h15.4v5.9h-21.8v-34.5h21.3V404.6z"/>
		<path class="st2" d="M2324.4,404.6h25.5v5.9h-9.5V439h-6.4v-28.5h-9.5v-5.9H2324.4z"/>
		<path class="st2" d="M2385,421.8c0,12-7.5,17.6-16.2,17.6s-16.2-5.7-16.2-17.6s7.5-17.6,16.2-17.6S2385,409.8,2385,421.8z
			 M2359,421.8c0,8.2,4.6,11.7,9.7,11.7s9.7-3.5,9.7-11.7s-4.6-11.7-9.7-11.7S2359,413.6,2359,421.8z"/>
		<path class="st2" d="M2404,439v-34.5h10.8c8.1,0,16,5.2,16,17.2c0,12.1-7.9,17.2-16,17.2L2404,439L2404,439z M2412.8,433.1
			c5.5,0,11.6-2.2,11.6-11.3c0-9.2-6.1-11.3-11.6-11.3h-2.4v22.6L2412.8,433.1L2412.8,433.1z"/>
		<path class="st2" d="M2457.9,404.6v5.9H2443v7.2h12v5.9h-12v9.5h15.4v5.9h-21.8v-34.5h21.3V404.6z"/>
	</g>
	<g>
		<path class="st2" d="M2198.6,486.3h-10.9l-2.5,8.1h-6.9l11.7-34.5h6.4l11.7,34.5h-6.9L2198.6,486.3z M2189.5,480.4h7.3l-3.6-12
			L2189.5,480.4z"/>
		<path class="st2" d="M2218.7,459.9v28.5h14.6v5.9h-21v-34.5h6.4V459.9z"/>
		<path class="st2" d="M2260.2,471.5c-1.3-3.5-3.7-6-8.5-6c-5.3,0-9.8,3.7-9.8,11.7s4.5,11.7,9.8,11.7c4.8,0,7.2-2.5,8.5-6l5.8,1.5
			c-1.6,6.6-6.8,10.4-14.3,10.4c-8.6,0-16.3-6.1-16.3-17.6s7.7-17.6,16.3-17.6c7.5,0,12.6,3.8,14.3,10.4L2260.2,471.5z"/>
		<path class="st2" d="M2288,486.3h-11l-2.5,8.1h-6.9l11.7-34.5h6.4l11.7,34.5h-6.9L2288,486.3z M2278.9,480.4h7.3l-3.6-12
			L2278.9,480.4z"/>
		<path class="st2" d="M2308.1,459.9v28.5h14.6v5.9h-21v-34.5h6.4V459.9z"/>
		<path class="st2" d="M2328.5,494.4v-34.5h10.8c8.1,0,16,5.2,16,17.2c0,12.1-7.9,17.2-16,17.2L2328.5,494.4L2328.5,494.4z
			 M2337.2,488.5c5.5,0,11.6-2.2,11.6-11.3c0-9.2-6.1-11.3-11.6-11.3h-2.4v22.6L2337.2,488.5L2337.2,488.5z"/>
		<path class="st2" d="M2363.7,449.9h8.3l-6.7,7.3h-4.7L2363.7,449.9z M2367.5,494.4h-6.4v-34.5h6.4V494.4z"/>
		<path class="st2" d="M2391.9,486.3H2381l-2.5,8.1h-6.9l11.7-34.5h6.4l11.7,34.5h-6.9L2391.9,486.3z M2382.8,480.4h7.3l-3.6-12
			L2382.8,480.4z"/>
	</g>
	<g>
		<path class="st2" d="M2112.2,862.2V855l21.5-8.1l-21.5-8.1v-7.2h34.5v6.4h-21.3l18.1,6.6v4.6l-18.1,6.6h21.3v6.4H2112.2z"/>
		<path class="st2" d="M2112.2,803.2h5.9v14.9h7.2v-12h5.9v12h9.5v-15.4h5.9v21.8h-34.5v-21.3H2112.2z"/>
		<path class="st2" d="M2146.6,796.8h-34.5V786c0-8.1,5.2-16,17.2-16c12.1,0,17.2,7.9,17.2,16v10.8H2146.6z M2140.7,788
			c0-5.5-2.2-11.6-11.3-11.6c-9.2,0-11.3,6.1-11.3,11.6v2.4h22.6V788z"/>
		<path class="st2" d="M2146.6,757.8v6.4h-34.5v-6.4H2146.6z"/>
		<path class="st2" d="M2146.6,750.7h-34.5v-10.8c0-8.1,5.2-16,17.2-16c12.1,0,17.2,7.9,17.2,16v10.8H2146.6z M2140.7,742
			c0-5.5-2.2-11.6-11.3-11.6c-9.2,0-11.3,6.1-11.3,11.6v2.4h22.6V742z"/>
		<path class="st2" d="M2138.5,701.7v10.9l8.1,2.5v6.9l-34.5-11.7V704l34.5-11.7v6.9L2138.5,701.7z M2132.6,710.8v-7.3l-12,3.6
			L2132.6,710.8z"/>
		<path class="st2" d="M2121.3,673.3c-2.6,1.3-3.6,2.8-3.6,4.8c0,1.9,1.3,3.3,3.1,3.3c6,0,5.2-14.7,15.5-14.7
			c6.7,0,10.7,4.4,10.7,11c0,6.3-4.4,10.8-9.6,11.9l-3.2-5.2c3.7-1,7-3.1,7-6.8c0-2.7-1.3-4.5-4.5-4.5c-5.7,0-4.6,14.4-15.5,14.4
			c-5.2,0-9.3-4-9.3-9.4c0-4.6,2.3-8.1,6.2-9.9L2121.3,673.3z"/>
	</g>
	<g>
		<path class="st2" d="M2176.7,860.2c-2.6,1.3-3.6,2.8-3.6,4.8c0,1.9,1.3,3.3,3.1,3.3c6,0,5.2-14.7,15.5-14.7
			c6.7,0,10.7,4.4,10.7,11c0,6.3-4.4,10.8-9.6,11.9l-3.2-5.2c3.7-1,7-3.1,7-6.8c0-2.7-1.3-4.5-4.5-4.5c-5.7,0-4.6,14.4-15.5,14.4
			c-5.2,0-9.3-4-9.3-9.4c0-4.6,2.3-8.1,6.2-9.9L2176.7,860.2z"/>
		<path class="st2" d="M2184.8,816.5c12,0,17.6,7.5,17.6,16.2s-5.7,16.2-17.6,16.2c-12,0-17.6-7.5-17.6-16.2
			S2172.8,816.5,2184.8,816.5z M2184.8,842.5c8.2,0,11.7-4.6,11.7-9.7c0-5.2-3.5-9.7-11.7-9.7s-11.7,4.6-11.7,9.7
			S2176.6,842.5,2184.8,842.5z"/>
		<path class="st2" d="M2179.1,786.4c-3.5,1.3-6,3.7-6,8.5c0,5.3,3.7,9.8,11.7,9.8s11.7-4.5,11.7-9.8c0-4.8-2.5-7.2-6-8.5l1.5-5.8
			c6.6,1.6,10.4,6.8,10.4,14.3c0,8.6-6.1,16.3-17.6,16.3s-17.6-7.7-17.6-16.3c0-7.5,3.8-12.6,10.4-14.3L2179.1,786.4z"/>
		<path class="st2" d="M2202,768.6v6.4h-34.5v-6.4H2202z"/>
		<path class="st2" d="M2193.9,744.1V755l8.1,2.5v6.9l-34.5-11.7v-6.4l34.5-11.7v6.9L2193.9,744.1z M2188,753.2v-7.3l-12,3.6
			L2188,753.2z"/>
		<path class="st2" d="M2167.6,724h28.5v-14.6h5.9v21h-34.5V724H2167.6z"/>
		<path class="st2" d="M2167.6,682.3h5.9v14.9h7.2v-12h5.9v12h9.5v-15.4h5.9v21.8h-34.5v-21.3H2167.6z"/>
		<path class="st2" d="M2176.7,661.8c-2.6,1.3-3.6,2.8-3.6,4.8c0,1.9,1.3,3.3,3.1,3.3c6,0,5.2-14.7,15.5-14.7
			c6.7,0,10.7,4.4,10.7,11c0,6.3-4.4,10.8-9.6,11.9l-3.2-5.2c3.7-1,7-3.1,7-6.8c0-2.7-1.3-4.5-4.5-4.5c-5.7,0-4.6,14.4-15.5,14.4
			c-5.2,0-9.3-4-9.3-9.4c0-4.6,2.3-8.1,6.2-9.9L2176.7,661.8z"/>
	</g>
	<g>
		<path class="st2" d="M2381.9,860v-7.2l21.5-8.1l-21.5-8.1v-7.2h34.5v6.4h-21.3l18.1,6.6v4.6l-18.1,6.6h21.3v6.4H2381.9z"/>
		<path class="st2" d="M2381.9,800.9h5.9v14.9h7.2v-12h5.9v12h9.5v-15.4h5.9v21.8h-34.5v-21.3H2381.9z"/>
		<path class="st2" d="M2416.4,794.5h-34.5v-10.8c0-8.1,5.2-16,17.2-16c12.1,0,17.2,7.9,17.2,16v10.8H2416.4z M2410.5,785.8
			c0-5.5-2.2-11.6-11.3-11.6c-9.2,0-11.3,6.1-11.3,11.6v2.4h22.6V785.8z"/>
		<path class="st2" d="M2416.4,755.5v6.4h-34.5v-6.4H2416.4z"/>
		<path class="st2" d="M2416.4,748.5h-34.5v-10.8c0-8.1,5.2-16,17.2-16c12.1,0,17.2,7.9,17.2,16v10.8H2416.4z M2410.5,739.7
			c0-5.5-2.2-11.6-11.3-11.6c-9.2,0-11.3,6.1-11.3,11.6v2.4h22.6V739.7z"/>
		<path class="st2" d="M2408.2,699.5v10.9l8.1,2.5v6.9l-34.5-11.7v-6.4l34.5-11.7v6.9L2408.2,699.5z M2402.3,708.6v-7.3l-12,3.6
			L2402.3,708.6z"/>
		<path class="st2" d="M2391.1,671.1c-2.6,1.3-3.6,2.8-3.6,4.8c0,1.9,1.3,3.3,3.1,3.3c6,0,5.2-14.7,15.5-14.7
			c6.7,0,10.7,4.4,10.7,11c0,6.3-4.4,10.8-9.6,11.9l-3.2-5.2c3.7-1,7-3.1,7-6.8c0-2.7-1.3-4.5-4.5-4.5c-5.7,0-4.6,14.4-15.5,14.4
			c-5.2,0-9.3-4-9.3-9.4c0-4.6,2.3-8.1,6.2-9.9L2391.1,671.1z"/>
	</g>
	<g>
		<g>
			<defs>
				<rect id="SVGID_13_" x="2017" y="370.9" width="538.1" height="703.4"/>
			</defs>
			<clipPath id="SVGID_14_">
				<use xlink:href="#SVGID_13_"  style="overflow:visible;"/>
			</clipPath>
			<g class="st8">
				<path class="st2" d="M2463.6,898v10.9l8.1,2.5v6.9l-34.5-11.7v-6.4l34.5-11.7v6.9L2463.6,898z M2457.7,907.1v-7.3l-12,3.6
					L2457.7,907.1z"/>
				<path class="st2" d="M2437.3,883.9v-7.2l21.5-8.1l-21.5-8.1v-7.2h34.5v6.4h-21.3l18.1,6.6v4.6l-18.1,6.6h21.3v6.4H2437.3z"/>
				<path class="st2" d="M2437.3,833.6c0-5.9,3.1-9.8,9.3-9.8c2.8,0,5.2,1.2,6.3,3.4c1.3-3.2,4-5.2,8.4-5.2
					c6.7,0,10.4,4.3,10.4,11.4v12.8h-34.5v-12.6H2437.3z M2443.2,839.8h7.5v-5.9c0-2.6-0.9-4-3.7-4s-3.7,1.5-3.7,4.2v5.7H2443.2z
					 M2456.6,839.8h9.3v-5.9c0-4-1.7-5.6-4.6-5.6s-4.6,1.6-4.6,5.6L2456.6,839.8L2456.6,839.8z"/>
				<path class="st2" d="M2471.7,810v6.4h-34.5V810H2471.7z"/>
				<path class="st2" d="M2437.3,781.6h5.9v14.9h7.2v-12h5.9v12h9.5v-15.4h5.9v21.8h-34.5v-21.3H2437.3z"/>
				<path class="st2" d="M2437.3,749.4h34.5v6.7l-22.7,12.6h22.7v6.4h-34.5v-6.7l22.7-12.6h-22.7V749.4z"/>
				<path class="st2" d="M2437.3,743.9v-25.5h5.9v9.5h28.5v6.4h-28.5v9.5L2437.3,743.9L2437.3,743.9z"/>
				<path class="st2" d="M2463.6,699.3v10.9l8.1,2.5v6.9l-34.5-11.7v-6.4l34.5-11.7v6.9L2463.6,699.3z M2457.7,708.4v-7.3l-12,3.6
					L2457.7,708.4z"/>
				<path class="st2" d="M2437.3,679.2h28.5v-14.6h5.9v21h-34.5v-6.4H2437.3z"/>
				<path class="st2" d="M2437.3,637.5h5.9v14.9h7.2v-12h5.9v12h9.5V637h5.9v21.8h-34.5v-21.3H2437.3z"/>
				<path class="st2" d="M2446.5,617c-2.6,1.3-3.6,2.8-3.6,4.8c0,1.9,1.3,3.3,3.1,3.3c6,0,5.2-14.7,15.5-14.7
					c6.7,0,10.7,4.4,10.7,11c0,6.3-4.4,10.8-9.6,11.9l-3.2-5.2c3.7-1,7-3.1,7-6.8c0-2.7-1.3-4.5-4.5-4.5c-5.7,0-4.6,14.4-15.5,14.4
					c-5.2,0-9.3-4-9.3-9.4c0-4.6,2.3-8.1,6.2-9.9L2446.5,617z"/>
			</g>
		</g>
	</g>
	<g>
		<path class="st2" d="M2092.5,997.7h25.5v5.9h-9.5v28.5h-6.4v-28.5h-9.5v-5.9H2092.5z"/>
		<path class="st2" d="M2128.5,1032.1h-6.4v-34.5h6.4V1032.1z"/>
		<path class="st2" d="M2158.2,1009.2c-1.3-3.5-3.7-6-8.5-6c-5.3,0-9.8,3.7-9.8,11.7s4.5,11.7,9.8,11.7c4.8,0,7.2-2.5,8.5-6l5.8,1.5
			c-1.6,6.6-6.8,10.4-14.3,10.4c-8.6,0-16.3-6.1-16.3-17.6c0-11.5,7.7-17.6,16.3-17.6c7.5,0,12.6,3.8,14.3,10.4L2158.2,1009.2z"/>
		<path class="st2" d="M2200.6,997.7v5.9h-14.9v7.2h12v5.9h-12v9.5h15.4v5.9h-21.8v-34.5L2200.6,997.7L2200.6,997.7z"/>
		<path class="st2" d="M2223.3,1032.1h-6.4v-34.5h6.4V1032.1z"/>
		<path class="st2" d="M2254.7,997.7v34.5h-6.7l-12.6-22.7v22.7h-6.4v-34.5h6.7l12.6,22.7v-22.7H2254.7z"/>
		<path class="st2" d="M2286.1,997.7v34.5h-6.7l-12.6-22.7v22.7h-6.4v-34.5h6.7l12.6,22.7v-22.7H2286.1z"/>
		<path class="st2" d="M2323.6,1014.9c0,12-7.5,17.6-16.2,17.6s-16.2-5.7-16.2-17.6c0-11.9,7.5-17.6,16.2-17.6
			S2323.6,1003,2323.6,1014.9z M2297.6,1014.9c0,8.2,4.6,11.7,9.7,11.7s9.7-3.5,9.7-11.7s-4.6-11.7-9.7-11.7
			S2297.6,1006.7,2297.6,1014.9z"/>
		<path class="st2" d="M2335.5,1032.1l-11.6-34.5h7.1l7.7,25.5l7.7-25.5h7.1l-11.6,34.5H2335.5z"/>
		<path class="st2" d="M2368.8,1024h-10.9l-2.5,8.1h-6.9l11.7-34.5h6.4l11.7,34.5h-6.9L2368.8,1024z M2359.7,1018.1h7.3l-3.6-12
			L2359.7,1018.1z"/>
		<path class="st2" d="M2403,1009.2c-1.3-3.5-3.7-6-8.5-6c-5.3,0-9.8,3.7-9.8,11.7s4.5,11.7,9.8,11.7c4.8,0,7.2-2.5,8.5-6l5.8,1.5
			c-1.6,6.6-6.8,10.4-14.3,10.4c-8.6,0-16.3-6.1-16.3-17.6c0-11.5,7.7-17.6,16.3-17.6c7.5,0,12.6,3.8,14.3,10.4L2403,1009.2z"/>
		<path class="st2" d="M2419.3,1032.1h-6.4v-34.5h6.4V1032.1z"/>
		<path class="st2" d="M2456.8,1014.9c0,12-7.5,17.6-16.2,17.6s-16.2-5.7-16.2-17.6c0-11.9,7.5-17.6,16.2-17.6
			S2456.8,1003,2456.8,1014.9z M2430.8,1014.9c0,8.2,4.6,11.7,9.7,11.7s9.7-3.5,9.7-11.7s-4.6-11.7-9.7-11.7
			S2430.8,1006.7,2430.8,1014.9z M2439.4,987.6h8.3l-6.7,7.3h-4.7L2439.4,987.6z"/>
		<path class="st2" d="M2486.8,997.7v34.5h-6.7l-12.6-22.7v22.7h-6.4v-34.5h6.7l12.6,22.7v-22.7H2486.8z"/>
	</g>
	<g>
		<path class="st2" d="M2510.8,1061.3h-436.1v-91.5h436.1V1061.3z M2080.9,1055.2h423.8V976h-423.8V1055.2z"/>
	</g>
	<g>
		<path class="st2" d="M2510.8,506.7h-436.1V384.2h436.1V506.7z M2080.9,500.6h423.8V390.4h-423.8V500.6z"/>
	</g>
	<g>
		<path class="st2" d="M2248.2,933.7h-174.4V584.8h174.4V933.7z M2079.9,927.5H2242V591h-162.1V927.5z"/>
	</g>
	<g>
		<path class="st2" d="M2508.7,933.7h-174.4V584.8h174.4V933.7z M2340.4,927.5h162.1V591h-162.1V927.5z"/>
	</g>
	<g>
		<polygon class="st2" points="2530.6,569.6 2524.5,569.6 2524.5,547.9 2061.1,547.9 2061.1,569.6 2055,569.6 2055,541.7 
			2530.6,541.7 		"/>
	</g>
	<g>
		<rect x="2289.7" y="516.9" class="st2" width="6.2" height="27.9"/>
	</g>
</g>
</svg>
