<?xml version="1.0" encoding="utf-8"?>
<!-- Generator: Adobe Illustrator 22.1.0, SVG Export Plug-In . SVG Version: 6.00 Build 0)  -->
<svg version="1.1" id="Capa_1" xmlns="http://www.w3.org/2000/svg" xmlns:xlink="http://www.w3.org/1999/xlink" x="0px" y="0px"
	 viewBox="0 0 2813.9 1445.1" style="enable-background:new 0 0 2813.9 1445.1;" xml:space="preserve">
<style type="text/css">
	.st0{clip-path:url(#SVGID_2_);fill:#FFFFFF;fill-opacity:0;}
	.st1{clip-path:url(#SVGID_4_);}
	.st2{fill:#3B34EF;}
	.st3{fill:#E9D43E;}
	.st4{fill:#DD4F52;}
	.st5{fill:#ADACB2;}
	.st6{clip-path:url(#SVGID_6_);}
	.st7{fill:#211915;}
	.st8{fill:#FFFFFF;}
	.st9{clip-path:url(#SVGID_8_);}
	.st10{clip-path:url(#SVGID_10_);}
	.st11{clip-path:url(#SVGID_12_);}
	.st12{clip-path:url(#SVGID_14_);}
	.st13{clip-path:url(#SVGID_16_);}
	.st14{clip-path:url(#SVGID_18_);}
</style>
<g>
	<g>
		<defs>
			<rect id="SVGID_1_" x="-1560.5" y="-3198.4" width="499" height="373"/>
		</defs>
		<clipPath id="SVGID_2_">
			<use xlink:href="#SVGID_1_"  style="overflow:visible;"/>
		</clipPath>
		<rect x="-1560.5" y="-3198.4" class="st0" width="499" height="373"/>
	</g>
</g>
<g>
	<g>
		<defs>
			<rect id="SVGID_3_" x="640.7" y="305.2" width="1532.5" height="834.6"/>
		</defs>
		<clipPath id="SVGID_4_">
			<use xlink:href="#SVGID_3_"  style="overflow:visible;"/>
		</clipPath>
		<g class="st1">
			<path class="st2" d="M772.2,382.3c-8.2,0-14.8-6.6-14.8-14.6c0-8.1,6.6-14.6,14.8-14.6c8.2,0,14.8,6.6,14.8,14.6
				C787,375.7,780.4,382.3,772.2,382.3 M772.2,359.9c-4.3,0-7.9,3.5-7.9,7.8c0,4.3,3.5,7.8,7.9,7.8c4.3,0,7.9-3.5,7.9-7.8
				C780.1,363.4,776.6,359.9,772.2,359.9"/>
		</g>
		<g class="st1">
			<path class="st2" d="M793,412.2c-1.9,0-3.5-1.5-3.5-3.4c0-9.4-7.8-17.1-17.3-17.1c-9.6,0-17.3,7.7-17.3,17.1
				c0,1.9-1.6,3.4-3.5,3.4c-1.9,0-3.5-1.5-3.5-3.4c0-13.2,10.9-24,24.3-24c13.4,0,24.3,10.8,24.3,24
				C796.5,410.6,794.9,412.2,793,412.2"/>
		</g>
		<g class="st1">
			<path class="st2" d="M1245.8,482.2c-8.2,0-14.8-6.6-14.8-14.6c0-8.1,6.6-14.6,14.8-14.6c8.2,0,14.8,6.6,14.8,14.6
				C1260.6,475.6,1254,482.2,1245.8,482.2 M1245.8,459.8c-4.3,0-7.9,3.5-7.9,7.8c0,4.3,3.5,7.8,7.9,7.8c4.3,0,7.9-3.5,7.9-7.8
				C1253.7,463.3,1250.2,459.8,1245.8,459.8"/>
		</g>
		<g class="st1">
			<path class="st2" d="M1266.6,512c-1.9,0-3.5-1.5-3.5-3.4c0-9.4-7.8-17.1-17.3-17.1s-17.3,7.7-17.3,17.1c0,1.9-1.6,3.4-3.5,3.4
				c-1.9,0-3.5-1.5-3.5-3.4c0-13.2,10.9-24,24.3-24s24.3,10.8,24.3,24C1270.1,510.5,1268.6,512,1266.6,512"/>
		</g>
		<g class="st1">
			<path class="st3" d="M1403,482.2c-8.2,0-14.8-6.6-14.8-14.6c0-8.1,6.6-14.6,14.8-14.6c8.2,0,14.8,6.6,14.8,14.6
				C1417.8,475.6,1411.1,482.2,1403,482.2 M1403,459.8c-4.3,0-7.9,3.5-7.9,7.8c0,4.3,3.5,7.8,7.9,7.8c4.3,0,7.9-3.5,7.9-7.8
				C1410.8,463.3,1407.3,459.8,1403,459.8"/>
		</g>
		<g class="st1">
			<path class="st3" d="M1423.8,512c-1.9,0-3.5-1.5-3.5-3.4c0-9.4-7.8-17.1-17.3-17.1c-9.6,0-17.3,7.7-17.3,17.1
				c0,1.9-1.6,3.4-3.5,3.4c-1.9,0-3.5-1.5-3.5-3.4c0-13.2,10.9-24,24.3-24c13.4,0,24.3,10.8,24.3,24
				C1427.2,510.5,1425.7,512,1423.8,512"/>
		</g>
		<g class="st1">
			<path class="st4" d="M1300.5,482.2c5,0,9.5-2.5,12.1-6.3c-1.7-2.4-2.7-5.2-2.7-8.3c0-3.1,1-6,2.7-8.3c-2.7-3.8-7.1-6.3-12.1-6.3
				c-8.2,0-14.8,6.6-14.8,14.6C1285.7,475.6,1292.3,482.2,1300.5,482.2 M1300.5,459.8c4.3,0,7.9,3.5,7.9,7.8c0,4.3-3.5,7.8-7.9,7.8
				c-4.3,0-7.9-3.5-7.9-7.8C1292.6,463.3,1296.2,459.8,1300.5,459.8"/>
		</g>
		<g class="st1">
			<path class="st4" d="M1312.6,487.9c-3.6-2.1-7.7-3.2-12.1-3.2c-13.4,0-24.3,10.8-24.3,24c0,1.9,1.6,3.4,3.5,3.4
				c1.9,0,3.5-1.5,3.5-3.4c0-9.4,7.8-17.1,17.3-17.1c2.2,0,4.3,0.4,6.2,1.2C1308.4,490.8,1310.4,489.1,1312.6,487.9"/>
		</g>
		<g class="st1">
			<path class="st4" d="M1312.6,475.9c2.7,3.8,7.1,6.3,12.1,6.3s9.5-2.5,12.1-6.3c-1.7-2.4-2.7-5.2-2.7-8.3c0-3.1,1-6,2.7-8.3
				c-2.7-3.8-7.1-6.3-12.1-6.3s-9.5,2.5-12.1,6.3c1.7,2.4,2.7,5.2,2.7,8.3C1315.3,470.6,1314.3,473.5,1312.6,475.9 M1324.8,459.8
				c4.3,0,7.9,3.5,7.9,7.8c0,4.3-3.5,7.8-7.9,7.8c-4.3,0-7.9-3.5-7.9-7.8C1316.9,463.3,1320.4,459.8,1324.8,459.8"/>
		</g>
		<g class="st1">
			<path class="st4" d="M1312.6,475.9c1.7-2.4,2.7-5.2,2.7-8.3c0-3.1-1-6-2.7-8.3c-1.7,2.4-2.7,5.2-2.7,8.3
				C1310,470.6,1311,473.5,1312.6,475.9"/>
		</g>
		<g class="st1">
			<path class="st4" d="M1318.6,492.6c1.9-0.7,4-1.2,6.2-1.2c2.2,0,4.3,0.4,6.2,1.2c1.7-1.9,3.7-3.5,5.9-4.8
				c-3.6-2.1-7.7-3.2-12.1-3.2s-8.6,1.2-12.1,3.2C1314.9,489.1,1316.9,490.8,1318.6,492.6"/>
		</g>
		<g class="st1">
			<path class="st4" d="M1312.6,487.9c-2.2,1.3-4.2,2.9-5.9,4.8c2.2,0.9,4.3,2.1,5.9,3.8c1.7-1.6,3.7-2.9,5.9-3.8
				C1316.9,490.8,1314.9,489.1,1312.6,487.9"/>
		</g>
		<g class="st1">
			<path class="st4" d="M1336.9,475.9c2.7,3.8,7.1,6.3,12.1,6.3c8.2,0,14.8-6.6,14.8-14.6c0-8.1-6.6-14.6-14.8-14.6
				c-5,0-9.5,2.5-12.1,6.3c1.7,2.4,2.7,5.2,2.7,8.3C1339.6,470.6,1338.6,473.5,1336.9,475.9 M1349,459.8c4.3,0,7.9,3.5,7.9,7.8
				c0,4.3-3.5,7.8-7.9,7.8c-4.3,0-7.9-3.5-7.9-7.8C1341.2,463.3,1344.7,459.8,1349,459.8"/>
		</g>
		<g class="st1">
			<path class="st4" d="M1336.9,475.9c1.7-2.4,2.7-5.2,2.7-8.3c0-3.1-1-6-2.7-8.3c-1.7,2.4-2.7,5.2-2.7,8.3
				C1334.2,470.6,1335.2,473.5,1336.9,475.9"/>
		</g>
		<g class="st1">
			<path class="st4" d="M1349,484.6c-4.4,0-8.6,1.2-12.1,3.2c2.2,1.3,4.2,2.9,5.9,4.8c1.9-0.7,4-1.2,6.2-1.2
				c9.6,0,17.3,7.7,17.3,17.1c0,1.9,1.6,3.4,3.5,3.4c1.9,0,3.5-1.5,3.5-3.4C1373.3,495.4,1362.4,484.6,1349,484.6"/>
		</g>
		<g class="st1">
			<path class="st4" d="M1336.9,487.9c-2.2,1.3-4.2,2.9-5.9,4.8c2.2,0.9,4.3,2.1,5.9,3.8c1.7-1.6,3.7-2.9,5.9-3.8
				C1341.1,490.8,1339.1,489.1,1336.9,487.9"/>
		</g>
		<g class="st1">
			<path class="st2" d="M1716.6,334.5c-8.2,0-14.8-6.6-14.8-14.6s6.6-14.6,14.8-14.6c8.2,0,14.8,6.6,14.8,14.6
				S1724.7,334.5,1716.6,334.5 M1716.6,312.1c-4.3,0-7.9,3.5-7.9,7.8s3.5,7.8,7.9,7.8c4.3,0,7.9-3.5,7.9-7.8
				S1720.9,312.1,1716.6,312.1"/>
		</g>
		<g class="st1">
			<path class="st2" d="M1737.4,364.4c-1.9,0-3.5-1.5-3.5-3.4c0-9.4-7.8-17.1-17.3-17.1c-9.6,0-17.3,7.7-17.3,17.1
				c0,1.9-1.6,3.4-3.5,3.4c-1.9,0-3.5-1.5-3.5-3.4c0-13.2,10.9-24,24.3-24c13.4,0,24.3,10.8,24.3,24
				C1740.8,362.8,1739.3,364.4,1737.4,364.4"/>
		</g>
		<g class="st1">
			<path class="st5" d="M1946.7,319.4c0,0.2-0.1,0.3-0.1,0.5c0,0.2,0,0.3,0.1,0.5c0-0.2,0.1-0.3,0.1-0.5
				C1946.7,319.7,1946.7,319.5,1946.7,319.4"/>
		</g>
		<g class="st1">
			<path class="st5" d="M1931.9,334.5c4.5,0,8.6-2.1,11.3-5.3c-2.1-2.4-3.4-5.5-3.5-8.9c-0.3,4-3.6,7.3-7.8,7.3
				c-4.3,0-7.9-3.5-7.9-7.8c0-4.3,3.5-7.8,7.9-7.8c4.2,0,7.5,3.2,7.8,7.3c0.1-3.4,1.4-6.4,3.5-8.9c-2.7-3.2-6.7-5.3-11.3-5.3
				c-8.2,0-14.8,6.6-14.8,14.6C1917.1,327.9,1923.8,334.5,1931.9,334.5"/>
		</g>
		<g class="st1">
			<path class="st5" d="M1943.2,339.7c-3.4-1.8-7.2-2.8-11.3-2.8c-13.4,0-24.3,10.8-24.3,24c0,1.9,1.6,3.4,3.5,3.4
				c1.9,0,3.5-1.5,3.5-3.4c0-9.4,7.8-17.1,17.3-17.1c1.7,0,3.3,0.3,4.8,0.8C1938.6,342.6,1940.8,341,1943.2,339.7"/>
		</g>
		<g class="st1">
			<path class="st5" d="M1939.7,319.4c0,0.2-0.1,0.3-0.1,0.5c0,0.2,0,0.3,0.1,0.5c0-0.2,0.1-0.3,0.1-0.5
				C1939.8,319.7,1939.7,319.5,1939.7,319.4"/>
		</g>
		<g class="st1">
			<path class="st5" d="M1954.5,312.1c4.3,0,7.9,3.5,7.9,7.8c0,4.3-3.5,7.8-7.9,7.8c-4.2,0-7.5-3.2-7.8-7.3
				c-0.1,3.4-1.4,6.4-3.5,8.9c2.7,3.2,6.7,5.3,11.3,5.3c8.2,0,14.8-6.6,14.8-14.6c0-8.1-6.6-14.6-14.8-14.6c-4.5,0-8.6,2.1-11.3,5.3
				c2.1,2.4,3.4,5.5,3.5,8.9C1946.9,315.3,1950.3,312.1,1954.5,312.1"/>
		</g>
		<g class="st1">
			<path class="st5" d="M1939.8,319.9c0,0.2,0,0.3-0.1,0.5c0.1,3.4,1.4,6.4,3.5,8.9c2.1-2.4,3.4-5.5,3.5-8.9c0-0.2-0.1-0.3-0.1-0.5
				c0-0.2,0-0.3,0.1-0.5c-0.1-3.4-1.4-6.4-3.5-8.9c-2.1,2.4-3.4,5.5-3.5,8.9C1939.7,319.5,1939.8,319.7,1939.8,319.9"/>
		</g>
		<g class="st1">
			<path class="st5" d="M1954.5,336.9c-4.1,0-7.9,1-11.3,2.8c2.4,1.3,4.6,2.9,6.4,4.9c1.5-0.4,3.2-0.8,4.8-0.8
				c9.6,0,17.3,7.7,17.3,17.1c0,1.9,1.6,3.4,3.5,3.4c1.9,0,3.5-1.5,3.5-3.4C1978.8,347.7,1967.9,336.9,1954.5,336.9"/>
		</g>
		<g class="st1">
			<path class="st5" d="M1943.2,339.7c-2.4,1.3-4.6,2.9-6.4,4.9c2.4,0.7,4.6,1.9,6.4,3.5c1.8-1.6,4-2.8,6.4-3.5
				C1947.8,342.6,1945.6,341,1943.2,339.7"/>
		</g>
		<g class="st1">
			<path class="st3" d="M1873.7,334.5c-8.2,0-14.8-6.6-14.8-14.6s6.6-14.6,14.8-14.6c8.2,0,14.8,6.6,14.8,14.6
				S1881.8,334.5,1873.7,334.5 M1873.7,312.1c-4.3,0-7.9,3.5-7.9,7.8s3.5,7.8,7.9,7.8c4.3,0,7.9-3.5,7.9-7.8
				S1878,312.1,1873.7,312.1"/>
		</g>
		<g class="st1">
			<path class="st3" d="M1894.5,364.4c-1.9,0-3.5-1.5-3.5-3.4c0-9.4-7.8-17.1-17.3-17.1c-9.6,0-17.3,7.7-17.3,17.1
				c0,1.9-1.6,3.4-3.5,3.4c-1.9,0-3.5-1.5-3.5-3.4c0-13.2,10.9-24,24.3-24c13.4,0,24.3,10.8,24.3,24
				C1898,362.8,1896.4,364.4,1894.5,364.4"/>
		</g>
		<g class="st1">
			<path class="st4" d="M1771.2,334.5c5,0,9.5-2.5,12.1-6.3c-1.7-2.4-2.7-5.2-2.7-8.3c0-3.1,1-6,2.7-8.3c-2.7-3.8-7.1-6.3-12.1-6.3
				c-8.2,0-14.8,6.6-14.8,14.6C1756.4,327.9,1763.1,334.5,1771.2,334.5 M1771.2,312.1c4.3,0,7.9,3.5,7.9,7.8c0,4.3-3.5,7.8-7.9,7.8
				c-4.3,0-7.9-3.5-7.9-7.8C1763.4,315.6,1766.9,312.1,1771.2,312.1"/>
		</g>
		<g class="st1">
			<path class="st4" d="M1783.4,340.2c-3.6-2.1-7.7-3.2-12.1-3.2c-13.4,0-24.3,10.8-24.3,24c0,1.9,1.6,3.4,3.5,3.4
				c1.9,0,3.5-1.5,3.5-3.4c0-9.4,7.8-17.1,17.3-17.1c2.2,0,4.3,0.4,6.2,1.2C1779.1,343.1,1781.1,341.5,1783.4,340.2"/>
		</g>
		<g class="st1">
			<path class="st4" d="M1783.4,328.2c2.7,3.8,7.1,6.3,12.1,6.3s9.5-2.5,12.1-6.3c-1.7-2.4-2.7-5.2-2.7-8.3c0-3.1,1-6,2.7-8.3
				c-2.7-3.8-7.1-6.3-12.1-6.3s-9.5,2.5-12.1,6.3c1.7,2.4,2.7,5.2,2.7,8.3C1786,323,1785,325.8,1783.4,328.2 M1795.5,312.1
				c4.3,0,7.9,3.5,7.9,7.8c0,4.3-3.5,7.8-7.9,7.8c-4.3,0-7.9-3.5-7.9-7.8C1787.6,315.6,1791.2,312.1,1795.5,312.1"/>
		</g>
		<g class="st1">
			<path class="st4" d="M1783.4,328.2c1.7-2.4,2.7-5.2,2.7-8.3c0-3.1-1-6-2.7-8.3c-1.7,2.4-2.7,5.2-2.7,8.3
				C1780.7,323,1781.7,325.8,1783.4,328.2"/>
		</g>
		<g class="st1">
			<path class="st4" d="M1789.3,345c1.9-0.7,4-1.2,6.2-1.2c2.2,0,4.3,0.4,6.2,1.2c1.7-1.9,3.7-3.5,5.9-4.8
				c-3.6-2.1-7.7-3.2-12.1-3.2c-4.4,0-8.6,1.2-12.1,3.2C1785.6,341.5,1787.6,343.1,1789.3,345"/>
		</g>
		<g class="st1">
			<path class="st4" d="M1783.4,340.2c-2.2,1.3-4.2,2.9-5.9,4.8c2.2,0.9,4.3,2.1,5.9,3.8c1.7-1.6,3.7-2.9,5.9-3.8
				C1787.6,343.1,1785.6,341.5,1783.4,340.2"/>
		</g>
		<g class="st1">
			<path class="st4" d="M1807.6,328.2c2.7,3.8,7.1,6.3,12.1,6.3c8.2,0,14.8-6.6,14.8-14.6c0-8.1-6.6-14.6-14.8-14.6
				c-5,0-9.5,2.5-12.1,6.3c1.7,2.4,2.7,5.2,2.7,8.3C1810.3,323,1809.3,325.8,1807.6,328.2 M1819.8,312.1c4.3,0,7.9,3.5,7.9,7.8
				c0,4.3-3.5,7.8-7.9,7.8c-4.3,0-7.9-3.5-7.9-7.8C1811.9,315.6,1815.4,312.1,1819.8,312.1"/>
		</g>
		<g class="st1">
			<path class="st4" d="M1807.6,328.2c1.7-2.4,2.7-5.2,2.7-8.3c0-3.1-1-6-2.7-8.3c-1.7,2.4-2.7,5.2-2.7,8.3
				C1805,323,1806,325.8,1807.6,328.2"/>
		</g>
		<g class="st1">
			<path class="st4" d="M1819.8,336.9c-4.4,0-8.6,1.2-12.1,3.2c2.2,1.3,4.2,2.9,5.9,4.8c1.9-0.7,4-1.2,6.2-1.2
				c9.6,0,17.3,7.7,17.3,17.1c0,1.9,1.6,3.4,3.5,3.4c1.9,0,3.5-1.5,3.5-3.4C1844,347.7,1833.2,336.9,1819.8,336.9"/>
		</g>
		<g class="st1">
			<path class="st4" d="M1807.6,340.2c-2.2,1.3-4.2,2.9-5.9,4.8c2.2,0.9,4.3,2.1,5.9,3.8c1.7-1.6,3.7-2.9,5.9-3.8
				C1811.9,343.1,1809.9,341.5,1807.6,340.2"/>
		</g>
		<g class="st1">
			<path class="st2" d="M1850.3,489.1c-8.2,0-14.8-6.6-14.8-14.6c0-8.1,6.6-14.6,14.8-14.6c8.2,0,14.8,6.6,14.8,14.6
				C1865.1,482.6,1858.5,489.1,1850.3,489.1 M1850.3,466.7c-4.3,0-7.9,3.5-7.9,7.8c0,4.3,3.5,7.8,7.9,7.8c4.3,0,7.9-3.5,7.9-7.8
				C1858.2,470.2,1854.7,466.7,1850.3,466.7"/>
		</g>
		<g class="st1">
			<path class="st2" d="M1871.1,519c-1.9,0-3.5-1.5-3.5-3.4c0-9.4-7.8-17.1-17.3-17.1c-9.6,0-17.3,7.7-17.3,17.1
				c0,1.9-1.6,3.4-3.5,3.4c-1.9,0-3.5-1.5-3.5-3.4c0-13.2,10.9-24,24.3-24s24.3,10.8,24.3,24C1874.6,517.5,1873,519,1871.1,519"/>
		</g>
		<g class="st1">
			<path class="st3" d="M2014.5,489.1c-8.2,0-14.8-6.6-14.8-14.6c0-8.1,6.6-14.6,14.8-14.6s14.8,6.6,14.8,14.6
				C2029.3,482.6,2022.6,489.1,2014.5,489.1 M2014.5,466.7c-4.3,0-7.9,3.5-7.9,7.8c0,4.3,3.5,7.8,7.9,7.8c4.3,0,7.9-3.5,7.9-7.8
				C2022.3,470.2,2018.8,466.7,2014.5,466.7"/>
		</g>
		<g class="st1">
			<path class="st3" d="M2035.3,519c-1.9,0-3.5-1.5-3.5-3.4c0-9.4-7.8-17.1-17.3-17.1c-9.6,0-17.3,7.7-17.3,17.1
				c0,1.9-1.6,3.4-3.5,3.4c-1.9,0-3.5-1.5-3.5-3.4c0-13.2,10.9-24,24.3-24c13.4,0,24.3,10.8,24.3,24
				C2038.7,517.5,2037.2,519,2035.3,519"/>
		</g>
		<g class="st1">
			<path class="st4" d="M1908.5,489.1c5,0,9.5-2.5,12.1-6.3c-1.7-2.4-2.7-5.2-2.7-8.3c0-3.1,1-6,2.7-8.3c-2.7-3.8-7.1-6.3-12.1-6.3
				c-8.2,0-14.8,6.6-14.8,14.6C1893.7,482.6,1900.3,489.1,1908.5,489.1 M1908.5,466.7c4.3,0,7.9,3.5,7.9,7.8c0,4.3-3.5,7.8-7.9,7.8
				c-4.3,0-7.9-3.5-7.9-7.8C1900.6,470.2,1904.2,466.7,1908.5,466.7"/>
		</g>
		<g class="st1">
			<path class="st4" d="M1920.6,494.8c-3.6-2.1-7.7-3.2-12.1-3.2c-13.4,0-24.3,10.8-24.3,24c0,1.9,1.6,3.4,3.5,3.4
				c1.9,0,3.5-1.5,3.5-3.4c0-9.4,7.8-17.1,17.3-17.1c2.2,0,4.3,0.4,6.2,1.2C1916.4,497.7,1918.4,496.1,1920.6,494.8"/>
		</g>
		<g class="st1">
			<path class="st4" d="M1920.6,482.8c2.7,3.8,7.1,6.3,12.1,6.3c5,0,9.5-2.5,12.1-6.3c-1.7-2.4-2.7-5.2-2.7-8.3c0-3.1,1-6,2.7-8.3
				c-2.7-3.8-7.1-6.3-12.1-6.3c-5,0-9.5,2.5-12.1,6.3c1.7,2.4,2.7,5.2,2.7,8.3C1923.3,477.6,1922.3,480.5,1920.6,482.8
				 M1932.8,466.7c4.3,0,7.9,3.5,7.9,7.8c0,4.3-3.5,7.8-7.9,7.8c-4.3,0-7.9-3.5-7.9-7.8C1924.9,470.2,1928.4,466.7,1932.8,466.7"/>
		</g>
		<g class="st1">
			<path class="st4" d="M1920.6,482.8c1.7-2.4,2.7-5.2,2.7-8.3c0-3.1-1-6-2.7-8.3c-1.7,2.4-2.7,5.2-2.7,8.3
				C1918,477.6,1919,480.5,1920.6,482.8"/>
		</g>
		<g class="st1">
			<path class="st4" d="M1926.6,499.6c1.9-0.7,4-1.2,6.2-1.2c2.2,0,4.3,0.4,6.2,1.2c1.7-1.9,3.7-3.5,5.9-4.8
				c-3.6-2.1-7.7-3.2-12.1-3.2c-4.4,0-8.6,1.2-12.1,3.2C1922.9,496.1,1924.9,497.7,1926.6,499.6"/>
		</g>
		<g class="st1">
			<path class="st4" d="M1920.6,494.8c-2.2,1.3-4.2,2.9-5.9,4.8c2.2,0.9,4.3,2.1,5.9,3.8c1.7-1.6,3.7-2.9,5.9-3.8
				C1924.9,497.7,1922.9,496.1,1920.6,494.8"/>
		</g>
		<g class="st1">
			<path class="st4" d="M1944.9,482.8c2.7,3.8,7.1,6.3,12.1,6.3c8.2,0,14.8-6.6,14.8-14.6c0-8.1-6.6-14.6-14.8-14.6
				c-5,0-9.5,2.5-12.1,6.3c1.7,2.4,2.7,5.2,2.7,8.3C1947.6,477.6,1946.6,480.5,1944.9,482.8 M1957,466.7c4.3,0,7.9,3.5,7.9,7.8
				c0,4.3-3.5,7.8-7.9,7.8c-4.3,0-7.9-3.5-7.9-7.8C1949.2,470.2,1952.7,466.7,1957,466.7"/>
		</g>
		<g class="st1">
			<path class="st4" d="M1944.9,482.8c1.7-2.4,2.7-5.2,2.7-8.3c0-3.1-1-6-2.7-8.3c-1.7,2.4-2.7,5.2-2.7,8.3
				C1942.2,477.6,1943.2,480.5,1944.9,482.8"/>
		</g>
		<g class="st1">
			<path class="st4" d="M1957,491.6c-4.4,0-8.6,1.2-12.1,3.2c2.2,1.3,4.2,2.9,5.9,4.8c1.9-0.7,4-1.2,6.2-1.2
				c9.6,0,17.3,7.7,17.3,17.1c0,1.9,1.6,3.4,3.5,3.4c1.9,0,3.5-1.5,3.5-3.4C1981.3,502.3,1970.4,491.6,1957,491.6"/>
		</g>
		<g class="st1">
			<path class="st4" d="M1944.9,494.8c-2.2,1.3-4.2,2.9-5.9,4.8c2.2,0.9,4.3,2.1,5.9,3.8c1.7-1.6,3.7-2.9,5.9-3.8
				C1949.1,497.7,1947.1,496.1,1944.9,494.8"/>
		</g>
		<g class="st1">
			<path class="st4" d="M1455.5,335.5c5,0,9.5-2.5,12.1-6.3c-1.7-2.4-2.7-5.2-2.7-8.3c0-3.1,1-6,2.7-8.3c-2.7-3.8-7.1-6.3-12.1-6.3
				c-8.2,0-14.8,6.6-14.8,14.6C1440.7,329,1447.3,335.5,1455.5,335.5 M1455.5,313.2c4.3,0,7.9,3.5,7.9,7.8c0,4.3-3.5,7.8-7.9,7.8
				c-4.3,0-7.9-3.5-7.9-7.8C1447.6,316.6,1451.1,313.2,1455.5,313.2"/>
		</g>
		<g class="st1">
			<path class="st4" d="M1467.6,341.2c-3.6-2.1-7.7-3.2-12.1-3.2c-13.4,0-24.3,10.8-24.3,24c0,1.9,1.6,3.4,3.5,3.4
				c1.9,0,3.5-1.5,3.5-3.4c0-9.4,7.8-17.1,17.3-17.1c2.2,0,4.3,0.4,6.2,1.2C1463.4,344.1,1465.4,342.5,1467.6,341.2"/>
		</g>
		<g class="st1">
			<path class="st4" d="M1467.6,329.2c2.7,3.8,7.1,6.3,12.1,6.3s9.5-2.5,12.1-6.3c-1.7-2.4-2.7-5.2-2.7-8.3c0-3.1,1-6,2.7-8.3
				c-2.7-3.8-7.1-6.3-12.1-6.3s-9.5,2.5-12.1,6.3c1.7,2.4,2.7,5.2,2.7,8.3C1470.3,324,1469.3,326.9,1467.6,329.2 M1479.7,313.2
				c4.3,0,7.9,3.5,7.9,7.8c0,4.3-3.5,7.8-7.9,7.8c-4.3,0-7.9-3.5-7.9-7.8C1471.9,316.6,1475.4,313.2,1479.7,313.2"/>
		</g>
		<g class="st1">
			<path class="st4" d="M1467.6,329.2c1.7-2.4,2.7-5.2,2.7-8.3c0-3.1-1-6-2.7-8.3c-1.7,2.4-2.7,5.2-2.7,8.3
				C1464.9,324,1465.9,326.9,1467.6,329.2"/>
		</g>
		<g class="st1">
			<path class="st4" d="M1473.5,346c1.9-0.7,4-1.2,6.2-1.2c2.2,0,4.3,0.4,6.2,1.2c1.7-1.9,3.7-3.5,5.9-4.8
				c-3.6-2.1-7.7-3.2-12.1-3.2s-8.6,1.2-12.1,3.2C1469.8,342.5,1471.8,344.1,1473.5,346"/>
		</g>
		<g class="st1">
			<path class="st4" d="M1467.6,341.2c-2.2,1.3-4.2,2.9-5.9,4.8c2.2,0.9,4.3,2.1,5.9,3.8c1.7-1.6,3.7-2.9,5.9-3.8
				C1471.8,344.1,1469.8,342.5,1467.6,341.2"/>
		</g>
		<g class="st1">
			<path class="st4" d="M1491.9,329.2c2.7,3.8,7.1,6.3,12.1,6.3c8.2,0,14.8-6.6,14.8-14.6c0-8.1-6.6-14.6-14.8-14.6
				c-5,0-9.5,2.5-12.1,6.3c1.7,2.4,2.7,5.2,2.7,8.3C1494.5,324,1493.5,326.9,1491.9,329.2 M1504,313.2c4.3,0,7.9,3.5,7.9,7.8
				c0,4.3-3.5,7.8-7.9,7.8c-4.3,0-7.9-3.5-7.9-7.8C1496.2,316.6,1499.7,313.2,1504,313.2"/>
		</g>
		<g class="st1">
			<path class="st4" d="M1491.9,329.2c1.7-2.4,2.7-5.2,2.7-8.3c0-3.1-1-6-2.7-8.3c-1.7,2.4-2.7,5.2-2.7,8.3
				C1489.2,324,1490.2,326.9,1491.9,329.2"/>
		</g>
		<g class="st1">
			<path class="st4" d="M1504,338c-4.4,0-8.6,1.2-12.1,3.2c2.2,1.3,4.2,2.9,5.9,4.8c1.9-0.7,4-1.2,6.2-1.2c9.6,0,17.3,7.7,17.3,17.1
				c0,1.9,1.6,3.4,3.5,3.4c1.9,0,3.5-1.5,3.5-3.4C1528.3,348.8,1517.4,338,1504,338"/>
		</g>
		<g class="st1">
			<path class="st4" d="M1491.9,341.2c-2.2,1.3-4.2,2.9-5.9,4.8c2.2,0.9,4.3,2.1,5.9,3.8c1.7-1.6,3.7-2.9,5.9-3.8
				C1496.1,344.1,1494.1,342.5,1491.9,341.2"/>
		</g>
		<g class="st1">
			<path class="st2" d="M1561,335.5c-8.2,0-14.8-6.6-14.8-14.6c0-8.1,6.6-14.6,14.8-14.6c8.2,0,14.8,6.6,14.8,14.6
				C1575.8,329,1569.2,335.5,1561,335.5 M1561,313.2c-4.3,0-7.9,3.5-7.9,7.8c0,4.3,3.5,7.8,7.9,7.8c4.3,0,7.9-3.5,7.9-7.8
				C1568.9,316.6,1565.3,313.2,1561,313.2"/>
		</g>
		<g class="st1">
			<path class="st2" d="M1581.8,365.4c-1.9,0-3.5-1.5-3.5-3.4c0-9.4-7.8-17.1-17.3-17.1c-9.6,0-17.3,7.7-17.3,17.1
				c0,1.9-1.6,3.4-3.5,3.4c-1.9,0-3.5-1.5-3.5-3.4c0-13.2,10.9-24,24.3-24c13.4,0,24.3,10.8,24.3,24
				C1585.3,363.9,1583.7,365.4,1581.8,365.4"/>
		</g>
		<g class="st1">
			<path class="st2" d="M772.2,685.6c-8.2,0-14.8-6.6-14.8-14.6c0-8.1,6.6-14.6,14.8-14.6c8.2,0,14.8,6.6,14.8,14.6
				C787,679,780.4,685.6,772.2,685.6 M772.2,663.2c-4.3,0-7.9,3.5-7.9,7.8c0,4.3,3.5,7.8,7.9,7.8c4.3,0,7.9-3.5,7.9-7.8
				C780.1,666.7,776.6,663.2,772.2,663.2"/>
		</g>
		<g class="st1">
			<path class="st2" d="M793,715.4c-1.9,0-3.5-1.5-3.5-3.4c0-9.4-7.8-17.1-17.3-17.1c-9.6,0-17.3,7.7-17.3,17.1
				c0,1.9-1.6,3.4-3.5,3.4c-1.9,0-3.5-1.5-3.5-3.4c0-13.2,10.9-24,24.3-24c13.4,0,24.3,10.8,24.3,24
				C796.5,713.9,794.9,715.4,793,715.4"/>
		</g>
		<g class="st1">
			<path class="st2" d="M713.8,536.5c-8.2,0-14.8-6.6-14.8-14.6c0-8.1,6.6-14.6,14.8-14.6c8.2,0,14.8,6.6,14.8,14.6
				C728.6,530,721.9,536.5,713.8,536.5 M713.8,514.1c-4.3,0-7.9,3.5-7.9,7.8c0,4.3,3.5,7.8,7.9,7.8c4.3,0,7.9-3.5,7.9-7.8
				C721.6,517.6,718.1,514.1,713.8,514.1"/>
		</g>
		<g class="st1">
			<path class="st2" d="M734.6,566.4c-1.9,0-3.5-1.5-3.5-3.4c0-9.4-7.8-17.1-17.3-17.1c-9.6,0-17.3,7.7-17.3,17.1
				c0,1.9-1.6,3.4-3.5,3.4c-1.9,0-3.5-1.5-3.5-3.4c0-13.2,10.9-24,24.3-24c13.4,0,24.3,10.8,24.3,24
				C738.1,564.9,736.5,566.4,734.6,566.4"/>
		</g>
		<g class="st1">
			<path class="st2" d="M770.2,536.5c-8.2,0-14.8-6.6-14.8-14.6c0-8.1,6.6-14.6,14.8-14.6c8.2,0,14.8,6.6,14.8,14.6
				C785,530,778.4,536.5,770.2,536.5 M770.2,514.1c-4.3,0-7.9,3.5-7.9,7.8c0,4.3,3.5,7.8,7.9,7.8c4.3,0,7.9-3.5,7.9-7.8
				C778.1,517.6,774.5,514.1,770.2,514.1"/>
		</g>
		<g class="st1">
			<path class="st2" d="M791,566.4c-1.9,0-3.5-1.5-3.5-3.4c0-9.4-7.8-17.1-17.3-17.1s-17.3,7.7-17.3,17.1c0,1.9-1.6,3.4-3.5,3.4
				c-1.9,0-3.5-1.5-3.5-3.4c0-13.2,10.9-24,24.3-24c13.4,0,24.3,10.8,24.3,24C794.5,564.9,792.9,566.4,791,566.4"/>
		</g>
		<g class="st1">
			<path class="st2" d="M826.9,536.5c-8.2,0-14.8-6.6-14.8-14.6c0-8.1,6.6-14.6,14.8-14.6c8.2,0,14.8,6.6,14.8,14.6
				C841.7,530,835.1,536.5,826.9,536.5 M826.9,514.1c-4.3,0-7.9,3.5-7.9,7.8c0,4.3,3.5,7.8,7.9,7.8c4.3,0,7.9-3.5,7.9-7.8
				C834.7,517.6,831.2,514.1,826.9,514.1"/>
		</g>
		<g class="st1">
			<path class="st2" d="M847.7,566.4c-1.9,0-3.5-1.5-3.5-3.4c0-9.4-7.8-17.1-17.3-17.1c-9.6,0-17.3,7.7-17.3,17.1
				c0,1.9-1.6,3.4-3.5,3.4c-1.9,0-3.5-1.5-3.5-3.4c0-13.2,10.9-24,24.3-24c13.4,0,24.3,10.8,24.3,24
				C851.2,564.9,849.6,566.4,847.7,566.4"/>
		</g>
		<g class="st1">
			<rect x="967.1" y="505.4" class="st2" width="23.6" height="23.3"/>
		</g>
		<g class="st1">
			<rect x="997.9" y="505.4" class="st2" width="23.6" height="23.3"/>
		</g>
		<g class="st1">
			<rect x="1028.8" y="505.4" class="st2" width="23.6" height="23.3"/>
		</g>
		<g class="st1">
			<rect x="1059.6" y="505.4" class="st2" width="23.6" height="23.3"/>
		</g>
		<g class="st1">
			<rect x="1090.5" y="505.4" class="st2" width="23.6" height="23.3"/>
		</g>
		<g class="st1">
			<rect x="1121.4" y="505.4" class="st2" width="23.6" height="23.3"/>
		</g>
		<g class="st1">
			<rect x="1152.2" y="505.4" class="st2" width="23.6" height="23.3"/>
		</g>
		<g class="st1">
			<rect x="967.1" y="536.8" class="st2" width="23.6" height="23.3"/>
		</g>
		<g class="st1">
			<rect x="997.9" y="536.8" class="st2" width="23.6" height="23.3"/>
		</g>
		<g class="st1">
			<rect x="1028.8" y="536.8" class="st2" width="23.6" height="23.3"/>
		</g>
		<g class="st1">
			<rect x="1059.6" y="536.8" class="st2" width="23.6" height="23.3"/>
		</g>
		<g class="st1">
			<rect x="1090.5" y="536.8" class="st2" width="23.6" height="23.3"/>
		</g>
		<g class="st1">
			<rect x="1121.4" y="536.8" class="st2" width="23.6" height="23.3"/>
		</g>
		<g class="st1">
			<rect x="1152.2" y="536.8" class="st2" width="23.6" height="23.3"/>
		</g>
		<g class="st1">
			<rect x="967.1" y="568.1" class="st2" width="23.6" height="23.3"/>
		</g>
		<g class="st1">
			<rect x="997.9" y="568.1" class="st2" width="23.6" height="23.3"/>
		</g>
		<g class="st1">
			<rect x="1028.8" y="568.1" class="st2" width="23.6" height="23.3"/>
		</g>
		<g class="st1">
			<rect x="1059.6" y="568.1" class="st2" width="23.6" height="23.3"/>
		</g>
		<g class="st1">
			<rect x="1090.5" y="568.1" class="st2" width="23.6" height="23.3"/>
		</g>
		<g class="st1">
			<rect x="1121.4" y="568.1" class="st2" width="23.6" height="23.3"/>
		</g>
		<g class="st1">
			<rect x="1152.2" y="568.1" class="st2" width="23.6" height="23.3"/>
		</g>
		<g class="st1">
			<rect x="967.1" y="599.4" class="st2" width="23.6" height="23.3"/>
		</g>
		<g class="st1">
			<rect x="997.9" y="599.4" class="st2" width="23.6" height="23.3"/>
		</g>
		<g class="st1">
			<rect x="1028.8" y="599.4" class="st2" width="23.6" height="23.3"/>
		</g>
		<g class="st1">
			<rect x="1059.6" y="599.4" class="st2" width="23.6" height="23.3"/>
		</g>
		<g class="st1">
			<rect x="1090.5" y="599.4" class="st2" width="23.6" height="23.3"/>
		</g>
		<g class="st1">
			<rect x="1121.4" y="599.4" class="st2" width="23.6" height="23.3"/>
		</g>
		<g class="st1">
			<rect x="1152.2" y="599.4" class="st2" width="23.6" height="23.3"/>
		</g>
		<g class="st1">
			<rect x="967.1" y="630.7" class="st2" width="23.6" height="23.3"/>
		</g>
		<g class="st1">
			<rect x="997.9" y="630.7" class="st2" width="23.6" height="23.3"/>
		</g>
		<g class="st1">
			<rect x="1028.8" y="630.7" class="st2" width="23.6" height="23.3"/>
		</g>
		<g class="st1">
			<rect x="1059.6" y="630.7" class="st4" width="23.6" height="23.3"/>
		</g>
		<g class="st1">
			<rect x="1090.5" y="630.7" class="st4" width="23.6" height="23.3"/>
		</g>
		<g class="st1">
			<rect x="1121.4" y="630.7" class="st4" width="23.6" height="23.3"/>
		</g>
		<g class="st1">
			<rect x="1152.2" y="630.7" class="st4" width="23.6" height="23.3"/>
		</g>
		<g class="st1">
			<rect x="967.1" y="662" class="st2" width="23.6" height="23.3"/>
		</g>
		<g class="st1">
			<rect x="997.9" y="662" class="st2" width="23.6" height="23.3"/>
		</g>
		<g class="st1">
			<rect x="1028.8" y="662" class="st2" width="23.6" height="23.3"/>
		</g>
		<g class="st1">
			<rect x="1059.6" y="662" class="st4" width="23.6" height="23.3"/>
		</g>
		<g class="st1">
			<rect x="1090.5" y="662" class="st4" width="23.6" height="23.3"/>
		</g>
		<g class="st1">
			<rect x="1121.4" y="662" class="st4" width="23.6" height="23.3"/>
		</g>
		<g class="st1">
			<rect x="1152.2" y="662" class="st4" width="23.6" height="23.3"/>
		</g>
		<g class="st1">
			<rect x="967.1" y="693.3" class="st2" width="23.6" height="23.3"/>
		</g>
		<g class="st1">
			<rect x="997.9" y="693.3" class="st2" width="23.6" height="23.3"/>
		</g>
		<g class="st1">
			<rect x="1028.8" y="693.3" class="st2" width="23.6" height="23.3"/>
		</g>
		<g class="st1">
			<rect x="1059.6" y="693.3" class="st4" width="23.6" height="23.3"/>
		</g>
		<g class="st1">
			<rect x="1090.5" y="693.3" class="st4" width="23.6" height="23.3"/>
		</g>
		<g class="st1">
			<rect x="1121.4" y="693.3" class="st4" width="23.6" height="23.3"/>
		</g>
		<g class="st1">
			<rect x="1152.2" y="693.3" class="st4" width="23.6" height="23.3"/>
		</g>
		<g class="st1">
			<rect x="1276.3" y="629.6" class="st4" width="23.6" height="23.3"/>
		</g>
		<g class="st1">
			<rect x="1307.2" y="629.6" class="st4" width="23.6" height="23.3"/>
		</g>
		<g class="st1">
			<rect x="1338" y="629.6" class="st4" width="23.6" height="23.3"/>
		</g>
		<g class="st1">
			<rect x="1368.9" y="629.6" class="st4" width="23.6" height="23.3"/>
		</g>
		<g class="st1">
			<rect x="1276.3" y="660.9" class="st4" width="23.6" height="23.3"/>
		</g>
		<g class="st1">
			<rect x="1307.2" y="660.9" class="st4" width="23.6" height="23.3"/>
		</g>
		<g class="st1">
			<rect x="1338" y="660.9" class="st4" width="23.6" height="23.3"/>
		</g>
		<g class="st1">
			<rect x="1368.9" y="660.9" class="st4" width="23.6" height="23.3"/>
		</g>
		<g class="st1">
			<rect x="1276.3" y="692.2" class="st4" width="23.6" height="23.3"/>
		</g>
		<g class="st1">
			<rect x="1307.2" y="692.2" class="st4" width="23.6" height="23.3"/>
		</g>
		<g class="st1">
			<rect x="1338" y="692.2" class="st4" width="23.6" height="23.3"/>
		</g>
		<g class="st1">
			<rect x="1368.9" y="692.2" class="st4" width="23.6" height="23.3"/>
		</g>
		<g class="st1">
			<path class="st2" d="M1652.9,592.5c43.5,0,79,35,79,78.1c0,43-35.4,78.1-79,78.1c-43.5,0-79-35-79-78.1
				C1573.9,627.6,1609.3,592.5,1652.9,592.5 M1652.9,523.1c-82.4,0-149.2,66-149.2,147.5s66.8,147.5,149.2,147.5
				c82.4,0,149.2-66,149.2-147.5S1735.3,523.1,1652.9,523.1"/>
		</g>
	</g>
	<g>
		<defs>
			<rect id="SVGID_5_" x="640.7" y="305.2" width="1532.5" height="834.6"/>
		</defs>
		<clipPath id="SVGID_6_">
			<use xlink:href="#SVGID_5_"  style="overflow:visible;"/>
		</clipPath>
		<g class="st6">
			<path class="st7" d="M714.4,436.1v9.5h-4.6v-24.3h9.3c5.2,0,7.7,3.2,7.7,7.4c0,4.2-2.5,7.4-7.7,7.4H714.4z M722.2,428.7
				c0-2.2-1.2-3.2-3.2-3.2h-4.5v6.5h4.5C721,432,722.2,431,722.2,428.7z"/>
			<path class="st7" d="M730.3,445.7v-17.5h4.4v2.8c1.3-2,3.2-3.1,5.2-3.1c0.8,0,1.4,0.1,2.1,0.3l-0.8,4c-0.5-0.3-1.1-0.5-1.8-0.5
				c-2.5,0-4.7,2-4.7,7.7v6.2H730.3z"/>
			<path class="st7" d="M752.8,427.9c5.7,0,9,4,9,9s-3.3,9-9,9s-9-4-9-9S747.1,427.9,752.8,427.9z M752.8,442.3
				c2.8,0,4.4-2.5,4.4-5.3s-1.6-5.3-4.4-5.3s-4.4,2.5-4.4,5.3S750,442.3,752.8,442.3z"/>
			<path class="st7" d="M772.9,427.9c1.8,0,3.5,0.9,4.3,1.9v-8.7h4.4v24.6h-4.4v-1.8c-0.5,0.9-2.1,2.1-4.3,2.1c-5.3,0-8.1-3.6-8.1-9
				C764.8,431.5,767.6,427.9,772.9,427.9z M773.5,442.3c2.3,0,4.1-1.9,4.1-5.3c0-3.5-1.8-5.3-4.1-5.3c-2.3,0-4.1,1.9-4.1,5.3
				C769.4,440.4,771.2,442.3,773.5,442.3z"/>
			<path class="st7" d="M797.8,445.7v-2.8c-1.3,1.8-3.2,3.1-5.5,3.1c-3.2,0-5.4-1.8-5.4-5.3v-12.5h4.4v11.2c0,2.1,1.1,2.9,2.5,2.9
				c2.1,0,4-2.5,4-7.1v-7h4.4v17.5H797.8z"/>
			<path class="st7" d="M823.2,440.9c-1.3,3.3-4.1,5-8,5c-5.8,0-8.6-4.1-8.6-9c0-4.9,2.9-9,8.6-9c3.9,0,6.7,1.7,8,5l-3.9,1.6
				c-0.9-1.8-2.2-2.9-4.1-2.9c-2.7,0-4.1,2.3-4.1,5.3c0,3.1,1.3,5.3,4.1,5.3c2,0,3.2-1,4.1-2.9L823.2,440.9z"/>
			<path class="st7" d="M837.1,445.3c-1,0.5-1.9,0.6-2.9,0.6c-4,0-6.5-2.1-6.5-6.5v-7.6H825v-3.7h2.7v-4.4l4.4-2.7v7.1h4.7v3.7h-4.7
				v7.6c0,2.2,0.8,2.8,2.3,2.8c0.6,0,1.1-0.1,1.7-0.4L837.1,445.3z"/>
		</g>
		<g class="st6">
			<path class="st7" d="M743.1,475.2c0,8.4-5.4,12.4-11.6,12.4s-11.6-4-11.6-12.4s5.4-12.4,11.6-12.4S743.1,466.7,743.1,475.2z
				 M724.5,475.2c0,5.8,3.3,8.3,7,8.3c3.7,0,7-2.5,7-8.3c0-5.8-3.3-8.3-7-8.3C727.8,466.9,724.5,469.4,724.5,475.2z"/>
			<path class="st7" d="M770.8,469.8l-5.7,17.5h-3.9l-3.1-11.3l-3.1,11.3h-3.9l-5.7-17.5h4.4l3.2,12l3-12h4.1l3,12l3.2-12H770.8z"/>
			<path class="st7" d="M778.8,469.8v2.8c1.3-1.8,3.2-3.1,5.5-3.1c3.2,0,5.4,1.8,5.4,5.3v12.5h-4.4v-11.2c0-2.1-1.1-2.9-2.5-2.9
				c-2.1,0-4,2.5-4,7.1v7h-4.4v-17.5H778.8z"/>
			<path class="st7" d="M810.5,480h-12.2c0.1,1.9,1.5,4,4.2,4c2,0,3.2-0.9,4.3-2.7l3.5,1.3c-1.4,3.1-3.8,5.1-8,5.1
				c-6.1,0-8.5-4.9-8.5-9c0-4.1,2.4-9,8.5-9c5.9,0,8.3,4.8,8.3,8.6V480z M798.5,476.6h7.6c-0.4-1.7-1.5-3.3-3.8-3.3
				C800.1,473.2,798.8,474.9,798.5,476.6z"/>
			<path class="st7" d="M814.6,487.3v-17.5h4.4v2.8c1.3-2,3.2-3.1,5.2-3.1c0.8,0,1.4,0.1,2.1,0.3l-0.8,4c-0.5-0.3-1.1-0.5-1.8-0.5
				c-2.5,0-4.7,2-4.7,7.7v6.2H814.6z"/>
		</g>
		<g class="st6">
			<path class="st7" d="M970.9,435.3v9.5h-4.6v-24.3h9.3c5.2,0,7.7,3.2,7.7,7.4c0,4.2-2.5,7.4-7.7,7.4H970.9z M978.6,427.9
				c0-2.2-1.2-3.2-3.2-3.2h-4.5v6.5h4.5C977.4,431.1,978.6,430.1,978.6,427.9z"/>
			<path class="st7" d="M986.7,444.8v-17.5h4.4v2.8c1.3-2,3.2-3.1,5.2-3.1c0.8,0,1.4,0.1,2.1,0.3l-0.8,4c-0.5-0.3-1.1-0.5-1.8-0.5
				c-2.5,0-4.7,2-4.7,7.7v6.2H986.7z"/>
			<path class="st7" d="M1009.3,427c5.7,0,9,4,9,9s-3.3,9-9,9s-9-4-9-9S1003.6,427,1009.3,427z M1009.3,441.4c2.8,0,4.4-2.5,4.4-5.3
				s-1.6-5.3-4.4-5.3s-4.4,2.5-4.4,5.3S1006.5,441.4,1009.3,441.4z"/>
			<path class="st7" d="M1029.4,427c1.8,0,3.5,0.9,4.3,1.9v-8.7h4.4v24.6h-4.4V443c-0.5,0.9-2.1,2.1-4.3,2.1c-5.3,0-8.1-3.6-8.1-9
				C1021.3,430.7,1024,427,1029.4,427z M1030,441.4c2.3,0,4.1-1.9,4.1-5.3s-1.8-5.3-4.1-5.3c-2.3,0-4.1,1.9-4.1,5.3
				S1027.7,441.4,1030,441.4z"/>
			<path class="st7" d="M1054.3,444.8V442c-1.3,1.8-3.2,3.1-5.5,3.1c-3.2,0-5.4-1.8-5.4-5.3v-12.5h4.4v11.2c0,2.1,1.1,2.9,2.5,2.9
				c2.1,0,4-2.5,4-7.1v-7h4.4v17.5H1054.3z"/>
			<path class="st7" d="M1079.6,440.1c-1.3,3.3-4.1,5-8,5c-5.8,0-8.6-4.1-8.6-9c0-4.9,2.9-9,8.6-9c3.9,0,6.7,1.7,8,5l-3.9,1.6
				c-0.9-1.8-2.2-2.9-4.1-2.9c-2.7,0-4.1,2.3-4.1,5.3c0,3.1,1.3,5.3,4.1,5.3c2,0,3.2-1,4.1-2.9L1079.6,440.1z"/>
			<path class="st7" d="M1093.5,444.5c-1,0.5-1.9,0.6-2.9,0.6c-4,0-6.5-2.1-6.5-6.5V431h-2.7v-3.7h2.7v-4.4l4.4-2.7v7.1h4.7v3.7
				h-4.7v7.6c0,2.2,0.8,2.8,2.3,2.8c0.6,0,1.1-0.1,1.7-0.4L1093.5,444.5z"/>
		</g>
		<g class="st6">
			<path class="st7" d="M975.3,462.2c4.2,0,7,2.2,7,6.6c0,2-0.9,3.7-2.4,4.5c2.3,0.9,3.7,2.8,3.7,5.9c0,4.7-3.1,7.3-8.1,7.3h-9.2
				v-24.3H975.3z M970.9,466.4v5.3h4.2c1.8,0,2.9-0.7,2.9-2.6c0-2-1.1-2.6-3-2.6H970.9z M970.9,475.8v6.5h4.2c2.8,0,4-1.2,4-3.3
				c0-2.1-1.1-3.3-4-3.3H970.9z"/>
			<path class="st7" d="M987.1,473.6c0.6-2.9,3.1-4.9,6.7-4.9c4.2,0,7.4,1.7,7.4,7.3v10.5h-3.6l-0.5-2.2c-1.2,1.5-2.9,2.5-5.4,2.5
				c-3,0-5.4-1.8-5.4-5.3s3.1-5.7,7.6-5.7h3V475c0-1.9-1.5-2.6-3.1-2.6c-1.2,0-2.5,0.4-3.1,2L987.1,473.6z M992.8,483.1
				c2,0,4.1-1.4,4.1-3.6v-0.3H994c-1.9,0-3,0.7-3,2.3C991,482.2,991.6,483.1,992.8,483.1z"/>
			<path class="st7" d="M1021.3,481.8c-1.3,3.3-4.1,5-8,5c-5.8,0-8.6-4.1-8.6-9c0-4.9,2.9-9,8.6-9c3.9,0,6.7,1.7,8,5l-3.9,1.6
				c-0.9-1.8-2.2-2.9-4.1-2.9c-2.7,0-4.1,2.3-4.1,5.3c0,3.1,1.3,5.3,4.1,5.3c2,0,3.2-1,4.1-2.9L1021.3,481.8z"/>
			<path class="st7" d="M1029.6,461.9v14l5.8-6.9h5.4l-7.1,8.1l7.6,9.4h-5.3l-6.3-8.3v8.3h-4.4v-24.6H1029.6z"/>
			<path class="st7" d="M1048.4,461.9v24.6h-4.4v-24.6H1048.4z"/>
			<path class="st7" d="M1061.6,468.7c5.7,0,9,4,9,9s-3.3,9-9,9s-9-4-9-9S1055.9,468.7,1061.6,468.7z M1061.6,483.1
				c2.8,0,4.4-2.5,4.4-5.3s-1.6-5.3-4.4-5.3c-2.8,0-4.4,2.5-4.4,5.3S1058.8,483.1,1061.6,483.1z"/>
			<path class="st7" d="M1081.4,468.7c1.2,0,2.3,0.3,3.3,0.8l3.3-1.7l1.7,2.8l-2.5,1.2c0.5,0.8,0.7,1.7,0.7,2.8
				c0,3.7-2.9,5.8-6.5,5.8c-0.9,0-1.8-0.1-2.6-0.4c-0.5,0.3-0.8,0.8-0.8,1.3c0,0.8,0.6,1.3,1.7,1.3h3.6c3.7,0,6.2,1.8,6.2,5.1
				c0,4.3-4.1,6-8,6c-4.5,0-8-1.9-8-5.8c0-1.4,0.5-2.6,1.4-3.5c-0.6-0.7-0.9-1.6-0.9-2.7c0-1.7,0.9-2.9,2.2-3.7
				c-0.8-0.9-1.2-2.2-1.2-3.6C1075,471,1077.9,468.7,1081.4,468.7z M1079.9,486.3c-0.7,0-1.4,0-2-0.1c-0.3,0.4-0.4,0.9-0.4,1.6
				c0,1.7,1.7,2.5,4,2.5c2.1,0,3.7-0.6,3.7-2.2c0-1.5-1.2-1.8-2.8-1.8H1079.9z M1081.4,477c1.4,0,2.4-0.9,2.4-2.4
				c0-1.5-1-2.4-2.4-2.4c-1.4,0-2.4,1-2.4,2.4C1079,476,1080,477,1081.4,477z"/>
		</g>
		<g class="st6">
			<path class="st7" d="M1225,528.7c-0.9-1.8-2-2.6-3.4-2.6c-1.3,0-2.4,0.9-2.4,2.2c0,4.2,10.5,3.7,10.5,10.9c0,4.8-3.2,7.6-7.9,7.6
				c-4.5,0-7.7-3.1-8.5-6.8l3.7-2.3c0.7,2.6,2.2,4.9,4.9,4.9c1.9,0,3.2-0.9,3.2-3.2c0-4-10.3-3.2-10.3-10.9c0-3.7,2.8-6.6,6.7-6.6
				c3.3,0,5.8,1.6,7.1,4.4L1225,528.7z"/>
			<path class="st7" d="M1242.5,546.8c-1.8,0-3.5-0.9-4.3-1.9v8.7h-4.4v-24.6h4.4v1.8c0.5-0.9,2.1-2.1,4.3-2.1c5.3,0,8.1,3.6,8.1,9
				C1250.6,543.2,1247.8,546.8,1242.5,546.8z M1241.9,532.5c-2.3,0-4.1,1.9-4.1,5.3c0,3.5,1.8,5.3,4.1,5.3c2.3,0,4.1-1.9,4.1-5.3
				C1246,534.3,1244.2,532.5,1241.9,532.5z"/>
			<path class="st7" d="M1254.9,546.6v-17.5h4.4v2.8c1.3-2,3.2-3.1,5.2-3.1c0.8,0,1.4,0.1,2.1,0.3l-0.8,4c-0.5-0.3-1.1-0.5-1.8-0.5
				c-2.5,0-4.7,2-4.7,7.7v6.2H1254.9z"/>
			<path class="st7" d="M1271.5,521.3c1.6,0,2.8,1.2,2.8,2.8c0,1.6-1.2,2.8-2.8,2.8s-2.8-1.2-2.8-2.8
				C1268.6,522.5,1269.8,521.3,1271.5,521.3z M1273.6,529.1v17.5h-4.4v-17.5H1273.6z"/>
			<path class="st7" d="M1283.2,529.1v2.8c1.3-1.8,3.2-3.1,5.5-3.1c3.2,0,5.4,1.8,5.4,5.3v12.5h-4.4v-11.2c0-2.1-1.1-2.9-2.5-2.9
				c-2.1,0-4,2.5-4,7.1v7h-4.4v-17.5H1283.2z"/>
			<path class="st7" d="M1309.4,546.2c-1,0.5-1.9,0.6-2.9,0.6c-4,0-6.5-2.1-6.5-6.5v-7.6h-2.7v-3.7h2.7v-4.4l4.4-2.7v7.1h4.7v3.7
				h-4.7v7.6c0,2.2,0.8,2.8,2.3,2.8c0.6,0,1.1-0.1,1.7-0.4L1309.4,546.2z"/>
			<path class="st7" d="M1326.9,537.1v9.5h-4.6v-24.3h9.3c5.2,0,7.7,3.2,7.7,7.4c0,4.2-2.5,7.4-7.7,7.4H1326.9z M1334.6,529.7
				c0-2.2-1.2-3.2-3.2-3.2h-4.5v6.5h4.5C1333.4,532.9,1334.6,531.9,1334.6,529.7z"/>
			<path class="st7" d="M1347,522v24.6h-4.4V522H1347z"/>
			<path class="st7" d="M1351.7,533.6c0.6-2.9,3.1-4.9,6.7-4.9c4.2,0,7.4,1.7,7.4,7.3v10.5h-3.6l-0.5-2.2c-1.2,1.5-2.9,2.5-5.4,2.5
				c-3,0-5.4-1.8-5.4-5.3s3.1-5.7,7.6-5.7h3V535c0-1.9-1.5-2.6-3.1-2.6c-1.2,0-2.5,0.4-3.1,2L1351.7,533.6z M1357.4,543.2
				c2,0,4.1-1.4,4.1-3.6v-0.3h-2.9c-1.9,0-3,0.7-3,2.3C1355.6,542.3,1356.2,543.2,1357.4,543.2z"/>
			<path class="st7" d="M1374.9,529.1v2.8c1.3-1.8,3.2-3.1,5.5-3.1c3.2,0,5.4,1.8,5.4,5.3v12.5h-4.4v-11.2c0-2.1-1.1-2.9-2.5-2.9
				c-2.1,0-4,2.5-4,7.1v7h-4.4v-17.5H1374.9z"/>
			<path class="st7" d="M1395.5,529.1v2.8c1.3-1.8,3.2-3.1,5.5-3.1c3.2,0,5.4,1.8,5.4,5.3v12.5h-4.4v-11.2c0-2.1-1.1-2.9-2.5-2.9
				c-2.1,0-4,2.5-4,7.1v7h-4.4v-17.5H1395.5z"/>
			<path class="st7" d="M1413.6,521.3c1.6,0,2.8,1.2,2.8,2.8c0,1.6-1.2,2.8-2.8,2.8c-1.6,0-2.8-1.2-2.8-2.8
				C1410.7,522.5,1411.9,521.3,1413.6,521.3z M1415.7,529.1v17.5h-4.4v-17.5H1415.7z"/>
			<path class="st7" d="M1425.3,529.1v2.8c1.3-1.8,3.2-3.1,5.5-3.1c3.2,0,5.4,1.8,5.4,5.3v12.5h-4.4v-11.2c0-2.1-1.1-2.9-2.5-2.9
				c-2.1,0-4,2.5-4,7.1v7h-4.4v-17.5H1425.3z"/>
			<path class="st7" d="M1448.1,528.8c1.2,0,2.3,0.3,3.3,0.8l3.3-1.7l1.7,2.8l-2.5,1.2c0.5,0.8,0.7,1.7,0.7,2.8
				c0,3.7-2.9,5.8-6.5,5.8c-0.9,0-1.8-0.1-2.6-0.4c-0.5,0.3-0.8,0.8-0.8,1.3c0,0.8,0.6,1.3,1.7,1.3h3.6c3.7,0,6.2,1.8,6.2,5.1
				c0,4.3-4.1,6-8,6c-4.5,0-8-1.9-8-5.8c0-1.4,0.5-2.6,1.4-3.5c-0.6-0.7-0.9-1.6-0.9-2.7c0-1.7,0.9-2.9,2.2-3.7
				c-0.8-0.9-1.2-2.2-1.2-3.6C1441.6,531,1444.5,528.8,1448.1,528.8z M1446.6,546.4c-0.7,0-1.4,0-2-0.1c-0.3,0.4-0.4,0.9-0.4,1.6
				c0,1.7,1.7,2.5,4,2.5c2.1,0,3.7-0.6,3.7-2.2c0-1.5-1.2-1.8-2.8-1.8H1446.6z M1448.1,537.1c1.4,0,2.4-0.9,2.4-2.4
				c0-1.5-1-2.4-2.4-2.4c-1.4,0-2.4,1-2.4,2.4C1445.7,536.1,1446.7,537.1,1448.1,537.1z"/>
		</g>
		<g class="st6">
			<path class="st7" d="M1273.2,563.9h5.1l5.8,15.2l5.8-15.2h5.1v24.3h-4.6v-15l-4.7,12.8h-3.3l-4.7-12.8v15h-4.6V563.9z"/>
			<path class="st7" d="M1316.5,580.9h-12.2c0.1,1.9,1.5,4,4.2,4c2,0,3.2-0.9,4.3-2.7l3.5,1.3c-1.4,3.1-3.8,5.1-8,5.1
				c-6.1,0-8.5-4.9-8.5-9c0-4.1,2.4-9,8.5-9c5.9,0,8.3,4.8,8.3,8.6V580.9z M1304.4,577.5h7.6c-0.4-1.7-1.5-3.3-3.8-3.3
				C1306,574.1,1304.7,575.8,1304.4,577.5z"/>
			<path class="st7" d="M1336,580.9h-12.2c0.1,1.9,1.5,4,4.2,4c2,0,3.2-0.9,4.3-2.7l3.5,1.3c-1.4,3.1-3.8,5.1-8,5.1
				c-6.1,0-8.5-4.9-8.5-9c0-4.1,2.4-9,8.5-9c5.9,0,8.3,4.8,8.3,8.6V580.9z M1323.9,577.5h7.6c-0.4-1.7-1.5-3.3-3.8-3.3
				C1325.6,574.1,1324.3,575.8,1323.9,577.5z"/>
			<path class="st7" d="M1350,587.9c-1,0.5-1.9,0.6-2.9,0.6c-4,0-6.5-2.1-6.5-6.5v-7.6h-2.7v-3.7h2.7v-4.4l4.4-2.7v7.1h4.7v3.7h-4.7
				v7.6c0,2.2,0.8,2.8,2.3,2.8c0.6,0,1.1-0.1,1.7-0.4L1350,587.9z"/>
			<path class="st7" d="M1355.6,562.9c1.6,0,2.8,1.2,2.8,2.8c0,1.6-1.2,2.8-2.8,2.8c-1.6,0-2.8-1.2-2.8-2.8
				C1352.8,564.1,1354,562.9,1355.6,562.9z M1357.8,570.7v17.5h-4.4v-17.5H1357.8z"/>
			<path class="st7" d="M1367.4,570.7v2.8c1.3-1.8,3.2-3.1,5.5-3.1c3.2,0,5.4,1.8,5.4,5.3v12.5h-4.4V577c0-2.1-1.1-2.9-2.5-2.9
				c-2.1,0-4,2.5-4,7.1v7h-4.4v-17.5H1367.4z"/>
			<path class="st7" d="M1390.2,570.5c1.2,0,2.3,0.3,3.3,0.8l3.3-1.7l1.7,2.8l-2.5,1.2c0.5,0.8,0.7,1.7,0.7,2.8
				c0,3.7-2.9,5.8-6.5,5.8c-0.9,0-1.8-0.1-2.6-0.4c-0.5,0.3-0.8,0.8-0.8,1.3c0,0.8,0.6,1.3,1.7,1.3h3.6c3.7,0,6.2,1.8,6.2,5.1
				c0,4.3-4.1,6-8,6c-4.5,0-8-1.9-8-5.8c0-1.4,0.5-2.6,1.4-3.5c-0.6-0.7-0.9-1.6-0.9-2.7c0-1.7,0.9-2.9,2.2-3.7
				c-0.8-0.9-1.2-2.2-1.2-3.6C1383.7,572.7,1386.6,570.5,1390.2,570.5z M1388.6,588c-0.7,0-1.4,0-2-0.1c-0.3,0.4-0.4,0.9-0.4,1.6
				c0,1.7,1.7,2.5,4,2.5c2.1,0,3.7-0.6,3.7-2.2c0-1.5-1.2-1.8-2.8-1.8H1388.6z M1390.2,578.7c1.4,0,2.4-0.9,2.4-2.4
				c0-1.5-1-2.4-2.4-2.4c-1.4,0-2.4,1-2.4,2.4C1387.7,577.8,1388.7,578.7,1390.2,578.7z"/>
		</g>
		<g class="st6">
			<path class="st7" d="M1905.9,529.6c-0.9-1.8-2-2.6-3.4-2.6c-1.3,0-2.4,0.9-2.4,2.2c0,4.2,10.5,3.7,10.5,10.9
				c0,4.8-3.2,7.6-7.9,7.6c-4.5,0-7.7-3.1-8.5-6.8l3.7-2.3c0.7,2.6,2.2,4.9,4.9,4.9c1.9,0,3.2-0.9,3.2-3.2c0-4-10.3-3.2-10.3-10.9
				c0-3.7,2.8-6.6,6.7-6.6c3.3,0,5.8,1.6,7.1,4.4L1905.9,529.6z"/>
			<path class="st7" d="M1923.4,547.7c-1.8,0-3.5-0.9-4.3-1.9v8.7h-4.4v-24.6h4.4v1.8c0.5-0.9,2.1-2.1,4.3-2.1c5.3,0,8.1,3.6,8.1,9
				C1931.5,544.1,1928.7,547.7,1923.4,547.7z M1922.8,533.3c-2.3,0-4.1,1.9-4.1,5.3c0,3.5,1.8,5.3,4.1,5.3c2.3,0,4.1-1.9,4.1-5.3
				C1926.9,535.2,1925.1,533.3,1922.8,533.3z"/>
			<path class="st7" d="M1935.8,547.4v-17.5h4.4v2.8c1.3-2,3.2-3.1,5.2-3.1c0.8,0,1.4,0.1,2.1,0.3l-0.8,4c-0.5-0.3-1.1-0.5-1.8-0.5
				c-2.5,0-4.7,2-4.7,7.7v6.2H1935.8z"/>
			<path class="st7" d="M1952.4,522.1c1.6,0,2.8,1.2,2.8,2.8c0,1.6-1.2,2.8-2.8,2.8c-1.6,0-2.8-1.2-2.8-2.8
				C1949.6,523.3,1950.8,522.1,1952.4,522.1z M1954.6,529.9v17.5h-4.4v-17.5H1954.6z"/>
			<path class="st7" d="M1964.1,529.9v2.8c1.3-1.8,3.2-3.1,5.5-3.1c3.2,0,5.4,1.8,5.4,5.3v12.5h-4.4v-11.2c0-2.1-1.1-2.9-2.5-2.9
				c-2.1,0-4,2.5-4,7.1v7h-4.4v-17.5H1964.1z"/>
			<path class="st7" d="M1990.3,547.1c-1,0.5-1.9,0.6-2.9,0.6c-4,0-6.5-2.1-6.5-6.5v-7.6h-2.7v-3.7h2.7v-4.4l4.4-2.7v7.1h4.7v3.7
				h-4.7v7.6c0,2.2,0.8,2.8,2.3,2.8c0.6,0,1.1-0.1,1.7-0.4L1990.3,547.1z"/>
		</g>
		<g class="st6">
			<path class="st7" d="M1843.8,578.2l6.8,10.9h-5.1l-6.6-10.5h-2.4v10.5h-4.6v-24.3h9c4.9,0,7.5,2.9,7.5,6.9
				C1848.4,574.9,1846.8,577.3,1843.8,578.2z M1843.9,571.7c0-2-1.2-2.7-2.9-2.7h-4.4v5.5h4.4
				C1842.6,574.4,1843.9,573.7,1843.9,571.7z"/>
			<path class="st7" d="M1870,581.7h-12.2c0.1,1.9,1.5,4,4.2,4c2,0,3.2-0.9,4.3-2.7l3.5,1.3c-1.4,3.1-3.8,5.1-8,5.1
				c-6.1,0-8.5-4.9-8.5-9c0-4.1,2.4-9,8.5-9c5.9,0,8.3,4.8,8.3,8.6V581.7z M1858,578.3h7.6c-0.4-1.7-1.5-3.3-3.8-3.3
				C1859.6,575,1858.3,576.7,1858,578.3z"/>
			<path class="st7" d="M1884.1,588.8c-1,0.5-1.9,0.6-2.9,0.6c-4,0-6.5-2.1-6.5-6.5v-7.6h-2.7v-3.7h2.7v-4.4l4.4-2.7v7.1h4.7v3.7
				h-4.7v7.6c0,2.2,0.8,2.8,2.3,2.8c0.6,0,1.1-0.1,1.7-0.4L1884.1,588.8z"/>
			<path class="st7" d="M1887.9,589.1v-17.5h4.4v2.8c1.3-2,3.2-3.1,5.2-3.1c0.8,0,1.4,0.1,2.1,0.3l-0.8,4c-0.5-0.3-1.1-0.5-1.8-0.5
				c-2.5,0-4.7,2-4.7,7.7v6.2H1887.9z"/>
			<path class="st7" d="M1910.4,571.3c5.7,0,9,4,9,9c0,5.1-3.3,9-9,9c-5.7,0-9-4-9-9C1901.4,575.3,1904.7,571.3,1910.4,571.3z
				 M1910.4,585.7c2.8,0,4.4-2.5,4.4-5.3c0-2.9-1.6-5.3-4.4-5.3c-2.8,0-4.4,2.5-4.4,5.3C1906,583.2,1907.6,585.7,1910.4,585.7z"/>
			<path class="st7" d="M1934.6,574.2l-2.6,2.4c-0.8-1-2-1.5-3-1.5c-0.8,0-1.6,0.5-1.6,1.5c0,0.8,0.6,1.3,1.7,1.7
				c2.4,0.9,6.4,1.6,6.4,5.4c0,3.2-2.5,5.8-6.3,5.8c-3.7,0-6.1-2.6-7-4.7l3.5-1.8c0.6,1.7,1.8,2.9,3.5,2.9c1.3,0,2.2-0.6,2.2-1.9
				c0-1.5-2.3-1.8-4.4-2.7c-1.9-0.8-3.6-2-3.6-4.7c0-2.7,2.2-5.1,5.7-5.1C1931.4,571.3,1933.5,572.5,1934.6,574.2z"/>
			<path class="st7" d="M1948.4,589.4c-1.8,0-3.5-0.9-4.3-1.9v8.7h-4.4v-24.6h4.4v1.8c0.5-0.9,2.1-2.1,4.3-2.1c5.3,0,8.1,3.6,8.1,9
				C1956.5,585.7,1953.7,589.4,1948.4,589.4z M1947.8,575c-2.3,0-4.1,1.9-4.1,5.3c0,3.5,1.8,5.3,4.1,5.3c2.3,0,4.1-1.9,4.1-5.3
				C1951.9,576.9,1950.1,575,1947.8,575z"/>
			<path class="st7" d="M1976.2,581.7H1964c0.1,1.9,1.5,4,4.2,4c2,0,3.2-0.9,4.3-2.7l3.5,1.3c-1.4,3.1-3.8,5.1-8,5.1
				c-6.1,0-8.5-4.9-8.5-9c0-4.1,2.4-9,8.5-9c5.9,0,8.3,4.8,8.3,8.6V581.7z M1964.2,578.3h7.6c-0.4-1.7-1.5-3.3-3.8-3.3
				C1965.8,575,1964.5,576.7,1964.2,578.3z"/>
			<path class="st7" d="M1995.7,584.4c-1.3,3.3-4.1,5-8,5c-5.8,0-8.6-4.1-8.6-9c0-4.9,2.9-9,8.6-9c3.9,0,6.7,1.7,8,5l-3.9,1.6
				c-0.9-1.8-2.2-2.9-4.1-2.9c-2.7,0-4.1,2.3-4.1,5.3c0,3.1,1.3,5.3,4.1,5.3c2,0,3.2-1,4.1-2.9L1995.7,584.4z"/>
			<path class="st7" d="M2009.6,588.8c-1,0.5-1.9,0.6-2.9,0.6c-4,0-6.5-2.1-6.5-6.5v-7.6h-2.7v-3.7h2.7v-4.4l4.4-2.7v7.1h4.7v3.7
				h-4.7v7.6c0,2.2,0.8,2.8,2.3,2.8c0.6,0,1.1-0.1,1.7-0.4L2009.6,588.8z"/>
			<path class="st7" d="M2015.2,563.8c1.6,0,2.8,1.2,2.8,2.8c0,1.6-1.2,2.8-2.8,2.8c-1.6,0-2.8-1.2-2.8-2.8
				C2012.4,565,2013.6,563.8,2015.2,563.8z M2017.4,571.6v17.5h-4.4v-17.5H2017.4z"/>
			<path class="st7" d="M2024.3,571.6l3.6,12.2l3.6-12.2h4.4l-6,17.5h-3.9l-6-17.5H2024.3z"/>
			<path class="st7" d="M2054.3,581.7h-12.2c0.1,1.9,1.5,4,4.2,4c2,0,3.2-0.9,4.3-2.7l3.5,1.3c-1.4,3.1-3.8,5.1-8,5.1
				c-6.1,0-8.5-4.9-8.5-9c0-4.1,2.4-9,8.5-9c5.9,0,8.3,4.8,8.3,8.6V581.7z M2042.2,578.3h7.6c-0.4-1.7-1.5-3.3-3.8-3.3
				C2043.9,575,2042.6,576.7,2042.2,578.3z"/>
		</g>
		<g class="st6">
			<path class="st7" d="M1409.3,400.8v-24.3h7.7c5.8,0,11.5,3.6,11.5,12.2s-5.7,12.2-11.5,12.2H1409.3z M1415.6,396.6
				c3.9,0,8.3-1.5,8.3-8c0-6.5-4.3-8-8.3-8h-1.7v16H1415.6z"/>
			<path class="st7" d="M1432.1,387.9c0.6-2.9,3.1-4.9,6.7-4.9c4.2,0,7.4,1.7,7.4,7.3v10.5h-3.6l-0.5-2.2c-1.2,1.5-2.9,2.5-5.4,2.5
				c-3,0-5.4-1.8-5.4-5.3c0-3.5,3.1-5.7,7.6-5.7h3v-0.8c0-1.9-1.5-2.6-3.1-2.6c-1.2,0-2.5,0.4-3.1,2L1432.1,387.9z M1437.9,397.4
				c2,0,4.1-1.4,4.1-3.6v-0.3h-2.9c-1.9,0-3,0.7-3,2.3C1436,396.5,1436.6,397.4,1437.9,397.4z"/>
			<path class="st7" d="M1452.8,375.5c1.6,0,2.8,1.2,2.8,2.8c0,1.6-1.2,2.8-2.8,2.8c-1.6,0-2.8-1.2-2.8-2.8
				C1449.9,376.7,1451.1,375.5,1452.8,375.5z M1454.9,383.3v17.5h-4.4v-17.5H1454.9z"/>
			<path class="st7" d="M1464.4,376.2v24.6h-4.4v-24.6H1464.4z"/>
			<path class="st7" d="M1471.6,383.3l4.1,11l3.9-11h4.4l-9.1,24.6h-4.2l3.1-8.2l-6.4-16.4H1471.6z"/>
			<path class="st7" d="M1505.5,382.9c-0.9-1.8-2-2.6-3.4-2.6c-1.3,0-2.4,0.9-2.4,2.2c0,4.2,10.5,3.7,10.5,10.9
				c0,4.8-3.2,7.6-7.9,7.6c-4.5,0-7.7-3.1-8.5-6.8l3.7-2.3c0.7,2.6,2.2,4.9,4.9,4.9c1.9,0,3.2-0.9,3.2-3.2c0-4-10.3-3.2-10.3-10.9
				c0-3.7,2.8-6.6,6.7-6.6c3.3,0,5.8,1.6,7.1,4.4L1505.5,382.9z"/>
			<path class="st7" d="M1529.8,396.1c-1.3,3.3-4.1,5-8,5c-5.8,0-8.6-4.1-8.6-9c0-4.9,2.9-9,8.6-9c3.9,0,6.7,1.7,8,5l-3.9,1.6
				c-0.9-1.8-2.2-2.9-4.1-2.9c-2.7,0-4.1,2.3-4.1,5.3c0,3.1,1.3,5.3,4.1,5.3c2,0,3.2-1,4.1-2.9L1529.8,396.1z"/>
			<path class="st7" d="M1533.7,400.8v-17.5h4.4v2.8c1.3-2,3.2-3.1,5.2-3.1c0.8,0,1.4,0.1,2.1,0.3l-0.8,4c-0.5-0.3-1.1-0.5-1.8-0.5
				c-2.5,0-4.7,2-4.7,7.7v6.2H1533.7z"/>
			<path class="st7" d="M1559.2,400.8V398c-1.3,1.8-3.2,3.1-5.5,3.1c-3.2,0-5.4-1.8-5.4-5.3v-12.5h4.4v11.2c0,2.1,1.1,2.9,2.5,2.9
				c2.1,0,4-2.5,4-7.1v-7h4.4v17.5H1559.2z"/>
			<path class="st7" d="M1579.5,400.8v-11.7c0-1.8-0.9-2.4-2.2-2.4c-2.1,0-3.8,2.5-3.8,7.7v6.4h-4.4v-17.5h4.4v2.8
				c1.3-1.9,2.8-3.1,5.1-3.1c2.2,0,4.2,1.1,5,3.6c1.3-2.3,3.2-3.6,5.4-3.6c3.3,0,5.3,2,5.3,5.4v12.4h-4.4v-11.7
				c0-1.8-0.9-2.4-2.2-2.4c-2.1,0-3.8,2.4-3.8,7.3v6.8H1579.5z"/>
		</g>
		<g class="st6">
			<path class="st7" d="M1739.9,382.9c-0.9-1.8-2-2.6-3.4-2.6c-1.3,0-2.4,0.9-2.4,2.2c0,4.2,10.5,3.7,10.5,10.9
				c0,4.8-3.2,7.6-7.9,7.6c-4.5,0-7.7-3.1-8.5-6.8l3.7-2.3c0.7,2.6,2.2,4.9,4.9,4.9c1.9,0,3.2-0.9,3.2-3.2c0-4-10.3-3.2-10.3-10.9
				c0-3.7,2.8-6.6,6.7-6.6c3.3,0,5.8,1.6,7.1,4.4L1739.9,382.9z"/>
			<path class="st7" d="M1757.4,401.1c-1.8,0-3.5-0.9-4.3-1.9v8.7h-4.4v-24.6h4.4v1.8c0.5-0.9,2.1-2.1,4.3-2.1c5.3,0,8.1,3.6,8.1,9
				C1765.5,397.4,1762.8,401.1,1757.4,401.1z M1756.8,386.7c-2.3,0-4.1,1.9-4.1,5.3c0,3.5,1.8,5.3,4.1,5.3c2.3,0,4.1-1.9,4.1-5.3
				C1760.9,388.6,1759.1,386.7,1756.8,386.7z"/>
			<path class="st7" d="M1769.8,400.8v-17.5h4.4v2.8c1.3-2,3.2-3.1,5.2-3.1c0.8,0,1.4,0.1,2.1,0.3l-0.8,4c-0.5-0.3-1.1-0.5-1.8-0.5
				c-2.5,0-4.7,2-4.7,7.7v6.2H1769.8z"/>
			<path class="st7" d="M1786.4,375.5c1.6,0,2.8,1.2,2.8,2.8c0,1.6-1.2,2.8-2.8,2.8c-1.6,0-2.8-1.2-2.8-2.8
				C1783.6,376.7,1784.8,375.5,1786.4,375.5z M1788.6,383.3v17.5h-4.4v-17.5H1788.6z"/>
			<path class="st7" d="M1798.1,383.3v2.8c1.3-1.8,3.2-3.1,5.5-3.1c3.2,0,5.4,1.8,5.4,5.3v12.5h-4.4v-11.2c0-2.1-1.1-2.9-2.5-2.9
				c-2.1,0-4,2.5-4,7.1v7h-4.4v-17.5H1798.1z"/>
			<path class="st7" d="M1824.3,400.4c-1,0.5-1.9,0.6-2.9,0.6c-4,0-6.5-2.1-6.5-6.5V387h-2.7v-3.7h2.7v-4.4l4.4-2.7v7.1h4.7v3.7
				h-4.7v7.6c0,2.2,0.8,2.8,2.3,2.8c0.6,0,1.1-0.1,1.7-0.4L1824.3,400.4z"/>
			<path class="st7" d="M1836.9,400.8v-17.5h4.4v2.8c1.3-2,3.2-3.1,5.2-3.1c0.8,0,1.4,0.1,2.1,0.3l-0.8,4c-0.5-0.3-1.1-0.5-1.8-0.5
				c-2.5,0-4.7,2-4.7,7.7v6.2H1836.9z"/>
			<path class="st7" d="M1867.2,393.4H1855c0.1,1.9,1.5,4,4.2,4c2,0,3.2-0.9,4.3-2.7l3.5,1.3c-1.4,3.1-3.8,5.1-8,5.1
				c-6.1,0-8.5-4.9-8.5-9c0-4.1,2.4-9,8.5-9c5.9,0,8.3,4.8,8.3,8.6V393.4z M1855.1,390h7.6c-0.4-1.7-1.5-3.3-3.8-3.3
				C1856.7,386.7,1855.4,388.4,1855.1,390z"/>
			<path class="st7" d="M1873,383.3l3.6,12.2l3.6-12.2h4.4l-6,17.5h-3.9l-6-17.5H1873z"/>
			<path class="st7" d="M1889.3,375.5c1.6,0,2.8,1.2,2.8,2.8c0,1.6-1.2,2.8-2.8,2.8c-1.6,0-2.8-1.2-2.8-2.8
				C1886.5,376.7,1887.7,375.5,1889.3,375.5z M1891.5,383.3v17.5h-4.4v-17.5H1891.5z"/>
			<path class="st7" d="M1912.1,393.4h-12.2c0.1,1.9,1.5,4,4.2,4c2,0,3.2-0.9,4.3-2.7l3.5,1.3c-1.4,3.1-3.8,5.1-8,5.1
				c-6.1,0-8.5-4.9-8.5-9c0-4.1,2.4-9,8.5-9c5.9,0,8.3,4.8,8.3,8.6V393.4z M1900,390h7.6c-0.4-1.7-1.5-3.3-3.8-3.3
				C1901.7,386.7,1900.4,388.4,1900,390z"/>
			<path class="st7" d="M1939.4,383.3l-5.7,17.5h-3.9l-3.1-11.3l-3.1,11.3h-3.9l-5.7-17.5h4.4l3.2,12l3-12h4.1l3,12l3.2-12H1939.4z"
				/>
		</g>
		<g class="st6">
			<path class="st7" d="M1781.3,442.5v-11.7c0-1.8-0.9-2.4-2.2-2.4c-2.1,0-3.8,2.5-3.8,7.7v6.4h-4.4V425h4.4v2.8
				c1.3-1.9,2.8-3.1,5.1-3.1c2.2,0,4.2,1.1,5,3.6c1.3-2.3,3.2-3.6,5.4-3.6c3.3,0,5.3,2,5.3,5.4v12.4h-4.4v-11.7
				c0-1.8-0.9-2.4-2.2-2.4c-2.1,0-3.8,2.4-3.8,7.3v6.8H1781.3z"/>
			<path class="st7" d="M1816.8,435.1h-12.2c0.1,1.9,1.5,4,4.2,4c2,0,3.2-0.9,4.3-2.7l3.5,1.3c-1.4,3.1-3.8,5.1-8,5.1
				c-6.1,0-8.5-4.9-8.5-9c0-4.1,2.4-9,8.5-9c5.9,0,8.3,4.8,8.3,8.6V435.1z M1804.7,431.7h7.6c-0.4-1.7-1.5-3.3-3.8-3.3
				C1806.4,428.4,1805.1,430,1804.7,431.7z"/>
			<path class="st7" d="M1836.4,435.1h-12.2c0.1,1.9,1.5,4,4.2,4c2,0,3.2-0.9,4.3-2.7l3.5,1.3c-1.4,3.1-3.8,5.1-8,5.1
				c-6.1,0-8.5-4.9-8.5-9c0-4.1,2.4-9,8.5-9c5.9,0,8.3,4.8,8.3,8.6V435.1z M1824.3,431.7h7.6c-0.4-1.7-1.5-3.3-3.8-3.3
				C1825.9,428.4,1824.6,430,1824.3,431.7z"/>
			<path class="st7" d="M1850.4,442.1c-1,0.5-1.9,0.6-2.9,0.6c-4,0-6.5-2.1-6.5-6.5v-7.6h-2.7V425h2.7v-4.4l4.4-2.7v7.1h4.7v3.7
				h-4.7v7.6c0,2.2,0.8,2.8,2.3,2.8c0.6,0,1.1-0.1,1.7-0.4L1850.4,442.1z"/>
			<path class="st7" d="M1856,417.1c1.6,0,2.8,1.2,2.8,2.8c0,1.6-1.2,2.8-2.8,2.8c-1.6,0-2.8-1.2-2.8-2.8
				C1853.1,418.4,1854.3,417.1,1856,417.1z M1858.1,425v17.5h-4.4V425H1858.1z"/>
			<path class="st7" d="M1867.7,425v2.8c1.3-1.8,3.2-3.1,5.5-3.1c3.2,0,5.4,1.8,5.4,5.3v12.5h-4.4v-11.2c0-2.1-1.1-2.9-2.5-2.9
				c-2.1,0-4,2.5-4,7.1v7h-4.4V425H1867.7z"/>
			<path class="st7" d="M1890.5,424.7c1.2,0,2.3,0.3,3.3,0.8l3.3-1.7l1.7,2.8l-2.5,1.2c0.5,0.8,0.7,1.7,0.7,2.8
				c0,3.7-2.9,5.8-6.5,5.8c-0.9,0-1.8-0.1-2.6-0.4c-0.5,0.3-0.8,0.8-0.8,1.3c0,0.8,0.6,1.3,1.7,1.3h3.6c3.7,0,6.2,1.8,6.2,5.1
				c0,4.3-4.1,6-8,6c-4.5,0-8-1.9-8-5.8c0-1.4,0.5-2.6,1.4-3.5c-0.6-0.7-0.9-1.6-0.9-2.7c0-1.7,0.9-2.9,2.2-3.7
				c-0.8-0.9-1.2-2.2-1.2-3.6C1884,426.9,1886.9,424.7,1890.5,424.7z M1889,442.3c-0.7,0-1.4,0-2-0.1c-0.3,0.4-0.4,0.9-0.4,1.6
				c0,1.7,1.7,2.5,4,2.5c2.1,0,3.7-0.6,3.7-2.2c0-1.5-1.2-1.8-2.8-1.8H1889z M1890.5,432.9c1.4,0,2.4-0.9,2.4-2.4
				c0-1.5-1-2.4-2.4-2.4c-1.4,0-2.4,1-2.4,2.4C1888.1,432,1889.1,432.9,1890.5,432.9z"/>
		</g>
		<g class="st6">
			<path class="st7" d="M667.8,600.1v-24.3h7.7c5.8,0,11.5,3.6,11.5,12.2c0,8.5-5.7,12.2-11.5,12.2H667.8z M674,595.9
				c3.9,0,8.3-1.5,8.3-8c0-6.5-4.3-8-8.3-8h-1.7v16H674z"/>
			<path class="st7" d="M706.9,592.7h-12.2c0.1,1.9,1.5,4,4.2,4c2,0,3.2-0.9,4.3-2.7l3.5,1.3c-1.4,3.1-3.8,5.1-8,5.1
				c-6.1,0-8.5-4.9-8.5-9c0-4.1,2.4-9,8.5-9c5.9,0,8.3,4.8,8.3,8.6V592.7z M694.8,589.3h7.6c-0.4-1.7-1.5-3.3-3.8-3.3
				C696.4,586,695.1,587.6,694.8,589.3z"/>
			<path class="st7" d="M712.7,582.6l3.6,12.2l3.6-12.2h4.4l-6,17.5h-3.9l-6-17.5H712.7z"/>
			<path class="st7" d="M742.7,592.7h-12.2c0.1,1.9,1.5,4,4.2,4c2,0,3.2-0.9,4.3-2.7l3.5,1.3c-1.4,3.1-3.8,5.1-8,5.1
				c-6.1,0-8.5-4.9-8.5-9c0-4.1,2.4-9,8.5-9c5.9,0,8.3,4.8,8.3,8.6V592.7z M730.6,589.3h7.6c-0.4-1.7-1.5-3.3-3.8-3.3
				C732.2,586,730.9,587.6,730.6,589.3z"/>
			<path class="st7" d="M751.1,575.5v24.6h-4.4v-24.6H751.1z"/>
			<path class="st7" d="M764.2,582.3c5.7,0,9,4,9,9s-3.3,9-9,9s-9-4-9-9S758.6,582.3,764.2,582.3z M764.2,596.7
				c2.8,0,4.4-2.5,4.4-5.3s-1.6-5.3-4.4-5.3s-4.4,2.5-4.4,5.3S761.4,596.7,764.2,596.7z"/>
			<path class="st7" d="M786.2,600.4c-1.8,0-3.5-0.9-4.3-1.9v8.7h-4.4v-24.6h4.4v1.8c0.5-0.9,2.1-2.1,4.3-2.1c5.3,0,8.1,3.6,8.1,9
				C794.3,596.7,791.5,600.4,786.2,600.4z M785.6,586c-2.3,0-4.1,1.9-4.1,5.3c0,3.5,1.8,5.3,4.1,5.3c2.3,0,4.1-1.9,4.1-5.3
				C789.7,587.9,787.9,586,785.6,586z"/>
			<path class="st7" d="M809,600.1v-11.7c0-1.8-0.9-2.4-2.2-2.4c-2.1,0-3.8,2.5-3.8,7.7v6.4h-4.4v-17.5h4.4v2.8
				c1.3-1.9,2.8-3.1,5.1-3.1c2.2,0,4.2,1.1,5,3.6c1.3-2.3,3.2-3.6,5.4-3.6c3.3,0,5.3,2,5.3,5.4v12.4h-4.4v-11.7
				c0-1.8-0.9-2.4-2.2-2.4c-2.1,0-3.8,2.4-3.8,7.3v6.8H809z"/>
			<path class="st7" d="M844.5,592.7h-12.2c0.1,1.9,1.5,4,4.2,4c2,0,3.2-0.9,4.3-2.7l3.5,1.3c-1.4,3.1-3.8,5.1-8,5.1
				c-6.1,0-8.5-4.9-8.5-9c0-4.1,2.4-9,8.5-9c5.9,0,8.3,4.8,8.3,8.6V592.7z M832.4,589.3h7.6c-0.4-1.7-1.5-3.3-3.8-3.3
				C834,586,832.7,587.6,832.4,589.3z"/>
			<path class="st7" d="M852.9,582.6v2.8c1.3-1.8,3.2-3.1,5.5-3.1c3.2,0,5.4,1.8,5.4,5.3v12.5h-4.4v-11.2c0-2.1-1.1-2.9-2.5-2.9
				c-2.1,0-4,2.5-4,7.1v7h-4.4v-17.5H852.9z"/>
			<path class="st7" d="M879.1,599.7c-1,0.5-1.9,0.6-2.9,0.6c-4,0-6.5-2.1-6.5-6.5v-7.6H867v-3.7h2.7v-4.4l4.4-2.7v7.1h4.7v3.7h-4.7
				v7.6c0,2.2,0.8,2.8,2.3,2.8c0.6,0,1.1-0.1,1.7-0.4L879.1,599.7z"/>
		</g>
		<g class="st6">
			<path class="st7" d="M729.3,617.4h18.2v4.2h-6.8v20.1h-4.6v-20.1h-6.8V617.4z"/>
			<path class="st7" d="M766,634.4h-12.2c0.1,1.9,1.5,4,4.2,4c2,0,3.2-0.9,4.3-2.7l3.5,1.3c-1.4,3.1-3.8,5.1-8,5.1
				c-6.1,0-8.5-4.9-8.5-9c0-4.1,2.4-9,8.5-9c5.9,0,8.3,4.8,8.3,8.6V634.4z M753.9,631h7.6c-0.4-1.7-1.5-3.3-3.8-3.3
				C755.5,627.6,754.2,629.3,753.9,631z"/>
			<path class="st7" d="M769.3,628.8c0.6-2.9,3.1-4.9,6.7-4.9c4.2,0,7.4,1.7,7.4,7.3v10.5h-3.6l-0.5-2.2c-1.2,1.5-2.9,2.5-5.4,2.5
				c-3,0-5.4-1.8-5.4-5.3s3.1-5.7,7.6-5.7h3v-0.8c0-1.9-1.5-2.6-3.1-2.6c-1.2,0-2.5,0.4-3.1,2L769.3,628.8z M775,638.3
				c2,0,4.1-1.4,4.1-3.6v-0.3h-2.9c-1.9,0-3,0.7-3,2.3C773.2,637.5,773.8,638.3,775,638.3z"/>
			<path class="st7" d="M798.5,641.7v-11.7c0-1.8-0.9-2.4-2.2-2.4c-2.1,0-3.8,2.5-3.8,7.7v6.4h-4.4v-17.5h4.4v2.8
				c1.3-1.9,2.8-3.1,5.1-3.1c2.2,0,4.2,1.1,5,3.6c1.3-2.3,3.2-3.6,5.4-3.6c3.3,0,5.3,2,5.3,5.4v12.4h-4.4v-11.7
				c0-1.8-0.9-2.4-2.2-2.4c-2.1,0-3.8,2.4-3.8,7.3v6.8H798.5z"/>
		</g>
		<g class="st6">
			<path class="st7" d="M733.2,725.8c-0.9-1.8-2-2.6-3.4-2.6c-1.3,0-2.4,0.9-2.4,2.2c0,4.2,10.5,3.7,10.5,10.9
				c0,4.8-3.2,7.6-7.9,7.6c-4.5,0-7.7-3.1-8.5-6.8l3.7-2.3c0.7,2.6,2.2,4.9,4.9,4.9c1.9,0,3.2-0.9,3.2-3.2c0-4-10.3-3.2-10.3-10.9
				c0-3.7,2.8-6.6,6.7-6.6c3.3,0,5.8,1.6,7.1,4.4L733.2,725.8z"/>
			<path class="st7" d="M757.4,738.9c-1.3,3.3-4.1,5-8,5c-5.8,0-8.6-4.1-8.6-9c0-4.9,2.9-9,8.6-9c3.9,0,6.7,1.7,8,5l-3.9,1.6
				c-0.9-1.8-2.2-2.9-4.1-2.9c-2.7,0-4.1,2.3-4.1,5.3c0,3.1,1.3,5.3,4.1,5.3c2,0,3.2-1,4.1-2.9L757.4,738.9z"/>
			<path class="st7" d="M761.4,743.7v-17.5h4.4v2.8c1.3-2,3.2-3.1,5.2-3.1c0.8,0,1.4,0.1,2.1,0.3l-0.8,4c-0.5-0.3-1.1-0.5-1.8-0.5
				c-2.5,0-4.7,2-4.7,7.7v6.2H761.4z"/>
			<path class="st7" d="M786.8,743.7v-2.8c-1.3,1.8-3.2,3.1-5.5,3.1c-3.2,0-5.4-1.8-5.4-5.3v-12.5h4.4v11.2c0,2.1,1.1,2.9,2.5,2.9
				c2.1,0,4-2.5,4-7.1v-7h4.4v17.5H786.8z"/>
			<path class="st7" d="M807.2,743.7V732c0-1.8-0.9-2.4-2.2-2.4c-2.1,0-3.8,2.5-3.8,7.7v6.4h-4.4v-17.5h4.4v2.8
				c1.3-1.9,2.8-3.1,5.1-3.1c2.2,0,4.2,1.1,5,3.6c1.3-2.3,3.2-3.6,5.4-3.6c3.3,0,5.3,2,5.3,5.4v12.4h-4.4V732c0-1.8-0.9-2.4-2.2-2.4
				c-2.1,0-3.8,2.4-3.8,7.3v6.8H807.2z"/>
		</g>
		<g class="st6">
			<path class="st7" d="M720.3,761h5.1l5.8,15.2l5.8-15.2h5.1v24.3h-4.6v-15l-4.7,12.8h-3.3l-4.7-12.8v15h-4.6V761z"/>
			<path class="st7" d="M747.3,772.4c0.6-2.9,3.1-4.9,6.7-4.9c4.2,0,7.4,1.7,7.4,7.3v10.5H758l-0.5-2.2c-1.2,1.5-2.9,2.5-5.4,2.5
				c-3,0-5.4-1.8-5.4-5.3c0-3.5,3.1-5.7,7.6-5.7h3v-0.8c0-1.9-1.5-2.6-3.1-2.6c-1.2,0-2.5,0.4-3.1,2L747.3,772.4z M753.1,781.9
				c2,0,4.1-1.4,4.1-3.6V778h-2.9c-1.9,0-3,0.7-3,2.3C751.2,781.1,751.8,781.9,753.1,781.9z"/>
			<path class="st7" d="M777.1,770.4l-2.6,2.4c-0.8-1-2-1.5-3-1.5c-0.8,0-1.6,0.5-1.6,1.5c0,0.8,0.6,1.3,1.7,1.7
				c2.4,0.9,6.4,1.6,6.4,5.4c0,3.2-2.5,5.8-6.3,5.8c-3.7,0-6.1-2.6-7-4.7l3.5-1.8c0.6,1.7,1.8,2.9,3.5,2.9c1.3,0,2.2-0.6,2.2-1.9
				c0-1.5-2.3-1.8-4.4-2.7c-1.9-0.8-3.6-2-3.6-4.7c0-2.7,2.2-5.1,5.7-5.1C773.9,767.5,776,768.7,777.1,770.4z"/>
			<path class="st7" d="M792.2,785c-1,0.5-1.9,0.6-2.9,0.6c-4,0-6.5-2.1-6.5-6.5v-7.6H780v-3.7h2.7v-4.4l4.4-2.7v7.1h4.7v3.7h-4.7
				v7.6c0,2.2,0.8,2.8,2.3,2.8c0.6,0,1.1-0.1,1.7-0.4L792.2,785z"/>
			<path class="st7" d="M811.5,778h-12.2c0.1,1.9,1.5,4,4.2,4c2,0,3.2-0.9,4.3-2.7l3.5,1.3c-1.4,3.1-3.8,5.1-8,5.1
				c-6.1,0-8.5-4.9-8.5-9c0-4.1,2.4-9,8.5-9c5.9,0,8.3,4.8,8.3,8.6V778z M799.4,774.6h7.6c-0.4-1.7-1.5-3.3-3.8-3.3
				C801,771.2,799.7,772.9,799.4,774.6z"/>
			<path class="st7" d="M815.5,785.3v-17.5h4.4v2.8c1.3-2,3.2-3.1,5.2-3.1c0.8,0,1.4,0.1,2.1,0.3l-0.8,4c-0.5-0.3-1.1-0.5-1.8-0.5
				c-2.5,0-4.7,2-4.7,7.7v6.2H815.5z"/>
		</g>
		<g class="st6">
			<path class="st7" d="M685.4,840.4c-0.9-1.8-2-2.6-3.4-2.6c-1.3,0-2.4,0.9-2.4,2.2c0,4.2,10.5,3.7,10.5,10.9
				c0,4.8-3.2,7.6-7.9,7.6c-4.5,0-7.7-3.1-8.5-6.8l3.7-2.3c0.7,2.6,2.2,4.9,4.9,4.9c1.9,0,3.2-0.9,3.2-3.2c0-4-10.3-3.2-10.3-10.9
				c0-3.7,2.8-6.6,6.7-6.6c3.3,0,5.8,1.6,7.1,4.4L685.4,840.4z"/>
			<path class="st7" d="M709.6,853.6c-1.3,3.3-4.1,5-8,5c-5.8,0-8.6-4.1-8.6-9c0-4.9,2.9-9,8.6-9c3.9,0,6.7,1.7,8,5l-3.9,1.6
				c-0.9-1.8-2.2-2.9-4.1-2.9c-2.7,0-4.1,2.3-4.1,5.3s1.3,5.3,4.1,5.3c2,0,3.2-1,4.1-2.9L709.6,853.6z"/>
			<path class="st7" d="M713.6,858.3v-17.5h4.4v2.8c1.3-2,3.2-3.1,5.2-3.1c0.8,0,1.4,0.1,2.1,0.3l-0.8,4c-0.5-0.3-1.1-0.5-1.8-0.5
				c-2.5,0-4.7,2-4.7,7.7v6.2H713.6z"/>
			<path class="st7" d="M739.1,858.3v-2.8c-1.3,1.8-3.2,3.1-5.5,3.1c-3.2,0-5.4-1.8-5.4-5.3v-12.5h4.4V852c0,2.1,1.1,2.9,2.5,2.9
				c2.1,0,4-2.5,4-7.1v-7h4.4v17.5H739.1z"/>
			<path class="st7" d="M759.4,858.3v-11.7c0-1.8-0.9-2.4-2.2-2.4c-2.1,0-3.8,2.5-3.8,7.7v6.4H749v-17.5h4.4v2.8
				c1.3-1.9,2.8-3.1,5.1-3.1c2.2,0,4.2,1.1,5,3.6c1.3-2.3,3.2-3.6,5.4-3.6c3.3,0,5.3,2,5.3,5.4v12.4h-4.4v-11.7
				c0-1.8-0.9-2.4-2.2-2.4c-2.1,0-3.8,2.4-3.8,7.3v6.8H759.4z"/>
			<path class="st7" d="M785.6,834h18.2v4.2H797v20.1h-4.6v-20.1h-6.8V834z"/>
			<path class="st7" d="M822.4,850.9h-12.2c0.1,1.9,1.5,4,4.2,4c2,0,3.2-0.9,4.3-2.7l3.5,1.3c-1.4,3.1-3.8,5.1-8,5.1
				c-6.1,0-8.5-4.9-8.5-9s2.4-9,8.5-9c5.9,0,8.3,4.8,8.3,8.6V850.9z M810.3,847.5h7.6c-0.4-1.7-1.5-3.3-3.8-3.3
				C811.9,844.2,810.6,845.8,810.3,847.5z"/>
			<path class="st7" d="M825.6,845.4c0.6-2.9,3.1-4.9,6.7-4.9c4.2,0,7.4,1.7,7.4,7.3v10.5h-3.6l-0.5-2.2c-1.2,1.5-2.9,2.5-5.4,2.5
				c-3,0-5.4-1.8-5.4-5.3c0-3.5,3.1-5.7,7.6-5.7h3v-0.8c0-1.9-1.5-2.6-3.1-2.6c-1.2,0-2.5,0.4-3.1,2L825.6,845.4z M831.4,854.9
				c2,0,4.1-1.4,4.1-3.6v-0.3h-2.9c-1.9,0-3,0.7-3,2.3C829.5,854,830.1,854.9,831.4,854.9z"/>
			<path class="st7" d="M854.9,858.3v-11.7c0-1.8-0.9-2.4-2.2-2.4c-2.1,0-3.8,2.5-3.8,7.7v6.4h-4.4v-17.5h4.4v2.8
				c1.3-1.9,2.8-3.1,5.1-3.1c2.2,0,4.2,1.1,5,3.6c1.3-2.3,3.2-3.6,5.4-3.6c3.3,0,5.3,2,5.3,5.4v12.4h-4.4v-11.7
				c0-1.8-0.9-2.4-2.2-2.4c-2.1,0-3.8,2.4-3.8,7.3v6.8H854.9z"/>
		</g>
		<g class="st6">
			<path class="st7" d="M729.7,988.3v4.2h-10.6v5.1h8.5v4.2h-8.5v6.7h11v4.2h-15.6v-24.3H729.7z"/>
			<path class="st7" d="M747.5,995.1l-5.1,8.2l5.9,9.3h-4.6l-3.6-5.7l-3.6,5.7h-4.6l5.9-9.3l-5.1-8.2h4.6l2.9,4.5l2.9-4.5H747.5z"/>
			<path class="st7" d="M761.3,1012.3c-1,0.5-1.9,0.6-2.9,0.6c-4,0-6.5-2.1-6.5-6.5v-7.6h-2.7v-3.7h2.7v-4.4l4.4-2.7v7.1h4.7v3.7
				h-4.7v7.6c0,2.2,0.8,2.8,2.3,2.8c0.6,0,1.1-0.1,1.7-0.4L761.3,1012.3z"/>
			<path class="st7" d="M780.5,1005.3h-12.2c0.1,1.9,1.5,4,4.2,4c2,0,3.2-0.9,4.3-2.7l3.5,1.3c-1.4,3.1-3.8,5.1-8,5.1
				c-6.1,0-8.5-4.9-8.5-9s2.4-9,8.5-9c5.9,0,8.3,4.8,8.3,8.6V1005.3z M768.5,1001.9h7.6c-0.4-1.7-1.5-3.3-3.8-3.3
				C770.1,998.5,768.8,1000.2,768.5,1001.9z"/>
			<path class="st7" d="M784.6,1012.6v-17.5h4.4v2.8c1.3-2,3.2-3.1,5.2-3.1c0.8,0,1.4,0.1,2.1,0.3l-0.8,4c-0.5-0.3-1.1-0.5-1.8-0.5
				c-2.5,0-4.7,2-4.7,7.7v6.2H784.6z"/>
			<path class="st7" d="M803.8,995.1v2.8c1.3-1.8,3.2-3.1,5.5-3.1c3.2,0,5.4,1.8,5.4,5.3v12.5h-4.4v-11.2c0-2.1-1.1-2.9-2.5-2.9
				c-2.1,0-4,2.5-4,7.1v7h-4.4v-17.5H803.8z"/>
			<path class="st7" d="M830.9,997.7l-2.6,2.4c-0.8-1-2-1.5-3-1.5c-0.8,0-1.6,0.5-1.6,1.5c0,0.8,0.6,1.3,1.7,1.7
				c2.4,0.9,6.4,1.6,6.4,5.4c0,3.2-2.5,5.8-6.3,5.8c-3.7,0-6.1-2.6-7-4.7l3.5-1.8c0.6,1.7,1.8,2.9,3.5,2.9c1.3,0,2.2-0.6,2.2-1.9
				c0-1.5-2.3-1.8-4.4-2.7c-1.9-0.8-3.6-2-3.6-4.7c0-2.7,2.2-5.1,5.7-5.1C827.8,994.9,829.8,996,830.9,997.7z"/>
		</g>
	</g>
	<g>
		<polygon class="st7" points="1216.3,671.1 1216.3,657.8 1260,671.1 1216.3,684.4 		"/>
	</g>
	<g>
		<rect x="1193.7" y="669.1" class="st7" width="20.4" height="3.4"/>
	</g>
	<g>
		<polygon class="st7" points="1431.2,671.1 1431.2,657.8 1474.8,671.1 1431.2,684.4 		"/>
	</g>
	<g>
		<rect x="1408.6" y="669.1" class="st7" width="20.4" height="3.4"/>
	</g>
	<g>
		<path class="st3" d="M1189.1,710h-2v-0.7h1.3v-0.5h0.7V710z M1185.4,710h-1.7v-0.7h1.7V710z M1182.1,710h-1.7v-0.7h1.7V710z
			 M1178.8,710h-1.7v-0.7h1.7V710z M1175.4,710h-1.7v-0.7h1.7V710z M1172.1,710h-1.7v-0.7h1.7V710z M1168.8,710h-1.7v-0.7h1.7V710z
			 M1165.5,710h-1.7v-0.7h1.7V710z M1162.2,710h-1.7v-0.7h1.7V710z M1158.8,710h-1.7v-0.7h1.7V710z M1155.5,710h-1.7v-0.7h1.7V710z
			 M1152.2,710h-1.7v-0.7h1.7V710z M1148.9,710h-1.7v-0.7h1.7V710z M1145.5,710h-1.7v-0.7h1.7V710z M1142.2,710h-1.7v-0.7h1.7V710z
			 M1138.9,710h-1.7v-0.7h1.7V710z M1135.6,710h-1.7v-0.7h1.7V710z M1132.3,710h-1.7v-0.7h1.7V710z M1128.9,710h-1.7v-0.7h1.7V710z
			 M1125.6,710h-1.7v-0.7h1.7V710z M1122.3,710h-1.7v-0.7h1.7V710z M1119,710h-1.7v-0.7h1.7V710z M1115.6,710h-1.7v-0.7h1.7V710z
			 M1112.3,710h-1.7v-0.7h1.7V710z M1109,710h-1.7v-0.7h1.7V710z M1105.7,710h-1.7v-0.7h1.7V710z M1102.4,710h-1.7v-0.7h1.7V710z
			 M1099,710h-1.7v-0.7h1.7V710z M1095.7,710h-1.7v-0.7h1.7V710z M1092.4,710h-1.7v-0.7h1.7V710z M1089.1,710h-1.7v-0.7h1.7V710z
			 M1085.8,710h-1.7v-0.7h1.7V710z M1082.4,710h-1.7v-0.7h1.7V710z M1079.1,710h-1.7v-0.7h1.7V710z M1075.8,710h-1.7v-0.7h1.7V710z
			 M1072.5,710h-1.7v-0.7h1.7V710z M1069.1,710h-1.7v-0.7h1.7V710z M1065.8,710h-1.7v-0.7h1.7V710z M1062.5,710h-1.7v-0.7h1.7V710z
			 M1059.2,710h-1.7v-0.7h1.7V710z M1055.9,710h-1.7v-0.7h1.7V710z M1052.5,710h-1.7v-0.7h1.7V710z M1049.8,709.5h-0.7v-1.7h0.7
			V709.5z M1189.1,707.2h-0.7v-1.7h0.7V707.2z M1049.8,706.1h-0.7v-1.7h0.7V706.1z M1189.1,703.9h-0.7v-1.7h0.7V703.9z
			 M1049.8,702.8h-0.7v-1.7h0.7V702.8z M1189.1,700.6h-0.7v-1.7h0.7V700.6z M1049.8,699.5h-0.7v-1.7h0.7V699.5z M1189.1,697.2h-0.7
			v-1.7h0.7V697.2z M1049.8,696.2h-0.7v-1.7h0.7V696.2z M1189.1,693.9h-0.7v-1.7h0.7V693.9z M1049.8,692.9h-0.7v-1.7h0.7V692.9z
			 M1189.1,690.6h-0.7v-1.7h0.7V690.6z M1049.8,689.5h-0.7v-1.7h0.7V689.5z M1189.1,687.3h-0.7v-1.7h0.7V687.3z M1049.8,686.2h-0.7
			v-1.7h0.7V686.2z M1189.1,683.9h-0.7v-1.7h0.7V683.9z M1049.8,682.9h-0.7v-1.7h0.7V682.9z M1189.1,680.6h-0.7V679h0.7V680.6z
			 M1049.8,679.6h-0.7v-1.7h0.7V679.6z M1189.1,677.3h-0.7v-1.7h0.7V677.3z M1049.8,676.2h-0.7v-1.7h0.7V676.2z M1189.1,674h-0.7
			v-1.7h0.7V674z M1049.8,672.9h-0.7v-1.7h0.7V672.9z M1189.1,670.7h-0.7V669h0.7V670.7z M1049.8,669.6h-0.7v-1.7h0.7V669.6z
			 M1189.1,667.3h-0.7v-1.7h0.7V667.3z M1049.8,666.3h-0.7v-1.7h0.7V666.3z M1189.1,664h-0.7v-1.7h0.7V664z M1049.8,663h-0.7v-1.7
			h0.7V663z M1189.1,660.7h-0.7V659h0.7V660.7z M1049.8,659.6h-0.7V658h0.7V659.6z M1189.1,657.4h-0.7v-1.7h0.7V657.4z
			 M1049.8,656.3h-0.7v-1.7h0.7V656.3z M1189.1,654h-0.7v-1.7h0.7V654z M1049.8,653h-0.7v-1.7h0.7V653z M1189.1,650.7h-0.7v-1.7h0.7
			V650.7z M1049.8,649.7h-0.7V648h0.7V649.7z M1189.1,647.4h-0.7v-1.7h0.7V647.4z M1049.8,646.3h-0.7v-1.7h0.7V646.3z M1189.1,644.1
			h-0.7v-1.7h0.7V644.1z M1049.8,643h-0.7v-1.7h0.7V643z M1189.1,640.8h-0.7v-1.7h0.7V640.8z M1049.8,639.7h-0.7V638h0.7V639.7z
			 M1189.1,637.4h-0.7v-1.7h0.7V637.4z M1049.8,636.4h-0.7v-1.7h0.7V636.4z M1189.1,634.1h-0.7v-1.7h0.7V634.1z M1049.8,633.1h-0.7
			v-1.7h0.7V633.1z M1189.1,630.8h-0.7v-1.7h0.7V630.8z M1049.8,629.7h-0.7v-1.7h0.7V629.7z M1189.1,627.5h-0.7v-1.7h0.7V627.5z
			 M1049.8,626.4h-0.7v-1.7h0.7V626.4z M1189.1,624.2h-0.7v-1.7h0.7V624.2z M1049.8,623.1h-0.7v-1.7h0.7V623.1z M1189.1,620.8h-0.7
			v-1.7h0.7V620.8z M1049.8,619.8h-0.7v-1.7h0.7V619.8z M1189.1,617.5h-0.7V616h0.1v-0.3h0.5V617.5z M1049.8,616.4h-0.7v-0.7h1.6
			v0.7L1049.8,616.4L1049.8,616.4z M1186.9,616.4h-1.7v-0.7h1.7V616.4z M1183.6,616.4h-1.7v-0.7h1.7V616.4z M1180.2,616.4h-1.7v-0.7
			h1.7V616.4z M1176.9,616.4h-1.7v-0.7h1.7V616.4z M1173.6,616.4h-1.7v-0.7h1.7V616.4z M1170.3,616.4h-1.7v-0.7h1.7V616.4z
			 M1167,616.4h-1.7v-0.7h1.7V616.4z M1163.6,616.4h-1.7v-0.7h1.7V616.4z M1160.3,616.4h-1.7v-0.7h1.7V616.4z M1157,616.4h-1.7v-0.7
			h1.7V616.4z M1153.7,616.4h-1.7v-0.7h1.7V616.4z M1150.3,616.4h-1.7v-0.7h1.7V616.4z M1147,616.4h-1.7v-0.7h1.7V616.4z
			 M1143.7,616.4h-1.7v-0.7h1.7V616.4z M1140.4,616.4h-1.7v-0.7h1.7V616.4z M1137.1,616.4h-1.7v-0.7h1.7V616.4z M1133.7,616.4h-1.7
			v-0.7h1.7V616.4z M1130.4,616.4h-1.7v-0.7h1.7V616.4z M1127.1,616.4h-1.7v-0.7h1.7V616.4z M1123.8,616.4h-1.7v-0.7h1.7V616.4z
			 M1120.4,616.4h-1.7v-0.7h1.7V616.4z M1117.1,616.4h-1.7v-0.7h1.7V616.4z M1113.8,616.4h-1.7v-0.7h1.7V616.4z M1110.5,616.4h-1.7
			v-0.7h1.7V616.4z M1107.2,616.4h-1.7v-0.7h1.7V616.4z M1103.8,616.4h-1.7v-0.7h1.7V616.4z M1100.5,616.4h-1.7v-0.7h1.7V616.4z
			 M1097.2,616.4h-1.7v-0.7h1.7V616.4z M1093.9,616.4h-1.7v-0.7h1.7V616.4z M1090.6,616.4h-1.7v-0.7h1.7V616.4z M1087.2,616.4h-1.7
			v-0.7h1.7V616.4z M1083.9,616.4h-1.7v-0.7h1.7V616.4z M1080.6,616.4h-1.7v-0.7h1.7V616.4z M1077.3,616.4h-1.7v-0.7h1.7V616.4z
			 M1073.9,616.4h-1.7v-0.7h1.7V616.4z M1070.6,616.4h-1.7v-0.7h1.7V616.4z M1067.3,616.4h-1.7v-0.7h1.7V616.4z M1064,616.4h-1.7
			v-0.7h1.7V616.4z M1060.7,616.4h-1.7v-0.7h1.7V616.4z M1057.3,616.4h-1.7v-0.7h1.7V616.4z M1054,616.4h-1.7v-0.7h1.7V616.4z"/>
	</g>
	<g>
		<rect x="1924.7" y="622.3" class="st3" width="248.5" height="93.7"/>
	</g>
	<g>
		<rect x="1652.7" y="502.6" class="st8" width="0.3" height="115.3"/>
	</g>
	<g>
		<rect x="1652.7" y="731.4" class="st8" width="0.3" height="115.3"/>
	</g>
	<g>
		<rect x="1479.1" y="670.4" class="st8" width="125.6" height="0.3"/>
	</g>
	<g>
		<rect x="1707.2" y="670.4" class="st8" width="125.6" height="0.3"/>
	</g>
	<g>
		<polygon class="st4" points="1477.7,799.1 1477.7,774.4 1477.7,749.7 1813.2,749.7 1849.2,774.4 1813.2,799.1 		"/>
	</g>
	<g>
		<defs>
			<rect id="SVGID_7_" x="640.7" y="305.2" width="1532.5" height="834.6"/>
		</defs>
		<clipPath id="SVGID_8_">
			<use xlink:href="#SVGID_7_"  style="overflow:visible;"/>
		</clipPath>
		<g class="st9">
			<path class="st2" d="M1107.6,1067.8l-8.1-8.2c-4.2,6.6-10.3,11.7-17.3,14.9l-0.2,0.9L1107.6,1067.8z"/>
		</g>
		<g class="st9">
			<path class="st2" d="M1084.6,1065.2c4-2.8,7.3-6.4,9.8-10.7l-5.5-5.6L1084.6,1065.2z"/>
		</g>
		<g class="st9">
			<path class="st2" d="M1033.3,1030.1c4.6-17.5,22.8-28.1,40.5-23.6c17.8,4.5,28.5,22.5,23.9,40c-0.7,2.9-1.9,5.5-3.3,8l5.1,5.1
				c2.2-3.4,3.9-7.2,5-11.4c5.6-21.3-7.4-43-28.9-48.5c-21.5-5.5-43.5,7.3-49.1,28.6c-4.5,17.3,3.3,35,17.9,43.9l4.7-5.4
				C1036.3,1059.7,1029.4,1044.8,1033.3,1030.1"/>
		</g>
		<g class="st9">
			<path class="st2" d="M1099.4,1059.6l-5.1-5.1c-2.5,4.3-5.8,7.9-9.8,10.7l-2.4,9.4C1089.1,1071.3,1095.2,1066.2,1099.4,1059.6"/>
		</g>
		<g class="st9">
			<path class="st2" d="M1216.1,1067.8l-8.1-8.2c-4.2,6.6-10.3,11.7-17.3,14.9l-0.2,0.9L1216.1,1067.8z"/>
		</g>
		<g class="st9">
			<path class="st2" d="M1193.1,1065.2c4-2.8,7.3-6.4,9.8-10.7l-5.5-5.6L1193.1,1065.2z"/>
		</g>
		<g class="st9">
			<path class="st2" d="M1141.8,1030.1c4.6-17.5,22.8-28.1,40.5-23.6c17.8,4.5,28.5,22.5,23.9,40c-0.7,2.9-1.9,5.5-3.3,8l5.1,5.1
				c2.2-3.4,3.9-7.2,5-11.4c5.6-21.3-7.4-43-28.9-48.5c-21.5-5.5-43.5,7.3-49.1,28.6c-4.5,17.3,3.3,35,17.9,43.9l4.7-5.4
				C1144.8,1059.7,1137.9,1044.8,1141.8,1030.1"/>
		</g>
		<g class="st9">
			<path class="st2" d="M1208,1059.6l-5.1-5.1c-2.5,4.3-5.8,7.9-9.8,10.7l-2.4,9.4C1197.7,1071.3,1203.7,1066.2,1208,1059.6"/>
		</g>
		<g class="st9">
			<path class="st2" d="M1324.6,1067.8l-8.1-8.2c-4.2,6.6-10.3,11.7-17.3,14.9l-0.2,0.9L1324.6,1067.8z"/>
		</g>
		<g class="st9">
			<path class="st2" d="M1301.6,1065.2c4-2.8,7.3-6.4,9.8-10.7l-5.5-5.6L1301.6,1065.2z"/>
		</g>
		<g class="st9">
			<path class="st2" d="M1250.3,1030.1c4.6-17.5,22.8-28.1,40.5-23.6c17.8,4.5,28.5,22.5,23.9,40c-0.7,2.9-1.9,5.5-3.3,8l5.1,5.1
				c2.2-3.4,3.9-7.2,5-11.4c5.6-21.3-7.4-43-28.9-48.5c-21.5-5.5-43.5,7.3-49.1,28.6c-4.5,17.3,3.3,35,17.9,43.9l4.7-5.4
				C1253.4,1059.7,1246.4,1044.8,1250.3,1030.1"/>
		</g>
		<g class="st9">
			<path class="st2" d="M1316.5,1059.6l-5.1-5.1c-2.5,4.3-5.8,7.9-9.8,10.7l-2.4,9.4C1306.2,1071.3,1312.2,1066.2,1316.5,1059.6"/>
		</g>
		<g class="st9">
			<path class="st2" d="M1433.1,1067.8l-8.1-8.2c-4.2,6.6-10.3,11.7-17.3,14.9l-0.2,0.9L1433.1,1067.8z"/>
		</g>
		<g class="st9">
			<path class="st2" d="M1410.1,1065.2c4-2.8,7.3-6.4,9.8-10.7l-5.5-5.6L1410.1,1065.2z"/>
		</g>
		<g class="st9">
			<path class="st2" d="M1358.8,1030.1c4.6-17.5,22.8-28.1,40.5-23.6c17.8,4.5,28.5,22.5,23.9,40c-0.7,2.9-1.9,5.5-3.3,8l5.1,5.1
				c2.2-3.4,3.9-7.2,5-11.4c5.6-21.3-7.4-43-28.9-48.5c-21.5-5.5-43.5,7.3-49.1,28.6c-4.5,17.3,3.3,35,17.9,43.9l4.7-5.4
				C1361.9,1059.7,1355,1044.8,1358.8,1030.1"/>
		</g>
		<g class="st9">
			<path class="st2" d="M1425,1059.6l-5.1-5.1c-2.5,4.3-5.8,7.9-9.8,10.7l-2.4,9.4C1414.7,1071.3,1420.8,1066.2,1425,1059.6"/>
		</g>
		<g class="st9">
			<path class="st2" d="M1541.6,1067.8l-8.1-8.2c-4.2,6.6-10.3,11.7-17.3,14.9l-0.2,0.9L1541.6,1067.8z"/>
		</g>
		<g class="st9">
			<path class="st2" d="M1518.6,1065.2c4-2.8,7.3-6.4,9.8-10.7l-5.5-5.6L1518.6,1065.2z"/>
		</g>
		<g class="st9">
			<path class="st2" d="M1467.3,1030.1c4.6-17.5,22.8-28.1,40.5-23.6c17.8,4.5,28.5,22.5,23.9,40c-0.7,2.9-1.9,5.5-3.3,8l5.1,5.1
				c2.2-3.4,3.9-7.2,5-11.4c5.6-21.3-7.4-43-28.9-48.5c-21.5-5.5-43.5,7.3-49.1,28.6c-4.5,17.3,3.3,35,17.9,43.9l4.7-5.4
				C1470.4,1059.7,1463.5,1044.8,1467.3,1030.1"/>
		</g>
		<g class="st9">
			<path class="st2" d="M1533.5,1059.6l-5.1-5.1c-2.5,4.3-5.8,7.9-9.8,10.7l-2.4,9.4C1523.2,1071.3,1529.3,1066.2,1533.5,1059.6"/>
		</g>
		<g class="st9">
			<path class="st2" d="M1650.1,1067.8l-8.1-8.2c-4.2,6.6-10.3,11.7-17.3,14.9l-0.2,0.9L1650.1,1067.8z"/>
		</g>
		<g class="st9">
			<path class="st2" d="M1627.1,1065.2c4-2.8,7.3-6.4,9.8-10.7l-5.5-5.6L1627.1,1065.2z"/>
		</g>
		<g class="st9">
			<path class="st2" d="M1575.8,1030.1c4.6-17.5,22.8-28.1,40.5-23.6c17.8,4.5,28.5,22.5,23.9,40c-0.7,2.9-1.9,5.5-3.3,8l5.1,5.1
				c2.2-3.4,3.9-7.2,5-11.4c5.6-21.3-7.4-43-28.9-48.5c-21.5-5.5-43.5,7.3-49.1,28.6c-4.5,17.3,3.3,35,17.9,43.9l4.7-5.4
				C1578.9,1059.7,1572,1044.8,1575.8,1030.1"/>
		</g>
		<g class="st9">
			<path class="st2" d="M1642,1059.6l-5.1-5.1c-2.5,4.3-5.8,7.9-9.8,10.7l-2.4,9.4C1631.7,1071.3,1637.8,1066.2,1642,1059.6"/>
		</g>
		<g class="st9">
			<path class="st2" d="M1758.6,1067.8l-8.1-8.2c-4.2,6.6-10.3,11.7-17.3,14.9l-0.2,0.9L1758.6,1067.8z"/>
		</g>
		<g class="st9">
			<path class="st2" d="M1735.6,1065.2c4-2.8,7.3-6.4,9.8-10.7l-5.5-5.6L1735.6,1065.2z"/>
		</g>
		<g class="st9">
			<path class="st2" d="M1684.3,1030.1c4.6-17.5,22.8-28.1,40.5-23.6c17.8,4.5,28.5,22.5,23.9,40c-0.7,2.9-1.9,5.5-3.3,8l5.1,5.1
				c2.2-3.4,3.9-7.2,5-11.4c5.6-21.3-7.4-43-28.9-48.5c-21.5-5.5-43.5,7.3-49.1,28.6c-4.5,17.3,3.3,35,17.9,43.9l4.7-5.4
				C1687.4,1059.7,1680.5,1044.8,1684.3,1030.1"/>
		</g>
		<g class="st9">
			<path class="st2" d="M1750.5,1059.6l-5.1-5.1c-2.5,4.3-5.8,7.9-9.8,10.7l-2.4,9.4C1740.2,1071.3,1746.3,1066.2,1750.5,1059.6"/>
		</g>
	</g>
	<g>
		<defs>
			<rect id="SVGID_9_" x="640.7" y="305.2" width="1532.5" height="834.6"/>
		</defs>
		<clipPath id="SVGID_10_">
			<use xlink:href="#SVGID_9_"  style="overflow:visible;"/>
		</clipPath>
		<g class="st10">
			<path class="st8" d="M1504.3,759.6c4.2,0,7,2.2,7,6.6c0,2-0.9,3.7-2.4,4.5c2.3,0.9,3.7,2.8,3.7,5.9c0,4.7-3.1,7.3-8.1,7.3h-9.2
				v-24.3H1504.3z M1499.9,763.7v5.3h4.2c1.8,0,2.9-0.7,2.9-2.6s-1.1-2.6-3-2.6H1499.9z M1499.9,773.2v6.5h4.2c2.8,0,4-1.2,4-3.3
				c0-2.1-1.1-3.3-4-3.3H1499.9z"/>
			<path class="st8" d="M1516.1,771c0.6-2.9,3.1-4.9,6.7-4.9c4.2,0,7.4,1.7,7.4,7.3v10.5h-3.6l-0.5-2.2c-1.2,1.5-2.9,2.5-5.4,2.5
				c-3,0-5.4-1.8-5.4-5.3c0-3.5,3.1-5.7,7.6-5.7h3v-0.8c0-1.9-1.5-2.6-3.1-2.6c-1.2,0-2.5,0.4-3.1,2L1516.1,771z M1521.8,780.5
				c2,0,4.1-1.4,4.1-3.6v-0.3h-2.9c-1.9,0-3,0.7-3,2.3C1520,779.6,1520.6,780.5,1521.8,780.5z"/>
			<path class="st8" d="M1550.3,779.2c-1.3,3.3-4.1,5-8,5c-5.8,0-8.6-4.1-8.6-9c0-4.9,2.9-9,8.6-9c3.9,0,6.7,1.7,8,5l-3.9,1.6
				c-0.9-1.8-2.2-2.9-4.1-2.9c-2.7,0-4.1,2.3-4.1,5.3s1.3,5.3,4.1,5.3c2,0,3.2-1,4.1-2.9L1550.3,779.2z"/>
			<path class="st8" d="M1558.7,759.3v14l5.8-6.9h5.4l-7.1,8.1l7.6,9.4h-5.3l-6.3-8.3v8.3h-4.4v-24.6H1558.7z"/>
			<path class="st8" d="M1577.5,759.3v24.6h-4.4v-24.6H1577.5z"/>
			<path class="st8" d="M1590.6,766.1c5.7,0,9,4,9,9c0,5.1-3.3,9-9,9c-5.7,0-9-4-9-9C1581.6,770.1,1584.9,766.1,1590.6,766.1z
				 M1590.6,780.5c2.8,0,4.4-2.5,4.4-5.3c0-2.9-1.6-5.3-4.4-5.3c-2.8,0-4.4,2.5-4.4,5.3C1586.2,778,1587.8,780.5,1590.6,780.5z"/>
			<path class="st8" d="M1610.5,766.1c1.2,0,2.3,0.3,3.3,0.8l3.3-1.7l1.7,2.8l-2.5,1.2c0.5,0.8,0.7,1.7,0.7,2.8
				c0,3.7-2.9,5.8-6.5,5.8c-0.9,0-1.8-0.1-2.6-0.4c-0.5,0.3-0.8,0.8-0.8,1.3c0,0.8,0.6,1.3,1.7,1.3h3.6c3.7,0,6.2,1.8,6.2,5.1
				c0,4.3-4.1,6-8,6c-4.5,0-8-1.9-8-5.8c0-1.4,0.5-2.6,1.4-3.5c-0.6-0.7-0.9-1.6-0.9-2.7c0-1.7,0.9-2.9,2.2-3.7
				c-0.8-0.9-1.2-2.2-1.2-3.6C1604,768.4,1606.9,766.1,1610.5,766.1z M1609,783.7c-0.7,0-1.4,0-2-0.1c-0.3,0.4-0.4,0.9-0.4,1.6
				c0,1.7,1.7,2.5,4,2.5c2.1,0,3.7-0.6,3.7-2.2c0-1.5-1.2-1.8-2.8-1.8H1609z M1610.5,774.4c1.4,0,2.4-0.9,2.4-2.4
				c0-1.5-1-2.4-2.4-2.4c-1.4,0-2.4,1-2.4,2.4C1608.1,773.4,1609.1,774.4,1610.5,774.4z"/>
			<path class="st8" d="M1642.9,773l6.8,10.9h-5.1l-6.6-10.5h-2.4v10.5h-4.6v-24.3h9c4.9,0,7.5,2.9,7.5,6.9
				C1647.5,769.7,1645.9,772.1,1642.9,773z M1643,766.5c0-2-1.2-2.7-2.9-2.7h-4.4v5.5h4.4C1641.7,769.2,1643,768.5,1643,766.5z"/>
			<path class="st8" d="M1669.1,776.5H1657c0.1,1.9,1.5,4,4.2,4c2,0,3.2-0.9,4.3-2.7l3.5,1.3c-1.4,3.1-3.8,5.1-8,5.1
				c-6.1,0-8.5-4.9-8.5-9s2.4-9,8.5-9c5.9,0,8.3,4.8,8.3,8.6V776.5z M1657.1,773.1h7.6c-0.4-1.7-1.5-3.3-3.8-3.3
				C1658.7,769.8,1657.4,771.5,1657.1,773.1z"/>
			<path class="st8" d="M1671.5,766.4h2.2v-0.2c0-4.7,3.3-6.9,8.2-6.9c2.2,0,4.1,0.5,5.1,1l-1.4,3.3c-1.1-0.5-1.9-0.6-3.5-0.6
				c-2.5,0-4.1,1.1-4.1,3.2v0.2h9.9v17.5h-4.4v-13.8h-5.6v13.8h-4.4v-13.8h-2.2V766.4z"/>
			<path class="st8" d="M1697.7,766.4v2.8c1.3-1.8,3.2-3.1,5.5-3.1c3.2,0,5.4,1.8,5.4,5.3v12.5h-4.4v-11.2c0-2.1-1.1-2.9-2.5-2.9
				c-2.1,0-4,2.5-4,7.1v7h-4.4v-17.5H1697.7z"/>
			<path class="st8" d="M1729.4,776.5h-12.2c0.1,1.9,1.5,4,4.2,4c2,0,3.2-0.9,4.3-2.7l3.5,1.3c-1.4,3.1-3.8,5.1-8,5.1
				c-6.1,0-8.5-4.9-8.5-9s2.4-9,8.5-9c5.9,0,8.3,4.8,8.3,8.6V776.5z M1717.3,773.1h7.6c-0.4-1.7-1.5-3.3-3.8-3.3
				C1718.9,769.8,1717.6,771.5,1717.3,773.1z"/>
			<path class="st8" d="M1743.8,783.9v-11.7c0-1.8-0.9-2.4-2.2-2.4c-2.1,0-3.8,2.5-3.8,7.7v6.4h-4.4v-17.5h4.4v2.8
				c1.3-1.9,2.8-3.1,5.1-3.1c2.2,0,4.2,1.1,5,3.6c1.3-2.3,3.2-3.6,5.4-3.6c3.3,0,5.3,2,5.3,5.4v12.4h-4.4v-11.7
				c0-1.8-0.9-2.4-2.2-2.4c-2.1,0-3.8,2.4-3.8,7.3v6.8H1743.8z"/>
			<path class="st8" d="M1779.3,776.5h-12.2c0.1,1.9,1.5,4,4.2,4c2,0,3.2-0.9,4.3-2.7l3.5,1.3c-1.4,3.1-3.8,5.1-8,5.1
				c-6.1,0-8.5-4.9-8.5-9s2.4-9,8.5-9c5.9,0,8.3,4.8,8.3,8.6V776.5z M1767.3,773.1h7.6c-0.4-1.7-1.5-3.3-3.8-3.3
				C1768.9,769.8,1767.6,771.5,1767.3,773.1z"/>
			<path class="st8" d="M1787.8,766.4v2.8c1.3-1.8,3.2-3.1,5.5-3.1c3.2,0,5.4,1.8,5.4,5.3v12.5h-4.4v-11.2c0-2.1-1.1-2.9-2.5-2.9
				c-2.1,0-4,2.5-4,7.1v7h-4.4v-17.5H1787.8z"/>
			<path class="st8" d="M1814,783.5c-1,0.5-1.9,0.6-2.9,0.6c-4,0-6.5-2.1-6.5-6.5v-7.6h-2.7v-3.7h2.7V762l4.4-2.7v7.1h4.7v3.7h-4.7
				v7.6c0,2.2,0.8,2.8,2.3,2.8c0.6,0,1.1-0.1,1.7-0.4L1814,783.5z"/>
		</g>
	</g>
	<g>
		<polygon class="st7" points="1852.7,671.1 1852.7,657.8 1896.4,671.1 1852.7,684.4 		"/>
	</g>
	<g>
		<rect x="1830.1" y="669.1" class="st7" width="20.4" height="3.4"/>
	</g>
	<g>
		<rect x="963.8" y="1094.4" class="st4" width="181.1" height="38.3"/>
	</g>
	<g>
		<defs>
			<rect id="SVGID_11_" x="640.7" y="305.2" width="1532.5" height="834.6"/>
		</defs>
		<clipPath id="SVGID_12_">
			<use xlink:href="#SVGID_11_"  style="overflow:visible;"/>
		</clipPath>
		<g class="st11">
			<path class="st8" d="M984.1,1124.3h-4.6V1100h4.6V1124.3z"/>
			<path class="st8" d="M994.5,1106.8v2.8c1.3-1.8,3.2-3.1,5.5-3.1c3.2,0,5.4,1.8,5.4,5.3v12.5h-4.4v-11.2c0-2.1-1.1-2.9-2.5-2.9
				c-2.1,0-4,2.5-4,7.1v7h-4.4v-17.5H994.5z"/>
			<path class="st8" d="M1026.1,1119.5c-1.3,3.3-4.1,5-8,5c-5.8,0-8.6-4.1-8.6-9c0-4.9,2.9-9,8.6-9c3.9,0,6.7,1.7,8,5l-3.9,1.6
				c-0.9-1.8-2.2-2.9-4.1-2.9c-2.7,0-4.1,2.3-4.1,5.3c0,3.1,1.3,5.3,4.1,5.3c2,0,3.2-1,4.1-2.9L1026.1,1119.5z"/>
			<path class="st8" d="M1045.5,1116.9h-12.2c0.1,1.9,1.5,4,4.2,4c2,0,3.2-0.9,4.3-2.7l3.5,1.3c-1.4,3.1-3.8,5.1-8,5.1
				c-6.1,0-8.5-4.9-8.5-9s2.4-9,8.5-9c5.9,0,8.3,4.8,8.3,8.6V1116.9z M1033.5,1113.5h7.6c-0.4-1.7-1.5-3.3-3.8-3.3
				C1035.1,1110.2,1033.8,1111.8,1033.5,1113.5z"/>
			<path class="st8" d="M1058.3,1124.5c-1.8,0-3.5-0.9-4.3-1.9v8.7h-4.4v-24.6h4.4v1.8c0.5-0.9,2.1-2.1,4.3-2.1c5.3,0,8.1,3.6,8.1,9
				C1066.3,1120.9,1063.6,1124.5,1058.3,1124.5z M1057.7,1110.2c-2.3,0-4.1,1.9-4.1,5.3s1.8,5.3,4.1,5.3s4.1-1.9,4.1-5.3
				S1060,1110.2,1057.7,1110.2z"/>
			<path class="st8" d="M1080.6,1123.9c-1,0.5-1.9,0.6-2.9,0.6c-4,0-6.5-2.1-6.5-6.5v-7.6h-2.7v-3.7h2.7v-4.4l4.4-2.7v7.1h4.7v3.7
				h-4.7v7.6c0,2.2,0.8,2.8,2.3,2.8c0.6,0,1.1-0.1,1.7-0.4L1080.6,1123.9z"/>
			<path class="st8" d="M1086.2,1099c1.6,0,2.8,1.2,2.8,2.8c0,1.6-1.2,2.8-2.8,2.8c-1.6,0-2.8-1.2-2.8-2.8
				C1083.4,1100.2,1084.6,1099,1086.2,1099z M1088.4,1106.8v17.5h-4.4v-17.5H1088.4z"/>
			<path class="st8" d="M1101.3,1106.5c5.7,0,9,4,9,9c0,5.1-3.3,9-9,9c-5.7,0-9-4-9-9C1092.3,1110.4,1095.6,1106.5,1101.3,1106.5z
				 M1101.3,1120.9c2.8,0,4.4-2.5,4.4-5.3c0-2.9-1.6-5.3-4.4-5.3c-2.8,0-4.4,2.5-4.4,5.3C1096.8,1118.4,1098.5,1120.9,1101.3,1120.9
				z"/>
			<path class="st8" d="M1118.9,1106.8v2.8c1.3-1.8,3.2-3.1,5.5-3.1c3.2,0,5.4,1.8,5.4,5.3v12.5h-4.4v-11.2c0-2.1-1.1-2.9-2.5-2.9
				c-2.1,0-4,2.5-4,7.1v7h-4.4v-17.5H1118.9z"/>
		</g>
	</g>
	<g>
		<rect x="1676.3" y="1094.4" class="st3" width="189.7" height="38.3"/>
	</g>
	<g>
		<defs>
			<rect id="SVGID_13_" x="640.7" y="305.2" width="1532.5" height="834.6"/>
		</defs>
		<clipPath id="SVGID_14_">
			<use xlink:href="#SVGID_13_"  style="overflow:visible;"/>
		</clipPath>
		<g class="st12">
			<path class="st8" d="M1689.1,1100h18.2v4.2h-6.8v20.1h-4.6v-20.1h-6.8V1100z"/>
			<path class="st8" d="M1710.4,1124.3v-17.5h4.4v2.8c1.3-2,3.2-3.1,5.2-3.1c0.8,0,1.4,0.1,2.1,0.3l-0.8,4c-0.5-0.3-1.1-0.5-1.8-0.5
				c-2.5,0-4.7,2-4.7,7.7v6.2H1710.4z"/>
			<path class="st8" d="M1724.4,1111.4c0.6-2.9,3.1-4.9,6.7-4.9c4.2,0,7.4,1.7,7.4,7.3v10.5h-3.6l-0.5-2.2c-1.2,1.5-2.9,2.5-5.4,2.5
				c-3,0-5.4-1.8-5.4-5.3c0-3.5,3.1-5.7,7.6-5.7h3v-0.8c0-1.9-1.5-2.6-3.1-2.6c-1.2,0-2.5,0.4-3.1,2L1724.4,1111.4z M1730.2,1120.9
				c2,0,4.1-1.4,4.1-3.6v-0.3h-2.9c-1.9,0-3,0.7-3,2.3C1728.3,1120,1728.9,1120.9,1730.2,1120.9z"/>
			<path class="st8" d="M1747.6,1106.8v2.8c1.3-1.8,3.2-3.1,5.5-3.1c3.2,0,5.4,1.8,5.4,5.3v12.5h-4.4v-11.2c0-2.1-1.1-2.9-2.5-2.9
				c-2.1,0-4,2.5-4,7.1v7h-4.4v-17.5H1747.6z"/>
			<path class="st8" d="M1774.8,1109.3l-2.6,2.4c-0.8-1-2-1.5-3-1.5c-0.8,0-1.6,0.5-1.6,1.5c0,0.8,0.6,1.3,1.7,1.7
				c2.4,0.9,6.4,1.6,6.4,5.4c0,3.2-2.5,5.8-6.3,5.8c-3.7,0-6.1-2.6-7-4.7l3.5-1.8c0.6,1.7,1.8,2.9,3.5,2.9c1.3,0,2.2-0.6,2.2-1.9
				c0-1.5-2.3-1.8-4.4-2.7c-1.9-0.8-3.6-2-3.6-4.7c0-2.7,2.2-5.1,5.7-5.1C1771.6,1106.5,1773.7,1107.6,1774.8,1109.3z"/>
			<path class="st8" d="M1781.7,1099c1.6,0,2.8,1.2,2.8,2.8c0,1.6-1.2,2.8-2.8,2.8c-1.6,0-2.8-1.2-2.8-2.8
				C1778.9,1100.2,1780.1,1099,1781.7,1099z M1783.9,1106.8v17.5h-4.4v-17.5H1783.9z"/>
			<path class="st8" d="M1799,1123.9c-1,0.5-1.9,0.6-2.9,0.6c-4,0-6.5-2.1-6.5-6.5v-7.6h-2.7v-3.7h2.7v-4.4l4.4-2.7v7.1h4.7v3.7
				h-4.7v7.6c0,2.2,0.8,2.8,2.3,2.8c0.6,0,1.1-0.1,1.7-0.4L1799,1123.9z"/>
			<path class="st8" d="M1804.6,1099c1.6,0,2.8,1.2,2.8,2.8c0,1.6-1.2,2.8-2.8,2.8s-2.8-1.2-2.8-2.8
				C1801.8,1100.2,1803,1099,1804.6,1099z M1806.8,1106.8v17.5h-4.4v-17.5H1806.8z"/>
			<path class="st8" d="M1819.7,1106.5c5.7,0,9,4,9,9c0,5.1-3.3,9-9,9c-5.7,0-9-4-9-9C1810.7,1110.4,1814,1106.5,1819.7,1106.5z
				 M1819.7,1120.9c2.8,0,4.4-2.5,4.4-5.3c0-2.9-1.6-5.3-4.4-5.3c-2.8,0-4.4,2.5-4.4,5.3C1815.2,1118.4,1816.8,1120.9,1819.7,1120.9
				z"/>
			<path class="st8" d="M1837.3,1106.8v2.8c1.3-1.8,3.2-3.1,5.5-3.1c3.2,0,5.4,1.8,5.4,5.3v12.5h-4.4v-11.2c0-2.1-1.1-2.9-2.5-2.9
				c-2.1,0-4,2.5-4,7.1v7h-4.4v-17.5H1837.3z"/>
		</g>
	</g>
	<g>
		<rect x="1141.6" y="1094.4" class="st2" width="534.6" height="38.3"/>
	</g>
	<g>
		<defs>
			<rect id="SVGID_15_" x="640.7" y="305.2" width="1532.5" height="834.6"/>
		</defs>
		<clipPath id="SVGID_16_">
			<use xlink:href="#SVGID_15_"  style="overflow:visible;"/>
		</clipPath>
		<g class="st13">
			<path class="st8" d="M1319.1,1108.1c-0.9-2.5-2.7-4.2-6.1-4.2c-3.8,0-7,2.6-7,8.3s3.2,8.3,7,8.3c3.4,0,5.1-1.8,6.1-4.2l4.1,1
				c-1.2,4.7-4.8,7.4-10.2,7.4c-6.1,0-11.6-4.3-11.6-12.4c0-8.1,5.5-12.4,11.6-12.4c5.3,0,9,2.7,10.2,7.4L1319.1,1108.1z"/>
			<path class="st8" d="M1334.8,1106.5c5.7,0,9,4,9,9c0,5.1-3.3,9-9,9c-5.7,0-9-4-9-9C1325.9,1110.4,1329.2,1106.5,1334.8,1106.5z
				 M1334.8,1120.9c2.8,0,4.4-2.5,4.4-5.3c0-2.9-1.6-5.3-4.4-5.3c-2.8,0-4.4,2.5-4.4,5.3C1330.4,1118.4,1332,1120.9,1334.8,1120.9z"
				/>
			<path class="st8" d="M1352.5,1106.8v2.8c1.3-1.8,3.2-3.1,5.5-3.1c3.2,0,5.4,1.8,5.4,5.3v12.5h-4.4v-11.2c0-2.1-1.1-2.9-2.5-2.9
				c-2.1,0-4,2.5-4,7.1v7h-4.4v-17.5H1352.5z"/>
			<path class="st8" d="M1379.6,1109.3l-2.6,2.4c-0.8-1-2-1.5-3-1.5c-0.8,0-1.6,0.5-1.6,1.5c0,0.8,0.6,1.3,1.7,1.7
				c2.4,0.9,6.4,1.6,6.4,5.4c0,3.2-2.5,5.8-6.3,5.8c-3.7,0-6.1-2.6-7-4.7l3.5-1.8c0.6,1.7,1.8,2.9,3.5,2.9c1.3,0,2.2-0.6,2.2-1.9
				c0-1.5-2.3-1.8-4.4-2.7c-1.9-0.8-3.6-2-3.6-4.7c0-2.7,2.2-5.1,5.7-5.1C1376.5,1106.5,1378.5,1107.6,1379.6,1109.3z"/>
			<path class="st8" d="M1394.7,1123.9c-1,0.5-1.9,0.6-2.9,0.6c-4,0-6.5-2.1-6.5-6.5v-7.6h-2.7v-3.7h2.7v-4.4l4.4-2.7v7.1h4.7v3.7
				h-4.7v7.6c0,2.2,0.8,2.8,2.3,2.8c0.6,0,1.1-0.1,1.7-0.4L1394.7,1123.9z"/>
			<path class="st8" d="M1398.6,1124.3v-17.5h4.4v2.8c1.3-2,3.2-3.1,5.2-3.1c0.8,0,1.4,0.1,2.1,0.3l-0.8,4c-0.5-0.3-1.1-0.5-1.8-0.5
				c-2.5,0-4.7,2-4.7,7.7v6.2H1398.6z"/>
			<path class="st8" d="M1424,1124.3v-2.8c-1.3,1.8-3.2,3.1-5.5,3.1c-3.2,0-5.4-1.8-5.4-5.3v-12.5h4.4v11.2c0,2.1,1.1,2.9,2.5,2.9
				c2.1,0,4-2.5,4-7.1v-7h4.4v17.5H1424z"/>
			<path class="st8" d="M1449.4,1119.5c-1.3,3.3-4.1,5-8,5c-5.8,0-8.6-4.1-8.6-9c0-4.9,2.9-9,8.6-9c3.9,0,6.7,1.7,8,5l-3.9,1.6
				c-0.9-1.8-2.2-2.9-4.1-2.9c-2.7,0-4.1,2.3-4.1,5.3c0,3.1,1.3,5.3,4.1,5.3c2,0,3.2-1,4.1-2.9L1449.4,1119.5z"/>
			<path class="st8" d="M1463.3,1123.9c-1,0.5-1.9,0.6-2.9,0.6c-4,0-6.5-2.1-6.5-6.5v-7.6h-2.7v-3.7h2.7v-4.4l4.4-2.7v7.1h4.7v3.7
				h-4.7v7.6c0,2.2,0.8,2.8,2.3,2.8c0.6,0,1.1-0.1,1.7-0.4L1463.3,1123.9z"/>
			<path class="st8" d="M1468.9,1099c1.6,0,2.8,1.2,2.8,2.8c0,1.6-1.2,2.8-2.8,2.8c-1.6,0-2.8-1.2-2.8-2.8
				C1466.1,1100.2,1467.3,1099,1468.9,1099z M1471.1,1106.8v17.5h-4.4v-17.5H1471.1z"/>
			<path class="st8" d="M1484,1106.5c5.7,0,9,4,9,9c0,5.1-3.3,9-9,9c-5.7,0-9-4-9-9C1475,1110.4,1478.3,1106.5,1484,1106.5z
				 M1484,1120.9c2.8,0,4.4-2.5,4.4-5.3c0-2.9-1.6-5.3-4.4-5.3c-2.8,0-4.4,2.5-4.4,5.3C1479.5,1118.4,1481.2,1120.9,1484,1120.9z"/>
			<path class="st8" d="M1501.6,1106.8v2.8c1.3-1.8,3.2-3.1,5.5-3.1c3.2,0,5.4,1.8,5.4,5.3v12.5h-4.4v-11.2c0-2.1-1.1-2.9-2.5-2.9
				c-2.1,0-4,2.5-4,7.1v7h-4.4v-17.5H1501.6z"/>
		</g>
		<g class="st13">
			<path class="st7" d="M1325.3,878.1v24.3h-4.8l-9-16v16h-4.6v-24.3h4.8l9,16v-16H1325.3z"/>
			<path class="st7" d="M1346.7,895h-12.2c0.1,1.9,1.5,4,4.2,4c2,0,3.2-0.9,4.3-2.7l3.5,1.3c-1.4,3.1-3.8,5.1-8,5.1
				c-6.1,0-8.5-4.9-8.5-9s2.4-9,8.5-9c5.9,0,8.3,4.8,8.3,8.6V895z M1334.6,891.6h7.6c-0.4-1.7-1.5-3.3-3.8-3.3
				C1336.2,888.3,1334.9,890,1334.6,891.6z"/>
			<path class="st7" d="M1363.9,884.9l-5.1,8.2l5.9,9.3h-4.6l-3.6-5.7l-3.6,5.7h-4.6l5.9-9.3l-5.1-8.2h4.6l2.9,4.5l2.9-4.5H1363.9z"
				/>
			<path class="st7" d="M1377.6,902c-1,0.5-1.9,0.6-2.9,0.6c-4,0-6.5-2.1-6.5-6.5v-7.6h-2.7v-3.7h2.7v-4.4l4.4-2.7v7.1h4.7v3.7h-4.7
				v7.6c0,2.2,0.8,2.8,2.3,2.8c0.6,0,1.1-0.1,1.7-0.4L1377.6,902z"/>
			<path class="st7" d="M1390.2,902.4v-17.5h4.4v2.8c1.3-2,3.2-3.1,5.2-3.1c0.8,0,1.4,0.1,2.1,0.3l-0.8,4c-0.5-0.3-1.1-0.5-1.8-0.5
				c-2.5,0-4.7,2-4.7,7.7v6.2H1390.2z"/>
			<path class="st7" d="M1420.5,895h-12.2c0.1,1.9,1.5,4,4.2,4c2,0,3.2-0.9,4.3-2.7l3.5,1.3c-1.4,3.1-3.8,5.1-8,5.1
				c-6.1,0-8.5-4.9-8.5-9s2.4-9,8.5-9c5.9,0,8.3,4.8,8.3,8.6V895z M1408.4,891.6h7.6c-0.4-1.7-1.5-3.3-3.8-3.3
				C1410,888.3,1408.7,890,1408.4,891.6z"/>
			<path class="st7" d="M1428.8,877.8v24.6h-4.4v-24.6H1428.8z"/>
			<path class="st7" d="M1449.8,895h-12.2c0.1,1.9,1.5,4,4.2,4c2,0,3.2-0.9,4.3-2.7l3.5,1.3c-1.4,3.1-3.8,5.1-8,5.1
				c-6.1,0-8.5-4.9-8.5-9s2.4-9,8.5-9c5.9,0,8.3,4.8,8.3,8.6V895z M1437.7,891.6h7.6c-0.4-1.7-1.5-3.3-3.8-3.3
				C1439.3,888.3,1438,890,1437.7,891.6z"/>
			<path class="st7" d="M1453,889.5c0.6-2.9,3.1-4.9,6.7-4.9c4.2,0,7.4,1.7,7.4,7.3v10.5h-3.6l-0.5-2.2c-1.2,1.5-2.9,2.5-5.4,2.5
				c-3,0-5.4-1.8-5.4-5.3c0-3.5,3.1-5.7,7.6-5.7h3v-0.8c0-1.9-1.5-2.6-3.1-2.6c-1.2,0-2.5,0.4-3.1,2L1453,889.5z M1458.7,899
				c2,0,4.1-1.4,4.1-3.6V895h-2.9c-1.9,0-3,0.7-3,2.3C1456.9,898.1,1457.5,899,1458.7,899z"/>
			<path class="st7" d="M1482.7,887.5l-2.6,2.4c-0.8-1-2-1.5-3-1.5c-0.8,0-1.6,0.5-1.6,1.5c0,0.8,0.6,1.3,1.7,1.7
				c2.4,0.9,6.4,1.6,6.4,5.4c0,3.2-2.5,5.8-6.3,5.8c-3.7,0-6.1-2.6-7-4.7l3.5-1.8c0.6,1.7,1.8,2.9,3.5,2.9c1.3,0,2.2-0.6,2.2-1.9
				c0-1.5-2.3-1.8-4.4-2.7c-1.9-0.8-3.6-2-3.6-4.7c0-2.7,2.2-5.1,5.7-5.1C1479.6,884.6,1481.6,885.8,1482.7,887.5z"/>
			<path class="st7" d="M1503.4,895h-12.2c0.1,1.9,1.5,4,4.2,4c2,0,3.2-0.9,4.3-2.7l3.5,1.3c-1.4,3.1-3.8,5.1-8,5.1
				c-6.1,0-8.5-4.9-8.5-9s2.4-9,8.5-9c5.9,0,8.3,4.8,8.3,8.6V895z M1491.3,891.6h7.6c-0.4-1.7-1.5-3.3-3.8-3.3
				C1492.9,888.3,1491.6,890,1491.3,891.6z"/>
		</g>
		<g class="st13">
			<path class="st8" d="M1978.6,640.8c-0.9-1.8-2-2.6-3.4-2.6c-1.3,0-2.4,0.9-2.4,2.2c0,4.2,10.5,3.7,10.5,10.9
				c0,4.8-3.2,7.6-7.9,7.6c-4.5,0-7.7-3.1-8.5-6.8l3.7-2.3c0.7,2.6,2.2,4.9,4.9,4.9c1.9,0,3.2-0.9,3.2-3.2c0-4-10.3-3.2-10.3-10.9
				c0-3.7,2.8-6.6,6.7-6.6c3.3,0,5.8,1.6,7.1,4.4L1978.6,640.8z"/>
			<path class="st8" d="M1995.2,640.9c5.7,0,9,4,9,9c0,5.1-3.3,9-9,9c-5.7,0-9-4-9-9C1986.2,644.9,1989.5,640.9,1995.2,640.9z
				 M1995.2,655.3c2.8,0,4.4-2.5,4.4-5.3c0-2.9-1.6-5.3-4.4-5.3c-2.8,0-4.4,2.5-4.4,5.3C1990.8,652.8,1992.4,655.3,1995.2,655.3z"/>
			<path class="st8" d="M2006.8,641.2h2.2v-0.9c0-4.3,2.5-6.2,6.1-6.2c1.4,0,2.5,0.3,3.3,0.7l-0.9,3.5c-0.7-0.3-1.4-0.5-2.1-0.5
				c-1.2,0-2,0.6-2,2.2v1.2h3.7v3.7h-3.7v13.8h-4.4v-13.8h-2.2V641.2z"/>
			<path class="st8" d="M2031.4,658.3c-1,0.5-1.9,0.6-2.9,0.6c-4,0-6.5-2.1-6.5-6.5v-7.6h-2.7v-3.7h2.7v-4.4l4.4-2.7v7.1h4.7v3.7
				h-4.7v7.6c0,2.2,0.8,2.8,2.3,2.8c0.6,0,1.1-0.1,1.7-0.4L2031.4,658.3z"/>
			<path class="st8" d="M2058.4,641.2l-5.7,17.5h-3.9l-3.1-11.3l-3.1,11.3h-3.9l-5.7-17.5h4.4l3.2,12l3-12h4.1l3,12l3.2-12H2058.4z"
				/>
			<path class="st8" d="M2061.3,645.8c0.6-2.9,3.1-4.9,6.7-4.9c4.2,0,7.4,1.7,7.4,7.3v10.5h-3.6l-0.5-2.2c-1.2,1.5-2.9,2.5-5.4,2.5
				c-3,0-5.4-1.8-5.4-5.3s3.1-5.7,7.6-5.7h3v-0.8c0-1.9-1.5-2.6-3.1-2.6c-1.2,0-2.5,0.4-3.1,2L2061.3,645.8z M2067,655.3
				c2,0,4.1-1.4,4.1-3.6v-0.3h-2.9c-1.9,0-3,0.7-3,2.3C2065.2,654.4,2065.8,655.3,2067,655.3z"/>
			<path class="st8" d="M2080.2,658.7v-17.5h4.4v2.8c1.3-2,3.2-3.1,5.2-3.1c0.8,0,1.4,0.1,2.1,0.3l-0.8,4c-0.5-0.3-1.1-0.5-1.8-0.5
				c-2.5,0-4.7,2-4.7,7.7v6.2H2080.2z"/>
			<path class="st8" d="M2110.4,651.3h-12.2c0.1,1.9,1.5,4,4.2,4c2,0,3.2-0.9,4.3-2.7l3.5,1.3c-1.4,3.1-3.8,5.1-8,5.1
				c-6.1,0-8.5-4.9-8.5-9c0-4.1,2.4-9,8.5-9c5.9,0,8.3,4.8,8.3,8.6V651.3z M2098.4,647.9h7.6c-0.4-1.7-1.5-3.3-3.8-3.3
				C2100,644.6,2098.7,646.3,2098.4,647.9z"/>
		</g>
		<g class="st13">
			<path class="st8" d="M1961.7,700.4h-4.6v-24.3h4.6V700.4z"/>
			<path class="st8" d="M1972,682.9v2.8c1.3-1.8,3.2-3.1,5.5-3.1c3.2,0,5.4,1.8,5.4,5.3v12.5h-4.4v-11.2c0-2.1-1.1-2.9-2.5-2.9
				c-2.1,0-4,2.5-4,7.1v7h-4.4v-17.5H1972z"/>
			<path class="st8" d="M2003.7,695.6c-1.3,3.3-4.1,5-8,5c-5.8,0-8.6-4.1-8.6-9c0-4.9,2.9-9,8.6-9c3.9,0,6.7,1.7,8,5l-3.9,1.6
				c-0.9-1.8-2.2-2.9-4.1-2.9c-2.7,0-4.1,2.3-4.1,5.3c0,3.1,1.3,5.3,4.1,5.3c2,0,3.2-1,4.1-2.9L2003.7,695.6z"/>
			<path class="st8" d="M2007.7,700.4v-17.5h4.4v2.8c1.3-2,3.2-3.1,5.2-3.1c0.8,0,1.4,0.1,2.1,0.3l-0.8,4c-0.5-0.3-1.1-0.5-1.8-0.5
				c-2.5,0-4.7,2-4.7,7.7v6.2H2007.7z"/>
			<path class="st8" d="M2037.9,693h-12.2c0.1,1.9,1.5,4,4.2,4c2,0,3.2-0.9,4.3-2.7l3.5,1.3c-1.4,3.1-3.8,5.1-8,5.1
				c-6.1,0-8.5-4.9-8.5-9c0-4.1,2.4-9,8.5-9c5.9,0,8.3,4.8,8.3,8.6V693z M2025.9,689.6h7.6c-0.4-1.7-1.5-3.3-3.8-3.3
				C2027.5,686.3,2026.2,687.9,2025.9,689.6z"/>
			<path class="st8" d="M2052.4,700.4v-11.7c0-1.8-0.9-2.4-2.2-2.4c-2.1,0-3.8,2.5-3.8,7.7v6.4h-4.4v-17.5h4.4v2.8
				c1.3-1.9,2.8-3.1,5.1-3.1c2.2,0,4.2,1.1,5,3.6c1.3-2.3,3.2-3.6,5.4-3.6c3.3,0,5.3,2,5.3,5.4v12.4h-4.4v-11.7
				c0-1.8-0.9-2.4-2.2-2.4c-2.1,0-3.8,2.4-3.8,7.3v6.8H2052.4z"/>
			<path class="st8" d="M2087.9,693h-12.2c0.1,1.9,1.5,4,4.2,4c2,0,3.2-0.9,4.3-2.7l3.5,1.3c-1.4,3.1-3.8,5.1-8,5.1
				c-6.1,0-8.5-4.9-8.5-9c0-4.1,2.4-9,8.5-9c5.9,0,8.3,4.8,8.3,8.6V693z M2075.8,689.6h7.6c-0.4-1.7-1.5-3.3-3.8-3.3
				C2077.4,686.3,2076.1,687.9,2075.8,689.6z"/>
			<path class="st8" d="M2096.3,682.9v2.8c1.3-1.8,3.2-3.1,5.5-3.1c3.2,0,5.4,1.8,5.4,5.3v12.5h-4.4v-11.2c0-2.1-1.1-2.9-2.5-2.9
				c-2.1,0-4,2.5-4,7.1v7h-4.4v-17.5H2096.3z"/>
			<path class="st8" d="M2122.5,700c-1,0.5-1.9,0.6-2.9,0.6c-4,0-6.5-2.1-6.5-6.5v-7.6h-2.7v-3.7h2.7v-4.4l4.4-2.7v7.1h4.7v3.7h-4.7
				v7.6c0,2.2,0.8,2.8,2.3,2.8c0.6,0,1.1-0.1,1.7-0.4L2122.5,700z"/>
		</g>
		<g class="st13">
			<path class="st2" d="M1065.6,985l-0.3-0.9c92.4-33.6,184.1-54.4,272.6-62.1c70.8-6.1,139.8-3.8,205,6.9c58,9.5,102.2,24,129,34.5
				c29.1,11.4,44.7,20.6,44.9,20.7l-0.5,0.9c-0.6-0.4-62.8-36.9-173.6-55.1c-65.1-10.7-134-13-204.7-6.9
				C1249.5,930.6,1157.9,951.4,1065.6,985z"/>
		</g>
	</g>
	<g>
		<polygon class="st2" points="1086.7,962.5 1091.8,974.8 1096.8,987.2 1051.3,991.1 		"/>
	</g>
	<g>
		<defs>
			<rect id="SVGID_17_" x="640.7" y="305.2" width="1532.5" height="834.6"/>
		</defs>
		<clipPath id="SVGID_18_">
			<use xlink:href="#SVGID_17_"  style="overflow:visible;"/>
		</clipPath>
		<g class="st14">
			<path class="st5" d="M770.3,932.3c0,0.2-0.1,0.3-0.1,0.5c0,0.2,0,0.3,0.1,0.5c0-0.2,0.1-0.3,0.1-0.5
				C770.4,932.6,770.3,932.5,770.3,932.3"/>
		</g>
		<g class="st14">
			<path class="st5" d="M755.6,947.4c4.5,0,8.6-2.1,11.3-5.3c-2.1-2.4-3.4-5.5-3.5-8.9c-0.3,4-3.6,7.3-7.8,7.3
				c-4.3,0-7.9-3.5-7.9-7.8c0-4.3,3.5-7.8,7.9-7.8c4.2,0,7.5,3.2,7.8,7.3c0.1-3.4,1.4-6.4,3.5-8.9c-2.7-3.2-6.7-5.3-11.3-5.3
				c-8.2,0-14.8,6.6-14.8,14.6S747.4,947.4,755.6,947.4"/>
		</g>
		<g class="st14">
			<path class="st5" d="M766.9,952.6c-3.4-1.8-7.2-2.8-11.3-2.8c-13.4,0-24.3,10.8-24.3,24c0,1.9,1.6,3.4,3.5,3.4
				c1.9,0,3.5-1.5,3.5-3.4c0-9.4,7.8-17.1,17.3-17.1c1.7,0,3.3,0.3,4.8,0.8C762.3,955.5,764.4,953.9,766.9,952.6"/>
		</g>
		<g class="st14">
			<path class="st5" d="M763.4,932.3c0,0.2-0.1,0.3-0.1,0.5c0,0.2,0,0.3,0.1,0.5c0-0.2,0.1-0.3,0.1-0.5
				C763.4,932.6,763.4,932.5,763.4,932.3"/>
		</g>
		<g class="st14">
			<path class="st5" d="M778.1,925c4.3,0,7.9,3.5,7.9,7.8c0,4.3-3.5,7.8-7.9,7.8c-4.2,0-7.5-3.2-7.8-7.3c-0.1,3.4-1.4,6.4-3.5,8.9
				c2.7,3.2,6.7,5.3,11.3,5.3c8.2,0,14.8-6.6,14.8-14.6s-6.6-14.6-14.8-14.6c-4.5,0-8.6,2.1-11.3,5.3c2.1,2.4,3.4,5.5,3.5,8.9
				C770.6,928.3,774,925,778.1,925"/>
		</g>
		<g class="st14">
			<path class="st5" d="M763.4,932.8c0,0.2,0,0.3-0.1,0.5c0.1,3.4,1.4,6.4,3.5,8.9c2.1-2.4,3.4-5.5,3.5-8.9c0-0.2-0.1-0.3-0.1-0.5
				c0-0.2,0-0.3,0.1-0.5c-0.1-3.4-1.4-6.4-3.5-8.9c-2.1,2.4-3.4,5.5-3.5,8.9C763.4,932.5,763.4,932.6,763.4,932.8"/>
		</g>
		<g class="st14">
			<path class="st5" d="M778.1,949.9c-4.1,0-7.9,1-11.3,2.8c2.4,1.3,4.6,2.9,6.4,4.9c1.5-0.4,3.2-0.8,4.8-0.8
				c9.6,0,17.3,7.7,17.3,17.1c0,1.9,1.6,3.4,3.5,3.4c1.9,0,3.5-1.5,3.5-3.4C802.4,960.6,791.5,949.9,778.1,949.9"/>
		</g>
		<g class="st14">
			<path class="st5" d="M766.9,952.6c-2.4,1.3-4.6,2.9-6.4,4.9c2.4,0.7,4.6,1.9,6.4,3.5c1.8-1.6,4-2.8,6.4-3.5
				C771.4,955.5,769.3,953.9,766.9,952.6"/>
		</g>
	</g>
</g>
</svg>
